<svg width="182" height="182" viewBox="0 0 182 182" fill="none" xmlns="http://www.w3.org/2000/svg">
<g clip-path="url(#clip0_71_6801)">
<path fill-rule="evenodd" clip-rule="evenodd" d="M54.281 66.6149C55.4075 66.2385 56.3759 65.9086 56.8869 65.7316C59.9932 64.6468 68.0355 62.8886 73.2048 59.7651C77.1495 57.3834 79.4385 54.2023 77.8063 50.1604C76.3227 46.4867 72.1526 44.7055 66.7203 44.3816C55.0291 43.6845 37.4248 49.4615 32.5571 52.5802C32.0259 52.921 31.8708 53.6255 32.2115 54.1567C32.5506 54.6856 33.2551 54.8407 33.7864 54.5C38.4583 51.5084 55.3614 45.989 66.5852 46.6579C70.9721 46.92 74.4935 48.0479 75.6913 51.0159C76.8749 53.9444 74.886 56.0858 72.0263 57.8123C66.9961 60.8532 59.1597 62.5231 56.1346 63.5777C54.2385 64.2398 46.9358 66.5608 46.3578 66.9105C45.6337 67.3478 45.7569 68.0005 45.8135 68.2116C45.8571 68.3753 46.1272 69.1775 47.1569 69.0554C61.8399 67.3239 85.5696 74.8299 102.819 88.6193C119.918 102.287 130.655 122.207 119.444 145.583C119.173 146.151 119.413 146.833 119.979 147.106C120.548 147.377 121.229 147.137 121.501 146.568C133.246 122.075 122.157 101.157 104.245 86.8381C89.1492 74.7697 69.2092 67.4459 54.281 66.6149Z" fill="#EA5D80"/>
<path fill-rule="evenodd" clip-rule="evenodd" d="M120.89 144.782C120.259 142.168 119.715 139.545 118.881 136.978C116.66 130.138 112.904 123.502 107.72 118.482C107.265 118.044 106.544 118.057 106.106 118.508C105.668 118.962 105.681 119.684 106.132 120.122C111.055 124.883 114.604 131.193 116.71 137.682C117.663 140.621 118.233 143.637 118.994 146.625C119.034 146.774 119.326 148.083 119.463 148.342C119.779 148.947 120.297 148.996 120.54 148.988C120.742 148.984 120.984 148.93 121.236 148.758C121.443 148.617 121.771 148.255 122.107 147.679C123.191 145.837 125.101 141.176 125.495 140.444C130.015 132.055 135.629 125.009 141.354 117.443C141.733 116.939 141.634 116.222 141.133 115.842C140.632 115.463 139.916 115.563 139.537 116.065C133.739 123.726 128.064 130.869 123.489 139.361C123.217 139.863 121.859 142.727 120.89 144.782Z" fill="#EA5D80"/>
</g>
<defs>
<clipPath id="clip0_71_6801">
<rect width="130" height="130" fill="white" transform="translate(105.419) rotate(54.1852)"/>
</clipPath>
</defs>
</svg>
