<svg width="811" height="840" viewBox="0 0 811 840" fill="none" xmlns="http://www.w3.org/2000/svg">
<path opacity="0.4" d="M775.532 459.128C759.937 649.92 542.019 787.808 351.227 772.213C160.435 756.618 18.41 589.308 34.0052 398.516C49.6004 207.724 131.994 41.4616 322.786 57.0568C513.578 72.652 791.127 268.336 775.532 459.128Z" fill="#EA5D80"/>
<path d="M450.944 789.541C261.543 817.33 78.1053 636.079 50.3164 446.679C22.5274 257.278 153.54 81.2113 342.94 53.4223C532.341 25.6334 712.891 68.4516 740.68 257.852C768.469 447.253 640.345 761.752 450.944 789.541Z" fill="white"/>
<path fill-rule="evenodd" clip-rule="evenodd" d="M682.823 119.08C682.7 118.347 682.607 117.623 682.547 116.899C682.456 115.813 682.512 114.718 682.48 113.632C682.466 113.171 682.411 111.97 682.433 111.797C682.635 110.291 683.85 110.061 684.205 110.02C684.377 109.995 686.143 109.798 686.524 111.756C686.992 114.151 687.141 116.562 686.976 118.923C687.362 120.931 688.022 122.931 688.893 124.741C692.361 131.941 698.968 132.64 706.127 132.575C707.228 132.558 708.143 133.422 708.2 134.517C708.258 135.619 707.438 136.574 706.342 136.672C702.341 137.059 695.241 140.268 692.786 143.609C692.273 144.309 691.974 145.996 691.579 147.65C691.028 149.945 690.372 152.216 689.637 153.171C689.527 153.319 688.186 154.833 687.786 155.055C686.825 155.582 686.056 155.277 685.619 154.998C685.182 154.718 684.688 154.167 684.49 153.253C684.284 152.299 684.458 150.34 684.426 149.921C684.309 148.398 684.005 145.411 683.383 142.844C683.048 141.461 682.691 140.186 682.101 139.552C679.913 137.207 676.416 137.553 673.471 137.94C673.133 137.981 672.795 138.03 672.457 138.071C671.258 138.425 669.985 138.688 668.64 138.845C666.608 139.083 666.274 137.216 666.256 137.092C666.218 136.821 666.078 135.422 667.609 134.862C667.776 134.805 669.009 134.533 669.484 134.426C670.145 134.278 670.814 134.163 671.486 134.056C678.421 131.9 682.189 125.844 682.823 119.08ZM685.204 126.559C687.822 131.974 691.795 134.591 696.506 135.776H696.505C693.564 137.314 690.889 139.24 689.471 141.174C688.933 141.906 688.439 143.379 687.994 145.033C687.753 143.494 687.427 141.856 686.997 140.458C686.507 138.861 685.848 137.537 685.112 136.747C683.692 135.224 681.91 134.377 679.993 133.957C682.287 131.925 684.027 129.39 685.204 126.559Z" fill="#EA5D80"/>
<path fill-rule="evenodd" clip-rule="evenodd" d="M266.149 737.077C266.026 736.344 265.933 735.62 265.873 734.896C265.782 733.81 265.838 732.715 265.806 731.629C265.792 731.168 265.737 729.967 265.759 729.794C265.961 728.288 267.176 728.058 267.531 728.017C267.703 727.992 269.469 727.795 269.85 729.753C270.318 732.148 270.467 734.559 270.302 736.92C270.688 738.928 271.348 740.928 272.219 742.738C275.687 749.938 282.294 750.637 289.453 750.572C290.554 750.555 291.469 751.419 291.526 752.514C291.584 753.616 290.764 754.571 289.668 754.669C285.667 755.056 278.567 758.265 276.112 761.606C275.599 762.306 275.3 763.993 274.905 765.647C274.354 767.942 273.698 770.213 272.963 771.168C272.853 771.316 271.512 772.83 271.113 773.052C270.151 773.579 269.382 773.274 268.945 772.995C268.508 772.715 268.014 772.164 267.816 771.25C267.61 770.296 267.784 768.337 267.752 767.918C267.635 766.395 267.331 763.408 266.709 760.841C266.375 759.459 266.017 758.183 265.427 757.55C263.239 755.204 259.742 755.55 256.797 755.937C256.459 755.978 256.121 756.027 255.783 756.068C254.585 756.422 253.312 756.686 251.966 756.842C249.934 757.081 249.6 755.213 249.582 755.089C249.544 754.818 249.404 753.419 250.935 752.859C251.102 752.802 252.335 752.53 252.81 752.423C253.471 752.275 254.14 752.16 254.812 752.053C261.748 749.897 265.515 743.841 266.149 737.077ZM268.53 744.557C271.148 749.971 275.122 752.588 279.832 753.773H279.831C276.89 755.311 274.215 757.237 272.797 759.171C272.259 759.903 271.765 761.376 271.32 763.03C271.079 761.491 270.753 759.854 270.323 758.455C269.833 756.858 269.174 755.534 268.438 754.744C267.018 753.221 265.236 752.374 263.319 751.954C265.613 749.922 267.353 747.387 268.53 744.557Z" fill="#EA5D80"/>
<path d="M263.04 470.33C256.552 473.965 250.224 476.015 244.239 476.617C243.858 476.656 243.455 476.698 243.055 476.717C241.568 476.838 240.081 476.838 238.636 476.779C238.174 476.757 237.712 476.717 237.25 476.678C236.326 476.597 235.402 476.477 234.517 476.317C234.055 476.236 233.613 476.155 233.173 476.054C232.187 475.833 231.204 475.592 230.26 475.292H230.238C215.857 470.873 205.734 456.853 204.91 437.329C204.81 435.12 204.851 432.849 204.991 430.5C205.313 425.437 205.655 420.556 205.935 415.897C207.201 395.289 207.402 378.676 200.794 367.811C198.021 363.25 194.065 359.696 188.459 357.285C186.994 356.663 185.588 356.02 184.222 355.356C178.157 352.466 173.035 349.31 169.157 346.098C160.762 339.148 158.292 331.957 165.181 326.573C166.525 325.509 168.334 324.887 170.484 324.665C170.826 324.626 171.187 324.606 171.548 324.584H171.568H171.588C172.352 324.545 173.175 324.545 174.038 324.606C188.982 325.59 214.271 340.674 222.787 365.42C223.509 367.469 224.114 369.598 224.576 371.788C226.001 378.516 226.584 384.604 226.643 390.188C226.965 413.727 218.026 428.391 223.209 445.022C224.696 449.782 227.488 452.655 230.902 454.221C232.428 454.943 234.075 455.405 235.802 455.646C236.225 455.727 236.648 455.788 237.088 455.808C237.51 455.847 237.933 455.867 238.375 455.909C239.118 455.928 239.88 455.928 240.624 455.909C240.904 455.909 241.187 455.887 241.467 455.867C241.769 455.847 242.069 455.828 242.371 455.808C242.814 455.769 243.276 455.707 243.738 455.668C244.18 455.607 244.62 455.547 245.063 455.466H245.082C253.197 454.201 260.329 450.746 260.329 450.746V450.827L263.04 470.33Z" fill="#FFBF6D"/>
<mask id="mask0_71_473" style="mask-type:luminance" maskUnits="userSpaceOnUse" x="161" y="324" width="103" height="153">
<path d="M161.343 324.557H263.187V476.817H161.343V324.557Z" fill="white"/>
</mask>
<g mask="url(#mask0_71_473)">
<g opacity="0.199997">
<path d="M263.19 470.329C256.663 474.006 250.276 476.033 244.25 476.616C243.869 476.655 243.466 476.697 243.065 476.716C241.578 476.837 240.091 476.837 238.646 476.778C238.184 476.756 237.722 476.716 237.26 476.677C236.336 476.596 235.412 476.476 234.527 476.316C234.065 476.235 233.623 476.154 233.183 476.053C232.198 475.832 231.214 475.591 230.268 475.291H230.249C215.928 470.752 205.864 456.731 205.081 437.228C204.982 435.058 205.021 432.809 205.162 430.499C205.483 425.456 205.825 420.617 206.105 415.977C207.371 395.207 207.572 378.515 200.863 367.628C198.091 363.15 194.154 359.654 188.632 357.284C187.145 356.643 185.697 355.979 184.292 355.316C178.206 352.384 173.065 349.231 169.207 346.016C160.893 339.086 158.482 331.936 165.351 326.572C166.656 325.549 168.403 324.925 170.492 324.665C170.834 324.625 171.195 324.605 171.559 324.583H171.578H171.598C172.36 324.544 173.186 324.544 174.048 324.605C188.951 325.468 214.301 340.533 222.898 365.279C223.64 367.368 224.245 369.557 224.726 371.787C226.152 378.515 226.754 384.623 226.815 390.206C227.115 413.726 218.197 428.39 223.38 445.021C224.847 449.7 227.558 452.553 230.893 454.141C232.419 454.903 234.085 455.365 235.813 455.645C236.235 455.706 236.656 455.768 237.098 455.807C237.521 455.847 237.943 455.866 238.383 455.908C239.128 455.928 239.89 455.928 240.634 455.908C240.915 455.908 241.197 455.886 241.477 455.866C241.78 455.847 242.08 455.827 242.382 455.807C242.824 455.768 243.286 455.706 243.746 455.667C244.188 455.625 244.631 455.566 245.073 455.485C252.566 454.36 259.253 451.327 260.337 450.826C260.438 450.764 260.499 450.745 260.499 450.745L263.19 470.329Z" fill="#9A7279"/>
</g>
</g>
<path d="M200.856 367.622C200.836 367.681 200.817 367.743 200.797 367.802C198.025 363.243 194.068 359.689 188.462 357.278C186.997 356.656 185.592 356.012 184.225 355.349C184.245 355.329 184.265 355.329 184.284 355.31C188.484 352.518 194.147 350.367 198.647 354.707C202.684 358.603 202.363 363.604 200.856 367.622Z" fill="#9A7279"/>
<path d="M226.783 390.204C226.723 390.204 226.662 390.204 226.623 390.184C223.027 389.983 219.37 388.376 217.984 383.355C215.937 375.842 219.913 369.074 222.764 365.417C222.786 365.358 222.826 365.318 222.865 365.277C223.61 367.366 224.212 369.555 224.694 371.784C226.119 378.513 226.723 384.62 226.783 390.204Z" fill="#9A7279"/>
<path d="M205.066 437.223C205.007 437.262 204.966 437.304 204.907 437.323C204.806 435.114 204.845 432.843 204.985 430.494C205.307 425.431 205.649 420.55 205.931 415.891C205.991 415.91 206.03 415.932 206.091 415.972C209.365 417.417 213.543 420.13 214.366 424.63C215.211 429.189 209.625 434.069 205.066 437.223Z" fill="#9A7279"/>
<path d="M245.07 455.462V455.482C242.981 459.139 239.567 463.255 235.448 461.407C232.435 460.063 231.27 457.129 230.909 454.216C230.889 454.197 230.889 454.157 230.889 454.138C232.416 454.9 234.082 455.362 235.81 455.644C236.232 455.703 236.653 455.764 237.095 455.804C237.518 455.843 237.94 455.865 238.38 455.905C239.125 455.924 239.887 455.924 240.631 455.905C240.912 455.905 241.194 455.885 241.474 455.865C241.777 455.843 242.077 455.824 242.379 455.804C242.821 455.764 243.283 455.703 243.745 455.664C244.185 455.602 244.628 455.543 245.07 455.462Z" fill="#9A7279"/>
<path d="M566.028 578.521C562.025 582.005 558.024 585.487 553.978 588.927C552.075 590.549 550.17 592.172 548.267 593.794C548.267 593.794 548.245 593.794 548.245 593.816C547.855 594.118 547.466 594.442 547.098 594.788C546.991 594.876 546.905 594.942 546.796 595.049C546.796 595.049 546.774 595.049 546.774 595.071C544.091 597.3 541.409 599.549 538.727 601.798C526.353 612.161 484.405 642.88 456.802 661.701C455.632 662.48 454.487 663.26 453.384 664.015C441.68 671.911 433.177 677.191 431.749 676.996C405.898 673.578 329.944 643.399 306.083 634.833C287.521 628.17 268.701 621.702 250.745 613.46C248.387 612.378 243.044 610.777 241.768 608.202C237.658 600.004 294.033 567.748 294.033 567.748L531.133 529.262C531.133 529.262 558.846 528.224 568.084 544.145C577.32 560.047 566.028 578.521 566.028 578.521Z" fill="#EA5D80"/>
<path d="M560.045 566.815C560.174 575.361 557.06 583.365 553.988 588.924C552.083 590.547 550.18 592.169 548.275 593.792C551.262 590.179 559.331 577.135 557.664 563.526C556.086 550.655 546.394 540.769 528.85 534.193L529.606 532.181C554.507 541.504 559.915 556.171 560.045 566.815Z" fill="#FFBF6D"/>
<path d="M456.823 661.702C455.654 662.482 454.508 663.259 453.405 664.017C456.543 657.743 457.688 651.555 456.867 645.455C453.989 624.427 428.267 611.493 428.007 611.361L428.981 609.415C430.085 609.955 455.98 622.999 459.008 645.152C459.766 650.627 459.03 656.142 456.823 661.702Z" fill="#FFBF6D"/>
<path d="M430.047 668.84C428.512 668.947 425.547 668.365 421.415 667.261C389.548 658.629 289.149 617.505 260.009 605.477C254.904 603.355 251.983 602.144 251.983 602.144L248.889 566.73L252.936 566.384L266.845 565.174C266.845 565.174 339.902 595.525 388.662 615.622C407.311 623.301 422.409 629.467 428.512 631.891C450.577 640.63 445.449 667.824 430.047 668.84Z" fill="white"/>
<mask id="mask1_71_473" style="mask-type:luminance" maskUnits="userSpaceOnUse" x="248" y="566" width="36" height="40">
<path d="M248.897 566.388H283.617V605.479H248.897V566.388Z" fill="white"/>
</mask>
<g mask="url(#mask1_71_473)">
<g opacity="0.619995">
<path d="M275.076 586.119L256.882 581.079L266.963 585.902L257.316 583.481L258.851 594.449L272.221 599.251L259.284 596.849L260.02 605.48C254.914 603.361 251.992 602.15 251.992 602.15L248.901 566.736L252.945 566.39L283.62 580.409L256.665 577.142L275.076 586.119Z" fill="#F8D1CA"/>
</g>
</g>
<mask id="mask2_71_473" style="mask-type:luminance" maskUnits="userSpaceOnUse" x="371" y="615" width="73" height="54">
<path d="M371.569 615.618H443.358V668.849H371.569V615.618Z" fill="white"/>
</mask>
<g mask="url(#mask2_71_473)">
<g opacity="0.619995">
<path d="M430.048 668.837C428.513 668.944 425.548 668.362 421.416 667.258L421.719 656.246L412.266 652.114L421.957 653.089L405.97 646.793L422.196 650.19L421.957 644.369L403.546 636.863L422.196 641.212L387.559 630.307L371.573 616.744L388.663 615.619C407.313 623.298 422.411 629.464 428.513 631.888C450.579 640.627 445.45 667.821 430.048 668.837Z" fill="#F8D1CA"/>
</g>
</g>
<path d="M566.724 479.471C568.264 475.878 398.394 390.688 398.394 390.688C398.394 390.688 284.638 479.07 251.753 507.273C249.531 508.951 247.367 510.634 245.307 512.321C231.663 523.484 224.94 533.12 225.302 542.151C225.672 551.378 229.385 558.819 236.062 564.01C248.963 574.046 402.342 634.214 409.509 634.214C416.676 634.214 562.612 525.901 562.612 525.901L548.344 520.061L501.08 524.578C535.493 501.681 566.057 481.028 566.724 479.471Z" fill="#F39D90"/>
<path d="M553.147 489.544V489.631L549.773 526.687C549.773 526.687 548.15 527.857 545.229 529.932C526.453 543.325 454.348 594.66 421.551 615.926C413.029 621.442 407.165 624.945 405.564 625.228C404.268 625.464 400.134 624.341 393.97 622.263C363.163 611.879 281.716 577.267 252.943 564.028C248.594 562.016 245.457 560.5 243.856 559.636C238.557 556.736 234.208 551.523 233.796 545.313C233.407 539.451 236.61 533.718 241.607 530.668C246.56 527.64 252.877 527.316 258.352 528.96C262.138 530.084 268.28 532.247 275.917 535.083C303.52 545.313 350.767 564.308 377.81 575.277C390.228 580.317 398.382 583.648 398.382 583.648L409.328 576.682L510.161 515.59L552.131 490.17L553.147 489.544Z" fill="white"/>
<path d="M563.305 450.765C563.185 450.162 562.964 449.58 562.642 449.057C559.007 442.689 542.878 441.163 528.958 444.517C528.958 444.517 539.884 423.186 496.178 404.967C452.47 386.771 489.408 321.711 489.408 321.711C489.408 321.711 484.141 310.158 474.94 297.27C475.867 296.135 476.602 295.238 476.981 294.776C481.209 289.853 488.092 280.013 490.918 266.005C491.087 265.162 491.232 264.304 491.378 263.443C491.687 261.532 491.908 259.568 492.055 257.529C492.044 257.448 492.057 257.382 492.068 257.297C492.16 255.666 492.226 253.995 492.18 252.274C492.175 251.895 492.173 251.538 492.169 251.159C492.145 250.807 492.142 250.448 492.14 250.091C491.989 246.848 491.689 243.581 491.159 240.323C491.078 239.679 490.958 239.042 490.837 238.404C490.579 237.005 490.281 235.632 489.92 234.246C489.905 234.121 489.865 233.979 489.83 233.856C489.114 231.148 488.232 228.437 487.124 225.796C486.832 225.139 486.561 224.478 486.25 223.843C481.873 214.517 474.559 205.955 462.593 199.402C462.682 199.286 462.772 199.148 462.838 199.014C466.302 192.671 468.172 181.621 466.963 175.291C466.639 173.52 466.068 172.14 465.229 171.317C464.914 170.977 464.548 170.75 464.13 170.612C457.554 168.315 451.2 171.207 446.632 175.773C443.488 178.919 441.002 182.975 437.545 185.804C437.278 186.025 435.046 187.882 433.31 189.15L432.903 189.432C430.358 188.948 427.696 188.521 424.937 188.147C423.907 188.002 422.88 187.877 421.814 187.757C421.516 187.731 421.216 187.682 420.918 187.658C411.444 186.603 402.532 186.005 394.237 185.815C392.297 185.782 390.401 185.764 388.548 185.762L388.529 185.766C383.983 185.762 379.625 185.924 375.452 186.211C375.012 186.224 374.574 186.257 374.136 186.29C371.256 186.5 368.515 186.778 365.819 187.113C365.804 186.314 365.725 185.504 365.627 184.715C364.254 173.649 355.975 163.418 351.4 163.018C346.016 162.529 342.088 173.603 337.356 181.934C335.028 186.053 330.493 192.257 326.495 197.51C322.494 202.741 319.006 207.024 318.807 207.28C315.759 210.689 313.346 214.484 311.609 218.634C311.428 219.034 311.285 219.411 311.123 219.81C310.869 220.473 310.637 221.132 310.401 221.771C310.256 222.148 310.136 222.52 309.995 222.917C308.226 227.997 306.958 233.037 306.22 237.949L306.214 238.054C306.082 238.871 305.973 239.683 305.888 240.515C305.699 242.221 305.592 243.898 305.529 245.589C305.351 251.44 306.034 257.122 307.679 262.557C307.858 263.161 308.101 263.75 308.307 264.348C306.492 265.846 304.265 268.007 301.865 270.934C300.639 272.399 299.393 274.068 298.149 275.916C294.694 280.996 291.199 287.545 288.407 295.599C288.125 296.422 287.845 297.246 287.582 298.111C286.016 303.011 284.731 308.474 283.868 314.441C283.868 314.441 278.685 319.723 272.037 329.103C268.019 334.768 263.48 341.917 259.241 350.315C255.326 358.047 251.649 366.845 248.897 376.486C246.687 384.178 245.06 392.394 244.357 401.052C243.495 411.517 243.976 422.603 246.387 434.114C246.768 435.982 247.23 437.85 247.692 439.678C247.692 439.737 247.712 439.799 247.732 439.858C249.359 446.144 251.467 452.232 253.999 458.017C254.461 459.081 254.923 460.145 255.426 461.19C258.459 467.698 262.033 473.824 266.07 479.509C269.727 484.689 273.785 489.491 278.142 493.81C306.645 522.21 348.724 531.35 387.933 502.286L425.915 426.319L468.397 462.515L471.713 465.348C471.713 465.348 471.713 474.707 502.927 472.618C534.16 470.548 564.851 458.577 563.305 450.765Z" fill="#FFBF6D"/>
<mask id="mask3_71_473" style="mask-type:luminance" maskUnits="userSpaceOnUse" x="510" y="489" width="44" height="41">
<path d="M510.171 489.629H553.156V529.933H510.171V489.629Z" fill="white"/>
</mask>
<g mask="url(#mask3_71_473)">
<g opacity="0.619995">
<path d="M553.16 489.628L549.785 526.687C549.785 526.687 548.163 527.854 545.242 529.932L545.632 518.033L535.789 523.29L545.632 516.345V510.395L525.123 522.942L544.789 509.552L510.174 515.589L552.144 490.169L553.16 489.628Z" fill="#F8D1CA"/>
</g>
</g>
<mask id="mask4_71_473" style="mask-type:luminance" maskUnits="userSpaceOnUse" x="468" y="447" width="96" height="26">
<path d="M468.413 447.063H563.375V472.923H468.413V447.063Z" fill="white"/>
</mask>
<g mask="url(#mask4_71_473)">
<g opacity="0.199997">
<path d="M502.941 472.619C471.727 474.708 471.727 465.347 471.727 465.347L468.414 462.516C472.469 456.47 483.236 462.636 516.197 453.216C546.87 444.438 558.578 447.03 562.656 449.058C562.978 449.581 563.199 450.164 563.319 450.766C564.867 458.579 534.174 470.55 502.941 472.619Z" fill="#9A7279"/>
</g>
</g>
<path d="M523.829 315.502L520.326 323.571L496.918 377.591L433.986 400.37L364.869 345.724C364.024 346.134 368.589 335.363 368.589 335.363C368.589 335.363 381.418 332.052 416.182 341.57C416.182 341.57 407.075 331.64 390.525 330.819C390.525 330.819 426.955 324.609 451.791 357.73C451.791 357.73 448.416 331.445 489.173 306.783C491.229 305.55 493.39 304.317 495.663 303.084L502.305 305.984L510.568 301.83L523.829 315.502Z" fill="white"/>
<path d="M341.499 194.749C346.605 191.528 352.438 189.621 357.113 188.532C362.025 187.398 365.64 187.133 365.828 187.107C365.485 175.186 356.295 163.443 351.414 163.01L351.401 163.005C350.236 165.58 348.863 168.665 349.666 175.88C349.752 176.592 349.782 177.278 349.789 177.948C349.929 187.873 342.738 194.026 341.499 194.749Z" fill="#9A7279"/>
<path d="M445.077 192.131C445.077 192.131 452.244 194.765 458.077 197.077C459.868 197.778 461.548 198.459 462.84 199.011C466.312 192.665 468.182 181.62 466.976 175.288C466.643 173.523 466.072 172.137 465.242 171.309C465.242 171.309 462.577 172.13 459.796 177.723C458.784 179.763 457.873 181.723 456.864 183.514C454.473 187.747 451.506 191.014 445.077 192.131Z" fill="#9A7279"/>
<mask id="mask5_71_473" style="mask-type:luminance" maskUnits="userSpaceOnUse" x="345" y="269" width="23" height="15">
<path d="M345.624 269.447H367.976V283.45H345.624V269.447Z" fill="white"/>
</mask>
<g mask="url(#mask5_71_473)">
<g opacity="0.479996">
<path d="M365.911 273.59C368.804 275.971 368.804 280.332 364.987 282.194C359.879 284.685 350.892 283.352 347.041 279.273C343.789 275.828 346.625 270.334 350.652 269.664C354.057 269.097 357.536 269.701 360.68 270.873C362.143 271.418 364.291 272.257 365.911 273.59Z" fill="#EA5D80"/>
</g>
</g>
<mask id="mask6_71_473" style="mask-type:luminance" maskUnits="userSpaceOnUse" x="451" y="272" width="24" height="15">
<path d="M451.522 272.467H474.072V286.108H451.522V272.467Z" fill="white"/>
</mask>
<g mask="url(#mask6_71_473)">
<g opacity="0.479996">
<path d="M454.082 275.691C450.931 277.842 450.434 282.186 454.023 284.327C458.827 287.194 467.925 286.543 472.226 282.773C475.854 279.587 473.658 273.902 469.723 272.932C466.397 272.111 462.863 272.451 459.6 273.379C458.083 273.81 455.847 274.487 454.082 275.691Z" fill="#EA5D80"/>
</g>
</g>
<path d="M394.233 185.817C399.383 191.101 402.852 198.82 405.641 204.651C407.176 207.846 408.543 211.124 409.787 214.441C410.726 216.929 412.62 219.484 415.449 220.097C419.005 220.866 422.454 218.862 424.56 216.116C427.203 212.687 427.713 208.393 427.486 204.263C427.157 198.417 425.055 192.708 421.821 187.755C421.53 187.725 421.223 187.69 420.917 187.655C411.442 186.608 402.543 185.999 394.233 185.817Z" fill="#9A7279"/>
<path d="M480.507 253.893C484.304 254.813 488.442 253.862 492.187 252.266C492.182 251.902 492.178 251.539 492.16 251.16C492.154 250.812 492.147 250.448 492.13 250.083C491.981 246.842 491.681 243.577 491.164 240.321C483.067 246.314 473.39 252.159 480.507 253.893Z" fill="#9A7279"/>
<path d="M480.968 263.797C483.364 265.47 487.222 265.98 490.916 265.991C491.082 265.155 491.238 264.301 491.38 263.434C491.685 261.531 491.917 259.56 492.046 257.519C492.046 257.436 492.059 257.368 492.059 257.285C484.319 258.739 476.744 260.848 480.968 263.797Z" fill="#9A7279"/>
<path d="M483.116 236.919C485.286 236.788 487.66 235.699 489.913 234.243C489.895 234.116 489.863 233.985 489.828 233.853C489.116 231.136 488.229 228.434 487.117 225.793C482.181 231.436 478.086 237.226 483.116 236.919Z" fill="#9A7279"/>
<path d="M375.452 186.197C376.785 187.841 378.285 189.68 379.356 191.06C382.737 195.437 386.146 201.448 388.995 202.273C394.949 204.005 397.92 198.373 394.502 192.181C392.939 189.356 390.611 187.234 388.537 185.752L388.522 185.75C383.974 185.756 379.625 185.907 375.452 186.197Z" fill="#9A7279"/>
<path d="M424.928 188.15C427.723 192.323 430.521 199.199 433.63 200.469C438.314 202.378 442.389 198.954 440.55 196.184C438.765 193.493 436.613 191.342 434.712 189.761C431.611 189.148 428.355 188.607 424.928 188.15Z" fill="#9A7279"/>
<path d="M354.891 268.849C360.858 273.62 370.734 275.816 378.255 273.618C379.862 273.147 381.382 272.453 382.775 271.503C388.82 267.344 392.773 259.525 393.495 252.439C393.524 252.277 393.541 252.111 393.557 251.947C394.15 244.784 390.599 237.983 384.562 234.066C377.493 229.483 366.514 227.264 359.043 232.467C356.096 234.523 353.634 237.506 351.843 240.943L351.83 240.941C347.024 250.085 346.903 262.45 354.891 268.849Z" fill="white"/>
<path d="M366.778 273.895C371.035 274.613 375.53 274.436 379.494 272.829C381.471 272.027 383.209 270.773 384.729 269.281C386.247 267.797 387.547 266.098 388.638 264.278C390.821 260.641 392.154 256.496 392.507 252.342L392.509 252.335L392.52 252.261C392.588 251.797 392.573 251.131 392.599 250.571C392.566 249.984 392.575 249.395 392.489 248.812C392.384 247.643 392.121 246.493 391.78 245.374C391.079 243.137 389.969 241.037 388.506 239.202C385.579 235.536 381.241 233.132 376.678 231.698C372.121 230.301 367.12 229.952 362.637 231.529C360.404 232.302 358.407 233.677 356.668 235.363C354.927 237.043 353.465 239.027 352.274 241.164L352.105 241.468L351.785 241.411L351.772 241.409L352.26 241.164C349.869 245.51 348.47 250.527 348.693 255.563C348.805 258.07 349.298 260.588 350.347 262.89C351.376 265.191 352.933 267.267 354.906 268.852C358.352 271.513 362.51 273.179 366.778 273.895ZM350.277 262.92C349.221 260.617 348.619 258.112 348.437 255.578C348.26 253.043 348.461 250.481 348.956 247.98C349.464 245.477 350.292 243.034 351.428 240.726L351.573 240.437L351.917 240.483H351.93L351.441 240.73C352.563 238.462 353.977 236.316 355.731 234.444C357.465 232.578 359.583 230.947 362.022 229.959C366.896 227.925 372.377 228.148 377.319 229.526C379.804 230.237 382.189 231.275 384.425 232.6C386.689 233.898 388.712 235.681 390.346 237.743C393.632 241.902 395.207 247.271 394.502 252.625L394.513 252.546C393.902 257.03 392.27 261.302 389.792 265.007C388.552 266.86 387.101 268.57 385.434 270.048C383.779 271.522 381.858 272.765 379.752 273.497C377.652 274.235 375.451 274.567 373.264 274.629C371.074 274.701 368.882 274.508 366.743 274.083C362.486 273.208 358.321 271.574 354.906 268.852C352.917 267.287 351.334 265.222 350.277 262.92Z" fill="#9A7279"/>
<path d="M370.088 268.466C364.23 268.385 358.242 265.245 355.66 260.023C351.548 251.7 355.999 240.416 364.876 237.018C369.643 235.196 375.632 235.584 379.944 238.205C391.466 245.21 387.097 263.651 374.839 267.759C373.328 268.265 371.717 268.488 370.088 268.466Z" fill="#9A7279"/>
<path d="M376.942 256.002C374.602 255.97 372.21 254.717 371.178 252.633C369.535 249.311 371.314 244.808 374.86 243.452C376.765 242.725 379.157 242.88 380.88 243.926C385.483 246.721 383.738 254.081 378.841 255.72C378.237 255.922 377.593 256.011 376.942 256.002Z" fill="white"/>
<path d="M376.942 256.002C374.602 255.97 372.21 254.717 371.178 252.633C369.535 249.311 371.314 244.808 374.86 243.452C376.765 242.725 379.157 242.88 380.88 243.926C385.483 246.721 383.738 254.081 378.841 255.72C378.237 255.922 377.593 256.011 376.942 256.002Z" fill="white"/>
<path d="M368.488 246.003C367.048 245.983 365.576 245.212 364.941 243.929C363.93 241.885 365.024 239.114 367.207 238.279C368.379 237.832 369.851 237.927 370.911 238.571C373.744 240.291 372.67 244.82 369.656 245.829C369.285 245.953 368.889 246.008 368.488 246.003Z" fill="white"/>
<path d="M368.488 246.003C367.048 245.983 365.576 245.212 364.941 243.929C363.93 241.885 365.024 239.114 367.207 238.279C368.379 237.832 369.851 237.927 370.911 238.571C373.744 240.291 372.67 244.82 369.656 245.829C369.285 245.953 368.889 246.008 368.488 246.003Z" fill="white"/>
<mask id="mask7_71_473" style="mask-type:luminance" maskUnits="userSpaceOnUse" x="351" y="229" width="43" height="24">
<path d="M351.835 229.472H393.612V252.448H351.835V229.472Z" fill="white"/>
</mask>
<g mask="url(#mask7_71_473)">
<g opacity="0.210007">
<path d="M351.836 240.952C379.091 233.242 391.957 250.243 393.488 252.448C393.517 252.286 393.534 252.122 393.549 251.956C394.143 244.793 390.591 237.994 384.554 234.075C377.486 229.494 366.507 227.273 359.036 232.476C356.088 234.532 353.627 237.515 351.836 240.952Z" fill="#9A7279"/>
</g>
</g>
<path d="M436.904 258.476C439.225 265.161 446.659 268.733 453.401 269.556C454.332 269.657 455.26 269.683 456.177 269.617C467.248 268.857 476.071 255.735 473.925 245.222C473.726 244.138 473.382 243.08 472.924 242.062C468.878 233.17 455.332 227.913 446.085 232.279C443.852 233.352 442.17 235.353 440.869 237.37C439.976 238.745 439.155 240.311 438.452 241.986C436.21 247.232 435.176 253.506 436.904 258.476Z" fill="white"/>
<path d="M438.651 261.813C439.411 262.819 440.271 263.749 441.246 264.553C443.201 266.149 445.489 267.294 447.869 268.08C449.058 268.485 450.282 268.77 451.52 268.967C452.755 269.173 453.994 269.311 455.225 269.254C457.679 269.088 460.077 268.4 462.199 267.189C466.48 264.798 469.613 260.681 471.415 256.245C473.259 251.826 473.607 246.687 471.678 242.5C470.717 240.414 469.19 238.552 467.377 237.022C465.564 235.485 463.48 234.215 461.237 233.323C456.799 231.508 451.644 230.893 447.068 232.575C444.771 233.291 442.984 235.095 441.524 237.087C440.057 239.1 438.872 241.335 437.957 243.678C436.166 248.325 435.296 253.617 436.879 258.479C437.33 259.659 437.911 260.789 438.651 261.813ZM436.056 250.985C436.247 248.459 436.792 245.958 437.617 243.554C438.443 241.154 439.461 238.795 440.851 236.63C442.211 234.497 444.042 232.364 446.577 231.379C451.445 229.248 457.077 229.511 462.03 231.248C466.97 233.017 471.588 236.406 474.014 241.421C474.586 242.66 475.011 244.018 475.195 245.358C475.271 246.032 475.4 246.7 475.429 247.377C475.433 248.053 475.453 248.732 475.435 249.409C475.286 252.109 474.527 254.71 473.445 257.119C471.205 261.884 467.533 266.035 462.79 268.323C460.438 269.48 457.826 270.051 455.229 270.058C453.928 270.036 452.649 269.81 451.41 269.521C450.162 269.247 448.945 268.858 447.749 268.418C445.362 267.539 443.118 266.265 441.182 264.627C440.214 263.808 439.362 262.86 438.611 261.842C437.88 260.804 437.315 259.665 436.879 258.479C436.039 256.085 435.859 253.504 436.056 250.985Z" fill="#9A7279"/>
<path d="M460.988 261.446C460.497 261.744 455.673 266.077 447.146 262.188C438.622 258.299 441.374 247.141 443.315 243.628C445.25 240.116 451.14 233.127 460.928 237.215C470.714 241.301 469.424 256.318 460.988 261.446Z" fill="#9A7279"/>
<path d="M453.477 253.901C453.255 254.041 451.071 256.065 447.21 254.248C443.351 252.432 444.597 247.219 445.475 245.579C446.352 243.938 449.019 240.673 453.45 242.583C457.881 244.491 457.297 251.506 453.477 253.901Z" fill="white"/>
<path d="M464.145 247.461C464.058 247.589 463.349 249.224 460.841 249.041C458.335 248.857 457.795 245.613 457.887 244.484C457.979 243.356 458.659 240.908 461.497 241.018C464.334 241.129 465.651 245.254 464.145 247.461Z" fill="white"/>
<mask id="mask8_71_473" style="mask-type:luminance" maskUnits="userSpaceOnUse" x="438" y="230" width="36" height="16">
<path d="M438.397 230.715H473.872V245.222H438.397V230.715Z" fill="white"/>
</mask>
<g mask="url(#mask8_71_473)">
<g opacity="0.210007">
<path d="M438.394 241.985C451.514 236.789 466.365 241.847 473.867 245.222C473.667 244.138 473.324 243.078 472.866 242.062C468.819 233.17 455.274 227.912 446.027 232.278C443.793 233.351 442.112 235.353 440.811 237.369C439.918 238.745 439.097 240.31 438.394 241.985Z" fill="#9A7279"/>
</g>
</g>
<path d="M311.624 218.632C332.925 235.195 343.12 220.881 333.976 216.933C327.849 214.281 322.507 209.985 318.999 207.093C315.852 210.552 313.389 214.397 311.624 218.632Z" fill="#9A7279"/>
<path d="M306.24 237.954L306.222 238.048C306.196 238.504 306.145 238.942 306.108 239.382C314.153 243.897 324.348 247.23 333.166 244.928C336.494 244.059 339.65 241.48 339.08 238.283C338.844 237.006 338.01 235.817 336.915 234.878C333.685 232.084 328.791 230.952 324.545 229.837C319.717 228.56 314.232 225.591 310.001 222.907C308.239 227.991 306.967 233.027 306.24 237.954Z" fill="#9A7279"/>
<path d="M305.536 245.577C305.35 251.439 306.036 257.119 307.676 262.559C313.391 264.422 319.951 264.063 325.546 261.895C328.04 260.923 330.418 259.11 330.341 256.257C330.245 252.482 325.327 251.317 322.29 250.907C314.048 249.801 308.446 247.235 305.536 245.577Z" fill="#9A7279"/>
<path d="M354.374 184.924C354.374 184.924 357.087 185.171 357.915 184.674C358.758 184.182 354.646 183.435 354.646 183.435C356.862 182.892 358.979 180.79 358.281 180.636C357.573 180.47 354.849 181.852 354.849 181.852C358.002 178.657 357.205 172.959 354.365 172.874C353.15 172.837 351.394 175.219 349.789 177.948C349.929 187.873 342.74 194.024 341.499 194.749C346.605 191.528 352.438 189.619 357.113 188.532C356.778 186.472 354.374 184.924 354.374 184.924Z" fill="white"/>
<path d="M458.077 197.079C458.088 194.839 456.301 191.452 456.141 191.16C456.308 191.257 458.071 192.356 459.043 192.008C460.063 191.64 457.109 189.906 457.109 189.906C457.109 189.906 459.52 190.482 459.844 189.794C460.179 189.122 457.659 188.92 457.659 188.92C459.603 188.154 463.63 183.985 461.673 182.408C460.396 181.386 458.233 182.561 456.866 183.516C454.475 187.751 451.506 191.016 445.077 192.133C445.077 192.133 452.246 194.767 458.077 197.079Z" fill="white"/>
<path d="M416.18 252.104C416.18 252.104 420.286 247.987 422.077 248.951C423.868 249.914 417.689 256.148 415.525 256.599C413.36 257.053 409.469 249.573 410.741 248.298C412.013 247.024 416.18 252.104 416.18 252.104Z" fill="#9A7279"/>
<mask id="mask9_71_473" style="mask-type:luminance" maskUnits="userSpaceOnUse" x="393" y="255" width="43" height="30">
<path d="M393.811 255.4H435.711V284.644H393.811V255.4Z" fill="white"/>
</mask>
<g mask="url(#mask9_71_473)">
<g opacity="0.479996">
<path d="M425.825 256.997C429.256 258.077 432.409 260.472 434.087 263.95C436.517 268.988 436.462 275.06 432.282 279.122C429.69 281.645 426.276 282.855 422.906 283.486C416.446 284.695 409.95 285.45 403.687 283.184C401.416 282.361 399.214 281.189 397.479 279.385C394.821 276.621 393.453 272.4 393.895 268.322C394.335 264.245 396.575 260.407 399.763 258.259C403.687 255.618 409.201 255.119 413.628 255.524C417.574 255.885 422.054 255.811 425.825 256.997Z" fill="#9A7279"/>
</g>
</g>
<path d="M484.069 286.14C480.634 284.285 477.067 282.768 473.467 281.333C469.856 279.932 466.208 278.614 462.428 277.637C465.864 279.492 469.431 281.011 473.031 282.443C476.644 283.843 480.29 285.159 484.069 286.14Z" fill="#9A7279"/>
<path d="M487.907 276.708C484.24 275.736 480.524 275.12 476.795 274.595C473.061 274.102 469.315 273.702 465.522 273.662C469.188 274.639 472.904 275.252 476.633 275.777C480.368 276.266 484.113 276.666 487.907 276.708Z" fill="#9A7279"/>
<path d="M487.05 264.919C483.299 265.624 479.66 266.67 476.047 267.805C472.445 268.972 468.869 270.226 465.405 271.827C469.156 271.126 472.797 270.078 476.408 268.941C480.01 267.772 483.586 266.517 487.05 264.919Z" fill="#9A7279"/>
<path d="M353.934 275.777C349.999 275.541 346.086 275.668 342.177 275.88C338.271 276.13 334.371 276.469 330.491 277.174C334.426 277.413 338.339 277.288 342.247 277.071C346.154 276.819 350.056 276.478 353.934 275.777Z" fill="#9A7279"/>
<path d="M330.366 267.649C333.986 268.776 337.669 269.545 341.369 270.228C345.074 270.876 348.797 271.435 352.58 271.634C348.963 270.504 345.28 269.733 341.579 269.054C337.872 268.408 334.152 267.85 330.366 267.649Z" fill="#9A7279"/>
<path d="M335.343 256.781C338.064 259.352 340.998 261.633 343.985 263.84C346.994 266.019 350.057 268.126 353.335 269.937C350.616 267.364 347.679 265.084 344.69 262.877C341.682 260.7 338.618 258.594 335.343 256.781Z" fill="#9A7279"/>
<path d="M479.992 290.635C478.744 292.255 477.496 293.869 476.178 295.417C475.53 296.199 474.862 296.961 474.168 297.69C473.474 298.408 472.729 299.118 471.947 299.584L471.731 299.713L471.706 299.992C471.641 300.83 471.52 301.708 471.288 302.505C471.074 303.285 470.629 304.095 470.18 304.139C469.959 304.163 469.885 304.148 469.718 303.861C469.576 303.578 469.495 303.178 469.449 302.777C469.363 301.964 469.412 301.078 469.497 300.246L469.745 297.815L468.409 299.847C467.896 300.629 467.316 301.406 466.705 302.122C466.092 302.836 465.433 303.528 464.708 304.023C464.353 304.277 463.964 304.452 463.644 304.465C463.5 304.494 463.287 304.45 463.184 304.395C463.048 304.353 463.009 304.27 462.943 304.161C462.731 303.589 463.077 302.534 463.462 301.763L464.056 300.576L462.906 301.176C461.467 301.925 459.948 302.571 458.424 303.171C456.895 303.769 455.323 304.253 453.694 304.555C455.354 304.491 456.99 304.113 458.592 303.668C460.193 303.204 461.741 302.61 463.283 301.934L462.727 301.347C462.462 301.809 462.251 302.264 462.083 302.772C461.938 303.278 461.785 303.839 461.995 304.52C462.12 304.846 462.394 305.188 462.722 305.323C462.884 305.418 463.04 305.453 463.195 305.483C463.351 305.527 463.513 305.531 463.677 305.523C464.334 305.501 464.861 305.234 465.308 304.947C466.219 304.369 466.922 303.635 467.583 302.88C468.242 302.118 468.84 301.336 469.407 300.493L468.319 300.094C468.207 301.036 468.181 301.945 468.284 302.91C468.35 303.392 468.429 303.883 468.691 304.402C468.834 304.658 469.037 304.938 469.366 305.12C469.699 305.308 470.088 305.337 470.408 305.262C471.085 305.126 471.523 304.614 471.781 304.174C472.044 303.718 472.193 303.254 472.322 302.792C472.554 301.866 472.668 300.962 472.685 300.018L472.447 300.425C473.388 299.786 474.078 299.013 474.759 298.229C475.429 297.438 476.06 296.626 476.666 295.798C477.849 294.121 478.978 292.413 479.992 290.635Z" fill="#C85325"/>
<path d="M349.121 296.659C347.466 295.694 345.802 294.752 344.177 293.749C342.546 292.757 340.915 291.765 339.384 290.657L338.455 289.983L338.723 291.132C338.841 291.638 338.92 292.194 338.918 292.702C338.928 293.206 338.797 293.732 338.598 293.859C338.521 293.924 338.337 293.961 338.191 293.931C338.099 293.92 337.932 293.817 337.783 293.648C337.477 293.313 337.216 292.836 336.993 292.352C336.553 291.371 336.202 290.311 335.918 289.241C335.637 288.176 335.383 287.051 335.283 286.019L335.09 284.062L334.162 285.785C333.761 286.527 333.273 287.279 332.727 287.909C332.191 288.535 331.488 289.078 331.024 288.901C330.485 288.778 330.008 288.003 329.73 287.23C329.443 286.442 329.25 285.566 329.132 284.723L329.081 284.36L328.746 284.303C326.741 283.968 324.72 283.366 322.808 282.577C321.838 282.203 320.899 281.756 319.983 281.257C319.064 280.762 318.201 280.173 317.343 279.564C318.867 281.016 320.671 282.172 322.567 283.118C324.487 284.033 326.48 284.747 328.593 285.218L328.208 284.8C328.278 285.752 328.433 286.663 328.742 287.581C328.898 288.036 329.088 288.494 329.381 288.93C329.666 289.357 330.097 289.801 330.713 289.987C331.006 290.079 331.354 290.101 331.665 290.024C331.972 289.954 332.232 289.825 332.462 289.683C332.922 289.394 333.273 289.041 333.599 288.682C334.243 287.949 334.751 287.18 335.217 286.337L334.094 286.105C334.216 287.329 334.492 288.419 334.79 289.545C335.105 290.657 335.456 291.765 335.981 292.836C336.25 293.368 336.54 293.902 337.01 294.395C337.247 294.632 337.56 294.894 338.033 294.971C338.442 295.026 338.861 294.953 339.235 294.667C339.929 294.027 339.879 293.272 339.874 292.678C339.839 292.056 339.726 291.485 339.557 290.896L338.893 291.371C340.527 292.416 342.204 293.351 343.912 294.224C345.633 295.076 347.354 295.917 349.121 296.659Z" fill="#C85325"/>
<path d="M540.702 443.177C540.702 443.177 545.421 444.629 545.239 447.714L540.702 443.177Z" fill="#9A7279"/>
<path d="M317.257 308.734C316.053 310.381 313.802 310.863 311.774 310.924C302.413 311.125 294.219 304.817 287.63 298.169L287.569 298.108C287.832 297.245 288.112 296.422 288.392 295.598C291.184 287.543 294.681 280.995 298.134 275.913C303.679 284.63 312.074 291.882 316.755 301.241C317.92 303.613 318.803 306.606 317.257 308.734Z" fill="#9A7279"/>
<path d="M305.897 357.987C304.671 359.334 302.845 359.897 301.075 360.278C290.913 362.446 280.328 359.676 270.706 355.778C266.769 354.19 262.913 352.423 259.257 350.315C263.496 341.919 268.035 334.768 272.051 329.103C281.874 335.431 294.447 338.142 303.066 346.238C304.693 347.764 306.199 349.531 306.902 351.661C307.625 353.79 307.403 356.321 305.897 357.987Z" fill="#9A7279"/>
<path d="M288.91 397.335C288.949 398.64 288.307 399.886 287.523 400.931C285.375 403.742 282.04 405.45 278.585 406.173C275.13 406.896 271.554 406.716 268.04 406.374C259.986 405.531 252.031 403.723 244.358 401.051C245.061 392.393 246.688 384.18 248.897 376.485C257.012 380.061 265.931 381.909 274.307 385.003C279.509 386.91 284.793 389.542 287.784 394.222C288.367 395.165 288.89 396.21 288.91 397.335Z" fill="#9A7279"/>
<path d="M278.959 444.873C277.534 446.64 275.565 447.886 273.597 449.031C267.369 452.646 260.803 455.679 253.993 458.009C251.461 452.224 249.353 446.138 247.726 439.852C247.706 439.791 247.686 439.731 247.686 439.67C254.133 437.623 260.721 435.915 267.35 434.548C269.82 434.047 272.371 433.585 274.843 434.067C277.313 434.529 279.743 436.094 280.505 438.505C281.169 440.675 280.385 443.106 278.959 444.873Z" fill="#9A7279"/>
<path d="M290.57 481.736C289.565 483.785 287.918 485.432 286.252 486.978C283.659 489.369 280.968 491.657 278.156 493.808C273.797 489.49 269.739 484.688 266.085 479.507C269.66 477.639 273.315 475.85 276.992 474.203C279.302 473.179 281.671 472.176 284.202 472.095C286.714 471.994 289.425 473.019 290.69 475.189C291.816 477.157 291.575 479.708 290.57 481.736Z" fill="#9A7279"/>
<mask id="mask10_71_473" style="mask-type:luminance" maskUnits="userSpaceOnUse" x="389" y="346" width="86" height="31">
<path d="M389.132 346.006H474.19V376.546H389.132V346.006Z" fill="white"/>
</mask>
<g mask="url(#mask10_71_473)">
<g opacity="0.619995">
<path d="M449.124 365.597C449.124 365.597 437.889 350.905 423.772 346.006C423.772 346.006 445.999 361.963 441.346 360.412C440.481 360.123 416.281 344.855 393.521 352.632C370.759 360.412 443.939 373.088 443.939 373.088L474.189 376.546L449.124 365.597Z" fill="#F8D1CA"/>
</g>
</g>
<mask id="mask11_71_473" style="mask-type:luminance" maskUnits="userSpaceOnUse" x="233" y="527" width="47" height="38">
<path d="M233.757 527.981H279.65V564.03H233.757V527.981Z" fill="white"/>
</mask>
<g mask="url(#mask11_71_473)">
<g opacity="0.619995">
<path d="M262.04 557.841L244.559 550.637L244.905 558.36L252.933 564.029C248.584 562.017 245.446 560.502 243.846 559.637C238.547 556.738 234.198 551.524 233.786 545.316C233.396 539.452 236.6 533.72 241.597 530.669C246.55 527.641 252.867 527.317 258.341 528.961C262.127 530.087 268.269 532.248 275.907 535.084C264.354 532.92 248.304 529.912 247.978 529.912C247.978 530.129 276.923 543.477 279.649 544.732L244.213 531.449L244.732 542.936L249.71 546.354L244.905 544.819L244.732 548.064L262.04 557.841Z" fill="#F8D1CA"/>
</g>
</g>
<mask id="mask12_71_473" style="mask-type:luminance" maskUnits="userSpaceOnUse" x="374" y="586" width="61" height="22">
<path d="M374.928 586.757H434.42V607.544H374.928V586.757Z" fill="white"/>
</mask>
<g mask="url(#mask12_71_473)">
<g opacity="0.619995">
<path d="M374.931 592.969L403.842 607.544L434.425 586.757L403.126 601.809L374.931 592.969Z" fill="#F8D1CA"/>
</g>
</g>
<path d="M546.933 594.704L547.106 594.789C546.998 594.877 546.911 594.943 546.803 595.05C546.847 594.899 546.889 594.789 546.933 594.704Z" fill="#FFBF6D"/>
<mask id="mask13_71_473" style="mask-type:luminance" maskUnits="userSpaceOnUse" x="477" y="301" width="47" height="30">
<path d="M477.444 301.835H523.846V330.78H477.444V301.835Z" fill="white"/>
</mask>
<g mask="url(#mask13_71_473)">
<g opacity="0.619995">
<path d="M523.847 315.507L520.343 323.576C519.888 323.123 519.498 322.58 519.13 321.976C512.099 310.186 497.801 312.91 497.801 312.91C489.018 317.756 478.115 330.023 477.443 330.78C483.544 321.045 494.188 310.878 494.188 310.878C494.188 310.878 491.332 308.52 489.191 306.788C491.247 305.555 493.408 304.322 495.681 303.089L502.322 305.989L510.586 301.835L523.847 315.507Z" fill="#F8D1CA"/>
</g>
</g>
<path d="M515.536 432.703L459.414 475.767C459.414 475.767 447.062 477.534 446.017 477.534C445.998 477.534 445.936 477.514 445.816 477.495C441.377 476.551 364.808 455.3 363.764 455.642C362.7 456.003 354.585 341.292 354.585 341.292L446.821 365.394L447.765 365.635L460.841 363.526C460.841 363.526 460.901 363.467 461.001 363.386C464.395 360.191 521.435 312.909 527.888 307.043C529.847 321.988 515.536 432.703 515.536 432.703Z" fill="#EA5D80"/>
<path d="M355.336 365.048C355.336 365.048 332.529 348.17 317.247 358.206C301.965 368.241 313.141 400.401 320.669 408.612C328.195 416.821 338.647 430.2 367.84 424.954C397.032 419.709 407.162 403.834 402.776 394.699C402.776 394.699 406.884 381.88 394.935 380.908C394.935 380.908 391.23 370.078 378.26 372.988C366.804 375.559 362.698 377.295 362.698 377.295L355.336 365.048Z" fill="#FFBF6D"/>
<path d="M355.7 380.219C358.985 378.647 362.368 377.276 365.812 376.076C369.261 374.883 372.773 373.843 376.382 373.142C379.984 372.487 383.724 372.084 387.47 372.835C389.314 373.24 391.21 374.009 392.625 375.467C394.057 376.904 394.817 378.877 395.073 380.795L394.32 380.072C395.984 380.245 397.484 380.701 398.951 381.43C400.398 382.157 401.729 383.258 402.632 384.677C403.521 386.087 404.072 387.732 404.138 389.359C404.243 390.173 404.116 390.968 404.11 391.776L403.709 394.117L403.619 393.432C405.91 398.474 404.151 404.014 401.191 407.947C398.208 411.994 394.151 414.943 389.997 417.413C381.602 422.287 372.265 425.511 362.602 426.629C352.945 427.582 342.899 425.815 334.451 421.002C326.01 416.128 319.518 408.602 314.678 400.393L318.942 406.151C320.376 408.05 322.15 409.67 323.731 411.437C324.495 412.35 325.45 413.067 326.367 413.818L329.115 416.066C329.987 416.872 331.068 417.391 332.049 418.041L335.056 419.909C343.403 424.413 353.086 425.657 362.401 424.749C371.733 423.586 380.809 420.365 388.902 415.567C392.92 413.154 396.803 410.406 399.54 406.727C400.902 404.912 401.964 402.876 402.426 400.708C402.905 398.59 402.77 396.175 401.929 394.353L401.773 394.018L401.837 393.666L402.213 391.57C402.218 390.878 402.347 390.167 402.257 389.49C402.218 388.104 401.769 386.81 401.084 385.682C400.376 384.561 399.336 383.652 398.125 382.991C396.928 382.341 395.511 381.883 394.19 381.71L393.509 381.623L393.439 380.988C393.253 379.308 392.671 377.703 391.547 376.507C390.442 375.294 388.839 374.567 387.166 374.151C383.761 373.363 380.102 373.648 376.559 374.171C372.992 374.701 369.464 375.579 365.987 376.615C362.517 377.675 359.077 378.857 355.7 380.219Z" fill="#C85325"/>
<path d="M362.864 377.755C360.633 375.605 358.971 373.124 357.447 370.564C355.98 367.969 354.65 365.296 353.897 362.287C356.135 364.435 357.795 366.918 359.317 369.48C360.779 372.075 362.109 374.748 362.864 377.755Z" fill="#C85325"/>
<path d="M381.928 384.922C384.116 384.164 385.951 383.411 387.948 382.657C388.946 382.318 389.934 381.922 390.981 381.628C392.016 381.309 393.078 381.017 394.256 380.886C392.761 382.699 390.808 383.866 388.699 384.685C387.628 385.055 386.522 385.36 385.362 385.434C384.219 385.524 383.001 385.427 381.928 384.922Z" fill="#9A7279"/>
<path d="M387.757 399.047C389.18 398.526 390.555 398.094 391.915 397.667C393.266 397.218 394.615 396.833 395.9 396.321C397.199 395.846 398.464 395.316 399.684 394.687C400.89 394.03 402.033 393.284 403.225 392.322C402.793 393.783 401.81 395.075 400.636 396.082C399.456 397.098 398.063 397.792 396.649 398.351C395.217 398.869 393.734 399.191 392.239 399.318C390.748 399.445 389.237 399.421 387.757 399.047Z" fill="#9A7279"/>
<path d="M524.243 356.95C524.243 356.95 513.286 369.692 502.583 377.59C491.879 385.49 492.136 408.171 505.642 411.228C519.145 414.287 531.379 404.858 535.964 389.057C540.552 373.259 524.243 356.95 524.243 356.95Z" fill="#FFBF6D"/>
<path d="M498.702 404.331C502.77 404.02 506.624 403.527 510.351 402.474C512.225 401.998 514.036 401.328 515.817 400.551C517.632 399.813 519.302 398.804 521.135 397.847C519.907 399.474 518.398 400.963 516.618 402.038C514.877 403.185 512.93 404.011 510.923 404.56C508.908 405.09 506.837 405.395 504.767 405.362C502.705 405.338 500.631 405.064 498.702 404.331Z" fill="#9A7279"/>
<path d="M495.889 391.899C499.259 391.533 502.441 391.347 505.57 390.835C507.129 390.59 508.651 390.233 510.168 389.806C511.666 389.317 513.111 388.709 514.646 387.938C513.727 389.374 512.349 390.526 510.825 391.363C509.284 392.171 507.604 392.666 505.914 392.97C504.215 393.219 502.502 393.281 500.814 393.108C499.128 392.939 497.455 392.6 495.889 391.899Z" fill="#9A7279"/>
<path d="M416.296 477.718C415.633 490.353 416.59 510.075 408.63 516.003C406.677 517.457 403.804 517.995 400.631 517.875C396.694 517.715 392.394 514.275 392.234 511.685C376.385 517.227 348.083 525.221 321.691 518.212C280.253 507.204 309.72 467.234 308.734 467.072C308.314 466.993 311.266 460.323 314.701 452.81L313.495 426.458C313.495 426.458 370.821 414.167 398.579 471.572C398.579 471.572 410.511 437.868 424.251 440.699C426.68 441.203 428.026 442.206 428.589 443.612C431.199 450.08 416.96 465.005 416.296 477.718Z" fill="#FFBF6D"/>
<path d="M302.491 429.355C311.388 425.709 321.077 424.093 330.72 424.034C335.549 424.034 340.388 424.444 345.148 425.333C346.346 425.508 347.513 425.843 348.698 426.093C349.878 426.36 351.065 426.601 352.214 427.03L355.692 428.186C356.819 428.644 357.908 429.195 359.018 429.697C367.89 433.848 375.254 440.45 381.944 447.387C388.519 454.497 394.425 462.152 399.492 470.456L397.596 470.62C399.584 465.36 401.912 460.296 404.664 455.404C407.467 450.571 410.528 445.743 415.012 442.016C417.235 440.223 420.123 438.686 423.318 438.979C424.914 439.158 426.252 439.592 427.675 440.457C428.33 440.956 429.016 441.556 429.357 442.41C429.707 443.225 429.821 444.12 429.732 444.902C429.355 448.062 427.87 450.466 426.659 452.978C425.383 455.45 424.069 457.874 422.865 460.344C420.452 465.271 418.485 470.421 417.515 475.801C417.003 478.474 416.865 481.22 416.633 483.99L416.024 492.28C415.538 497.796 415.144 503.389 413.583 508.78C412.786 511.425 411.581 514.153 409.317 515.914C407.055 517.689 404.088 518.042 401.358 517.814C404.103 517.93 407.005 517.433 409.098 515.644C411.216 513.89 412.299 511.228 412.998 508.609C414.371 503.288 414.568 497.717 414.916 492.208L415.365 483.907C415.542 481.152 415.628 478.345 416.105 475.558C416.998 469.994 418.925 464.651 421.284 459.59C422.451 457.05 423.751 454.585 425.011 452.132C426.2 449.7 427.594 447.164 427.831 444.766C427.945 443.566 427.522 442.697 426.596 442.06C425.663 441.477 424.29 441.024 423.134 440.93C420.714 440.709 418.297 441.924 416.276 443.582C412.207 446.991 409.199 451.71 406.51 456.439C403.88 461.235 401.546 466.256 399.571 471.347L398.787 473.366L397.672 471.511C392.785 463.387 386.956 455.721 380.538 448.699C377.24 445.27 373.884 441.874 370.15 438.935C368.357 437.372 366.362 436.082 364.464 434.659C362.418 433.478 360.498 432.044 358.326 431.109C357.259 430.603 356.211 430.045 355.127 429.579L351.792 428.403C350.695 427.963 349.53 427.704 348.376 427.42C347.218 427.155 346.075 426.8 344.901 426.605C340.237 425.626 335.476 425.186 330.709 425.02C321.176 424.755 311.534 426.136 302.491 429.355Z" fill="#C85325"/>
<mask id="mask14_71_473" style="mask-type:luminance" maskUnits="userSpaceOnUse" x="400" y="443" width="29" height="74">
<path d="M400.897 443.61H428.908V516.001H400.897V443.61Z" fill="white"/>
</mask>
<g mask="url(#mask14_71_473)">
<g opacity="0.199997">
<path d="M416.295 477.717C415.631 490.352 417.094 509.442 408.629 516.002C390.271 499.592 409.143 457.892 418.566 448.693C422.201 445.137 425.656 443.832 428.588 443.611C431.198 450.079 416.958 465.004 416.295 477.717Z" fill="#9A7279"/>
</g>
</g>
<path d="M410.139 449.462C410.139 449.462 413.505 447.338 417.223 450.347L410.139 449.462Z" fill="#C85325"/>
<path d="M461.012 363.386L459.425 475.767C459.425 475.767 447.073 477.534 446.028 477.534C446.009 477.534 445.947 477.514 445.827 477.495L446.832 365.394L447.776 365.635L460.853 363.526C460.853 363.526 460.912 363.467 461.012 363.386Z" fill="#9A7279"/>
<path d="M446.841 366.479C446.751 366.479 446.657 366.469 446.569 366.444L354.331 342.34C353.753 342.191 353.407 341.598 353.558 341.022C353.709 340.442 354.3 340.092 354.876 340.249L446.56 364.207C448.253 362.801 454.207 358.575 460.752 362.207L527.209 306.219C527.664 305.84 528.347 305.893 528.735 306.351C529.118 306.806 529.059 307.489 528.603 307.875L461.557 364.358C461.196 364.66 460.677 364.695 460.279 364.443C453.718 360.263 447.657 366.107 447.598 366.169C447.395 366.37 447.121 366.479 446.841 366.479Z" fill="#9A7279"/>
<path d="M446.952 366.386L461.014 364.422C461.014 364.422 453.247 358.529 446.952 366.386Z" fill="#9A7279"/>
<path d="M446.628 381.702L446.514 379.543L460.638 378.796L460.752 380.958L446.628 381.702Z" fill="#FFBF6D"/>
<path d="M445.847 450.378L445.733 448.219L459.854 447.472L459.971 449.631L445.847 450.378Z" fill="#FFBF6D"/>
<path d="M399.015 265.029C411.062 280.796 416.322 265.487 414.855 255" stroke="#9A7279" stroke-width="2" stroke-linecap="round"/>
<path d="M431.443 264.082C419.343 280.034 414.122 264.592 415.62 254" stroke="#9A7279" stroke-width="2" stroke-linecap="round"/>
</svg>
