<svg width="860" height="886" viewBox="0 0 860 886" fill="none" xmlns="http://www.w3.org/2000/svg">
<path opacity="0.4" d="M522.205 82.7366C708.712 125.863 813.506 361.489 770.379 547.997C727.252 734.504 541.097 850.737 354.59 807.61C168.083 764.483 15.5428 658.827 58.6694 472.32C101.796 285.813 335.698 39.61 522.205 82.7366Z" fill="#F39D90"/>
<path d="M802 451.85C802 643.279 596.04 798.462 404.612 798.462C213.183 798.462 58 643.279 58 451.85C58 260.422 126.574 88 318.003 88C509.431 88 802 260.422 802 451.85Z" fill="white"/>
<path d="M635.925 538.036C645.164 574.357 621.563 622.638 576.321 608.816L572.594 591.245C574.04 590.779 590.167 589.455 604.579 576.097C606.368 574.43 608.131 572.569 609.847 570.51C612.03 567.863 613.451 564.995 614.259 561.907C619.039 543.378 601.564 517.156 599.749 484.314C599.725 483.995 599.725 483.7 599.7 483.381C599.359 474.732 600.781 466.814 603.378 459.83C608.524 445.983 618.204 435.762 627.617 430.764C634.283 427.209 640.803 426.254 645.507 428.434C657.395 433.948 645.851 445.271 635.287 457.207C632.665 460.198 630.067 463.237 627.936 466.227C621.219 475.613 623.745 492.229 628.034 509.214C630.165 517.693 632.763 526.247 634.872 534.042C635.238 535.39 635.581 536.737 635.925 538.036Z" fill="#FFC06D"/>
<mask id="mask0_71_6820" style="mask-type:luminance" maskUnits="userSpaceOnUse" x="572" y="427" width="79" height="185">
<path d="M572.602 427.271H650.546V611.237H572.602V427.271Z" fill="white"/>
</mask>
<g mask="url(#mask0_71_6820)">
<g opacity="0.199997">
<path d="M635.936 538.036C645.174 574.357 621.573 622.638 576.331 608.816L572.604 591.245C574.05 590.779 590.178 589.455 604.589 576.097C606.379 574.43 608.142 572.569 609.858 570.51C612.04 567.863 613.462 564.995 614.269 561.907C619.05 543.378 601.574 517.156 599.76 484.314C599.735 483.995 599.735 483.7 599.711 483.381C599.37 474.732 600.791 466.814 603.389 459.83C608.534 445.983 618.215 435.762 627.628 430.764C634.293 427.209 640.814 426.254 645.518 428.434C657.405 433.948 645.861 445.271 635.297 457.207C632.675 460.198 630.078 463.237 627.947 466.227C621.23 475.613 623.756 492.229 628.045 509.214C630.176 517.693 632.773 526.247 634.882 534.042C635.248 535.39 635.592 536.737 635.936 538.036Z" fill="#9A7279"/>
<path d="M604.93 576.463L604.929 576.464C597.661 583.202 589.96 586.903 583.897 588.979C580.865 590.017 578.242 590.648 576.286 591.05C575.309 591.251 574.498 591.394 573.89 591.501C573.605 591.551 573.375 591.592 573.196 591.625L576.759 608.423C587.859 611.758 597.609 611.309 605.855 608.227C614.176 605.118 621.002 599.316 626.154 591.943C636.467 577.187 640.036 556.188 635.452 538.162C635.325 537.682 635.199 537.198 635.072 536.711C634.853 535.872 634.631 535.024 634.4 534.173L634.4 534.172C633.602 531.223 632.731 528.155 631.842 525.021C630.388 519.899 628.883 514.597 627.561 509.336C627.561 509.336 627.561 509.336 627.561 509.335L628.045 509.214C623.756 492.229 621.23 475.613 627.947 466.228L604.93 576.463ZM604.93 576.463C606.736 574.781 608.513 572.905 610.242 570.83L610.244 570.828C612.474 568.124 613.928 565.191 614.754 562.034L614.754 562.032C615.974 557.302 615.768 552.11 614.767 546.497C613.766 540.886 611.964 534.817 609.966 528.331C609.736 527.586 609.504 526.835 609.27 526.078C605.425 513.647 601.111 499.697 600.26 484.287L600.26 484.287L600.259 484.276C600.247 484.127 600.242 483.982 600.235 483.828L600.235 483.824C600.229 483.676 600.223 483.518 600.211 483.352C599.873 474.774 601.284 466.926 603.858 460.004L603.858 460.004C608.963 446.267 618.562 436.144 627.863 431.205L627.863 431.205C634.467 427.683 640.81 426.803 645.308 428.888C648.194 430.226 649.552 431.864 649.933 433.68C650.32 435.529 649.729 437.704 648.388 440.174C647.053 442.634 645.018 445.309 642.641 448.129C641.001 450.075 639.211 452.074 637.389 454.11C636.57 455.025 635.745 455.948 634.923 456.876L634.922 456.878C632.3 459.869 629.687 462.924 627.54 465.937L604.93 576.463Z" fill="#9A7279" stroke="black"/>
</g>
</g>
<path d="M635.289 457.208C635.117 446.474 644.872 436.767 644.872 436.767C634.383 436.328 629.505 432.748 627.617 430.764C634.285 427.209 640.803 426.254 645.51 428.434C657.395 433.949 645.854 445.271 635.289 457.208Z" fill="#9A7279"/>
<path d="M599.699 483.382C599.355 474.73 600.777 466.815 603.374 459.83C606.144 462.207 610.506 466.79 611.268 472.525C612.002 477.917 604.943 481.494 599.699 483.382Z" fill="#9A7279"/>
<path d="M634.864 534.04C630.084 533.475 624.057 531.59 621.776 525.928C619.178 519.432 624.229 512.939 628.027 509.214C630.158 517.694 632.757 526.245 634.864 534.04Z" fill="#9A7279"/>
<path d="M618.384 574.529C616.302 578.302 609.584 577.396 604.586 576.098C606.376 574.431 608.138 572.567 609.855 570.51C612.035 567.863 613.459 564.996 614.266 561.907C617.625 564.603 621.276 569.26 618.384 574.529Z" fill="#9A7279"/>
<path d="M324.616 433.247C308.772 469.824 307.461 499.7 311.267 522.027L311.268 522.03C312.27 528.107 313.685 533.621 315.294 538.573L315.294 538.574C318.564 548.713 322.639 556.457 325.892 561.663C327.519 564.266 328.94 566.234 329.953 567.549C330.459 568.206 330.863 568.7 331.14 569.029C331.278 569.193 331.384 569.316 331.455 569.398C331.472 569.417 331.487 569.434 331.5 569.449C331.514 569.465 331.526 569.478 331.535 569.488L331.555 569.51L331.56 569.515L331.561 569.516L331.561 569.516L331.747 569.721L331.672 569.988C329.639 577.235 327.132 591.184 328.665 606.425C330.198 621.663 335.763 638.15 349.829 650.552L349.499 650.927L349.829 650.552C358.232 657.962 369.79 661.86 381.897 663.643L381.898 663.643C396.052 665.742 410.905 664.968 422.231 663.665C427.891 663.014 432.665 662.232 436.023 661.612C437.702 661.303 439.027 661.034 439.931 660.842C440.383 660.747 440.729 660.67 440.963 660.618C441.08 660.592 441.168 660.572 441.227 660.558L441.293 660.543L441.31 660.539L441.314 660.538L441.315 660.538C441.315 660.538 441.315 660.538 441.429 661.025L441.315 660.538L442.299 660.307L441.885 661.229L441.885 661.23L441.884 661.232L441.879 661.245L441.856 661.296C441.837 661.342 441.807 661.411 441.77 661.502C441.695 661.684 441.588 661.953 441.462 662.296C441.209 662.982 440.879 663.964 440.571 665.141C439.954 667.5 439.437 670.612 439.795 673.687L439.796 673.699C439.821 673.968 439.843 674.194 439.888 674.441L439.89 674.448C440.274 676.764 441.145 678.526 442.588 679.865C444.039 681.212 446.111 682.172 448.967 682.8C454.698 684.059 463.395 683.944 476.029 683.147L476.029 683.147C481.009 682.835 485.076 679.819 488.392 675.356C491.709 670.891 494.23 665.035 496.116 659.184C498 653.338 499.241 647.529 500.011 643.177C500.395 641.002 500.662 639.194 500.832 637.93C500.918 637.298 500.979 636.802 501.019 636.465C501.038 636.296 501.053 636.167 501.062 636.081L501.073 635.983L501.076 635.959L501.076 635.953L501.076 635.952C501.076 635.952 501.076 635.951 501.161 635.96L501.076 635.951L501.208 634.679L501.974 635.703L508.503 644.426L575.302 632.309C576.589 626.918 577.664 621.741 578.529 616.775C578.529 616.775 578.529 616.775 578.529 616.775L579.022 616.86C580.026 611.052 580.785 605.538 581.3 600.269C582.061 592.427 582.28 585.123 582.083 578.357C581.889 571.716 581.251 565.564 580.271 559.902L324.616 433.247ZM324.616 433.247C325.986 430.091 327.453 426.887 329.043 423.634L329.043 423.634C344.791 391.371 375.155 374.021 404.336 364.714C433.513 355.407 461.433 354.165 472.169 354.067C473.648 354.055 474.803 354.061 475.587 354.07C475.979 354.075 476.279 354.08 476.48 354.085C476.509 354.085 476.536 354.086 476.561 354.086C476.578 354.106 476.595 354.127 476.614 354.15C476.743 354.305 476.933 354.54 477.176 354.856C477.662 355.486 478.358 356.437 479.197 357.712C479.9 358.805 480.702 360.119 481.605 361.703C483.6 365.332 485.916 370.203 487.961 376.393C488.622 378.418 489.279 380.59 489.865 382.88L489.865 382.882C490.671 385.979 491.377 389.321 491.937 392.906L491.937 392.909C493.622 403.328 494.161 415.853 492.352 430.488L492.32 430.746L492.513 430.92L492.513 430.92L492.515 430.922L492.523 430.929L492.553 430.956L492.592 430.992C492.615 431.013 492.643 431.039 492.675 431.069C492.783 431.168 492.944 431.318 493.153 431.515C493.572 431.909 494.184 432.494 494.958 433.257C496.506 434.783 498.699 437.018 501.278 439.854C504.845 443.789 509.149 448.874 513.497 454.813C516.871 459.43 520.266 464.561 523.318 470.077L523.319 470.079C526.271 475.353 528.932 480.988 530.978 486.813L530.979 486.815C532.001 489.691 532.88 492.639 533.585 495.635L533.649 495.906L533.913 495.995L533.914 495.995L324.616 433.247Z" fill="#FFC06D" stroke="black"/>
<path d="M309.823 402.164C308.476 396.772 307.592 391.286 306.757 386.111C306.696 385.727 306.634 385.346 306.573 384.966C305.68 379.447 304.812 374.335 303.459 370.069C302.104 365.8 300.286 362.452 297.545 360.395C294.822 358.353 291.106 357.523 285.813 358.468L285.64 358.499L285.486 358.415L285.485 358.415L285.485 358.415L285.484 358.414L285.478 358.411L285.449 358.396C285.424 358.382 285.385 358.362 285.332 358.336C285.228 358.283 285.073 358.206 284.871 358.112C284.468 357.924 283.881 357.669 283.154 357.403C281.697 356.869 279.688 356.295 277.466 356.122C275.245 355.95 272.829 356.179 270.538 357.232C268.253 358.283 266.06 360.168 264.3 363.366L264.123 363.688L263.763 363.615L263.763 363.615L263.763 363.615L263.762 363.614L263.76 363.614L263.742 363.611C263.725 363.608 263.698 363.603 263.661 363.598C263.587 363.586 263.476 363.572 263.331 363.559C263.042 363.533 262.623 363.515 262.116 363.546C261.102 363.61 259.746 363.873 258.369 364.669C255.646 366.243 252.68 370.002 252.305 378.954L252.305 378.954C251.987 386.406 251.767 404.316 256.824 424.076L256.824 424.076C258.41 430.277 260.51 436.648 263.291 442.916L263.291 442.917C266.683 450.603 271.072 458.158 276.799 465.105L276.799 465.106C281.014 470.246 285.983 475.07 291.781 479.333L291.782 479.334C298.746 484.479 306.937 488.852 316.542 492.101L329.266 439.563C329.163 439.452 329.02 439.294 328.84 439.092C328.448 438.651 327.884 437.997 327.189 437.14C325.8 435.428 323.891 432.905 321.801 429.659C317.623 423.168 312.719 413.773 309.823 402.164ZM309.823 402.164L310.308 402.043L309.823 402.164Z" fill="#FFC06D" stroke="black"/>
<path d="M581.303 600.269C580.788 605.537 580.029 611.051 579.025 616.86C578.141 621.935 577.039 627.228 575.716 632.742L508.292 644.973L501.577 636.002C501.577 636.002 496.797 682.347 476.064 683.646C450.821 685.239 440.993 684.137 439.4 674.53C439.35 674.26 439.326 674.014 439.301 673.744C438.565 667.423 441.432 661.025 441.432 661.025C441.432 661.025 410.258 668.353 381.828 664.138C369.673 662.348 358.006 658.427 349.502 650.927C321.121 625.905 327.102 584.436 331.194 569.853C331.194 569.853 321.391 559.094 314.821 538.727C313.206 533.753 311.784 528.214 310.778 522.111C306.955 499.686 308.278 469.712 324.16 433.048C325.533 429.886 327.003 426.675 328.597 423.414C360.262 358.541 450.649 353.764 472.168 353.567C475.133 353.543 476.8 353.592 476.8 353.592C476.8 353.592 477.927 354.866 479.619 357.439C480.328 358.541 481.136 359.864 482.044 361.458C484.053 365.111 486.383 370.011 488.44 376.237C489.103 378.27 489.763 380.453 490.352 382.756C491.163 385.869 491.872 389.227 492.434 392.829C494.126 403.295 494.666 415.867 492.852 430.549C492.852 430.549 496.48 433.831 501.651 439.517C505.228 443.463 509.544 448.562 513.904 454.518C517.287 459.148 520.695 464.296 523.759 469.835C526.722 475.128 529.396 480.79 531.453 486.647C532.482 489.54 533.365 492.505 534.075 495.52C534.075 495.52 550.691 501.059 564.393 520.174C567.334 524.245 570.128 528.949 572.578 534.364C575.887 541.57 578.583 550.025 580.275 559.902C581.254 565.564 581.893 571.716 582.087 578.357C582.283 585.123 582.064 592.427 581.303 600.269Z" fill="#FFC06D"/>
<path d="M449.766 620.464C448.492 641.443 443.662 652.864 440.893 661.123C436.653 662.08 408.076 668.034 381.829 664.138C368.225 656.542 356.829 643.527 353.666 621.493C344.477 557.55 364.722 486.255 401.042 483.952C428.198 482.236 442.707 520.739 446.211 531.401C446.211 531.426 446.211 531.426 446.235 531.45C448.099 549.267 451.654 588.995 449.766 620.464Z" fill="#FFDFC5"/>
<path d="M482.894 389.72L482.894 389.722C482.724 390.958 482.506 392.169 482.239 393.355L482.237 393.362C482.228 393.408 482.215 393.46 482.203 393.515C482.17 393.653 482.133 393.814 482.113 393.969C481.798 395.369 481.436 396.718 480.977 398.114L480.976 398.117C480.151 400.693 479.133 403.264 477.824 405.783L477.821 405.789C477.444 406.543 477.021 407.295 476.589 408.063L476.557 408.12C476.557 408.12 476.557 408.12 476.557 408.121C474.82 411.162 472.669 414.09 470.176 416.926C439.099 441.641 404.037 446.508 376.713 445.186C363.047 444.524 351.325 442.314 343.021 440.27C338.869 439.248 335.573 438.268 333.316 437.544C332.188 437.182 331.32 436.884 330.735 436.677C330.442 436.573 330.22 436.493 330.072 436.438C329.998 436.41 329.942 436.39 329.905 436.376L329.886 436.368C328.149 435.376 326.325 434.197 324.477 432.661L324.477 432.661L324.039 432.298C324.038 432.298 324.038 432.297 324.037 432.297C323.625 431.948 323.21 431.579 322.79 431.205C322.745 431.165 322.701 431.125 322.656 431.086C320.045 428.641 317.479 425.566 315.127 421.663C314.886 421.257 314.661 420.837 314.422 420.392C314.351 420.26 314.279 420.126 314.205 419.99L314.202 419.985C313.623 418.945 313.067 417.835 312.562 416.63L312.557 416.618L312.552 416.607C311.825 415.082 311.147 413.409 310.539 411.636C310.171 410.561 309.809 409.492 309.468 408.4C309.053 406.864 308.663 405.331 308.325 403.801C307.886 401.728 307.521 399.642 307.328 397.584L307.327 397.577L307.326 397.57C307.156 396.185 307.035 394.782 307.011 393.407H307.011L307.01 393.394C306.891 390.627 306.988 387.908 307.302 385.215L307.303 385.206L307.304 385.198C307.376 384.31 307.496 383.441 307.642 382.568L307.642 382.566C307.788 381.668 307.959 380.745 308.153 379.85C308.832 376.861 309.732 373.948 310.896 371.109C312.86 366.425 315.554 361.961 319.002 357.859L319.281 357.527L318.991 357.203C318.121 356.234 317.326 355.248 316.633 354.219L316.484 353.998H316.456C315.682 352.865 315.031 351.665 314.437 350.432L314.4 350.355L314.376 350.331C311.139 343.497 310.587 335.774 311.434 329.622C311.86 326.535 312.635 323.867 313.582 321.921C314.056 320.947 314.566 320.17 315.085 319.611C315.605 319.051 316.108 318.74 316.568 318.639C317.13 318.522 317.659 318.454 318.202 318.454L318.204 318.454C320.928 318.442 323.947 319.751 327.036 322.08C330.118 324.402 333.223 327.703 336.108 331.586L336.109 331.587C338.694 335.049 342.167 337.518 345.448 339.208L345.651 339.313L345.864 339.227C350.167 337.49 354.811 335.78 359.768 334.265L359.77 334.264C363.458 333.117 367.322 332.066 371.285 331.086L371.289 331.085C372.883 330.676 374.502 330.312 376.128 329.947L376.175 329.937L376.175 329.937C383.559 328.274 391.213 327.003 398.867 326.148L398.868 326.148C400.824 325.927 402.754 325.731 404.705 325.585L404.706 325.585C409.766 325.195 414.799 325.024 419.685 325.097L419.685 325.097C423.222 325.146 426.689 325.366 430.059 325.706L430.516 325.752L430.601 325.302C431.96 318.096 436.292 311.939 440.863 307.816C443.147 305.756 445.474 304.218 447.493 303.316C448.503 302.865 449.424 302.578 450.215 302.459C451.002 302.34 451.627 302.393 452.081 302.579L452.36 302.718L452.359 302.718L452.372 302.724C454.98 303.942 456.986 306.694 458.378 310.522C459.766 314.341 460.515 319.154 460.661 324.366C460.862 331.433 464.637 337.688 467.252 341.24L467.272 341.267L467.295 341.291C469.918 344.01 472.322 347.071 474.412 350.424L474.836 350.16L474.412 350.424C475.093 351.516 475.747 352.657 476.354 353.821L476.357 353.826C477.036 355.09 477.667 356.376 478.222 357.705L478.231 357.729L478.244 357.751C478.401 358.042 478.54 358.364 478.658 358.672L478.663 358.683L478.668 358.694C479.2 359.902 479.659 361.137 480.099 362.405L480.099 362.405L480.103 362.417C480.138 362.51 480.173 362.609 480.21 362.715L480.21 362.715C480.246 362.815 480.283 362.92 480.32 363.021C480.808 364.507 481.266 366.009 481.629 367.53L481.642 367.586L481.668 367.638C481.679 367.659 481.685 367.677 481.688 367.688C481.688 367.689 481.689 367.691 481.689 367.692V367.739L481.702 367.794C481.728 367.909 481.755 368.023 481.781 368.137C482.049 369.296 482.311 370.428 482.53 371.599L482.539 371.647L482.557 371.692C482.557 371.692 482.557 371.692 482.557 371.693C482.558 371.697 482.564 371.719 482.571 371.777C482.574 371.8 482.576 371.819 482.578 371.843C482.58 371.856 482.581 371.871 482.583 371.887C482.587 371.928 482.593 371.977 482.602 372.028L482.602 372.033C482.846 373.419 483.04 374.798 483.136 376.151L483.137 376.165L483.139 376.18C483.211 376.729 483.259 377.255 483.283 377.778L483.283 377.786L483.284 377.795C483.6 381.753 483.454 385.735 482.894 389.72Z" fill="#FFC06D" stroke="black"/>
<path d="M483.39 389.79C483.218 391.04 482.997 392.265 482.727 393.466C482.68 393.687 482.628 393.858 482.606 394.055C482.287 395.476 481.919 396.849 481.452 398.27C480.62 400.868 479.592 403.465 478.268 406.014C477.875 406.799 477.433 407.582 476.992 408.368C475.229 411.456 473.046 414.422 470.522 417.29C408.099 466.968 329.672 436.822 329.672 436.822C327.907 435.816 326.046 434.615 324.158 433.046L323.716 432.681C323.252 432.288 322.785 431.87 322.319 431.456C319.672 428.978 317.075 425.865 314.698 421.92C314.379 421.382 314.085 420.818 313.765 420.228C313.179 419.175 312.614 418.048 312.101 416.823C311.364 415.279 310.679 413.587 310.066 411.798C309.697 410.72 309.331 409.642 308.988 408.54C308.57 406.996 308.178 405.451 307.836 403.907C307.394 401.823 307.026 399.716 306.83 397.632C306.658 396.235 306.535 394.813 306.511 393.417C306.39 390.623 306.489 387.878 306.805 385.158C306.879 384.252 307.002 383.368 307.149 382.486C307.296 381.581 307.468 380.648 307.665 379.742C308.349 376.727 309.258 373.786 310.434 370.918C312.418 366.187 315.138 361.68 318.619 357.538C317.738 356.556 316.928 355.552 316.218 354.499H316.193C315.334 353.273 314.625 351.975 313.986 350.649L313.962 350.624C307.321 336.704 311.708 319.182 316.464 318.151C317.05 318.028 317.615 317.955 318.202 317.955C323.961 317.93 330.701 323.471 336.509 331.288C339.036 334.671 342.441 337.097 345.677 338.764C349.99 337.023 354.647 335.307 359.621 333.787C363.321 332.636 367.195 331.583 371.165 330.601C372.783 330.186 374.426 329.818 376.066 329.449C383.468 327.782 391.14 326.508 398.812 325.651C400.771 325.43 402.708 325.234 404.667 325.087C409.742 324.696 414.79 324.524 419.692 324.598C423.245 324.647 426.726 324.868 430.109 325.209C432.879 310.53 447.729 300.212 452.289 302.124L452.583 302.272C458.146 304.869 460.867 313.862 461.161 324.353C461.358 331.264 465.057 337.416 467.655 340.944C470.301 343.689 472.727 346.777 474.836 350.16C475.523 351.263 476.184 352.414 476.798 353.59C477.483 354.864 478.121 356.166 478.683 357.513C478.855 357.83 479.002 358.174 479.125 358.493C479.665 359.718 480.129 360.968 480.571 362.242C480.645 362.438 480.718 362.659 480.792 362.856C481.283 364.351 481.747 365.87 482.115 367.415C482.164 367.513 482.189 367.609 482.189 367.682C482.484 368.959 482.778 370.209 483.021 371.507C483.07 371.63 483.07 371.8 483.095 371.947C483.34 373.344 483.537 374.741 483.635 376.116C483.709 376.678 483.758 377.218 483.782 377.756C484.102 381.752 483.954 385.771 483.39 389.79Z" fill="#FFC06D"/>
<path d="M430.754 337.245C424.528 316.645 446.567 299.705 452.273 302.123C452.371 302.162 452.479 302.209 452.577 302.258C451.281 303.392 449.609 305.297 448.266 308.366C446.923 311.465 445.916 315.736 445.98 321.572C446.113 332.308 439.889 336.391 434.81 337.245C433.285 337.513 431.864 337.476 430.754 337.245Z" fill="#9A7279"/>
<path d="M313.968 350.618C313.968 350.618 313.97 350.628 313.985 350.635C314.056 350.859 314.751 352.671 316.199 354.487C316.202 354.497 316.214 354.505 316.219 354.514C317.027 355.531 318.399 356.582 320.056 357.389C322.983 358.823 326.783 359.496 329.94 357.902C337.711 353.962 322.305 341.446 317.849 329.372C316.391 325.414 316.106 321.511 318.2 317.961C317.616 317.968 317.046 318.034 316.479 318.145C311.719 319.171 307.307 336.715 313.968 350.618Z" fill="#9A7279"/>
<path d="M321.026 348.329C321.026 348.329 318.62 352.836 320.044 357.391C322.971 358.822 326.771 359.497 329.928 357.901C337.696 353.961 322.293 341.445 317.837 329.371C317.348 332.712 317.343 337.703 320.078 342.527C320.078 342.527 315.873 340.249 315.072 341.045C314.314 341.828 319.172 345.275 319.445 345.466C319.224 345.383 316.658 344.415 316.143 345.518C315.605 346.672 321.026 348.329 321.026 348.329Z" fill="white"/>
<path d="M434.813 337.245C428.339 325.976 439.527 320.627 439.527 320.627C439.527 320.627 436.677 320.138 437.096 318.402C437.506 316.74 440.17 318.132 440.398 318.253C440.33 318.127 438.835 315.584 439.272 314.531C439.716 313.443 441.771 315.866 441.771 315.866C442.736 311.342 446.369 309.193 448.267 308.366C446.924 311.464 445.92 315.736 445.984 321.572C446.114 332.308 439.89 336.391 434.813 337.245Z" fill="white"/>
<path d="M331.28 407.819C328.668 411.828 323.782 413.637 319.368 414.958C316.948 415.656 314.519 416.333 312.086 416.839C311.36 415.268 310.677 413.588 310.061 411.803C309.685 410.721 309.332 409.631 308.998 408.531C308.559 406.992 308.156 405.45 307.822 403.918C307.373 401.831 307.024 399.729 306.82 397.635C307.201 397.8 307.626 397.945 308.063 398.021C311.22 398.654 314.662 398.453 318.03 398.03C321.119 397.657 324.31 397.122 327.19 397.748C330.077 398.357 332.64 400.456 332.68 403.493C332.707 404.949 332.169 406.498 331.28 407.819Z" fill="#9A7279"/>
<path d="M312.299 391.785C310.359 392.674 308.437 393.174 306.5 393.405C306.382 390.638 306.49 387.872 306.799 385.154C306.888 384.255 307.008 383.369 307.143 382.49C307.298 381.564 307.469 380.644 307.673 379.738L307.754 379.775C311.078 380.796 315.309 379.902 317.842 382.461C318.471 383.087 318.9 383.872 318.925 384.82C319.03 388.353 315.146 390.444 312.299 391.785Z" fill="#9A7279"/>
<path d="M326.434 426.912C325.231 428.567 323.843 430.087 322.316 431.454C319.672 428.979 317.06 425.866 314.703 421.904C317.531 421.644 320.433 420.833 323.156 419.478C324.003 419.076 324.865 418.604 325.717 418.54C327.504 418.393 328.709 420.075 328.638 421.845C328.577 423.6 327.573 425.361 326.434 426.912Z" fill="#9A7279"/>
<path d="M390.386 346.22C390.386 346.22 393.97 341.199 396.381 341.899C398.792 342.599 395.21 348.358 390.761 349.974C390.761 349.974 382.915 346.73 384.459 343.288C386.003 339.844 390.386 346.22 390.386 346.22Z" fill="#9A7279"/>
<mask id="mask1_71_6820" style="mask-type:luminance" maskUnits="userSpaceOnUse" x="375" y="349" width="35" height="30">
<path d="M375.477 349.536H409.477V378.042H375.477V349.536Z" fill="white"/>
</mask>
<g mask="url(#mask1_71_6820)">
<g opacity="0.479996">
<path d="M399.353 349.861C402.255 350.487 405.132 352.402 406.986 355.523C409.677 360.047 410.536 365.851 407.796 370.221C406.097 372.937 403.546 374.496 400.946 375.495C395.96 377.412 390.878 378.9 385.538 377.474C383.599 376.956 381.664 376.099 380.01 374.582C377.476 372.254 375.757 368.387 375.507 364.442C375.254 360.497 376.474 356.569 378.706 354.141C381.451 351.155 385.784 350.028 389.383 349.893C392.592 349.773 396.162 349.174 399.353 349.861Z" fill="#9A7279"/>
</g>
</g>
<mask id="mask2_71_6820" style="mask-type:luminance" maskUnits="userSpaceOnUse" x="326" y="373" width="26" height="16">
<path d="M326.305 373.452H351.941V388.958H326.305V373.452Z" fill="white"/>
</mask>
<g mask="url(#mask2_71_6820)">
<g opacity="0.479996">
<path d="M348.425 375.619C352.255 377.629 353.39 382.566 349.641 385.569C344.62 389.593 334.299 390.199 328.962 386.492C324.456 383.362 326.173 376.475 330.467 374.769C334.098 373.326 338.119 373.188 341.912 373.775C343.675 374.047 346.28 374.492 348.425 375.619Z" fill="#EA5D80"/>
</g>
</g>
<mask id="mask3_71_6820" style="mask-type:luminance" maskUnits="userSpaceOnUse" x="433" y="359" width="25" height="20">
<path d="M433.398 359.416H457.888V378.69H433.398V359.416Z" fill="white"/>
</mask>
<g mask="url(#mask3_71_6820)">
<g opacity="0.479996">
<path d="M451.839 359.653C456.192 360.544 459.334 365.535 457.196 370.075C454.331 376.156 445.173 380.31 438.721 378.081C433.274 376.198 431.899 368.121 435.09 364.809C437.788 362.01 441.397 360.5 445.11 359.852C446.835 359.552 449.401 359.152 451.839 359.653Z" fill="#EA5D80"/>
</g>
</g>
<path d="M472.507 368.204C469.102 367.728 465.692 367.583 462.282 367.519C458.869 367.49 455.457 367.541 452.039 367.929C455.444 368.408 458.854 368.553 462.267 368.614C465.677 368.641 469.09 368.587 472.507 368.204Z" fill="#9A7279"/>
<path d="M472.217 359.688C468.893 360.014 465.643 360.665 462.412 361.392C459.188 362.153 455.982 362.995 452.852 364.161C456.176 363.837 459.426 363.189 462.657 362.457C465.881 361.694 469.087 360.854 472.217 359.688Z" fill="#9A7279"/>
<path d="M467.801 350.206C464.928 351.949 462.262 353.952 459.645 356.017C457.05 358.109 454.507 360.264 452.172 362.683C455.047 360.942 457.713 358.939 460.328 356.871C462.923 354.777 465.464 352.622 467.801 350.206Z" fill="#9A7279"/>
<path d="M335.519 381.199C332.052 381.356 328.642 381.838 325.247 382.402C321.854 382.996 318.476 383.674 315.156 384.681C318.623 384.526 322.033 384.045 325.428 383.478C328.821 382.881 332.197 382.203 335.519 381.199Z" fill="#9A7279"/>
<path d="M314.102 376.312C317.374 376.97 320.669 377.297 323.969 377.542C327.271 377.756 330.58 377.886 333.912 377.682C330.639 377.022 327.347 376.695 324.045 376.452C320.74 376.241 317.433 376.111 314.102 376.312Z" fill="#9A7279"/>
<path d="M317.422 366.273C320.041 368.286 322.826 370.012 325.651 371.67C328.492 373.297 331.377 374.851 334.426 376.118C331.809 374.103 329.025 372.377 326.199 370.722C323.356 369.097 320.471 367.543 317.422 366.273Z" fill="#9A7279"/>
<path d="M349.372 378.283C355.878 377.404 363.098 372.911 366.184 367.427C366.842 366.256 367.311 365.013 367.545 363.707C368.536 358.026 366.01 351.591 362.026 347.401C361.942 347.295 361.849 347.199 361.755 347.101C357.646 342.945 351.307 341.356 345.292 342.729C338.251 344.339 330.362 349.453 329.177 356.511C328.71 359.296 329.11 362.298 330.188 365.156L330.178 365.163C333.026 372.794 340.654 379.452 349.372 378.283Z" fill="white"/>
<path d="M359.521 374.179C362.502 372.12 365.089 369.429 366.44 366.267C367.112 364.688 367.355 363.011 367.314 361.339C367.282 359.672 366.987 358.02 366.496 356.432C365.507 353.257 363.727 350.316 361.377 347.932L361.335 347.886C361.085 347.603 360.67 347.259 360.339 346.948C359.956 346.658 359.602 346.339 359.192 346.081C358.411 345.521 357.55 345.067 356.666 344.664C355.78 344.264 354.839 343.97 353.892 343.707C352.934 343.476 351.955 343.312 350.963 343.233C346.988 342.921 342.925 344.068 339.301 345.912C335.695 347.738 332.464 350.439 330.748 353.873C329.888 355.582 329.545 357.478 329.567 359.388C329.579 361.293 329.952 363.195 330.576 365.017L330.669 365.287L330.433 365.449L330.426 365.454L330.566 365.027C331.209 366.898 332.125 368.69 333.274 370.342C334.42 371.997 335.815 373.509 337.448 374.779C339.073 376.043 340.924 377.096 342.969 377.717C345.002 378.351 347.209 378.564 349.374 378.279C353.035 377.73 356.533 376.249 359.521 374.179ZM342.944 377.776C340.894 377.158 338.984 376.18 337.303 374.941C335.623 373.696 334.141 372.225 332.871 370.605C331.607 368.98 330.566 367.195 329.795 365.295L329.697 365.049L329.94 364.865L329.947 364.858L329.805 365.29C329.056 363.438 328.555 361.479 328.432 359.459C328.297 357.453 328.553 355.339 329.41 353.387C331.091 349.457 334.558 346.412 338.388 344.348C340.325 343.319 342.392 342.514 344.538 341.959C346.696 341.37 348.984 341.203 351.201 341.382C355.674 341.74 359.835 343.695 362.72 346.906L362.678 346.859C365.075 349.56 366.759 352.742 367.62 356.127C368.045 357.821 368.259 359.567 368.2 361.322C368.151 363.065 367.792 364.848 366.999 366.466C366.216 368.084 365.106 369.537 363.84 370.836C362.578 372.142 361.149 373.298 359.612 374.3C356.536 376.276 353.052 377.779 349.374 378.279C347.211 378.586 344.994 378.392 342.944 377.776Z" fill="#9A7279"/>
<path d="M358.12 369.372C354.599 372.689 349.095 374.447 344.315 373.143C336.694 371.066 332.305 362.5 335.45 355.599C337.139 351.892 340.927 348.666 345.115 347.591C356.305 344.718 365.2 357.05 360.494 366.271C359.914 367.406 359.099 368.449 358.12 369.372Z" fill="#9A7279"/>
<mask id="mask4_71_6820" style="mask-type:luminance" maskUnits="userSpaceOnUse" x="328" y="342" width="35" height="24">
<path d="M328.977 342.246H362.017V365.157H328.977V342.246Z" fill="white"/>
</mask>
<g mask="url(#mask4_71_6820)">
<g opacity="0.210007">
<path d="M330.177 365.158C341.524 345.419 359.734 347.104 362.014 347.401C361.931 347.297 361.838 347.202 361.744 347.104C357.634 342.945 351.295 341.359 345.28 342.731C338.239 344.342 330.351 349.455 329.165 356.511C328.699 359.298 329.099 362.3 330.177 365.158Z" fill="#9A7279"/>
</g>
</g>
<path d="M354.662 360.407C353.375 361.663 351.363 362.329 349.616 361.835C346.831 361.049 345.226 357.805 346.376 355.192C346.993 353.788 348.378 352.567 349.908 352.16C353.999 351.072 357.25 355.742 355.529 359.233C355.318 359.663 355.02 360.058 354.662 360.407Z" fill="white"/>
<path d="M354.662 360.407C353.375 361.663 351.363 362.329 349.616 361.835C346.831 361.049 345.226 357.805 346.376 355.192C346.993 353.788 348.378 352.567 349.908 352.16C353.999 351.072 357.25 355.742 355.529 359.233C355.318 359.663 355.02 360.058 354.662 360.407Z" fill="white"/>
<path d="M344.331 356.203C343.687 356.831 342.682 357.164 341.808 356.917C340.415 356.524 339.613 354.902 340.188 353.596C340.496 352.894 341.189 352.283 341.954 352.079C343.999 351.535 345.625 353.87 344.765 355.616C344.659 355.831 344.51 356.028 344.331 356.203Z" fill="white"/>
<path d="M344.331 356.203C343.687 356.831 342.682 357.164 341.808 356.917C340.415 356.524 339.613 354.902 340.188 353.596C340.496 352.894 341.189 352.283 341.954 352.079C343.999 351.535 345.625 353.87 344.765 355.616C344.659 355.831 344.51 356.028 344.331 356.203Z" fill="white"/>
<path d="M422.181 364.21C428.722 366.717 437.712 366.505 443.315 363.378C444.51 362.71 445.561 361.887 446.428 360.891C450.159 356.548 450.96 349.803 449.285 344.238C449.258 344.108 449.219 343.98 449.177 343.85C447.37 338.252 442.205 333.728 435.878 331.884C428.476 329.733 418.55 330.141 413.959 335.557C412.147 337.697 411.043 340.455 410.645 343.428L410.633 343.43C409.543 351.355 413.422 360.844 422.181 364.21Z" fill="white"/>
<path d="M433.727 365.793C437.54 365.531 441.296 364.534 444.122 362.516C445.531 361.509 446.59 360.201 447.373 358.759C448.166 357.321 448.703 355.767 449.025 354.168C449.661 350.969 449.44 347.574 448.411 344.368L448.394 344.306C448.298 343.938 448.077 343.44 447.92 343.01C447.704 342.571 447.527 342.121 447.272 341.697C446.815 340.83 446.229 340.012 445.6 339.227C444.964 338.441 444.228 337.719 443.467 337.022C442.681 336.347 441.844 335.716 440.95 335.151C437.373 332.898 432.996 331.842 428.685 331.596C424.398 331.348 420.033 332.031 416.728 334.098C415.079 335.124 413.824 336.565 412.901 338.203C411.973 339.833 411.386 341.64 411.074 343.504L411.028 343.786L410.721 343.801H410.708L411.06 343.506C410.74 345.421 410.718 347.407 410.981 349.388C411.241 351.372 411.806 353.358 412.712 355.256C413.613 357.146 414.831 358.971 416.444 360.522C418.042 362.079 420.008 363.368 422.181 364.207C425.888 365.57 429.902 366.061 433.727 365.793ZM416.394 360.561C414.774 359.007 413.466 357.218 412.496 355.32C411.531 353.422 410.866 351.426 410.473 349.41C410.087 347.395 409.992 345.352 410.205 343.349L410.232 343.084L410.559 343.054L410.571 343.052L410.217 343.349C410.426 341.4 410.922 339.477 411.803 337.695C412.665 335.92 413.947 334.248 415.714 333.015C419.23 330.509 423.986 329.652 428.599 329.809C430.924 329.902 433.258 330.251 435.549 330.852C437.864 331.429 440.093 332.431 442.087 333.695C446.108 336.239 449.054 339.985 450.176 344.164L450.162 344.105C451.077 347.604 451.092 351.156 450.23 354.47C449.793 356.125 449.133 357.721 448.212 359.184C447.306 360.645 446.091 361.985 444.549 362.967C443.017 363.952 441.257 364.637 439.428 365.106C437.601 365.587 435.691 365.86 433.754 365.941C429.89 366.085 425.881 365.621 422.181 364.207C420.001 363.387 418.015 362.111 416.394 360.561Z" fill="#9A7279"/>
<path d="M434.782 361C429.842 362.063 423.808 360.806 419.963 357.303C413.835 351.72 413.938 342.226 420.292 337.922C423.704 335.612 428.853 334.76 433.314 335.939C445.233 339.093 447.502 354.05 438.54 359.547C437.436 360.224 436.157 360.705 434.782 361Z" fill="#9A7279"/>
<mask id="mask5_71_6820" style="mask-type:luminance" maskUnits="userSpaceOnUse" x="410" y="330" width="40" height="15">
<path d="M410.633 330.663H449.273V344.229H410.633V330.663Z" fill="white"/>
</mask>
<g mask="url(#mask5_71_6820)">
<g opacity="0.210007">
<path d="M410.632 343.418C431.016 332.285 447.279 342.834 449.272 344.229C449.245 344.098 449.203 343.968 449.164 343.841C447.357 338.241 442.192 333.716 435.865 331.875C428.463 329.721 418.537 330.131 413.944 335.547C412.134 337.688 411.029 340.443 410.632 343.418Z" fill="#9A7279"/>
</g>
</g>
<path d="M487.766 415.281C487.906 416.374 487.982 417.474 488.001 418.569C487.999 419.654 487.942 420.773 487.584 421.745C487.402 422.239 487.11 422.619 486.685 422.767C486.275 422.931 485.814 422.784 485.409 422.504C484.599 421.934 483.96 421.004 483.464 420.101L482.779 418.853L482.698 420.287C482.634 421.451 482.46 422.637 482.227 423.783C481.969 424.915 481.638 426.064 481.026 426.97C480.739 427.444 480.346 427.775 479.917 428.001C479.46 428.234 479.001 428.276 478.584 428.102C477.732 427.751 477.074 426.67 476.705 425.678L476.421 424.915L475.817 425.453C474.164 426.923 472.323 428.269 470.433 429.484C468.537 430.706 466.536 431.755 464.506 432.729C462.473 433.711 460.34 434.475 458.165 435.084C455.999 435.766 453.748 436.056 451.484 436.331C453.758 436.304 456.058 436.117 458.295 435.602C460.529 435.091 462.731 434.401 464.845 433.495C466.971 432.624 469.004 431.529 470.963 430.326C472.917 429.103 474.786 427.787 476.558 426.255L475.672 426.032C475.912 426.668 476.202 427.22 476.6 427.76C476.995 428.286 477.503 428.799 478.208 429.074C478.915 429.366 479.76 429.248 480.361 428.917C480.99 428.585 481.522 428.08 481.854 427.517C482.571 426.403 482.885 425.178 483.148 423.972C483.393 422.757 483.491 421.542 483.513 420.302L482.747 420.486C483.354 421.473 484.027 422.401 485.048 423.071C485.544 423.39 486.266 423.609 486.899 423.326C487.52 423.083 487.93 422.47 488.068 421.917C488.392 420.788 488.352 419.661 488.279 418.556C488.193 417.449 488.016 416.354 487.766 415.281Z" fill="#C85325"/>
<path d="M383.315 436.421C381.589 436.369 379.86 436.318 378.139 436.229C376.418 436.133 374.695 436.018 373.008 435.795L372.213 435.692L372.706 436.349C373.278 437.111 373.799 438.039 373.875 438.922C373.909 439.362 373.799 439.752 373.534 440.039C373.391 440.219 373.298 440.253 373.192 440.263C373.084 440.265 372.918 440.206 372.746 440.089C372.051 439.59 371.464 438.709 370.931 437.884C370.401 437.037 369.917 436.136 369.488 435.235L368.891 433.975L368.501 435.323C368.265 436.146 367.951 436.985 367.578 437.754C367.205 438.498 366.716 439.291 366.159 439.58C366.014 439.652 366.048 439.607 366.068 439.632C366.075 439.627 365.972 439.541 365.925 439.367C365.805 439.048 365.734 438.625 365.7 438.206C365.631 437.363 365.641 436.465 365.685 435.606L365.717 434.994L365.113 434.98C362.474 434.916 359.788 434.57 357.198 433.971C354.617 433.335 352.081 432.434 349.904 430.958L348.787 430.2L349.27 431.449C349.67 432.473 350.019 433.649 349.884 434.675C349.859 434.8 349.832 434.921 349.786 435.026C349.756 435.112 349.756 435.07 349.778 435.075C349.781 435.063 349.786 435.08 349.742 435.078C349.589 435.095 349.295 434.992 349.052 434.884C348.546 434.653 348.043 434.354 347.549 434.047C345.58 432.79 343.734 431.317 341.883 429.858C343.582 431.496 345.352 433.055 347.259 434.474C347.743 434.822 348.232 435.169 348.791 435.441C349.081 435.571 349.341 435.726 349.783 435.728C349.891 435.733 350.031 435.694 350.164 435.613C350.289 435.515 350.385 435.355 350.397 435.299C350.476 435.137 350.522 434.972 350.562 434.808C350.773 433.484 350.429 432.306 350.044 431.137L349.413 431.628C350.535 432.461 351.755 433.136 353.019 433.703C354.301 434.226 355.617 434.646 356.947 434.992C359.623 435.645 362.329 436.033 365.101 436.141L364.528 435.515C364.462 436.455 364.443 437.366 364.543 438.318C364.59 438.795 364.661 439.274 364.862 439.796C364.963 440.047 365.11 440.361 365.491 440.612C365.908 440.862 366.436 440.737 366.679 440.582C367.713 439.963 368.123 439.062 368.56 438.228C368.962 437.368 369.272 436.509 369.522 435.593L368.535 435.684C369.002 436.634 369.505 437.54 370.077 438.431C370.666 439.308 371.243 440.199 372.255 440.874C372.515 441.029 372.846 441.181 373.256 441.154C373.674 441.127 374.032 440.832 374.192 440.599C374.614 440.111 374.751 439.418 374.673 438.841C374.501 437.668 373.902 436.759 373.224 435.912L372.925 436.467C374.668 436.642 376.401 436.642 378.132 436.62C379.863 436.595 381.591 436.536 383.315 436.421Z" fill="#C85325"/>
<path d="M544.149 625.65C532.708 625.618 521.123 628.809 511.887 635.566C509.046 637.645 506.257 640.395 505.955 643.903C505.644 647.524 508.204 650.912 511.396 652.651C514.588 654.391 518.312 654.811 521.933 655.123C535.726 656.316 549.619 656.439 563.424 655.381C569.083 654.946 575.174 654.116 579.272 650.191C585.279 644.431 582.402 635.735 575.704 632.733C565.963 628.367 554.824 625.679 544.149 625.65Z" fill="#FFC06D"/>
<path d="M544.152 625.65C532.712 625.618 521.126 628.81 511.89 635.566C509.05 637.646 506.261 640.395 505.959 643.904C505.647 647.525 508.207 650.913 511.399 652.651C514.591 654.392 518.315 654.812 521.936 655.123C535.729 656.317 549.622 656.439 563.427 655.381C569.086 654.947 575.177 654.117 579.275 650.191C585.282 644.432 582.405 635.736 575.708 632.733C565.966 628.368 554.827 625.68 544.152 625.65Z" fill="#FFC06D"/>
<path d="M426.447 350.859C424.544 351.268 422.22 350.784 420.74 349.434C418.38 347.283 418.42 343.626 420.866 341.968C422.181 341.078 424.163 340.749 425.881 341.203C430.472 342.419 431.345 348.181 427.894 350.299C427.469 350.56 426.976 350.745 426.447 350.859Z" fill="white"/>
<path d="M426.447 350.859C424.544 351.268 422.22 350.784 420.74 349.434C418.38 347.283 418.42 343.626 420.866 341.968C422.181 341.078 424.163 340.749 425.881 341.203C430.472 342.419 431.345 348.181 427.894 350.299C427.469 350.56 426.976 350.745 426.447 350.859Z" fill="white"/>
<path d="M432.385 342.929C431.52 343.134 430.464 342.892 429.791 342.217C428.718 341.142 428.736 339.313 429.848 338.484C430.446 338.039 431.347 337.875 432.128 338.102C434.214 338.709 434.611 341.591 433.043 342.649C432.849 342.78 432.626 342.873 432.385 342.929Z" fill="white"/>
<path d="M432.385 342.929C431.52 343.134 430.464 342.892 429.791 342.217C428.718 341.142 428.736 339.313 429.848 338.484C430.446 338.039 431.347 337.875 432.128 338.102C434.214 338.709 434.611 341.591 433.043 342.649C432.849 342.78 432.626 342.873 432.385 342.929Z" fill="white"/>
<path d="M527.468 654.552C527.468 654.552 520.895 636.585 535.793 627.384L527.468 654.552Z" fill="#9A7279"/>
<path d="M555.518 654.989C555.518 653.676 551.572 640.966 558.147 630.451L555.518 654.989Z" fill="#9A7279"/>
<path d="M329.816 439.418L316.9 492.747C307.023 489.465 298.617 485.004 291.485 479.735C285.651 475.446 280.653 470.592 276.413 465.422C270.653 458.435 266.241 450.839 262.834 443.118C260.04 436.82 257.931 430.422 256.34 424.199C251.265 404.371 251.486 386.405 251.805 378.932C252.564 360.818 263.862 363.124 263.862 363.124C271.093 349.986 285.725 357.975 285.725 357.975C307.268 354.128 304.548 378.979 310.308 402.042C316.067 425.129 329.816 439.418 329.816 439.418Z" fill="#FFC06D"/>
<path d="M278.24 371.929C273.72 372.329 269.294 374.357 266.328 377.789C265.243 379.046 264.347 380.502 263.959 382.115C263.087 385.724 265.132 389.778 268.501 391.341C271.867 392.903 276.192 391.918 278.655 389.139C279.296 388.415 279.841 387.57 280.666 387.067C282.915 388.67 285.669 389.64 288.426 389.498C291.186 389.358 293.923 388.03 295.516 385.773C297.746 382.619 296.975 378.305 294.117 375.833C290.022 372.293 283.433 371.47 278.24 371.929Z" fill="#FFE0C5"/>
<path d="M270.829 362.903C270.851 363.738 270.913 364.58 271.168 365.376C271.956 367.823 274.752 369.432 277.264 368.884C277.976 368.727 278.683 368.4 279.132 367.826C279.662 367.146 279.763 366.233 279.775 365.373C279.807 363.174 278.97 359.999 276.52 359.317C274.173 358.664 270.763 360.313 270.829 362.903Z" fill="#FFE0C5"/>
<path d="M258.512 368.2C257.365 369.254 256.903 371.056 257.581 372.455C258.038 373.39 258.909 374.051 259.786 374.615C260.485 375.065 261.229 375.489 262.049 375.629C262.872 375.769 263.792 375.578 264.347 374.957C264.765 374.49 264.927 373.857 265.042 373.243C265.388 371.394 265.472 368.296 263.498 367.216C262.079 366.44 259.609 367.194 258.512 368.2Z" fill="#FFE0C5"/>
<path d="M288.399 365.149C288.389 366.328 289.064 367.388 289.717 368.37C290.186 369.077 290.724 369.836 291.544 370.057C292.275 370.256 293.061 369.961 293.672 369.512C295.764 367.97 297.821 363.625 294.873 361.94C292.467 360.568 288.423 362.115 288.399 365.149Z" fill="#FFE0C5"/>
<path d="M445.161 522.034L446.513 531.366L446.516 531.395C446.528 531.341 446.499 531.265 446.455 531.231L446.54 531.415C447.402 537.793 448.112 544.191 448.706 550.604C449.356 557.012 450 563.422 450.4 569.852C451.158 582.711 451.703 595.603 451.428 608.51C451.176 614.961 450.94 621.413 450.238 627.868C449.496 634.305 448.311 640.715 446.459 646.934C444.719 653.18 442.099 659.143 440.258 665.21C439.369 668.237 438.966 671.438 439.823 674.502C440.643 677.559 442.394 680.328 444.328 682.884C442.21 680.483 440.241 677.824 439.229 674.676C438.161 671.539 438.402 668.082 439.156 664.927C439.895 661.741 441.021 658.711 441.996 655.657C442.998 652.608 443.921 649.549 444.711 646.455C446.278 640.266 447.38 633.976 448.055 627.63C448.676 621.281 448.841 614.871 449.023 608.463C449.241 595.642 448.978 582.797 448.318 569.97C448.072 563.55 447.682 557.137 447.23 550.724L445.936 531.476L446.025 531.658C445.963 531.594 445.917 531.484 445.912 531.398L445.914 531.427L445.161 522.034Z" fill="#C85325"/>
<path d="M509.379 553.479C509.489 560.192 509.332 566.923 509.133 573.66C509.072 580.412 508.308 587.094 507.729 593.797C507 600.48 506.111 607.148 505.117 613.798L503.59 623.768C502.99 627.078 502.477 630.4 501.805 633.694C501.925 630.324 502.202 626.975 502.396 623.614L503.241 613.575C503.791 606.88 504.613 600.222 505.288 593.546C505.927 586.871 506.752 580.205 507.257 573.53C507.847 566.855 508.478 560.177 509.379 553.479Z" fill="#C85325"/>
<path d="M468.566 683.093C468.566 683.093 466.324 670.763 473.235 665.158L468.566 683.093Z" fill="#9A7279"/>
<path d="M449.704 682.905C449.704 682.905 447.276 673.753 451.386 666.839L449.704 682.905Z" fill="#9A7279"/>
<path d="M442.797 654.326C445.716 652.757 448.979 651.851 452.266 651.365C455.561 650.857 458.917 650.808 462.244 651.048C465.553 651.412 468.86 651.937 472.017 652.98C473.623 653.398 475.143 654.102 476.682 654.687C478.18 655.396 479.662 656.125 481.094 656.94C477.868 656.204 474.723 655.433 471.556 654.839C468.396 654.201 465.217 653.803 462.035 653.493C458.851 653.216 455.654 653.16 452.448 653.265C449.246 653.422 446.023 653.658 442.797 654.326Z" fill="#C85325"/>
<path d="M507.117 639.106C508.769 636.425 511.013 634.157 513.351 632.021C514.6 631.049 515.811 630.003 517.176 629.185L519.181 627.882L521.3 626.767C526.984 623.816 533.387 622.395 539.767 622.115L544.562 622.174C546.151 622.274 547.727 622.54 549.305 622.738L551.67 623.072C552.45 623.212 553.211 623.45 553.985 623.635C555.524 624.02 557.056 624.435 558.578 624.862C561.578 625.859 564.49 627.106 567.416 628.243C570.193 629.75 572.99 631.174 575.7 632.733C572.737 631.67 569.862 630.474 566.962 629.357C563.987 628.464 561.058 627.435 558.068 626.681C555.018 626.193 552.075 625.176 548.996 625.041C547.469 624.904 545.954 624.639 544.43 624.567H539.848C533.76 624.781 527.723 626.048 522.105 628.466C516.508 630.904 511.31 634.459 507.117 639.106Z" fill="#C85325"/>
<path d="M310.991 483.334C310.991 483.334 298.328 486.666 299.995 489.332C301.66 491.998 308.993 488.998 308.993 488.998C308.993 488.998 301.66 496.997 304.326 499.663C306.992 502.329 311.325 494.665 311.325 494.665C311.325 494.665 311.991 509.326 317.657 513.66C323.321 517.99 326.321 487.668 326.321 487.668L310.991 483.334Z" fill="#FFC06D"/>
<path d="M512.208 517.52C512.348 519.698 512.697 522.001 513.927 523.577C514.509 524.36 515.314 524.829 516.218 524.917C516.981 525.035 517.438 524.566 517.889 523.707C518.673 521.969 518.95 519.766 519.119 517.653C519.262 515.517 519.304 513.322 519.23 511.193L518.987 504.236L521.57 510.761C522.201 512.357 523.364 513.992 524.776 514.775C525.488 515.171 526.276 515.382 527.111 515.333C527.955 515.281 528.866 515.136 529.131 514.773C529.463 514.473 529.566 513.705 529.387 512.836C529.217 511.972 528.861 511.073 528.471 510.184C527.671 508.409 526.607 506.664 525.463 505.048L524.801 504.113L525.859 503.818C526.74 503.573 527.705 503.141 528.559 502.637C529.416 502.114 530.246 501.53 530.973 500.818C532.468 499.429 533.467 497.548 534.071 495.52C533.931 496.563 533.764 497.644 533.317 498.631C532.92 499.64 532.352 500.59 531.663 501.444C530.975 502.301 530.182 503.096 529.269 503.727C528.348 504.366 527.413 504.898 526.288 505.313L526.684 504.083C528.029 505.718 529.239 507.405 530.268 509.296C530.786 510.238 531.213 511.25 531.491 512.386C531.734 513.464 531.898 515.004 530.82 516.285C530.302 516.882 529.61 517.235 528.991 517.407C528.363 517.569 527.815 517.677 527.197 517.697C525.984 517.783 524.702 517.481 523.625 516.896C521.427 515.674 520.119 513.72 519.291 511.527L521.631 511.095C521.683 513.378 521.616 515.605 521.351 517.864C521.054 520.11 520.777 522.398 519.534 524.613C519.201 525.155 518.783 525.715 518.14 526.132C517.509 526.567 516.588 526.675 515.93 526.503C514.644 526.243 513.488 525.342 512.884 524.267C511.757 522.05 511.801 519.69 512.208 517.52Z" fill="#C85325"/>
<path d="M572.574 534.363C570.075 535.613 567.404 536.642 564.951 537.867C560.908 539.902 556.962 542.745 552.428 542.819C550.591 542.843 548.581 542.278 547.577 540.759C547.11 540.025 546.914 539.168 546.865 538.309C546.717 534.486 549.683 531.324 552.6 528.874C555.025 526.838 559.535 522.967 564.389 520.173C567.33 524.241 570.124 528.947 572.574 534.363Z" fill="#9A7279"/>
<path d="M582.096 578.356C574.034 579.753 565.554 578.847 558.004 575.685C556.362 574.998 554.744 574.165 553.519 572.891C552.294 571.593 551.535 569.754 551.95 568.038C552.515 565.661 554.99 564.289 557.27 563.432C564.621 560.66 572.489 560.024 580.282 559.901C581.264 565.563 581.9 571.715 582.096 578.356Z" fill="#9A7279"/>
<path d="M581.299 600.267C580.784 605.536 580.025 611.05 579.021 616.858C573.75 616.468 568.604 615.29 564.34 612.302C561.988 610.635 559.83 607.669 561.03 605.022C561.865 603.134 564.045 602.3 566.031 601.787C570.882 600.488 576.129 599.923 581.299 600.267Z" fill="#9A7279"/>
<path d="M406.222 520.425C404.781 519.05 403.293 517.692 401.616 516.754C400.792 516.302 399.881 515.951 399.142 516.005C398.771 516.018 398.506 516.202 398.253 516.398C398.206 516.531 398.123 516.602 398.081 516.717C398.113 516.87 398.012 516.938 398.079 517.127C398.15 517.783 398.624 518.63 399.171 519.361C399.701 520.12 400.352 520.832 400.995 521.544C402.299 522.956 403.765 524.289 405.221 525.534L408.424 528.276L404.236 527.596C402.667 527.341 400.978 527.21 399.434 527.306C398.673 527.375 397.917 527.493 397.401 527.733C396.881 528.003 396.817 528.158 396.827 528.504C396.898 529.263 398.334 530.434 399.692 531.148C401.089 531.927 402.665 532.555 404.189 533.103L405.925 533.724L404.516 534.797C403.671 535.442 402.834 536.37 402.186 537.323C401.526 538.288 401.037 539.375 400.787 540.524C400.517 541.666 400.428 542.891 400.666 544.094C400.848 545.307 401.307 546.473 401.803 547.642C401.076 546.613 400.389 545.506 400.026 544.249C399.586 543.016 399.468 541.663 399.581 540.325C399.721 538.987 400.151 537.674 400.792 536.483C401.457 535.285 402.247 534.247 403.333 533.27L403.659 534.964C401.921 534.512 400.288 533.923 398.656 533.122C397.845 532.717 397.04 532.27 396.272 531.642C395.545 531.011 394.691 530.208 394.46 528.826C394.367 528.158 394.484 527.397 394.885 526.8C395.079 526.484 395.307 526.221 395.567 526.039C395.822 525.813 396.08 525.666 396.338 525.551C397.372 525.067 398.336 524.937 399.274 524.871C401.143 524.787 402.878 524.957 404.673 525.271L403.689 527.333C402.142 525.961 400.747 524.51 399.407 522.941C398.744 522.155 398.12 521.326 397.57 520.41C397.033 519.499 396.468 518.542 396.394 517.194C396.34 516.887 396.503 516.474 396.584 516.138C396.731 515.807 397.013 515.502 397.256 515.242C397.804 514.849 398.474 514.596 399.112 514.638C400.386 514.697 401.324 515.323 402.154 515.937C403.792 517.221 405.105 518.76 406.222 520.425Z" fill="#C85325"/>
<path d="M488.437 376.235C486.819 376.358 485.226 376.308 483.633 376.112C483.316 376.112 482.997 376.063 482.678 376.014C480.473 375.67 478.143 374.936 476.771 373.171C475.202 371.163 475.3 368.172 476.599 365.965C477.434 364.519 478.831 363.27 480.571 362.241C481.035 361.946 481.526 361.701 482.042 361.455C484.05 365.108 486.378 370.009 488.437 376.235Z" fill="#9A7279"/>
<path d="M479.612 357.438C479.293 357.462 478.999 357.487 478.68 357.511C476.917 357.56 475.176 357.266 473.632 356.532C473.043 356.237 472.456 355.869 472.186 355.258C471.94 354.693 471.965 354.128 472.161 353.566C472.579 352.292 473.804 351.042 474.636 350.306C474.71 350.257 474.759 350.208 474.832 350.158C475.52 351.261 476.18 352.415 476.794 353.591C476.794 353.591 477.921 354.865 479.612 357.438Z" fill="#9A7279"/>
<path d="M492.426 392.83C489.927 392.904 487.428 392.167 485.441 390.672C484.658 390.085 483.922 389.349 483.799 388.394C483.701 387.782 483.897 387.144 484.192 386.579C485.073 384.841 486.863 383.712 488.726 383.174C489.239 383.027 489.78 382.879 490.342 382.757C491.152 385.87 491.861 389.228 492.426 392.83Z" fill="#9A7279"/>
<path d="M513.898 454.516C513.382 455.056 512.795 455.57 512.231 456.036C509.437 458.339 506.299 460.202 502.943 461.55C499.241 463.045 495.026 463.88 491.252 462.53C487.503 461.157 484.587 457.016 485.689 453.169C486.546 450.276 489.266 448.413 491.768 446.699C494.903 444.59 497.967 442.361 500.982 440.056C501.203 439.884 501.423 439.712 501.644 439.518C505.222 443.464 509.535 448.56 513.898 454.516Z" fill="#9A7279"/>
<path d="M531.448 486.644C527.281 487.844 522.649 487.451 518.409 486.742C515.836 486.324 513.214 485.32 511.571 483.285C509.88 481.179 509.683 479.315 510.371 477.648C512.136 473.506 519.683 470.835 523.751 469.831C526.717 475.124 529.388 480.786 531.448 486.644Z" fill="#9A7279"/>
<path d="M280.73 432.385C279.922 434.516 278.034 436.038 276.122 437.287C272.078 439.958 267.568 441.918 262.84 443.118C260.046 436.821 257.937 430.423 256.344 424.199C258.404 423.512 260.485 422.95 262.594 422.459C265.901 421.698 269.358 421.086 272.717 421.675C275.216 422.115 277.666 423.291 279.284 425.253C280.927 427.214 281.611 430.008 280.73 432.385Z" fill="#9A7279"/>
<path d="M299.15 471.669C297.802 475.224 294.812 477.846 291.478 479.731C285.645 475.442 280.646 470.591 276.406 465.421C280.597 462.111 285.549 459.929 290.842 459.831C292.485 459.781 294.198 459.978 295.669 460.714C299.42 462.6 300.645 467.748 299.15 471.669Z" fill="#9A7279"/>
<path d="M473.044 623.476C470.569 625.119 467.579 625.73 464.662 626.221C459.541 627.031 454.343 627.544 449.148 627.667C449.394 625.413 449.615 623.01 449.762 620.461C449.981 616.86 450.128 613.133 450.202 609.335C455.372 608.672 460.447 608.257 465.838 608.844C468.19 609.114 470.569 609.507 472.651 610.634C474.735 611.736 476.501 613.673 476.866 616C477.333 618.942 475.494 621.834 473.044 623.476Z" fill="#9A7279"/>
<path d="M507.794 580.122C507.352 585.317 506.839 590.588 506.299 595.685C505.783 595.685 505.319 595.66 504.828 595.635C500.195 595.439 495.59 594.631 491.251 593.013C488.58 592.034 485.686 590.342 485.222 587.524C484.682 584.362 487.574 581.617 490.564 580.466C494.853 578.799 499.609 579.093 504.141 579.631C505.368 579.754 506.593 579.95 507.794 580.122Z" fill="#9A7279"/>
<path d="M470.29 550.612C469.848 552.989 467.692 554.631 465.559 555.783C460.388 558.601 454.629 559.875 448.771 560.317C448.233 552.525 447.619 545.417 447.055 539.511C453.06 539.388 459.409 540.49 463.99 542.452C467.398 543.922 470.999 546.962 470.29 550.612Z" fill="#9A7279"/>
<path d="M335.29 525.785C335.192 529.094 331.956 531.348 328.991 532.868C324.459 535.195 319.703 537.206 314.825 538.726C313.209 533.749 311.788 528.21 310.781 522.11C314.115 520.907 317.547 520.001 321.026 519.389C324.336 518.825 327.839 518.579 330.903 519.902C333.282 520.931 335.339 523.187 335.29 525.785Z" fill="#9A7279"/>
<path d="M251.111 678.102C251.111 678.102 243.579 699.002 245.754 700.741C247.926 702.479 294.377 688.625 342.759 709.694C342.759 709.694 391.338 688.323 430.479 699.25C433.138 699.994 435.613 697.645 434.93 694.969L428.326 669.151L251.111 678.102Z" fill="#EA5D80"/>
<path d="M343.168 698.011C343.168 698.011 299.657 675.348 256.217 690.11L248.203 671.975L260.012 614.614L342.996 633.673L415.939 605.641L431.669 667.757L426.607 689.268C426.607 689.268 392.162 680.184 343.168 698.011Z" fill="#B89899"/>
<path d="M424.173 664.421C368.484 661.325 342.703 696.251 342.703 696.251L342.993 630.988C365.891 593.651 400.744 596.442 422.086 597.905C422.925 620.205 423.957 648.865 424.173 664.421Z" fill="#F8D1CA"/>
<path d="M342.983 631.25L342.711 696.251C342.711 696.251 312.081 654.748 245.445 666.27C247.149 648.46 249.958 619.871 251.998 599.179C274.371 595.266 322.989 595.526 342.983 631.25Z" fill="#F8D1CA"/>
<path d="M428.382 680.13C425.949 679.04 423.344 678.426 420.754 677.896C418.149 677.385 415.515 677.051 412.868 676.857C407.577 676.403 402.255 676.487 396.93 676.707L400.907 676.273L404.904 676.057C407.575 676 410.251 676.03 412.917 676.246C415.578 676.491 418.242 676.82 420.85 677.434C423.449 678.05 426.042 678.836 428.382 680.13Z" fill="white"/>
<path d="M342.983 631.25C343.202 642.084 343.089 652.919 343.153 663.753C342.998 674.585 343.02 685.419 342.708 696.251C342.49 685.417 342.603 674.585 342.539 663.751C342.696 652.916 342.674 642.082 342.983 631.25Z" fill="white"/>
<path d="M431.67 667.754C427.725 667.314 423.752 667.148 419.787 667.184C415.82 667.162 411.86 667.378 407.907 667.697C400.009 668.409 392.187 669.892 384.591 672.114C382.703 672.711 380.761 673.14 378.917 673.87L373.349 675.939C371.508 676.666 369.745 677.577 367.938 678.387L365.243 679.639L362.662 681.11C360.951 682.106 359.211 683.059 357.521 684.09L352.658 687.51C351.85 688.085 351.006 688.612 350.23 689.226L347.964 691.151L343.422 695.003C349.258 689.648 355.395 684.466 362.464 680.754L365.044 679.254L367.739 677.972C369.546 677.142 371.312 676.212 373.155 675.465L378.733 673.337C380.58 672.59 382.526 672.139 384.422 671.527C392.077 669.357 399.945 667.938 407.873 667.29C415.795 666.654 423.796 666.693 431.67 667.754Z" fill="white"/>
<path d="M248.203 671.973C256.477 670.358 264.917 669.641 273.348 669.572C281.784 669.508 290.237 670.149 298.545 671.696C302.689 672.523 306.781 673.586 310.798 674.899C314.797 676.262 318.701 677.902 322.46 679.827C326.206 681.786 329.754 684.104 333.09 686.689C336.382 689.34 339.351 692.358 342.073 695.571C336.537 689.205 329.744 684.032 322.273 680.19C318.517 678.307 314.625 676.709 310.638 675.386C306.634 674.111 302.554 673.093 298.429 672.297C290.18 670.691 281.762 669.984 273.351 669.979C264.942 670.024 256.514 670.593 248.203 671.973Z" fill="white"/>
<path d="M251.602 679.556C259.48 677.98 267.518 677.233 275.553 677.052C283.594 676.909 291.654 677.41 299.598 678.711C307.536 680.008 315.372 682.104 322.794 685.244C330.235 688.34 337.213 692.568 343.36 697.792L342.997 697.787C348.052 693.972 353.566 690.869 359.279 688.215C365.002 685.573 370.982 683.501 377.101 682.006C383.231 680.55 389.508 679.693 395.808 679.622C402.106 679.539 408.4 680.241 414.536 681.594C408.381 680.327 402.086 679.72 395.813 679.89C389.536 680.042 383.287 680.891 377.191 682.382C371.108 683.901 365.164 685.993 359.48 688.649C353.814 691.313 348.322 694.448 343.355 698.232L343.166 698.374L342.99 698.227C336.847 693.098 329.965 688.858 322.583 685.745C315.22 682.588 307.43 680.462 299.527 679.134C291.619 677.8 283.581 677.263 275.558 677.368C267.54 677.469 259.5 678.08 251.602 679.556Z" fill="white"/>
<path d="M253.875 685.028C258.574 683.725 263.406 682.949 268.247 682.379C273.096 681.869 277.986 681.626 282.855 681.923C280.419 682.031 277.991 682.131 275.568 682.32C273.147 682.497 270.724 682.694 268.313 682.988C265.898 683.226 263.489 683.555 261.083 683.894C258.68 684.243 256.274 684.601 253.875 685.028Z" fill="white"/>
<path d="M304.762 281.836C304.762 281.836 326.848 310.905 334.39 309.552C340.655 308.427 330.088 268.935 330.088 268.935C330.088 268.935 363.06 246.952 353.503 197.256C343.945 147.561 269.878 151.383 235.951 193.91C202.022 236.439 213.968 273.713 238.818 287.093C263.666 300.473 304.762 281.836 304.762 281.836Z" fill="#EA5D80"/>
<path d="M304.526 250.079C304.819 250.778 304.902 251.559 304.769 252.438C304.634 253.31 304.337 254.139 303.895 254.92C303.444 255.696 302.884 256.43 302.216 257.12C301.548 257.81 300.866 258.301 300.176 258.59C298.313 259.369 296.692 259.747 295.32 259.732C293.955 259.707 292.808 259.437 291.91 258.902C291.009 258.372 290.265 257.707 289.703 256.891C289.14 256.084 288.689 255.293 288.365 254.52C287.554 252.58 287.449 250.464 288.033 248.171C288.62 245.88 289.965 244.292 292.055 243.418C292.754 243.126 293.621 242.858 294.65 242.61C295.681 242.362 296.773 242.399 297.917 242.745C299.059 243.084 300.208 243.813 301.349 244.925C302.503 246.038 303.557 247.756 304.526 250.079ZM300.692 193.113C302.84 198.227 302.673 204.412 300.758 209.548C300.134 211.22 299.218 212.99 298.001 214.86C296.324 217.384 295.153 219.422 294.483 220.976C293.81 222.533 293.439 223.822 293.368 224.85C293.302 225.884 293.434 226.763 293.788 227.475C294.134 228.196 294.431 228.96 294.679 229.763C295.047 232.613 293.756 234.653 290.815 235.881C288.802 236.723 287.223 236.59 286.069 235.478C284.927 234.366 284.044 233.075 283.427 231.602C282.976 230.519 282.625 229.255 282.384 227.804C282.148 226.36 282.104 224.85 282.271 223.281C282.438 221.713 282.838 220.068 283.481 218.337C284.127 216.616 285.102 214.932 286.423 213.284C287.871 211.404 289.116 209.425 290.039 207.237C290.95 205.079 291.063 202.138 290.915 199.808C290.665 195.868 288.296 192.919 284.321 192.259C283.14 192.07 282.026 192.058 280.965 192.229C279.894 192.404 279.087 192.603 278.549 192.829C277.462 193.283 276.502 193.801 275.652 194.378C274.8 194.967 274.071 195.772 273.455 196.801C272.841 197.83 272.348 199.175 271.994 200.822C271.641 202.475 271.39 204.559 271.26 207.066C270.897 208.585 269.9 209.685 268.275 210.365C266.799 210.981 265.274 211.031 263.688 210.505C262.107 209.99 260.946 208.836 260.202 207.053C259.959 202.781 260.354 199.207 261.381 196.322C262.397 193.437 263.674 191.044 265.193 189.131C266.718 187.221 268.353 185.738 270.094 184.692C271.844 183.647 273.3 182.876 274.461 182.39C277.943 180.934 280.982 180.259 283.575 180.352C286.162 180.455 288.497 181.049 290.594 182.127C294.48 184.13 298.052 187.918 300.065 191.775C300.294 192.212 300.502 192.657 300.692 193.113Z" fill="#FFE0EF"/>
<path d="M444.949 273.681C444.949 273.681 440.294 268.982 434.245 265.383C434.333 265.02 434.427 264.624 434.51 264.278C433.788 264.266 433.064 264.288 432.342 264.322C431.611 263.939 430.869 263.569 430.113 263.24C430.034 263.64 429.946 264.094 429.863 264.516C422.866 265.282 416.679 267.629 416.679 267.629C416.679 267.629 408.503 272.76 412.79 280.678C412.93 280.936 412.733 281.879 412.768 282.198C412.905 283.501 413.414 284.746 414.157 285.819C416.409 289.065 420.327 290.405 423.956 291.458C429.588 293.093 441.254 295.114 443.078 287.169C450.262 281.741 444.949 273.681 444.949 273.681Z" fill="#EA5D80"/>
<path d="M413.521 275.683C409.618 272.216 409.154 266.407 411.434 261.495C415.591 252.543 417.528 249.58 407.246 239.298C396.785 228.837 390.964 199.43 419.106 181.896C451.71 161.583 492.953 185.092 492.953 222.493C492.953 259.896 453.951 259.577 452.672 266.93C451.393 274.281 450.117 283.551 437.009 282.594C431.9 282.22 426.852 281.108 421.999 279.483C419.953 278.798 417.84 278.236 415.9 277.276C414.999 276.829 414.206 276.291 413.521 275.683Z" fill="#FFC77D"/>
<path d="M420.794 224.484C420.387 226.561 420.664 232.289 422.847 237.946C423.357 239.271 424.028 240.717 424.882 242.038C424.752 237.234 424.067 232.412 422.473 228.113C421.725 226.095 421.155 225.034 420.794 224.484ZM443.126 229.196C442.006 229.196 439.806 232.09 438.682 237.437C438.215 239.669 438.022 242.011 438.203 244.135C438.842 243.575 439.391 242.971 439.863 242.382C443.374 237.985 444.537 231.72 443.607 229.643C443.413 229.21 443.241 229.201 443.16 229.196H443.126ZM457.805 241.736C457.471 241.736 457.061 241.854 456.579 242.092C454.112 243.308 450.918 246.936 447.773 251.525C452.696 250.516 457.569 246.789 458.789 244.064C459.499 242.478 458.711 242.065 458.288 241.844C458.151 241.773 457.989 241.736 457.805 241.736ZM434.707 277.502C434.636 277.502 434.565 277.495 434.494 277.482C433.826 277.364 433.379 276.729 433.497 276.061C434.454 270.581 438.537 261.706 443.258 254.058C442.617 253.95 441.986 253.783 441.378 253.555C438.871 252.615 437.334 250.599 436.499 248.107C434.44 248.998 432.208 249.237 429.92 248.78C428.979 248.591 428.103 248.257 427.288 247.798C426.657 259.995 423.306 270.571 423.087 271.251C422.879 271.897 422.184 272.251 421.543 272.044C420.897 271.836 420.541 271.143 420.75 270.5C420.806 270.328 424.484 258.703 424.872 245.934C420.09 241.132 418.118 231.744 418.189 226.37C418.229 223.355 418.909 221.776 420.269 221.543C421.889 221.266 423.166 222.928 424.774 227.259C426.812 232.756 427.467 238.947 427.384 244.911C428.27 245.625 429.272 246.148 430.398 246.372C432.552 246.804 434.383 246.435 435.92 245.679C435.476 242.851 435.697 239.713 436.281 236.932C437.373 231.729 439.968 226.53 443.295 226.746C444.422 226.807 445.328 227.48 445.848 228.638C447.375 232.051 445.436 239.333 441.783 243.914C440.83 245.102 439.794 246.092 438.689 246.872C439.298 248.962 440.435 250.58 442.239 251.257C443.03 251.552 443.865 251.716 444.719 251.768C448.463 246.072 452.44 241.395 455.497 239.89C456.985 239.154 458.305 239.082 459.427 239.669C461.463 240.737 462.064 242.753 461.031 245.065C459.199 249.153 452.369 253.857 446.01 254.203C441.203 261.804 436.865 271.05 435.913 276.486C435.809 277.082 435.291 277.502 434.707 277.502Z" fill="white"/>
<path d="M432.995 187.451C433.54 187.912 434.252 188.116 434.95 188.278C436.143 188.553 437.375 188.735 438.593 188.602C440.7 188.374 443.182 186.938 442.344 184.559C441.726 182.803 439.565 181.06 437.847 180.483C434.029 179.207 429.372 184.379 432.995 187.451Z" fill="white"/>
<path d="M409.585 198.13C408.439 200.136 408.053 202.473 407.685 204.756C407.283 207.278 408.476 211.029 411.471 211.243C415.394 211.522 416.484 206.558 417.638 203.887C418.527 201.825 420.79 200.303 422.34 198.754C424.348 196.745 430.959 190.291 425.924 188.155C419.533 185.447 412.335 193.323 409.585 198.13Z" fill="white"/>
<path d="M412.789 280.679C415.185 281.948 417.446 283.257 419.833 284.271C422.207 285.294 424.63 286.134 427.119 286.672C429.599 287.256 432.14 287.504 434.713 287.558C437.291 287.568 439.888 287.33 442.574 286.981C440.21 288.302 437.558 289.112 434.828 289.47C432.093 289.819 429.287 289.657 426.582 289.065C423.886 288.432 421.284 287.408 418.949 285.962C416.597 284.56 414.522 282.721 412.789 280.679Z" fill="#9A7279"/>
<path d="M460.065 281.499C457.919 281.217 456.544 282.157 457.193 284.416C458.175 287.833 460.311 290.644 462.604 293.261C466.64 297.872 470.268 303.209 475.805 306.187C478.989 307.899 483.644 308.323 486.816 306.357C491.745 303.298 488.571 299.112 485.198 296.35C480.103 292.179 474.457 288.457 468.923 284.887C466.379 283.247 463.134 281.941 460.144 281.509C460.117 281.506 460.09 281.502 460.065 281.499Z" fill="#FFC77D"/>
<path d="M461.149 273.471C459.759 274.443 459.465 275.713 461.034 276.675C463.41 278.129 466.128 278.622 468.838 278.922C473.606 279.447 478.524 280.611 483.299 279.4C486.043 278.706 488.955 276.489 489.746 273.673C490.973 269.3 486.927 268.561 483.517 268.753C478.369 269.037 473.14 269.875 468.055 270.741C465.72 271.139 463.155 272.101 461.2 273.437C461.183 273.447 461.166 273.459 461.149 273.471Z" fill="#FFC77D"/>
<g clip-path="url(#clip0_71_6820)">
<path fill-rule="evenodd" clip-rule="evenodd" d="M556.449 154.434C558.005 153.879 559.643 153.142 560.906 152.075C562.407 150.807 563.017 149.175 563.426 147.456C563.952 145.248 564.163 142.896 564.801 140.685C565.037 139.864 565.491 139.553 565.686 139.415C566.179 139.067 566.677 138.974 567.146 139.009C567.702 139.05 568.465 139.26 568.967 140.191C569.038 140.324 569.131 140.527 569.194 140.806C569.24 141.01 569.269 141.647 569.317 141.91C569.438 142.558 569.539 143.206 569.634 143.857C569.95 146.025 570.131 147.866 571.129 149.857C572.482 152.561 573.839 154.215 575.678 154.947C577.456 155.656 579.583 155.523 582.3 154.967C582.558 154.905 582.814 154.851 583.067 154.807C584.265 154.598 585.41 155.384 585.646 156.577C585.881 157.77 585.12 158.932 583.932 159.194C583.685 159.249 583.44 159.301 583.199 159.348C579.527 160.257 575.277 163.501 572.807 166.341C572.046 167.217 570.931 169.665 569.794 171.227C568.955 172.38 568.012 173.139 567.22 173.408C566.69 173.588 566.243 173.561 565.873 173.469C565.336 173.337 564.891 173.046 564.549 172.584C564.363 172.33 564.19 171.991 564.108 171.558C564.069 171.35 564.064 170.82 564.065 170.581C563.833 169.784 563.55 169.005 563.343 168.201C562.85 166.282 561.883 165.067 560.735 163.462C559.66 161.96 558.506 161.016 556.814 160.263C556.594 160.21 554.819 159.775 554.191 159.525C553.275 159.159 552.839 158.546 552.68 158.216C552.411 157.656 552.383 157.167 552.437 156.759C552.517 156.157 552.787 155.642 553.266 155.226C553.563 154.967 554.007 154.716 554.601 154.593C555.06 154.498 556.278 154.442 556.449 154.434ZM566.866 151.306C566.948 151.49 567.036 151.674 567.129 151.86C569.112 155.82 571.328 158.03 574.023 159.103L574.113 159.138C572.311 160.476 570.679 161.972 569.432 163.406C568.918 163.996 568.238 165.223 567.504 166.481C566.837 164.311 565.745 162.778 564.373 160.859C563.324 159.395 562.226 158.292 560.876 157.394C561.923 156.857 562.923 156.227 563.793 155.491C565.242 154.267 566.201 152.848 566.866 151.306Z" fill="#F39D90"/>
</g>
<g clip-path="url(#clip1_71_6820)">
<path fill-rule="evenodd" clip-rule="evenodd" d="M178.262 707.08C178.138 706.347 178.045 705.623 177.985 704.899C177.895 703.813 177.951 702.718 177.919 701.632C177.905 701.171 177.849 699.97 177.872 699.797C178.073 698.291 179.289 698.061 179.644 698.02C179.816 697.995 181.582 697.798 181.963 699.756C182.43 702.151 182.58 704.562 182.415 706.923C182.801 708.931 183.461 710.931 184.332 712.741C187.8 719.941 194.407 720.64 201.566 720.575C202.667 720.558 203.581 721.422 203.639 722.517C203.696 723.619 202.877 724.574 201.781 724.672C197.779 725.059 190.68 728.268 188.225 731.609C187.711 732.309 187.413 733.996 187.018 735.65C186.466 737.945 185.811 740.216 185.076 741.171C184.966 741.319 183.625 742.833 183.225 743.055C182.264 743.582 181.495 743.277 181.058 742.998C180.621 742.718 180.126 742.167 179.929 741.253C179.722 740.299 179.897 738.34 179.865 737.921C179.748 736.398 179.443 733.411 178.822 730.844C178.487 729.461 178.13 728.186 177.539 727.552C175.352 725.207 171.855 725.553 168.91 725.94C168.572 725.981 168.233 726.03 167.896 726.071C166.697 726.425 165.424 726.688 164.079 726.845C162.047 727.083 161.713 725.216 161.695 725.092C161.657 724.821 161.516 723.422 163.048 722.862C163.215 722.805 164.447 722.533 164.922 722.426C165.584 722.278 166.253 722.163 166.924 722.056C173.86 719.9 177.627 713.844 178.262 707.08ZM180.642 714.559C183.261 719.974 187.234 722.591 191.944 723.776H191.944C189.003 725.314 186.327 727.24 184.91 729.174C184.371 729.906 183.878 731.379 183.433 733.033C183.191 731.494 182.866 729.856 182.435 728.458C181.946 726.861 181.287 725.537 180.551 724.747C179.131 723.224 177.348 722.377 175.432 721.957C177.726 719.925 179.466 717.39 180.642 714.559Z" fill="#F39D90"/>
</g>
<path d="M375.591 360.489C389.21 374.92 392.852 359.147 390.304 348.869" stroke="#9A7279" stroke-width="2" stroke-linecap="round"/>
<path d="M407.746 356.18C397.367 373.302 390.571 358.485 390.961 347.795" stroke="#9A7279" stroke-width="2" stroke-linecap="round"/>
<defs>
<clipPath id="clip0_71_6820">
<rect width="34.8894" height="34.8894" fill="white" transform="translate(552 139)"/>
</clipPath>
<clipPath id="clip1_71_6820">
<rect width="46.0804" height="46.0804" fill="white" transform="translate(160 698)"/>
</clipPath>
</defs>
</svg>
