<svg width="297" height="269" viewBox="0 0 297 269" fill="none" xmlns="http://www.w3.org/2000/svg">
<path d="M296.511 107.298C296.008 109.787 295.253 112.237 294.286 114.593C294.153 114.926 294.007 115.259 293.862 115.592C293.703 115.978 293.53 116.35 293.345 116.723C293.133 117.149 292.908 117.589 292.683 118.028C290.855 121.582 288.563 124.897 286.006 127.919C283.555 130.822 280.787 133.497 277.687 135.721L274.574 122.741C274.574 122.741 274.64 122.714 274.733 122.661C275.448 122.195 278.601 120.091 281.25 116.457C281.966 115.472 282.668 114.367 283.237 113.142C283.343 112.942 283.436 112.756 283.529 112.543C283.621 112.33 283.714 112.117 283.807 111.891C283.86 111.758 283.913 111.611 283.966 111.465C284.814 109.335 285.344 106.885 285.277 104.156C285.251 102.545 284.986 100.828 284.483 99.0038C281.674 88.9259 273.024 82.0964 267.87 73.1502C265.247 68.5972 263.552 63.5116 264.015 57.1747C264.029 57.0416 264.029 56.9218 264.042 56.802C264.373 52.6617 265.234 48.9607 266.466 45.7656C266.638 45.3529 266.797 44.9402 266.97 44.5541C267.142 44.1547 267.314 43.7553 267.5 43.3826C267.539 43.316 267.566 43.2494 267.619 43.1829C269.381 39.6283 271.619 36.7927 274.03 34.7292C277.872 31.4409 282.111 30.1363 285.476 31.0149C289.252 31.9867 288.073 36.1803 286.417 39.6816C286.258 40.041 286.059 40.4005 285.887 40.7466C285.794 40.9197 285.701 41.0794 285.622 41.2525C285.463 41.5188 285.317 41.7983 285.158 42.0646C285.092 42.1977 285.012 42.3309 284.946 42.4507C284.642 42.9699 284.39 43.3959 284.178 43.742C282.946 45.8987 281.528 48.0288 280.336 50.2121C280.204 50.4517 280.071 50.6913 279.952 50.9443C279.806 51.2105 279.661 51.5034 279.528 51.7963C279.396 52.0759 279.276 52.3554 279.144 52.635C278.256 54.6053 277.647 56.6688 277.594 58.932C277.448 65.1491 279.899 70.4477 283.145 75.3601C285.556 79.0078 288.391 82.4559 290.934 85.9305C291.464 86.6494 291.967 87.3683 292.431 88.1005C296.18 93.9316 297.915 100.162 296.511 107.298Z" fill="#FFBF6D"/>
<mask id="mask0_71_4063" style="mask-type:luminance" maskUnits="userSpaceOnUse" x="263" y="30" width="34" height="106">
<path d="M263.93 30.7481H296.988V135.48H263.93V30.7481Z" fill="white"/>
</mask>
<g mask="url(#mask0_71_4063)">
<g opacity="0.199997">
<path d="M296.499 107.297C295.996 109.787 295.24 112.236 294.273 114.593C294.141 114.925 293.995 115.258 293.849 115.591C293.69 115.977 293.518 116.35 293.333 116.723C293.121 117.149 292.896 117.588 292.67 118.027C290.856 121.489 288.604 124.737 286.113 127.679C283.662 130.595 280.894 133.257 277.794 135.48L274.72 122.66C275.436 122.194 278.589 120.091 281.238 116.456C281.953 115.471 282.655 114.366 283.225 113.141C283.331 112.942 283.424 112.755 283.517 112.542C283.609 112.329 283.702 112.116 283.795 111.89C283.848 111.757 283.901 111.61 283.954 111.464C284.802 109.334 285.331 106.884 285.265 104.155C285.239 102.544 284.974 100.827 284.47 99.0032C281.662 88.9253 273.011 82.0958 267.858 73.1496C265.235 68.5966 263.54 63.511 264.003 57.1741C264.017 57.041 264.017 56.9212 264.03 56.8014C264.361 52.661 265.222 48.9601 266.454 45.765C266.626 45.3523 266.785 44.9396 266.957 44.5535C267.13 44.1541 267.302 43.7547 267.487 43.382C267.527 43.3154 267.554 43.2488 267.607 43.1823C269.368 39.6277 271.607 36.7921 274.018 34.7286C277.86 31.4403 282.099 30.1357 285.464 31.0143C289.239 31.9861 288.06 36.1797 286.404 39.681C286.246 40.0404 286.047 40.3999 285.875 40.746C285.782 40.9191 285.689 41.0788 285.61 41.2519C285.451 41.5182 285.305 41.7977 285.146 42.064C285.08 42.1971 285 42.3303 284.934 42.4501C284.629 42.9693 284.378 43.3953 284.166 43.7414C282.934 45.8981 281.516 48.0282 280.324 50.2115C280.191 50.4511 280.059 50.6907 279.94 50.9437C279.794 51.2099 279.648 51.5028 279.516 51.7957C279.383 52.0753 279.264 52.3548 279.132 52.6344C278.244 54.6047 277.635 56.6682 277.582 58.9314C277.436 65.1485 279.887 70.4471 283.132 75.3595C285.543 79.0072 288.378 82.4553 290.922 85.9299C291.452 86.6488 291.955 87.3677 292.419 88.0999C296.168 93.931 297.903 100.161 296.499 107.297Z" fill="#9A7279"/>
</g>
</g>
<path d="M286.423 39.6787C286.264 40.0382 286.065 40.3976 285.893 40.7437C285.8 40.9168 285.707 41.0766 285.628 41.2496C285.469 41.5159 285.323 41.7955 285.164 42.0617C285.098 42.1948 285.019 42.328 284.952 42.4478C284.648 42.967 284.396 43.393 284.184 43.7391C282.952 45.8958 281.534 48.0259 280.342 50.2092C280.21 50.4488 280.077 50.6885 279.958 50.9414C275.387 49.6367 274.367 40.9834 274.036 34.7263C277.878 31.438 282.117 30.1334 285.482 31.012C289.258 31.9839 288.079 36.1774 286.423 39.6787Z" fill="#9A7279"/>
<path d="M267.871 73.1484C265.248 68.5954 263.552 63.5099 264.015 57.173C264.029 57.0399 264.029 56.92 264.042 56.8002C265.936 57.9584 268.838 60.1151 270.48 63.6564C272.017 66.9446 269.884 70.7122 267.871 73.1484Z" fill="#9A7279"/>
<path d="M292.433 88.0992C291.095 88.8581 289.267 88.9379 286.856 87.3005C282.352 84.2651 282.577 78.5672 283.146 75.3588C285.558 79.0065 288.393 82.4546 290.936 85.9292C291.466 86.6481 291.97 87.367 292.433 88.0992Z" fill="#9A7279"/>
<path d="M288.084 115.018C286.137 117.334 283.408 117.148 281.262 116.455C281.977 115.47 282.679 114.365 283.249 113.14C283.355 112.941 283.448 112.754 283.54 112.541C283.633 112.328 283.726 112.115 283.819 111.889C283.872 111.756 283.925 111.609 283.978 111.463C284.825 109.333 285.355 106.883 285.289 104.154C287.581 107.15 290.548 112.102 288.084 115.018Z" fill="#9A7279"/>
<path d="M279.728 140.628C279.369 135.073 278.181 129.395 275.998 123.675C274.506 119.746 272.544 115.788 270.058 111.832C268.73 109.722 267.308 107.75 265.775 105.889C262.196 101.488 258.134 97.7534 253.866 94.5729C249.527 91.3246 244.982 88.6594 240.547 86.4787C235.766 84.1183 231.098 82.3278 226.938 80.9805C217.792 77.9957 211.147 77.1624 211.147 77.1624C201.841 58.7813 183.122 52.6121 176.002 50.8774C175.961 50.5286 175.921 50.1785 175.867 49.827C175.713 48.6874 175.476 47.5226 175.165 46.367C174.955 45.515 174.697 44.6749 174.403 43.8256C173.58 41.4293 172.509 39.1155 171.204 36.9495C170.614 35.9683 169.978 35.0164 169.307 34.0979C168.517 33.0328 167.675 32.0051 166.763 31.0466C163.618 27.6571 159.782 24.9426 155.432 23.1853C147.298 19.901 138.164 19.3951 129.464 20.6292C127.59 20.8915 125.742 21.2416 123.925 21.6556C123.37 21.7821 122.814 21.9086 122.258 22.0337C121.46 22.2334 120.668 22.4225 119.886 22.6168C119.504 22.7127 119.105 22.8112 118.742 22.9204C113.775 24.1957 109.271 25.6522 104.665 27.7623C104.342 27.8967 104.024 28.0471 103.705 28.1976C102.989 28.5317 102.267 28.8779 101.553 29.256C99.8697 30.1053 98.1727 31.0452 96.4095 32.1102C95.2517 32.8145 94.07 33.5587 92.8923 34.3628C85.2235 39.5628 77.4804 46.801 73.9686 55.2986C73.1022 57.3714 72.4915 59.5494 72.11 61.7873C71.7748 63.6604 71.6119 65.5735 71.6039 67.4852C71.588 68.8272 71.6622 70.1851 71.8 71.527C72.0649 74.0764 72.5988 76.5992 73.3897 79.0035C73.5645 79.5507 73.7659 80.1018 73.9792 80.6317C74.3289 81.5716 74.7197 82.4689 75.1595 83.3528C75.9875 85.1181 76.9664 86.7969 78.0792 88.3758C80.4094 91.7 83.3251 94.6062 86.7164 96.7989C87.6623 97.4139 88.6718 97.9691 89.7103 98.4936C85.0672 120.943 94.4728 129.367 94.4728 129.367L111.396 139.447L125.862 148.056C125.862 148.056 135.174 202.592 179.743 215.45C224.327 228.306 251.074 202.592 251.074 202.592C251.074 202.592 250.148 208.146 249.789 214.839C249.293 224.391 249.955 236.275 256.103 237.65C266.576 239.996 256.67 216.269 264.379 205.717C269.435 198.815 261.271 190.222 261.271 190.222C272.461 177.392 280.986 159.787 279.728 140.628Z" fill="#FFBF6D"/>
<path d="M142.227 188.514C142.227 188.514 141.13 227.352 196.496 241.4C196.496 241.4 187.612 267.263 198.141 268.944C205.01 270.043 200.06 254.621 204.172 249.112C208.282 243.603 208.556 238.094 205.816 234.239C205.816 234.239 226.099 226.25 217.053 207.52C208.008 188.79 142.227 188.514 142.227 188.514Z" fill="#FFBF6D"/>
<mask id="mask1_71_4063" style="mask-type:luminance" maskUnits="userSpaceOnUse" x="142" y="188" width="78" height="81">
<path d="M142.359 188.514H219.511V269H142.359V188.514Z" fill="white"/>
</mask>
<g mask="url(#mask1_71_4063)">
<g opacity="0.199997">
<path d="M142.363 188.514C142.363 188.514 141.267 227.352 196.634 241.4C196.634 241.4 187.749 267.263 198.278 268.944C205.146 270.043 200.196 254.621 204.308 249.112C208.42 243.603 208.693 238.094 205.952 234.239C205.952 234.239 226.235 226.25 217.19 207.52C208.146 188.79 142.363 188.514 142.363 188.514Z" fill="#9A7279"/>
</g>
</g>
<path d="M201.364 265.805C200.632 265.618 199.986 265.239 199.406 264.786C198.819 264.336 198.321 263.778 197.886 263.173C197.466 262.558 197.13 261.876 196.933 261.151C196.714 260.437 196.676 259.662 196.801 258.929C197.197 259.577 197.481 260.191 197.842 260.767C198.195 261.342 198.531 261.912 198.925 262.45C199.672 263.56 200.509 264.589 201.364 265.805Z" fill="#9A7279"/>
<path d="M251.002 198.916C251.002 198.916 250.74 200.583 250.435 203.193C246.124 206.913 220.331 227.157 179.754 215.452C135.183 202.596 125.872 148.059 125.872 148.059L111.407 139.45C112.071 136.729 113.176 134.216 114.792 131.995C114.792 131.995 133.112 105.463 168.508 118.889C197.507 129.871 193.339 154.133 219.309 163.331C221.506 173.662 228.965 187.462 251.002 198.916Z" fill="#FFDFC5"/>
<mask id="mask2_71_4063" style="mask-type:luminance" maskUnits="userSpaceOnUse" x="115" y="56" width="28" height="27">
<path d="M115.823 56.7332H142.514V82.5469H115.823V56.7332Z" fill="white"/>
</mask>
<g mask="url(#mask2_71_4063)">
<g opacity="0.479996">
<path d="M125.267 58.1937C122.806 59.3213 120.897 61.1851 119.045 63.4882C116.774 66.3092 115.154 69.9051 116.092 73.5781C116.516 75.2369 117.408 76.7359 118.506 78.0312C127.272 88.3753 141.481 78.7355 142.38 71.1551C142.881 66.9336 142.016 61.924 138.648 59.0031C135.06 55.8906 129.317 56.3392 125.267 58.1937Z" fill="#9A7279"/>
</g>
</g>
<path d="M156.294 55.4112C153.696 58.7394 148.737 61.145 144.516 60.8668C143.613 60.8069 142.731 60.6152 141.886 60.269C138.216 58.7421 135.229 54.9678 134.032 51.195C133.997 51.1111 133.969 51.0232 133.942 50.9354C132.802 47.1053 133.893 42.9676 136.627 40.0934C139.827 36.7332 145.365 34.1811 149.907 36.1008C151.7 36.861 153.342 38.1843 154.684 39.8364L154.691 39.8338C158.282 44.2283 159.771 50.9474 156.294 55.4112Z" fill="white"/>
<path d="M156.295 55.411C157.156 54.3007 157.735 52.9827 158.013 51.6102C158.3 50.2349 158.273 48.8105 158.047 47.4339C157.822 46.0534 157.377 44.7154 156.769 43.464C156.164 42.2113 155.401 41.0384 154.502 39.9907L154.782 40.0626L154.774 40.0666L154.615 40.1331L154.494 39.992C153.621 38.9709 152.619 38.0616 151.497 37.3534C150.376 36.6385 149.145 36.1326 147.858 35.9862C146.571 35.8224 145.258 35.9715 143.999 36.3057C142.737 36.6412 141.523 37.1777 140.401 37.8633C138.15 39.2239 136.167 41.089 135.076 43.4427C134.804 44.0311 134.588 44.6435 134.417 45.2679C134.267 45.8976 134.141 46.5353 134.095 47.1836C134.051 47.8293 134.043 48.483 134.125 49.1273C134.147 49.4521 134.222 49.769 134.271 50.0912C134.351 50.392 134.419 50.7501 134.51 51.0004L134.523 51.0377C135.182 53.2343 136.354 55.3125 137.915 57.0298C138.698 57.8885 139.581 58.658 140.557 59.2864C141.532 59.9214 142.604 60.398 143.75 60.5964C146.052 60.9944 148.467 60.5245 150.634 59.6045C152.808 58.6833 154.8 57.2641 156.295 55.411ZM156.295 55.411C154.823 57.2894 152.824 58.6939 150.673 59.6937C149.59 60.189 148.451 60.5644 147.279 60.7934C146.108 61.0264 144.897 61.1142 143.694 60.9598C142.488 60.8094 141.325 60.3567 140.283 59.7443C139.232 59.1346 138.273 58.3744 137.412 57.5158C135.695 55.7917 134.362 53.683 133.541 51.3532L133.556 51.3905C132.589 48.6081 132.77 45.5648 133.984 42.9342C134.585 41.6282 135.413 40.4114 136.445 39.4196C137.457 38.4198 138.588 37.5571 139.812 36.8488C142.247 35.4576 145.142 34.6283 147.99 35.1182C149.41 35.3498 150.735 35.9755 151.874 36.7836C153.025 37.589 154.023 38.5862 154.875 39.6818L154.595 39.6073L154.603 39.6046L154.775 39.542L154.881 39.6778C155.757 40.8028 156.478 42.0395 157.035 43.3415C157.586 44.6462 157.982 46.0161 158.18 47.4139C158.373 48.8118 158.343 50.2416 158.053 51.6181C157.76 52.9947 157.166 54.3087 156.295 55.411Z" fill="#9A7279"/>
<path d="M148.239 57.0575C151.32 56.296 154.118 53.8531 154.878 50.6926C156.088 45.6563 152.438 40.0543 147.362 39.2901C144.636 38.8801 141.521 39.824 139.548 41.7796C134.275 47.0049 138.707 56.5157 145.65 57.2532C146.504 57.3437 147.381 57.2692 148.239 57.0575Z" fill="#9A7279"/>
<path d="M144.542 52.8838C146.093 52.5051 147.501 51.2901 147.884 49.7182C148.492 47.2133 146.656 44.427 144.101 44.0469C142.73 43.843 141.161 44.3124 140.169 45.2851C137.515 47.884 139.745 52.6144 143.24 52.9812C143.67 53.0262 144.111 52.9891 144.542 52.8838Z" fill="white"/>
<path d="M144.542 52.8838C146.093 52.5051 147.501 51.2901 147.884 49.7182C148.492 47.2133 146.656 44.427 144.101 44.0469C142.73 43.843 141.161 44.3124 140.169 45.2851C137.515 47.884 139.745 52.6144 143.24 52.9812C143.67 53.0262 144.111 52.9891 144.542 52.8838Z" fill="white"/>
<path d="M146.464 43.9484C147.153 43.78 147.779 43.24 147.949 42.5414C148.219 41.4281 147.403 40.1898 146.268 40.0209C145.658 39.9302 144.961 40.1389 144.52 40.5712C143.341 41.7262 144.332 43.8286 145.885 43.9916C146.076 44.0116 146.272 43.9952 146.464 43.9484Z" fill="white"/>
<path d="M146.464 43.9484C147.153 43.78 147.779 43.24 147.949 42.5414C148.219 41.4281 147.403 40.1898 146.268 40.0209C145.658 39.9302 144.961 40.1389 144.52 40.5712C143.341 41.7262 144.332 43.8286 145.885 43.9916C146.076 44.0116 146.272 43.9952 146.464 43.9484Z" fill="white"/>
<mask id="mask3_71_4063" style="mask-type:luminance" maskUnits="userSpaceOnUse" x="133" y="35" width="22" height="17">
<path d="M133.491 35.4448H154.681V51.1992H133.491V35.4448Z" fill="white"/>
</mask>
<g mask="url(#mask3_71_4063)">
<g opacity="0.210007">
<path d="M154.681 39.8407C139.409 38.9753 134.582 49.8107 134.028 51.1992C133.993 51.114 133.966 51.0262 133.939 50.9396C132.8 47.1095 133.889 42.9705 136.623 40.0976C139.824 36.7374 145.363 34.1854 149.904 36.1051C151.697 36.8639 153.339 38.1885 154.681 39.8407Z" fill="#9A7279"/>
</g>
</g>
<path d="M109.752 79.0264C107.153 82.3546 102.196 84.7603 97.9738 84.482C97.0717 84.4221 96.1894 84.2304 95.3442 83.8843C91.6747 82.3573 88.6875 78.5831 87.4886 74.8102C87.4555 74.7263 87.4276 74.6385 87.3998 74.5506C86.2605 70.7205 87.3508 66.5829 90.0837 63.7086C93.2856 60.3484 98.823 57.7964 103.365 59.7161C105.158 60.4762 106.8 61.7995 108.142 63.4517L108.149 63.449C111.74 67.8436 113.229 74.5639 109.752 79.0264Z" fill="white"/>
<path d="M109.753 79.0282C110.614 77.9179 111.193 76.5999 111.472 75.2273C111.759 73.8521 111.731 72.4276 111.505 71.0511C111.281 69.6706 110.836 68.3326 110.228 67.0812C109.621 65.8285 108.859 64.6556 107.961 63.6065L108.245 63.6784L108.238 63.6811L108.078 63.753L107.953 63.6092C107.079 62.5894 106.077 61.6788 104.955 60.9706C103.834 60.257 102.604 59.7498 101.316 59.6034C100.03 59.4396 98.7171 59.5887 97.4572 59.9229C96.1961 60.2583 94.9813 60.7949 93.8593 61.4805C91.6085 62.841 89.6241 64.7048 88.5352 67.0599C88.2623 67.647 88.0463 68.2607 87.8755 68.8851C87.7258 69.5148 87.5999 70.1525 87.5535 70.8008C87.5098 71.4465 87.5019 72.1002 87.584 72.7445C87.6052 73.0693 87.6807 73.3862 87.7311 73.7083C87.8092 74.0106 87.8781 74.366 87.9669 74.6176L87.9801 74.6549C88.6411 76.8515 89.8122 78.9283 91.3741 80.647C92.157 81.5057 93.0393 82.2752 94.0156 82.9036C94.9906 83.5386 96.0623 84.0152 97.2082 84.2149C99.5106 84.6116 101.926 84.1417 104.093 83.2217C106.267 82.3005 108.259 80.8813 109.753 79.0282ZM109.753 79.0282C108.282 80.908 106.283 82.3111 104.131 83.3123C103.049 83.8062 101.91 84.1816 100.737 84.4106C99.5662 84.6435 98.3554 84.7314 97.1525 84.577C95.947 84.4265 94.7839 83.9739 93.7414 83.3615C92.6909 82.7518 91.7304 81.9916 90.8707 81.1329C89.1538 79.4089 87.8211 77.2988 86.9998 74.9704L87.0131 75.0077C86.0473 72.2253 86.2275 69.182 87.4423 66.5513C88.0437 65.2467 88.8717 64.0286 89.9036 63.0367C90.9157 62.0369 92.047 61.1743 93.2711 60.466C95.7059 59.0748 98.6005 58.2454 101.449 58.7354C102.869 58.967 104.193 59.5927 105.333 60.3995C106.484 61.2062 107.48 62.2034 108.333 63.2977L108.048 63.2271L108.055 63.2245L108.231 63.1552L108.34 63.295C109.214 64.42 109.936 65.6554 110.494 66.9587C111.045 68.2634 111.441 69.6333 111.638 71.0311C111.832 72.429 111.801 73.8588 111.511 75.2353C111.219 76.6119 110.625 77.9272 109.753 79.0282Z" fill="#9A7279"/>
<path d="M101.697 80.6747C104.778 79.9132 107.576 77.4703 108.335 74.3098C109.546 69.2735 105.896 63.6715 100.82 62.9073C98.0934 62.4973 94.9788 63.4411 93.0062 65.3968C87.7336 70.6221 92.165 80.1328 99.1082 80.8704C99.9627 80.9609 100.838 80.8863 101.697 80.6747Z" fill="#9A7279"/>
<path d="M102.54 74.8838C104.091 74.5051 105.499 73.2901 105.881 71.7182C106.49 69.2133 104.653 66.427 102.098 66.0469C100.726 65.843 99.1589 66.3124 98.1661 67.2851C95.5125 69.884 97.7427 74.6144 101.237 74.9812C101.667 75.0262 102.108 74.9891 102.54 74.8838Z" fill="white"/>
<path d="M102.54 74.8838C104.091 74.5051 105.499 73.2901 105.881 71.7182C106.49 69.2133 104.653 66.427 102.098 66.0469C100.726 65.843 99.1589 66.3124 98.1661 67.2851C95.5125 69.884 97.7427 74.6144 101.237 74.9812C101.667 75.0262 102.108 74.9891 102.54 74.8838Z" fill="white"/>
<path d="M94.4612 70.9484C95.1505 70.78 95.7763 70.24 95.9461 69.5414C96.2169 68.4281 95.4006 67.1898 94.265 67.0209C93.6552 66.9302 92.9585 67.1389 92.5173 67.5712C91.3379 68.7262 92.3292 70.8286 93.8822 70.9916C94.0733 71.0116 94.2692 70.9952 94.4612 70.9484Z" fill="white"/>
<path d="M94.4612 70.9484C95.1505 70.78 95.7763 70.24 95.9461 69.5414C96.2169 68.4281 95.4006 67.1898 94.265 67.0209C93.6552 66.9302 92.9585 67.1389 92.5173 67.5712C91.3379 68.7262 92.3292 70.8286 93.8822 70.9916C94.0733 71.0116 94.2692 70.9952 94.4612 70.9484Z" fill="white"/>
<mask id="mask4_71_4063" style="mask-type:luminance" maskUnits="userSpaceOnUse" x="86" y="59" width="23" height="16">
<path d="M86.9529 59.0561H108.143V74.8105H86.9529V59.0561Z" fill="white"/>
</mask>
<g mask="url(#mask4_71_4063)">
<g opacity="0.210007">
<path d="M108.142 63.452C92.8698 62.5867 88.0423 73.422 87.4886 74.8105C87.4541 74.7253 87.4263 74.6375 87.3998 74.5496C86.2605 70.7208 87.3495 66.5819 90.0838 63.7089C93.2845 60.3474 98.8234 57.7967 103.365 59.7164C105.157 60.4752 106.801 61.7985 108.142 63.452Z" fill="#9A7279"/>
</g>
</g>
<path d="M123.989 55.9012C123.989 55.9012 120.476 54.7203 119.551 55.9158C118.627 57.1113 122.398 58.6543 125.131 57.8675C125.131 57.8675 127.801 53.5035 125.836 52.3693C123.871 51.235 123.989 55.9012 123.989 55.9012Z" fill="#9A7279"/>
<path d="M150.633 18.5951C150.633 18.5951 150.636 18.6004 150.633 18.6098C150.663 19.5017 150.636 20.395 150.531 21.291C150.534 21.2976 150.529 21.3003 150.526 21.3083C150.322 23.1002 149.823 24.9081 148.966 26.6787C143.146 38.6909 126.394 25.6603 126.394 25.6603C126.394 25.6603 132.263 20.9768 133.256 14.5972C134.147 8.80082 136.182 3.94295 139.266 2.34008C139.579 2.17633 139.897 2.05385 140.23 1.958C143.049 1.16855 150.292 9.29872 150.633 18.5951Z" fill="#FFBF6D"/>
<path d="M150.63 18.5985C150.63 18.5985 150.632 18.6051 150.626 18.6131C150.651 18.7529 150.787 19.9151 150.524 21.2903C150.526 21.297 150.522 21.305 150.523 21.3116C150.376 22.0811 149.941 23.029 149.284 23.9249C148.13 25.5118 146.298 26.9377 144.175 26.9723C138.944 27.0481 143.637 16.0397 142.633 8.33956C142.303 5.81544 141.363 3.65076 139.261 2.34344C139.572 2.18102 139.893 2.05854 140.225 1.9587C143.043 1.17057 150.287 9.30341 150.63 18.5985Z" fill="#9A7279"/>
<path d="M146.224 19.36C146.224 19.36 148.761 21.092 149.276 23.9249C148.121 25.5118 146.289 26.9377 144.165 26.9723C138.935 27.0481 143.627 16.0397 142.624 8.33956C143.817 9.98636 145.213 12.6503 145.107 15.9958C145.107 15.9958 146.707 13.5995 147.354 13.7978C147.977 14.0042 146.356 17.2086 146.264 17.387C146.359 17.2805 147.452 16.0437 148.035 16.4884C148.642 16.9543 146.224 19.36 146.224 19.36Z" fill="white"/>
<path d="M82.2511 54.1327C82.0722 54.1061 81.8947 54.0781 81.7212 54.0395C69.021 51.6645 66.0734 35.1538 68.9362 32.7642C68.9839 32.7229 69.0395 32.6776 69.0938 32.639C72.0281 30.3825 77.5628 31.4063 83.242 34.1687C89.0284 36.9737 96.2018 34.7744 96.2018 34.7744C96.2018 34.7744 95.3924 56.1389 82.2511 54.1327Z" fill="#FFBF6D"/>
<path d="M81.7176 54.0391C69.0142 51.6614 66.0639 35.1521 68.9295 32.7651C68.9772 32.7225 69.0328 32.6785 69.0858 32.6386C69.3322 33.6491 69.8873 35.0735 71.1525 36.6445C72.4335 38.2234 74.4339 39.9474 77.5644 41.5316C83.3246 44.4391 83.7843 48.9069 82.8371 51.8651C82.5589 52.757 82.1469 53.5092 81.7176 54.0391Z" fill="#9A7279"/>
<path d="M82.8312 51.8655C75.0348 52.2089 75.2706 44.7298 75.2706 44.7298C75.2706 44.7298 74.2241 46.121 73.4133 45.4154C72.6409 44.7338 74.1181 43.694 74.2452 43.6035C74.1591 43.6062 72.3905 43.702 71.9494 43.1762C71.4937 42.6357 73.3523 42.2056 73.3523 42.2056C71.2049 40.435 71.0631 37.8909 71.1452 36.6449C72.4276 38.2238 74.4267 39.9465 77.5572 41.532C83.3174 44.4396 83.7771 48.9074 82.8312 51.8655Z" fill="white"/>
<path d="M160.417 79.3613C161.12 78.7037 161.824 78.046 162.513 77.3737C163.196 76.6988 163.876 76.0131 164.5 75.2969L164.774 74.9814L164.807 75.4101C164.848 75.9439 164.972 76.5257 165.267 76.9291C165.414 77.1288 165.609 77.2566 165.83 77.2792C165.956 77.3018 166.014 77.2819 166.066 77.2446C166.116 77.202 166.167 77.1128 166.196 76.9983C166.304 76.5257 166.225 75.9399 166.144 75.3954C166.054 74.8429 165.924 74.2838 165.772 73.7473L165.573 73.047L166.188 73.4411C166.59 73.6994 167.03 73.9363 167.47 74.1214C167.902 74.2971 168.398 74.4502 168.749 74.365C168.837 74.341 168.815 74.3304 168.819 74.3397C168.816 74.3331 168.825 74.2545 168.782 74.1626C168.713 73.9803 168.587 73.7766 168.445 73.5862C168.163 73.2041 167.829 72.8314 167.493 72.4866L167.27 72.2589L167.501 72.0446C168.58 71.0394 169.574 69.8999 170.435 68.6897C171.28 67.4676 172.008 66.1496 172.372 64.7212L172.547 64.0382L172.788 64.6959C173 65.275 173.287 65.898 173.726 66.2814C173.781 66.324 173.838 66.3653 173.898 66.3919C173.942 66.4185 173.93 66.4012 173.926 66.4106C173.923 66.4066 173.93 66.4132 173.948 66.3959C174.023 66.3427 174.106 66.1909 174.167 66.0551C174.294 65.7702 174.393 65.4574 174.485 65.1458C174.843 63.8891 175.069 62.5884 175.301 61.2918C175.191 62.6057 175.023 63.9144 174.746 65.2137C174.672 65.5386 174.594 65.8634 174.461 66.1842C174.388 66.344 174.335 66.5064 174.155 66.6662C174.113 66.7074 174.042 66.7407 173.959 66.7554C173.874 66.7594 173.78 66.7314 173.752 66.7114C173.662 66.6728 173.583 66.6209 173.507 66.5663C172.936 66.0924 172.646 65.472 172.38 64.841L172.794 64.8143C172.632 65.5772 172.371 66.3107 172.05 67.0136C171.707 67.7059 171.313 68.3676 170.884 69.0039C170.008 70.266 169.021 71.4269 167.905 72.4945L167.914 72.0512C168.285 72.4213 168.628 72.7967 168.937 73.2307C169.09 73.4464 169.236 73.6741 169.343 73.9643C169.394 74.1041 169.445 74.2865 169.382 74.5234C169.301 74.775 169.044 74.9122 168.889 74.9375C168.24 75.0599 167.736 74.8336 167.25 74.6472C166.768 74.4369 166.323 74.1893 165.883 73.9004L166.299 73.5929C166.453 74.164 166.577 74.7298 166.666 75.3129C166.743 75.8986 166.829 76.4844 166.657 77.1354C166.606 77.2965 166.526 77.4789 166.348 77.616C166.168 77.7558 165.916 77.7651 165.765 77.7265C165.414 77.6786 165.105 77.4429 164.928 77.174C164.57 76.6229 164.484 76.0211 164.455 75.4181L164.764 75.5312C164.101 76.2501 163.378 76.8918 162.649 77.5228C161.919 78.1552 161.177 78.7702 160.417 79.3613Z" fill="#9A7279"/>
<path d="M96.1804 100.725C96.4811 101.317 96.815 101.891 97.1766 102.442C97.5449 102.983 97.9529 103.522 98.4629 103.887C98.7186 104.072 98.9981 104.162 99.2617 104.092C99.5267 104.032 99.7082 103.796 99.8142 103.518C100.023 102.952 100.023 102.272 99.9625 101.652L99.8857 100.851L100.376 101.493C100.805 102.051 101.293 102.583 101.799 103.075C102.311 103.55 102.868 104.011 103.482 104.254C103.787 104.393 104.098 104.423 104.392 104.39C104.701 104.35 104.95 104.21 105.1 103.976C105.408 103.501 105.365 102.735 105.21 102.112L105.1 101.667L105.548 101.723C106.868 101.89 108.238 101.928 109.588 101.887C110.943 101.846 112.289 101.685 113.627 101.473C114.968 101.264 116.283 100.914 117.566 100.472C118.869 100.069 120.083 99.4402 121.292 98.7999C120.155 99.5587 118.954 100.25 117.67 100.754C116.392 101.261 115.067 101.667 113.713 101.938C112.365 102.228 110.988 102.377 109.611 102.448C108.229 102.508 106.856 102.49 105.461 102.333L105.801 101.946C105.896 102.341 105.941 102.714 105.928 103.116C105.912 103.51 105.835 103.935 105.583 104.309C105.336 104.689 104.884 104.916 104.477 104.957C104.059 105.006 103.627 104.937 103.273 104.772C102.543 104.466 101.971 103.965 101.433 103.457C100.9 102.936 100.437 102.368 100.005 101.759L100.418 101.601C100.454 102.296 100.437 102.987 100.161 103.666C100.026 103.992 99.7453 104.343 99.3412 104.419C98.9544 104.51 98.549 104.346 98.2934 104.121C97.7502 103.672 97.3846 103.1 97.0441 102.526C96.7103 101.947 96.4242 101.344 96.1804 100.725Z" fill="#9A7279"/>
<path d="M154.62 61.7618C156.62 61.3159 158.639 61.0563 160.662 60.8432C162.688 60.6475 164.717 60.4984 166.765 60.5371C164.766 60.9844 162.747 61.244 160.723 61.4556C158.699 61.65 156.668 61.7991 154.62 61.7618Z" fill="#9A7279"/>
<path d="M166.112 55.4786C164.342 56.3692 162.51 57.0841 160.662 57.7551C158.809 58.4088 156.939 59.0185 155.008 59.4512C156.776 58.5592 158.609 57.8443 160.457 57.1747C162.311 56.521 164.181 55.9126 166.112 55.4786Z" fill="#9A7279"/>
<path d="M162.716 50.1442C161.516 51.7257 160.183 53.1782 158.817 54.5973C157.44 56.0032 156.027 57.377 154.48 58.6191C155.679 57.0362 157.013 55.5851 158.379 54.166C159.758 52.7601 161.171 51.3876 162.716 50.1442Z" fill="#9A7279"/>
<path d="M102.797 91.0706C101.126 92.3713 99.3577 93.5055 97.5639 94.6012C95.7596 95.6782 93.9327 96.7153 92.0051 97.5859C93.6744 96.2839 95.4429 95.1483 97.238 94.0554C99.0424 92.9783 100.871 91.9426 102.797 91.0706Z" fill="#9A7279"/>
<path d="M89.4441 93C91.3067 92.1613 93.2264 91.5063 95.1592 90.8966C97.0987 90.3055 99.0514 89.761 101.062 89.4015C99.1998 90.2416 97.2802 90.8966 95.346 91.505C93.4065 92.0947 91.4538 92.6392 89.4441 93Z" fill="#9A7279"/>
<path d="M88.9861 86.4837C91.0263 86.5542 93.0373 86.8138 95.039 87.12C97.0395 87.4462 99.0319 87.8203 100.995 88.3848C98.9551 88.3169 96.9441 88.0573 94.941 87.7484C92.9419 87.4222 90.9494 87.0482 88.9861 86.4837Z" fill="#9A7279"/>
<mask id="mask5_71_4063" style="mask-type:luminance" maskUnits="userSpaceOnUse" x="100" y="83" width="16" height="15">
<path d="M100.708 83.8031H115.219V97.377H100.708V83.8031Z" fill="white"/>
</mask>
<g mask="url(#mask5_71_4063)">
<g opacity="0.479996">
<path d="M114.231 91.8206C114.647 91.2002 114.991 90.5213 115.141 89.7877C115.622 87.422 113.841 85.0031 111.576 84.1963C109.311 83.3909 106.76 83.9114 104.594 84.9605C103.825 85.3332 103.075 85.7792 102.489 86.4049C101.82 87.1212 101.399 88.0384 101.114 88.9783C100.69 90.3762 100.547 91.8912 100.937 93.2983C101.125 93.98 101.435 94.6243 101.827 95.2127C105.188 100.245 111.832 95.3991 114.231 91.8206Z" fill="#FC5555"/>
</g>
</g>
<mask id="mask6_71_4063" style="mask-type:luminance" maskUnits="userSpaceOnUse" x="150" y="56" width="15" height="15">
<path d="M150.082 56.2777H164.321V70.2109H150.082V56.2777Z" fill="white"/>
</mask>
<g mask="url(#mask6_71_4063)">
<g opacity="0.479996">
<path d="M150.802 62.7066C150.451 63.3656 150.176 64.0779 150.102 64.8221C149.862 67.225 151.879 69.4496 154.213 70.0207C156.549 70.5919 159.034 69.8117 161.082 68.5483C161.809 68.0984 162.511 67.5778 163.029 66.8962C163.623 66.1147 163.95 65.1589 164.138 64.195C164.419 62.7626 164.407 61.2409 163.877 59.8803C163.622 59.2213 163.248 58.6103 162.799 58.0671C158.946 53.4036 152.827 58.9031 150.802 62.7066Z" fill="#FC5555"/>
</g>
</g>
<path d="M118.757 22.922C119.434 28.4109 120.144 35.6118 119.714 38.0161C119.434 39.6004 118.896 41.3736 117.44 42.0153C116.432 42.4613 115.241 42.2137 114.302 41.6319C113.373 41.0568 112.654 40.1915 111.961 39.3301C110.195 37.1388 107.251 32.0879 104.679 27.7652C109.286 25.6538 113.791 24.1974 118.757 22.922Z" fill="#9A7279"/>
<path d="M129.473 20.6307C129.303 21.6371 129.089 22.6276 128.837 23.6101C128.557 24.7017 128.213 25.808 127.468 26.6601C127.042 27.1367 126.487 27.5307 125.85 27.6066C124.859 27.7104 123.907 27.0368 123.412 26.1728C122.841 25.2063 122.38 23.5741 122.265 22.0352C122.821 21.91 123.377 21.7836 123.934 21.6571C125.75 21.243 127.597 20.8929 129.473 20.6307Z" fill="#9A7279"/>
<path d="M101.559 29.2573C101.87 30.1453 102.043 31.0998 102.149 32.0264C102.268 32.9756 102.358 33.9488 102.163 34.8834C101.97 35.8179 101.462 36.7365 100.642 37.2171C99.2898 38.0079 97.561 37.4328 96.1991 36.654C95.3472 36.1561 93.9032 35.3533 92.8977 34.3628C94.0754 33.5601 95.2571 32.8159 96.415 32.1116C98.1783 31.0453 99.8754 30.1067 101.559 29.2573Z" fill="#9A7279"/>
<path d="M82.9713 74.236C82.9183 74.7658 82.6109 75.2344 82.2758 75.6551C80.6118 77.7705 77.2826 79.9019 73.9892 80.6328C73.7759 80.103 73.5746 79.5518 73.3997 79.0046C72.6088 76.6003 72.0749 74.0776 71.8113 71.5281C72.1147 71.5375 72.4101 71.5561 72.7135 71.5654C74.8848 71.6586 77.0455 71.7465 79.2062 71.8343C80.0395 71.8689 80.8993 71.9076 81.6518 72.2723C82.4109 72.6264 83.0322 73.4013 82.9713 74.236Z" fill="#9A7279"/>
<path d="M76.0527 65.9487C74.8048 66.9751 73.2084 67.3306 71.6094 67.4863C71.6173 65.5746 71.7803 63.6629 72.1154 61.7884C73.1739 62.0227 74.2152 62.4434 75.1638 62.9187C76.4104 63.5257 77.4172 64.8264 76.0527 65.9487Z" fill="#9A7279"/>
<path d="M82.4318 82.5233C82.8107 82.7922 82.926 83.3447 82.8121 83.7933C82.6928 84.2526 82.3921 84.64 82.0861 84.9955C80.9441 86.3441 79.5902 87.473 78.0826 88.377C76.9711 86.798 75.9907 85.1193 75.1641 83.3553C75.2952 83.3247 75.4158 83.2888 75.5469 83.2595C77.4891 82.8002 79.455 82.3276 81.4555 82.3129C81.792 82.3143 82.147 82.3289 82.4318 82.5233Z" fill="#9A7279"/>
<path d="M171.22 36.9514C172.525 39.1174 173.597 41.4312 174.42 43.8275C174.714 44.6769 174.972 45.5169 175.182 46.3676C169.84 47.7029 164.124 47.7854 164.035 44.4865C164.015 43.938 164.265 43.3363 164.575 42.7998C165.536 41.113 166.875 39.7631 168.397 38.6555C169.293 38.0125 170.249 37.4493 171.22 36.9514Z" fill="#9A7279"/>
<path d="M166.777 31.0464C167.689 32.0063 168.531 33.0327 169.32 34.0977C168.531 34.4838 167.728 34.8486 166.92 35.1961C166.402 35.4171 165.868 35.6434 165.299 35.6767C165.064 35.6966 164.805 35.6593 164.601 35.5156C164.112 35.1774 164.234 34.4239 164.491 33.8821C165.02 32.7505 165.859 31.8598 166.777 31.0464Z" fill="#9A7279"/>
<path d="M112.844 57.4004L111.694 56.8719C111.735 56.7827 115.873 47.9735 127.614 49.0452L127.499 50.3113C116.691 49.3221 112.997 57.0702 112.844 57.4004Z" fill="#EA5D80"/>
<path d="M169.527 162.608C165.99 167.232 122.775 242.346 114.983 240.929C107.191 239.5 28.1915 209.953 22.886 203.554C17.5672 197.138 -2.27197 154.417 0.214549 148.016C2.68782 141.602 55.118 90.7029 57.5913 89.6325C60.0778 88.5648 69.6384 88.9256 73.5358 90.7029C73.7702 90.8134 74.0458 91.0078 74.3637 91.2993C79.2268 95.6167 92.6556 119.179 92.6556 119.179L161.735 138.047C161.735 138.047 163.102 140.464 164.747 143.809C167.814 150.07 171.835 159.596 169.527 162.608Z" fill="#F39D90"/>
<path d="M169.558 162.687C166.021 167.31 122.806 242.423 115.014 241.008C107.222 239.578 28.2228 210.031 22.9172 203.63C17.5984 197.216 -2.24072 154.495 0.245799 148.094C2.71907 141.68 55.1493 90.7797 57.6225 89.7107C60.1091 88.6417 69.6696 89.0038 73.5657 90.7797C73.8015 90.8916 74.077 91.0859 74.395 91.3775C71.8396 91.2803 66.7407 92.2242 59.4056 98.6942C48.4633 108.358 10.6489 146.345 9.32285 152.357C7.9968 158.355 25.5839 195.009 31.5518 198.674C37.5211 202.34 98.8773 228.012 111.808 226.012C123.542 216.794 160.109 165.006 164.777 143.887C167.845 150.149 171.866 159.674 169.558 162.687Z" fill="#EA5D80"/>
<path d="M212.276 107.834C212.276 107.834 211.53 110.223 209.554 113.652C208.103 116.179 205.976 119.261 202.992 122.371C202.992 122.385 202.978 122.399 202.964 122.413C201.914 123.482 200.781 124.565 199.537 125.606C197.3 127.523 194.702 129.355 191.704 130.979C191.676 130.993 191.663 131.007 191.649 131.021C191.18 131.27 190.696 131.521 190.213 131.771C188.485 132.631 186.938 133.562 185.528 134.533C178.772 139.129 175.278 144.558 171.533 148.32C168.521 151.361 168.606 151.037 161.732 152.803C161.826 153.299 159.789 153.309 159.776 153.295C159.292 153.267 158.21 153.352 157.685 153.269C145.499 151.325 141.249 135.477 160.702 118.289C160.771 118.233 160.839 118.164 160.908 118.123C164.514 114.957 168.949 111.75 174.324 108.543C174.352 108.529 174.517 108.501 174.807 108.487C174.822 108.473 174.822 108.487 174.822 108.487C177.253 108.334 187.933 108.167 197.272 108.029C205.271 107.918 212.276 107.834 212.276 107.834Z" fill="#FFBF6D"/>
<path d="M212.758 81.4821C214.663 84.7025 215.625 88.4408 215.831 92.1857C216.053 95.9439 215.492 99.7221 214.48 103.338C213.452 106.96 211.942 110.434 210.093 113.706C209.095 115.3 208.125 116.905 207.063 118.468C205.95 119.999 204.698 121.426 203.346 122.745L203.505 122.373C203.515 122.515 203.372 122.753 203.318 122.787L203.276 122.824L203.192 122.899L203.023 123.048L202.686 123.344L202.012 123.938L200.657 125.12C199.778 125.948 198.782 126.595 197.82 127.296L192.019 131.452L191.956 131.489C191.992 131.476 192.025 131.452 192.049 131.424L191.962 131.495L187.982 134.284C186.646 135.202 185.332 136.146 184.092 137.171C182.844 138.187 181.644 139.256 180.517 140.394C179.405 141.533 178.316 142.772 177.19 143.951C174.948 146.331 172.525 148.64 169.631 150.346C166.725 152 163.56 153.153 160.199 153.477L160.564 153.306L160.536 153.333C160.504 153.333 160.496 153.448 160.133 153.49C159.77 153.448 159.762 153.333 159.732 153.333L159.704 153.306L160.173 153.477C158.153 153.622 156.065 153.43 154.147 152.649C152.228 151.883 150.555 150.504 149.411 148.789C148.253 147.076 147.592 145.087 147.293 143.081C147.016 141.063 147.138 139.03 147.45 137.05C147.632 136.062 147.836 135.081 148.139 134.127C148.384 133.16 148.767 132.212 149.178 131.299C150.032 129.48 151.132 127.806 152.341 126.233C154.812 123.101 157.631 120.398 160.758 117.873L160.723 117.9C165.137 114.345 169.858 111.204 174.787 108.453L174.779 108.459C174.779 108.459 174.786 108.451 174.802 108.445C174.834 108.429 174.869 108.481 174.858 108.486L174.801 108.454L176.602 107.473L174.839 108.519L174.782 108.487C174.771 108.486 174.802 108.53 174.826 108.518C174.836 108.514 174.834 108.514 174.834 108.514L174.824 108.521C170.012 111.457 165.367 114.684 161.092 118.346L161.056 118.372C158.163 120.858 155.301 123.633 152.976 126.722C151.819 128.277 150.782 129.922 149.994 131.674C149.616 132.56 149.273 133.444 149.05 134.389C148.772 135.315 148.593 136.261 148.436 137.21C148.164 139.111 148.099 141.04 148.359 142.926C148.649 144.8 149.274 146.623 150.326 148.16C151.37 149.699 152.855 150.907 154.573 151.584C156.291 152.272 158.192 152.444 160.067 152.3L160.316 152.281L160.536 152.47C160.536 152.47 160.539 152.473 160.52 152.456C160.495 152.46 160.491 152.349 160.133 152.308C159.777 152.349 159.773 152.46 159.746 152.456C159.729 152.473 159.732 152.47 159.732 152.47L159.907 152.319L160.096 152.3C163.207 151.991 166.289 150.854 169.006 149.279C171.725 147.658 174.056 145.415 176.292 143.089C177.42 141.92 178.487 140.716 179.657 139.532C180.827 138.363 182.065 137.271 183.346 136.241C184.623 135.198 185.957 134.252 187.306 133.334L191.333 130.547L191.247 130.617C191.307 130.561 191.377 130.511 191.448 130.47L191.386 130.507L197.159 126.42C198.116 125.731 199.115 125.09 199.969 124.291L201.302 123.147L201.971 122.579L202.306 122.294L202.473 122.152L202.556 122.081L202.599 122.045C202.57 122.052 202.444 122.258 202.476 122.37L202.636 121.996C203.971 120.738 205.208 119.375 206.312 117.908C207.37 116.406 208.357 114.831 209.364 113.283C211.237 110.093 212.782 106.699 213.854 103.153C214.923 99.6116 215.594 95.9173 215.472 92.2017C215.361 88.5007 214.529 84.7744 212.758 81.4821Z" fill="#9A7279"/>
<path d="M165.289 151.15C164.341 150.278 163.794 149.022 163.499 147.757C163.198 146.478 163.217 145.148 163.393 143.863C163.57 142.572 163.992 141.341 164.502 140.171C164.777 139.593 165.091 139.037 165.405 138.489C165.769 137.964 166.13 137.442 166.535 136.955C166.375 137.579 166.168 138.168 165.968 138.753L165.425 140.519C165.126 141.701 164.782 142.86 164.642 144.049C164.458 145.227 164.388 146.418 164.47 147.608C164.573 148.793 164.782 149.988 165.289 151.15Z" fill="#9A7279"/>
<path d="M153.045 150.316C152.515 149.226 152.193 148.061 151.966 146.88C151.739 145.698 151.633 144.491 151.659 143.275C151.713 142.062 151.842 140.838 152.234 139.666C152.616 138.501 153.208 137.376 154.083 136.539C153.214 138.782 152.979 141.004 152.923 143.307C152.873 144.452 152.92 145.608 152.943 146.773L153.045 150.316Z" fill="#9A7279"/>
<path d="M19.5007 158.057L29.1196 175.224C30.0151 176.821 32.2168 177.04 33.3971 175.64C43.1273 164.106 78.6261 121.778 78.5943 120.239C78.5334 117.233 72.0687 101.176 69.7689 100.196C68.7078 99.7436 27.5286 146.281 19.8186 155.024C19.0768 155.864 18.9523 157.078 19.5007 158.057Z" fill="#EA5D80"/>
<path d="M119.956 196.588C119.67 198.256 109.083 211.862 106.63 212.859C104.187 213.87 86.6474 208.253 85.0352 207.691C83.4349 207.132 80.2118 198.128 80.6251 195.278L80.6384 195.204C80.6596 195.078 80.7126 194.921 80.8066 194.746C82.5407 191.176 96.6636 178.067 97.5883 177.215C97.6188 177.182 97.6334 177.173 97.6334 177.173C97.6334 177.173 115.878 183.065 118.263 184.094C118.289 184.099 118.298 184.114 118.323 184.118C120.444 185.062 120.243 194.92 119.956 196.588Z" fill="#FC5555"/>
<path d="M118.255 184.092C115.576 187.293 105.605 199.096 103.173 200.482C100.812 201.828 85.619 196.373 80.7983 194.743C82.5324 191.173 96.6554 178.066 97.58 177.214C97.6105 177.18 97.6251 177.17 97.6251 177.17C97.6251 177.17 115.869 183.063 118.255 184.092Z" fill="white"/>
<path d="M85.6224 182.678C85.3363 184.346 74.749 197.952 72.2956 198.949C69.8515 199.96 52.3134 194.342 50.7012 193.781C49.1009 193.222 45.8778 184.218 46.2911 181.368L46.3044 181.293C46.3256 181.168 46.3786 181.011 46.4726 180.835C48.2067 177.266 62.3297 164.158 63.2543 163.305C63.2848 163.272 63.2994 163.262 63.2994 163.262C63.2994 163.262 81.5436 169.156 83.9294 170.185C83.9546 170.189 83.9652 170.204 83.989 170.208C86.1099 171.151 85.9086 181.01 85.6224 182.678Z" fill="#FC5555"/>
<path d="M83.9289 170.184C81.2503 173.385 71.2791 185.188 68.8469 186.574C66.4875 187.92 51.2929 182.465 46.4722 180.834C48.2062 177.265 61.5171 164.252 63.2539 163.305C63.2843 163.272 63.2989 163.261 63.2989 163.261C63.2989 163.261 81.5431 169.155 83.9289 170.184Z" fill="white"/>
<path d="M148.982 159.939C148.696 161.608 138.109 175.213 135.655 176.21C133.211 177.222 115.673 171.604 114.061 171.042C112.461 170.483 109.237 161.48 109.651 158.629L109.664 158.555C109.685 158.43 109.737 158.273 109.831 158.097C111.566 154.528 125.689 141.42 126.614 140.567C126.644 140.535 126.659 140.524 126.659 140.524C126.659 140.524 144.903 146.418 147.289 147.447C147.314 147.451 147.323 147.465 147.349 147.469C149.47 148.413 149.268 158.273 148.982 159.939Z" fill="#FC5555"/>
<path d="M147.29 147.446C144.611 150.646 134.64 162.449 132.208 163.835C129.847 165.181 114.652 159.727 109.832 158.096C111.567 154.527 125.69 141.419 126.615 140.567C126.645 140.534 126.66 140.523 126.66 140.523C126.66 140.523 144.904 146.417 147.29 147.446Z" fill="white"/>
<path d="M112.684 146.447C112.398 148.115 101.811 161.721 99.3576 162.718C96.9135 163.73 79.3754 158.112 77.7632 157.55C76.1629 156.991 72.9398 147.988 73.3532 145.137L73.3664 145.063C73.3876 144.938 73.4406 144.78 73.5333 144.605C75.2687 141.036 89.3917 127.928 90.3163 127.074C90.3468 127.042 90.3614 127.032 90.3614 127.032C90.3614 127.032 108.606 132.925 110.991 133.954C111.017 133.958 111.027 133.973 111.051 133.977C113.172 134.921 112.971 144.779 112.684 146.447Z" fill="#FC5555"/>
<path d="M110.984 133.956C108.306 137.156 98.3346 148.959 95.9024 150.345C93.5417 151.691 78.3484 146.237 73.5264 144.606C75.2618 141.037 89.3847 127.929 90.3094 127.077C90.3398 127.044 90.3544 127.033 90.3544 127.033C90.3544 127.033 108.599 132.927 110.984 133.956Z" fill="white"/>
<path d="M249.63 225.016C249.331 222.851 249.209 220.662 249.17 218.475C249.137 216.288 249.154 214.096 249.272 211.91C249.49 207.536 249.924 203.186 250.47 198.829L250.752 199.39C245.951 196.904 241.313 194.063 237.027 190.724C232.719 187.415 228.922 183.424 225.736 179C224.193 176.752 222.77 174.409 221.653 171.913C220.552 169.412 219.684 166.809 219.103 164.144C218.504 161.483 218.23 158.752 218.28 156.032C218.344 153.32 218.643 150.591 219.47 148.014C218.267 153.286 218.582 158.793 219.855 163.967C221.138 169.165 223.574 174.003 226.658 178.338C229.796 182.649 233.603 186.442 237.788 189.751C241.968 193.075 246.516 195.928 251.244 198.436L251.58 198.615L251.526 198.997C251.218 201.147 250.87 203.292 250.613 205.458C250.351 207.618 250.124 209.786 249.945 211.956C249.58 216.294 249.357 220.654 249.63 225.016Z" fill="#9A7279"/>
<path d="M199.537 125.608C197.299 127.524 194.701 129.357 191.703 130.981C191.675 130.996 191.661 131.009 191.648 131.023C189.7 132.329 187.751 133.647 185.886 135.035C185.761 134.869 185.652 134.702 185.527 134.536C184.712 133.355 183.911 132.148 182.901 131.162C180.913 129.232 177.928 127.733 177.872 124.79C177.831 123.026 179.005 121.457 180.429 120.721C181.837 120 183.455 119.972 185.016 120.082C190.113 120.471 195.101 122.388 199.384 125.511C199.44 125.539 199.496 125.58 199.537 125.608Z" fill="#9A7279"/>
<path d="M214.439 102.309C213.375 106.308 211.675 110.168 209.631 113.68C209.616 113.68 209.59 113.666 209.562 113.653C209.216 113.528 208.871 113.375 208.525 113.236C204.712 111.653 200.982 109.862 197.279 108.03C196.754 107.779 196.243 107.516 195.718 107.266C195.276 107.043 194.805 106.808 194.502 106.406C193.756 105.432 194.294 104.003 195.082 103.087C196.505 101.393 198.619 100.435 200.775 99.9901C204.547 99.2126 210.364 99.8796 214.439 102.309Z" fill="#9A7279"/>
<path d="M213.773 83.3433C212.626 83.3713 211.075 83.3832 209.942 83.563C208.283 83.8266 206.695 84.3964 205.064 84.7571C203.42 85.1179 201.679 85.2577 200.119 84.6466C198.557 84.0356 197.259 82.5219 197.314 80.8418C197.383 79.1764 198.681 77.8291 200.008 76.816C201.873 75.3716 205.278 73.7088 208.525 72.681C211.346 76.5378 212.475 80.316 213.773 83.3433Z" fill="#9A7279"/>
<path d="M240.561 86.4813C240.602 88.2719 240.423 90.0771 240.243 91.8543C240.022 94.0763 239.8 96.2982 239.58 98.5055C239.4 100.38 239.207 102.281 238.35 103.948C237.494 105.613 235.822 106.988 233.957 106.905C232.423 106.85 231.055 105.822 230.239 104.516C229.425 103.212 229.079 101.657 228.859 100.13C228.264 95.8389 228.541 91.4656 228.154 87.1482C227.961 85.0368 227.6 82.968 226.951 80.983C231.11 82.3303 235.78 84.1209 240.561 86.4813Z" fill="#9A7279"/>
<path d="M265.776 105.892C264.56 111.001 261.742 115.722 257.763 119.151C256.105 120.594 253.757 121.844 251.808 120.831C250.469 120.136 249.805 118.512 249.792 116.999C249.777 115.485 250.302 114.014 250.8 112.584C252.872 106.628 254.157 100.823 253.867 94.5757C258.136 97.7548 262.198 101.49 265.776 105.892Z" fill="#9A7279"/>
<path d="M279.737 140.631C277.568 142.103 275.136 143.158 272.566 143.685C270.991 143.991 269.32 144.116 267.814 143.588C266.294 143.06 264.954 141.741 264.788 140.131C264.595 138.214 265.976 136.549 267.247 135.091C270.342 131.55 273.408 127.719 276.006 123.678C278.19 129.399 279.378 135.077 279.737 140.631Z" fill="#9A7279"/>
<path d="M209.561 25.4576C207.598 25.7172 205.641 26.0088 203.692 26.3403C203.309 24.3766 202.867 22.4223 202.332 20.484C201.882 18.8598 200.623 17.2409 198.775 18.3379C197.474 19.1101 197.285 20.9858 197.317 22.3424C197.34 23.2837 197.504 25.2167 197.798 27.5092C195.608 28.0137 193.434 28.5995 191.283 29.3037C189.681 29.8283 188.113 31.2061 189.265 33.1179C190.076 34.4638 191.951 34.6036 193.299 34.5264C194.29 34.4705 196.382 34.2095 198.831 33.7862C199.652 37.7388 200.784 41.2414 202.185 41.6741C205.197 42.606 205.584 40.5877 205.429 38.9569C205.226 36.8149 204.99 34.6781 204.707 32.5507C208.582 31.5643 211.991 30.2676 212.372 28.7885C213.2 25.5854 211.178 25.2433 209.561 25.4576Z" fill="#FFBF6D"/>
<path d="M240.717 4.75366C237.819 3.13614 234.847 1.65309 231.756 0.380377C230.122 -0.293255 227.934 -0.261304 227.565 2.05381C227.304 3.68463 228.709 5.0745 229.84 5.93318C232.558 7.99801 246.152 16.3572 248.977 14.3602C251.803 12.362 250.417 10.7085 248.979 9.77661C246.27 8.02064 243.529 6.32325 240.717 4.75366Z" fill="#F39D90"/>
<path d="M149.917 233.06C148.195 233.287 146.482 233.554 144.773 233.845C144.436 232.119 144.048 230.403 143.578 228.698C143.184 227.275 142.079 225.855 140.459 226.817C139.318 227.494 139.153 229.139 139.181 230.328C139.201 231.153 139.344 232.848 139.602 234.858C137.682 235.302 135.776 235.816 133.89 236.432C132.485 236.893 131.109 238.1 132.12 239.777C132.831 240.957 134.474 241.079 135.657 241.012C136.526 240.962 138.361 240.735 140.508 240.363C141.228 243.829 142.22 246.9 143.448 247.279C146.091 248.097 146.429 246.326 146.293 244.898C146.116 243.019 145.895 241.149 145.646 239.284C149.049 238.418 152.047 237.28 152.382 235.981C153.107 233.173 151.334 232.872 149.917 233.06Z" fill="#FFBF6D"/>
<path d="M242.19 46.3307C239.252 46.987 236.344 47.7791 233.482 48.7869C231.968 49.3194 230.503 50.6654 231.639 52.4613C232.441 53.726 234.228 53.8192 235.51 53.718C238.595 53.4744 252.837 50.921 253.559 47.8523C254.28 44.7851 252.348 44.5002 250.812 44.7385C247.92 45.1871 245.041 45.6943 242.19 46.3307Z" fill="#FC5555"/>
<path d="M238.497 38.7999C237.953 39.0729 237.522 39.5867 237.394 40.1845C237.273 40.745 237.419 41.336 237.674 41.8486C238.284 43.0747 239.553 43.9427 240.911 44.0639C241.56 44.1211 242.241 44.0106 242.785 43.6512C243.331 43.2917 243.717 42.6607 243.688 42.0057C243.669 41.5917 243.493 41.2016 243.285 40.8421C242.368 39.2539 240.346 37.8734 238.497 38.7999Z" fill="#FC5555"/>
<path d="M240.984 58.0561C240.792 58.6365 240.848 59.3048 241.179 59.8187C241.489 60.3007 242.007 60.6148 242.549 60.7959C243.843 61.2286 245.351 60.9397 246.396 60.0597C246.895 59.639 247.298 59.0772 247.431 58.4368C247.563 57.7952 247.391 57.0736 246.91 56.633C246.605 56.3534 246.205 56.2029 245.806 56.0964C244.04 55.6252 241.639 56.0858 240.984 58.0561Z" fill="#FC5555"/>
<path d="M260.031 235.553C259.283 235.428 258.605 235.115 257.977 234.729C257.345 234.345 256.784 233.851 256.275 233.303C255.787 232.734 255.366 232.093 255.085 231.387C254.804 230.682 254.682 229.901 254.788 229.156C255.2 229.798 255.55 230.369 255.952 230.912C256.366 231.442 256.768 231.965 257.219 232.46C258.104 233.471 259.067 234.41 260.031 235.553Z" fill="#9A7279"/>
<path d="M177.134 185.115C178.056 184.094 179.315 183.424 180.596 182.937C181.889 182.447 183.257 182.208 184.624 182.093C185.996 181.992 187.368 182.088 188.711 182.298C189.383 182.405 190.043 182.584 190.699 182.742C191.345 182.955 191.988 183.172 192.612 183.438C191.925 183.446 191.26 183.395 190.598 183.357L188.617 183.286C187.304 183.279 186.003 183.242 184.713 183.361C183.421 183.443 182.14 183.615 180.874 183.885C179.613 184.175 178.354 184.529 177.134 185.115Z" fill="#9A7279"/>
<path d="M183.657 187.859C183.321 186.798 183.191 185.697 183.158 184.596C183.116 183.493 183.215 182.384 183.43 181.288C183.668 180.199 183.995 179.106 184.591 178.128C185.164 177.153 185.975 176.263 186.996 175.814C185.638 177.551 185.084 179.492 184.668 181.542C184.232 183.585 184.031 185.684 183.657 187.859Z" fill="#9A7279"/>
</svg>
