<svg width="24" height="24" viewBox="0 0 24 24" fill="none" xmlns="http://www.w3.org/2000/svg">
<path d="M21.2786 6.39981L11.7386 15.9398C10.7886 16.8898 7.96857 17.3298 7.33857 16.6998C6.70857 16.0698 7.13858 13.2498 8.08857 12.2998L17.6386 2.74978C17.8741 2.49284 18.1592 2.2863 18.4768 2.1426C18.7943 1.9989 19.1377 1.921 19.4862 1.91366C19.8346 1.90633 20.181 1.96967 20.5043 2.09988C20.8276 2.23009 21.1212 2.42449 21.3673 2.67129C21.6134 2.91809 21.807 3.21219 21.9363 3.53585C22.0656 3.85952 22.1281 4.20602 22.1198 4.55447C22.1115 4.90292 22.0326 5.24611 21.8881 5.56326C21.7435 5.88041 21.5362 6.165 21.2786 6.39981Z" stroke="#EA5D80" stroke-width="1.5" stroke-linecap="round" stroke-linejoin="round"/>
<path d="M11 4H6C4.93913 4 3.92178 4.42142 3.17163 5.17157C2.42149 5.92172 2 6.93913 2 8V18C2 19.0609 2.42149 20.0783 3.17163 20.8284C3.92178 21.5786 4.93913 22 6 22H17C19.21 22 20 20.2 20 18V13" stroke="#EA5D80" stroke-width="1.5" stroke-linecap="round" stroke-linejoin="round"/>
</svg>
