<svg width="17" height="15" viewBox="0 0 17 15" fill="none" xmlns="http://www.w3.org/2000/svg">
<path d="M5.692 15.0008C5.40982 15.0012 5.13119 14.9379 4.87688 14.8156C4.62257 14.6933 4.39915 14.5152 4.22325 14.2945L0.104502 9.13828C0.0178238 9.00788 -0.0167515 8.8497 0.00761767 8.69502C0.0319868 8.54035 0.113525 8.40046 0.236099 8.30303C0.358674 8.2056 0.513354 8.15773 0.669536 8.16888C0.825718 8.18004 0.972022 8.24941 1.0795 8.36328L5.19825 13.5133C5.25897 13.5925 5.33778 13.656 5.42808 13.6986C5.51839 13.7411 5.61757 13.7613 5.71731 13.7577C5.81706 13.754 5.91448 13.7265 6.00141 13.6774C6.08835 13.6284 6.16227 13.5593 6.217 13.4758L15.0733 0.275781C15.1192 0.207658 15.1781 0.149255 15.2467 0.103906C15.3152 0.0585575 15.392 0.0271518 15.4727 0.0114819C15.5534 -0.004188 15.6363 -0.00381542 15.7168 0.0125789C15.7974 0.0289732 15.8739 0.0610681 15.942 0.107031C16.0101 0.152993 16.0685 0.211924 16.1139 0.280457C16.1592 0.348991 16.1906 0.425785 16.2063 0.506456C16.222 0.587127 16.2216 0.670095 16.2052 0.750621C16.1888 0.831148 16.1567 0.907657 16.1108 0.975781L7.26075 14.1695C7.09609 14.4157 6.87544 14.6194 6.61689 14.7639C6.35833 14.9084 6.06923 14.9896 5.77325 15.0008H5.692Z" fill="#6AD9A3"/>
</svg>
