<svg width="24" height="24" viewBox="0 0 24 24" fill="none" xmlns="http://www.w3.org/2000/svg">
<path opacity="0.7" d="M21.9988 12C21.9988 17.5228 17.5216 22 11.9988 22C6.47593 22 1.99878 17.5228 1.99878 12C1.99878 6.47715 6.47593 2 11.9988 2C17.5216 2 21.9988 6.47715 21.9988 12Z" fill="#FFC26D"/>
<path d="M5.625 13.625C5.625 15.6284 5.625 16.6302 6.2474 17.2526C6.8698 17.875 7.87153 17.875 9.875 17.875H14.125C16.1284 17.875 17.1302 17.875 17.7526 17.2526C18.375 16.6302 18.375 15.6284 18.375 13.625" stroke="white" stroke-width="1.0625" stroke-linecap="round" stroke-linejoin="round"/>
<path d="M11.9925 5.125V14.3333M11.9925 14.3333L14.8258 11.2344M11.9925 14.3333L9.15918 11.2344" stroke="white" stroke-width="1.0625" stroke-linecap="round" stroke-linejoin="round"/>
</svg>
