<svg width="17" height="17" viewBox="0 0 17 17" fill="none" xmlns="http://www.w3.org/2000/svg">
<g clip-path="url(#clip0_382_4270)">
<path d="M6.48406 3.83126C7.38126 2.22175 7.82985 1.41699 8.50057 1.41699C9.17129 1.41699 9.61988 2.22174 10.5171 3.83125L10.7492 4.24766C11.0042 4.70503 11.1316 4.93372 11.3304 5.08461C11.5292 5.2355 11.7767 5.2915 12.2718 5.40353L12.7226 5.50551C14.4648 5.89972 15.336 6.09682 15.5432 6.7633C15.7505 7.42975 15.1566 8.12427 13.9688 9.51317L13.6616 9.87251C13.324 10.2672 13.1552 10.4645 13.0793 10.7087C13.0034 10.9529 13.0289 11.2161 13.0799 11.7428L13.1264 12.2222C13.306 14.0753 13.3958 15.0019 12.8532 15.4138C12.3106 15.8257 11.4949 15.4501 9.86362 14.6991L9.44159 14.5047C8.97806 14.2913 8.74629 14.1846 8.50057 14.1846C8.25485 14.1846 8.02308 14.2913 7.55955 14.5047L7.13752 14.6991C5.50622 15.4501 4.69057 15.8257 4.14797 15.4138C3.60536 15.0019 3.69515 14.0753 3.87473 12.2222L3.92118 11.7428C3.97222 11.2161 3.99773 10.9529 3.92181 10.7087C3.84589 10.4645 3.67713 10.2672 3.3396 9.87251L3.03231 9.51317C1.84454 8.12427 1.25065 7.42975 1.45791 6.7633C1.66517 6.09682 2.5363 5.89972 4.27858 5.50551L4.72933 5.40353C5.22442 5.2915 5.47197 5.2355 5.67074 5.08461C5.8695 4.93372 5.99699 4.70503 6.25195 4.24766L6.48406 3.83126Z" stroke="#EA5D80" stroke-width="1.0625"/>
</g>
<defs>
<clipPath id="clip0_382_4270">
<rect width="17" height="17" fill="white"/>
</clipPath>
</defs>
</svg>
