<svg width="17" height="17" viewBox="0 0 17 17" fill="none" xmlns="http://www.w3.org/2000/svg">
<path d="M13.0924 11.8767C12.6417 11.9845 12.1712 12.0415 11.6875 12.0415C8.36226 12.0415 5.66663 9.34587 5.66663 6.02067C5.66663 5.67821 5.69522 5.34243 5.75015 5.01558C5.72451 5.04024 5.69802 5.06295 5.67013 5.08412C5.47136 5.23501 5.22381 5.29102 4.72872 5.40304L4.27797 5.50503C2.53569 5.89923 1.66456 6.09633 1.4573 6.76282C1.25004 7.42933 1.84393 8.12378 3.0317 9.51268L3.33899 9.87202C3.67651 10.2667 3.84528 10.464 3.92119 10.7082C3.99712 10.9524 3.97161 11.2157 3.92057 11.7423L3.87412 12.2217C3.69454 14.0748 3.60475 15.0014 4.14736 15.4133C4.68996 15.8252 5.5056 15.4497 7.13691 14.6986L7.55894 14.5042C8.02247 14.2908 8.25424 14.1841 8.49996 14.1841C8.74568 14.1841 8.97745 14.2908 9.44098 14.5042L9.86301 14.6986C11.4943 15.4497 12.3099 15.8252 12.8526 15.4133C13.3952 15.0014 13.3054 14.0748 13.1258 12.2217L13.0924 11.8767Z" fill="#EA5D80"/>
<path d="M6.48345 3.83126L6.25133 4.24765C5.99637 4.70503 5.86889 4.93323 5.67013 5.08412C5.69802 5.06295 5.72451 5.04024 5.75015 5.01558C5.69522 5.34243 5.66663 5.67821 5.66663 6.02067C5.66663 9.34587 8.36226 12.0415 11.6875 12.0415C12.1712 12.0415 12.6417 11.9845 13.0924 11.8767L13.0794 11.7428C13.0283 11.2161 13.0028 10.9529 13.0787 10.7087C13.1547 10.4645 13.3234 10.2672 13.6609 9.87251L13.9683 9.51317C15.156 8.12427 15.7498 7.42975 15.5426 6.7633C15.3353 6.09682 14.4642 5.89972 12.7219 5.50551L12.2712 5.40353C11.7761 5.2915 11.5285 5.2355 11.3298 5.08461C11.131 4.93372 11.0035 4.70503 10.7486 4.24766L10.5165 3.83125C9.61922 2.22174 9.17064 1.41699 8.49999 1.41699C7.82927 1.41699 7.38068 2.22175 6.48345 3.83126Z" fill="#EA5D80"/>
</svg>
