<svg width="26" height="26" viewBox="0 0 26 26" fill="none" xmlns="http://www.w3.org/2000/svg">
<g clip-path="url(#clip0_71_454)">
<path fill-rule="evenodd" clip-rule="evenodd" d="M12.9635 0.898438C6.1526 0.898438 0.646637 6.44499 0.646637 13.3068C0.646637 18.7919 4.17449 23.4348 9.06857 25.0781C9.68045 25.2017 9.90458 24.8111 9.90458 24.4826C9.90458 24.195 9.88441 23.2089 9.88441 22.1816C6.45816 22.9213 5.74467 20.7024 5.74467 20.7024C5.19405 19.2643 4.3782 18.8947 4.3782 18.8947C3.25679 18.1346 4.45989 18.1346 4.45989 18.1346C5.70383 18.2168 6.35656 19.4083 6.35656 19.4083C7.45755 21.2981 9.23169 20.7642 9.94543 20.4354C10.0473 19.6342 10.3738 19.0795 10.7204 18.7714C7.98775 18.4838 5.11262 17.4156 5.11262 12.6493C5.11262 11.2934 5.60172 10.1841 6.37673 9.32138C6.25445 9.01329 5.82611 7.73935 6.49926 6.03429C6.49926 6.03429 7.53923 5.70553 9.88416 7.30798C10.8881 7.03637 11.9235 6.89819 12.9635 6.89703C14.0035 6.89703 15.0636 7.04099 16.0426 7.30798C18.3878 5.70553 19.4278 6.03429 19.4278 6.03429C20.1009 7.73935 19.6723 9.01329 19.55 9.32138C20.3455 10.1841 20.8144 11.2934 20.8144 12.6493C20.8144 17.4156 17.9393 18.4631 15.1862 18.7714C15.6349 19.1617 16.0222 19.9012 16.0222 21.0722C16.0222 22.7362 16.002 24.0717 16.002 24.4824C16.002 24.8111 16.2264 25.2017 16.838 25.0784C21.7321 23.4346 25.26 18.7919 25.26 13.3068C25.2801 6.44499 19.754 0.898438 12.9635 0.898438Z" fill="#24292F"/>
</g>
<defs>
<clipPath id="clip0_71_454">
<rect width="24.7074" height="24.2031" fill="white" transform="translate(0.646317 0.898438)"/>
</clipPath>
</defs>
</svg>
