<?xml version="1.0" encoding="UTF-8"?>
<svg version="1.1" xmlns="http://www.w3.org/2000/svg" width="512" height="512">
<path d="M0 0 C6 22.10679612 6 22.10679612 6 28 C7.051875 27.93039063 7.051875 27.93039063 8.125 27.859375 C15.92391209 27.56267726 21.09128646 28.44519412 26.94140625 33.765625 C32.34659014 39.49805385 35.04318486 44.98869722 35.4375 52.875 C35.16841798 59.62274918 33.43816203 65.32858421 28.8359375 70.37109375 C23.06308466 75.64563845 23.06308466 75.64563845 19 77 C19.12117188 77.65484375 19.24234375 78.3096875 19.3671875 78.984375 C20.65133457 85.97803753 21.84891337 92.9832698 23 100 C19.60641656 100.84268087 16.20980915 101.67247901 12.8125 102.5 C11.37293945 102.85771484 11.37293945 102.85771484 9.90429688 103.22265625 C8.50727539 103.56103516 8.50727539 103.56103516 7.08203125 103.90625 C6.22843018 104.11572266 5.3748291 104.32519531 4.49536133 104.54101562 C1.90384712 105.01768588 -0.37250264 105.21236818 -3 105 C-4.97610386 102.95575462 -6 101.8823175 -6 99 C-6.721875 98.71125 -7.44375 98.4225 -8.1875 98.125 C-9.93750428 97.42499829 -11.67162382 96.6818624 -13.375 95.875 C-19.60441706 93.79852765 -24.2737258 95.1368629 -30 98 C-31.485 98.99 -31.485 98.99 -33 100 C-32.19332886 100.42128174 -32.19332886 100.42128174 -31.37036133 100.85107422 C-9.51573968 112.34614354 8.79038991 124.4009615 16.9453125 148.83203125 C17.74815987 152.33176731 18.06912055 155.30027278 17.71484375 158.88671875 C17.27649657 163.70853769 17.020171 166.72212416 20.0546875 170.6796875 C21.96572826 172.50410885 23.88882809 174.27837394 25.85546875 176.0390625 C47.32161477 195.48634496 60.43473264 229.54450799 62.17285156 257.81103516 C62.99056318 278.40843492 59.51722496 296.6170268 50 315 C57.60677355 319.36685148 64.39356553 321.19545502 73.0625 318.9375 C81.0193987 316.16009196 86.92792977 312.22062363 91.125 304.83203125 C95.27483544 296.14331329 93.26989737 286.50286492 90.21166992 277.79980469 C89.00489621 274.50148632 87.69591494 271.25569123 86.33203125 268.01953125 C81.76118862 256.98942274 79.80365629 246.81798954 83.625 235.0625 C85.72386258 230.09150967 88.45536799 226.04484772 92 222 C92.47824219 221.40574219 92.95648438 220.81148437 93.44921875 220.19921875 C99.57034325 213.24549797 109.3248511 208.15202526 118.5 206.875 C122.67757593 206.72383771 125.52178725 207.56525108 129 210 C131.11504424 213.17256635 131.31917542 214.2017425 131.375 217.875 C131.40335938 218.71804687 131.43171875 219.56109375 131.4609375 220.4296875 C130.82433168 223.97957417 129.55746643 225.46302609 127 228 C124.54706215 229.38704499 122.16532488 230.62139202 119.625 231.8125 C113.57037923 234.82964432 109.12735849 237.7591209 106 244 C102.27539874 255.17380379 106.01725752 264.6328061 110.30859375 274.87890625 C116.12290426 288.7639666 115.42157861 304.27053452 110.15625 318.23828125 C106.04999758 327.35345365 99.08541911 333.94378368 90 338 C70.44704741 344.29590818 54.59148614 338.96612066 37 330 C36.78859375 330.55171875 36.5771875 331.1034375 36.359375 331.671875 C34.52195289 334.81872437 32.01031682 336.93893345 29.25 339.25 C28.67652832 339.73090088 28.10305664 340.21180176 27.51220703 340.70727539 C15.39817682 350.58337891 1.79913432 357.38881492 -14 358 C-14.0825 358.86625 -14.165 359.7325 -14.25 360.625 C-15.11362922 364.5113315 -16.58949816 366.85904306 -19 370 C-22.13400885 371.56700442 -25.63155095 371.85164561 -29 371 C-29.58523438 370.15308594 -30.17046875 369.30617188 -30.7734375 368.43359375 C-31.50820313 367.63050781 -32.24296875 366.82742188 -33 366 C-35.85478393 365.95912754 -37.99542058 366.16021872 -40.75 366.6875 C-42.28668308 366.92252018 -43.82449931 367.1502329 -45.36328125 367.37109375 C-46.14010254 367.48437012 -46.91692383 367.59764648 -47.71728516 367.71435547 C-62.41367185 369.55336856 -78.70224758 367.7068247 -93 364 C-93.14695312 364.7734375 -93.29390625 365.546875 -93.4453125 366.34375 C-95.93376908 377.89934146 -101.1136514 383.5947095 -110 391 C-110.66 391.66 -111.32 392.32 -112 393 C-111.5045166 393.85924072 -111.0090332 394.71848145 -110.49853516 395.60375977 C-108.86322413 399.3099852 -108.75294745 401.34130815 -109.0234375 405.33984375 C-109.07951172 406.55752441 -109.13558594 407.77520508 -109.19335938 409.02978516 C-109.28327148 410.964104 -109.28327148 410.964104 -109.375 412.9375 C-109.83202493 426.64280709 -107.00194975 437.5986771 -100.82617188 449.91064453 C-100 452 -100 452 -100 456 C-104.08012788 456.59501865 -107.54831649 456.87885704 -111.16796875 454.6875 C-113.2440899 452.88846272 -115.13025023 451.01205631 -117 449 C-117.55816406 448.43667969 -118.11632812 447.87335938 -118.69140625 447.29296875 C-128.57896262 436.71154877 -130.54169985 420.78876196 -130.10546875 406.80859375 C-130.07066406 406.21175781 -130.03585938 405.61492187 -130 405 C-131.1446875 404.690625 -131.1446875 404.690625 -132.3125 404.375 C-137.49898594 402.44105609 -142.19033084 399.7214854 -147 397 C-147.58265625 397.47050781 -148.1653125 397.94101562 -148.765625 398.42578125 C-157.31786207 404.92064054 -167.14650115 408.45236693 -178 407 C-183.57562349 405.73655822 -187.8278258 404.02176667 -192 400 C-193.59794407 397.36922108 -194.86346752 394.61729058 -196.125 391.8125 C-197.3369057 389.13835286 -198.60161716 386.5890561 -200 384 C-203.47306829 382.84231057 -205.12273941 383.31953921 -208.46875 384.63671875 C-213.11616644 387.13972544 -217.13732066 390.52379433 -221.2421875 393.8203125 C-226.26617933 397.79111624 -230.7413783 397.62142343 -237 397 C-244.46533679 393.47861472 -249.52251181 386.59045074 -252.3046875 378.9453125 C-254.01632682 371.69488528 -254.52587742 363.23874316 -251.25 356.375 C-250.53406627 355.22801966 -249.78691866 354.09949262 -249 353 C-248.443125 352.113125 -247.88625 351.22625 -247.3125 350.3125 C-241.34433074 344.34433074 -235.31452628 342.77310912 -227.1875 341.6875 C-221.86585383 341.01356413 -221.86585383 341.01356413 -217.19140625 338.6015625 C-216.03742038 336.40851052 -215.53439084 334.42746165 -215 332 C-214.27119376 329.27907521 -213.48623434 326.57614083 -212.6875 323.875 C-212.48374756 323.17020508 -212.27999512 322.46541016 -212.07006836 321.73925781 C-210.24019393 315.84291824 -208.17479488 313.22204209 -203 310 C-199.00088894 308.00044447 -194.3449485 308.48690307 -190 309 C-186.15239996 310.35518918 -182.58415063 312.05887393 -179 314 C-177.62865399 311.27831329 -176.27795288 308.5493512 -174.9375 305.8125 C-174.54755859 305.04357422 -174.15761719 304.27464844 -173.75585938 303.48242188 C-173.39169922 302.73154297 -173.02753906 301.98066406 -172.65234375 301.20703125 C-172.14175415 300.17799683 -172.14175415 300.17799683 -171.62084961 299.12817383 C-170.29984534 294.59998107 -172.51600509 290.41037924 -174.21484375 286.21875 C-174.65376953 285.12949219 -175.09269531 284.04023438 -175.54492188 282.91796875 C-176.00447266 281.79003906 -176.46402344 280.66210938 -176.9375 279.5 C-177.62102539 277.80810547 -177.62102539 277.80810547 -178.31835938 276.08203125 C-179.16722158 273.9816255 -180.01785554 271.88193428 -180.87084961 269.78320312 C-181.92209916 267.19201504 -182.9637771 264.59722821 -184 262 C-184.78503906 262.20496094 -185.57007813 262.40992188 -186.37890625 262.62109375 C-209.73323783 268.61011866 -229.77633761 265.23605656 -251 254 C-253.32330984 259.60526694 -255.46745644 265.12524968 -257 271 C-268.62306535 269.71068646 -279.71604226 266.98743208 -291 264 C-290.95359375 262.9378125 -290.9071875 261.875625 -290.859375 260.78125 C-290.57798854 251.76729045 -290.39046336 245.01746024 -296.765625 238.078125 C-302.88872661 232.24430378 -308.45589089 229.90701597 -316.875 229.5625 C-324.67295393 229.79850365 -331.06380149 231.88215953 -336.875 237.1875 C-340.34625721 240.96238964 -342.25528088 245.22098675 -344 250 C-350.66666667 248.33333333 -357.33333333 246.66666667 -364 245 C-363.38541771 236.9295642 -362.30774665 228.98614219 -361 221 C-361.64066406 220.731875 -362.28132813 220.46375 -362.94140625 220.1875 C-370.87789028 216.5918351 -375.37822716 212.22866586 -379.9375 204.875 C-382.49148298 197.91539639 -382.15720533 188.89693194 -379.4375 182.0625 C-375.59735369 174.81338171 -369.6864075 169.80327803 -362 167 C-358.17906827 166.0272836 -354.6224892 165.89425836 -350.6875 165.9375 C-349.61886719 165.94652344 -348.55023438 165.95554688 -347.44921875 165.96484375 C-346.64097656 165.97644531 -345.83273437 165.98804688 -345 166 C-343.68 162.7 -342.36 159.4 -341 156 C-334.39753314 155.8925336 -327.99878797 156.28754907 -321.4375 157 C-320.52419922 157.09539062 -319.61089844 157.19078125 -318.66992188 157.2890625 C-316.44614468 157.52191875 -314.22290224 157.75895855 -312 158 C-311.72027344 157.35933594 -311.44054687 156.71867188 -311.15234375 156.05859375 C-307.29368992 147.73333098 -302.56264839 141.13362034 -293.78125 137.66015625 C-285.20602935 135.62474573 -275.19484846 135.76762321 -267.1796875 139.61328125 C-260.34734402 143.96002307 -254.84341326 149.9764256 -253 158 C-252.70165058 162.68905845 -252.75980999 167.30962285 -253 172 C-252.42967041 172.14622803 -251.85934082 172.29245605 -251.27172852 172.44311523 C-248.70105211 173.10434115 -246.13177426 173.77084771 -243.5625 174.4375 C-242.66466797 174.66759766 -241.76683594 174.89769531 -240.84179688 175.13476562 C-239.98779297 175.35712891 -239.13378906 175.57949219 -238.25390625 175.80859375 C-237.46314697 176.01282959 -236.6723877 176.21706543 -235.85766602 176.42749023 C-234 177 -234 177 -233 178 C-232.56866667 184.46999998 -233.832721 190.65292045 -235 197 C-232.77335683 197.985267 -230.54398683 198.96331444 -228.3125 199.9375 C-227.68666016 200.21529297 -227.06082031 200.49308594 -226.41601562 200.77929688 C-217.90527509 204.47768151 -208.13158042 205.85631916 -199.25 202.5 C-198.1775 202.005 -197.105 201.51 -196 201 C-195.92652344 199.31583984 -195.92652344 199.31583984 -195.8515625 197.59765625 C-195.47797144 189.86613308 -195.04678841 182.50489083 -193 175 C-193.72574219 174.74347656 -194.45148438 174.48695313 -195.19921875 174.22265625 C-209.60948119 167.9319838 -218.20835999 153.88930917 -224 140 C-228.6522319 127.78594634 -228.97940114 112.91039861 -224.22265625 100.703125 C-222.2753868 96.39797976 -220.24482143 92.15843969 -218 88 C-218.38671875 87.57589844 -218.7734375 87.15179688 -219.171875 86.71484375 C-225.23706221 79.88400172 -228.57799384 74.30523584 -229 65 C-224.69934757 61.47125954 -221.95394826 60.57829993 -216.42749023 60.70214844 C-211.57212055 61.29789932 -207.40356919 63.58823749 -203.04296875 65.6875 C-198.90286956 67.65162304 -198.90286956 67.65162304 -194.45703125 67.49609375 C-193.24080078 66.75552734 -193.24080078 66.75552734 -192 66 C-191.4548877 65.67966797 -190.90977539 65.35933594 -190.34814453 65.02929688 C-189.06903087 64.27255259 -187.79709891 63.50358338 -186.53125 62.72485352 C-179.3962417 58.33785506 -172.14399335 54.48891984 -164.5 51.0625 C-163.68845459 50.69761475 -162.87690918 50.33272949 -162.04077148 49.95678711 C-148.4695236 44 -148.4695236 44 -143 44 C-143.23976562 42.92492187 -143.23976562 42.92492187 -143.484375 41.828125 C-144.88091704 34.1683035 -144.73851664 26.00010317 -141 19 C-138 17 -138 17 -135.8125 17 C-130.71195977 18.81352541 -126.78010914 22.54487789 -122.625 25.94140625 C-114.81773609 32.1032439 -106.44912046 36.87188596 -97.74584961 41.65844727 C-96.77526611 42.19268311 -95.80468262 42.72691895 -94.8046875 43.27734375 C-93.92796387 43.75421631 -93.05124023 44.23108887 -92.14794922 44.72241211 C-90 46 -90 46 -88 48 C-84.16131924 47.57347992 -80.4967607 45.54664416 -77 44 C-77.144375 43.27296875 -77.28875 42.5459375 -77.4375 41.796875 C-78.79449009 34.44651204 -79.23828062 27.46612603 -79 20 C-64.20300752 13.88721805 -64.20300752 13.88721805 -58 14 C-55.9375 15.75 -55.9375 15.75 -54 18 C-49.14894522 20.56282139 -45.46655168 21.74122735 -40 21 C-34.87051151 19.21341345 -30.27999528 17.25106866 -27.4375 12.4375 C-26.3685766 9.88137883 -25.61243441 7.66554787 -25 5 C-22.60468067 4.35220924 -20.20878252 3.70670991 -17.8125 3.0625 C-16.80219727 2.78889648 -16.80219727 2.78889648 -15.77148438 2.50976562 C-10.40693776 1.07049702 -5.57062645 -0.15916076 0 0 Z " fill="#FE9C3D" transform="translate(381,28)"/>
<path d="M0 0 C1.08788818 0.02827881 1.08788818 0.02827881 2.19775391 0.05712891 C6.30879064 0.24169765 9.55300315 0.6927806 13 3 C14.9573903 6.67846696 16.04779647 10.16884188 17.03515625 14.1953125 C18.26759888 19.05522799 20.21706217 22.86775897 23 27 C23.40476562 27.61101562 23.80953125 28.22203125 24.2265625 28.8515625 C29.00001345 35.18824885 36.54681883 39.51560628 44 42 C52.6843718 42.89976092 52.6843718 42.89976092 60.6875 40.1875 C63.14226551 38.02847579 63.14226551 38.02847579 65 35 C68.44428265 36.44781793 70.36130962 38.27694609 72.75 41.125 C73.36359375 41.84945312 73.9771875 42.57390625 74.609375 43.3203125 C75.06828125 43.87460937 75.5271875 44.42890625 76 45 C74.5422048 48.88030781 72.71656199 52.41727361 70.75 56.0625 C61.07090334 74.85582491 58.18435524 96.23577604 56 117 C55.24847656 116.24074219 54.49695313 115.48148437 53.72265625 114.69921875 C51.66956638 112.66380254 49.62129074 110.70241635 47.4375 108.8125 C46.60025391 108.07966797 46.60025391 108.07966797 45.74609375 107.33203125 C42.39513643 104.7757081 40.6724697 103.95362278 36.375 104.25 C32.94727116 104.69481185 32.94727116 104.69481185 31 107 C31.16670248 115.16842171 35.64951988 121.17461076 40.31542969 127.60546875 C47.35542476 137.37904806 50.73467037 147.60394281 53.875 159.125 C54.2167627 160.37047607 54.2167627 160.37047607 54.56542969 161.64111328 C54.76813477 162.42212402 54.97083984 163.20313477 55.1796875 164.0078125 C55.45401611 165.05412842 55.45401611 165.05412842 55.73388672 166.12158203 C56 168 56 168 55 171 C34.90471825 173.7854846 14.78915188 174.13052086 -5 169 C-5.14695312 169.7734375 -5.29390625 170.546875 -5.4453125 171.34375 C-7.93376908 182.89934146 -13.1136514 188.5947095 -22 196 C-22.66 196.66 -23.32 197.32 -24 198 C-23.5045166 198.85924072 -23.0090332 199.71848145 -22.49853516 200.60375977 C-20.86322413 204.3099852 -20.75294745 206.34130815 -21.0234375 210.33984375 C-21.07951172 211.55752441 -21.13558594 212.77520508 -21.19335938 214.02978516 C-21.28327148 215.964104 -21.28327148 215.964104 -21.375 217.9375 C-21.83202493 231.64280709 -19.00194975 242.5986771 -12.82617188 254.91064453 C-12 257 -12 257 -12 261 C-16.08012788 261.59501865 -19.54831649 261.87885704 -23.16796875 259.6875 C-25.2440899 257.88846272 -27.13025023 256.01205631 -29 254 C-29.55816406 253.43667969 -30.11632812 252.87335938 -30.69140625 252.29296875 C-40.57896262 241.71154877 -42.54169985 225.78876196 -42.10546875 211.80859375 C-42.07066406 211.21175781 -42.03585938 210.61492187 -42 210 C-42.763125 209.79375 -43.52625 209.5875 -44.3125 209.375 C-49.49898594 207.44105609 -54.19033084 204.7214854 -59 202 C-59.58265625 202.47050781 -60.1653125 202.94101562 -60.765625 203.42578125 C-69.31786207 209.92064054 -79.14650115 213.45236693 -90 212 C-95.57562349 210.73655822 -99.8278258 209.02176667 -104 205 C-105.59794407 202.36922108 -106.86346752 199.61729058 -108.125 196.8125 C-109.3369057 194.13835286 -110.60161716 191.5890561 -112 189 C-115.47306829 187.84231057 -117.12273941 188.31953921 -120.46875 189.63671875 C-125.11616644 192.13972544 -129.13732066 195.52379433 -133.2421875 198.8203125 C-138.26617933 202.79111624 -142.7413783 202.62142343 -149 202 C-156.46533679 198.47861472 -161.52251181 191.59045074 -164.3046875 183.9453125 C-166.01632682 176.69488528 -166.52587742 168.23874316 -163.25 161.375 C-162.53406627 160.22801966 -161.78691866 159.09949262 -161 158 C-160.443125 157.113125 -159.88625 156.22625 -159.3125 155.3125 C-153.34433074 149.34433074 -147.31452628 147.77310912 -139.1875 146.6875 C-133.86585383 146.01356413 -133.86585383 146.01356413 -129.19140625 143.6015625 C-128.03742038 141.40851052 -127.53439084 139.42746165 -127 137 C-126.27119376 134.27907521 -125.48623434 131.57614083 -124.6875 128.875 C-124.48374756 128.17020508 -124.27999512 127.46541016 -124.07006836 126.73925781 C-122.24019393 120.84291824 -120.17479488 118.22204209 -115 115 C-111.00088894 113.00044447 -106.3449485 113.48690307 -102 114 C-98.09948687 115.37382605 -94.68614826 117.08511779 -91 119 C-88.36 113.39 -85.72 107.78 -83 102 C-82.01 102 -81.02 102 -80 102 C-79.36384766 103.34191406 -79.36384766 103.34191406 -78.71484375 104.7109375 C-78.12285001 105.93251187 -77.53037554 107.15385336 -76.9375 108.375 C-76.36902344 109.55835938 -75.80054688 110.74171875 -75.21484375 111.9609375 C-72.63505725 116.96128026 -69.29784488 121.45527494 -66 126 C-66.25168945 125.35675781 -66.50337891 124.71351563 -66.76269531 124.05078125 C-71.63554845 111.52696805 -76.38385484 99.21081039 -79 86 C-79.22300781 84.88367188 -79.44601563 83.76734375 -79.67578125 82.6171875 C-83.21289314 61.87575587 -82.13236249 40.83888872 -70 23 C-58.92810872 9.33506355 -41.7500418 2.04635038 -24.53979492 0.21386719 C-16.3788855 -0.47333426 -8.17621768 -0.2893288 0 0 Z " fill="#FCBC86" transform="translate(293,223)"/>
<path d="M0 0 C24.23962578 19.59799531 40.55897942 51.51554874 44.56640625 82.26171875 C46.97277899 105.30679756 43.68093304 126.36926921 33 147 C40.60677355 151.36685148 47.39356553 153.19545502 56.0625 150.9375 C64.0193987 148.16009196 69.92792977 144.22062363 74.125 136.83203125 C78.27483544 128.14331329 76.26989737 118.50286492 73.21166992 109.79980469 C72.00489621 106.50148632 70.69591494 103.25569123 69.33203125 100.01953125 C64.76118862 88.98942274 62.80365629 78.81798954 66.625 67.0625 C68.72386258 62.09150967 71.45536799 58.04484772 75 54 C75.47824219 53.40574219 75.95648438 52.81148437 76.44921875 52.19921875 C82.57034325 45.24549797 92.3248511 40.15202526 101.5 38.875 C105.67757593 38.72383771 108.52178725 39.56525108 112 42 C114.11504424 45.17256635 114.31917542 46.2017425 114.375 49.875 C114.40335938 50.71804687 114.43171875 51.56109375 114.4609375 52.4296875 C113.82433168 55.97957417 112.55746643 57.46302609 110 60 C107.54706215 61.38704499 105.16532488 62.62139202 102.625 63.8125 C96.57037923 66.82964432 92.12735849 69.7591209 89 76 C85.27539874 87.17380379 89.01725752 96.6328061 93.30859375 106.87890625 C99.12290426 120.7639666 98.42157861 136.27053452 93.15625 150.23828125 C89.04999758 159.35345365 82.08541911 165.94378368 73 170 C53.44704741 176.29590818 37.59148614 170.96612066 20 162 C19.78859375 162.55171875 19.5771875 163.1034375 19.359375 163.671875 C17.52195289 166.81872437 15.01031682 168.93893345 12.25 171.25 C11.67652832 171.73090088 11.10305664 172.21180176 10.51220703 172.70727539 C-1.60182318 182.58337891 -15.20086568 189.38881492 -31 190 C-31.0825 190.86625 -31.165 191.7325 -31.25 192.625 C-32.11362922 196.5113315 -33.58949816 198.85904306 -36 202 C-39.10920609 203.55460305 -42.63083028 203.72720693 -46 203 C-48.89894799 199.86416387 -49.80142197 196.78277696 -50.83203125 192.6875 C-51.31833008 190.82544922 -51.31833008 190.82544922 -51.81445312 188.92578125 C-52.47455797 186.34141763 -53.12536009 183.75490567 -53.77539062 181.16796875 C-56.75770071 169.78948903 -61.08067959 159.91138232 -68.25 150.5625 C-71.65076223 146.07369628 -74.47334822 142.08467469 -75.4375 136.4375 C-75 134 -75 134 -72.9375 131.625 C-70 130 -70 130 -66.6875 129.875 C-59.24139546 132.14669291 -54.76558269 137.10485878 -50 143 C-49.82984375 141.70449219 -49.6596875 140.40898437 -49.484375 139.07421875 C-43.27421528 92.95284942 -43.27421528 92.95284942 -30.87109375 75.91015625 C-29.75229346 74.01423476 -29.75229346 74.01423476 -30.61328125 71.9765625 C-32.13415424 69.80878296 -33.83557589 68.1388606 -35.75 66.3125 C-38.99631024 62.70474491 -38.99631024 62.70474491 -39.01171875 59.76171875 C-38.62436195 58.23600726 -38.18382604 56.72295662 -37.6953125 55.2265625 C-35.94950509 49.63605562 -37.05511545 43.66930728 -38 38 C-38.66 38 -39.32 38 -40 38 C-40.99 35.03 -41.98 32.06 -43 29 C-41.98679687 29.23976562 -41.98679687 29.23976562 -40.953125 29.484375 C-31.16943981 31.19263749 -20.73889473 31.02690051 -12.078125 25.8515625 C-4.40447294 20.17830692 -1.79331507 10.83579439 -0.26171875 1.80078125 C-0.13216797 0.90939453 -0.13216797 0.90939453 0 0 Z " fill="#FE9C3C" transform="translate(398,196)"/>
<path d="M0 0 C3.05390516 1.52695258 3.79741476 4.46366079 5.1875 7.4375 C8.84704768 15.01757583 13.00520431 22.02199646 19 28 C19.515625 28.845625 20.03125 29.69125 20.5625 30.5625 C32.97522355 49.39078853 56.25347047 60.3331377 77 67 C74.849456 80.8087562 69.18691191 88.60981607 58 97 C58.7432251 98.28886108 58.7432251 98.28886108 59.50146484 99.60375977 C61.13677587 103.3099852 61.24705255 105.34130815 60.9765625 109.33984375 C60.92048828 110.55752441 60.86441406 111.77520508 60.80664062 113.02978516 C60.74669922 114.31933105 60.68675781 115.60887695 60.625 116.9375 C60.16797507 130.64280709 62.99805025 141.5986771 69.17382812 153.91064453 C70 156 70 156 70 160 C65.91987212 160.59501865 62.45168351 160.87885704 58.83203125 158.6875 C56.7559101 156.88846272 54.86974977 155.01205631 53 153 C52.44183594 152.43667969 51.88367188 151.87335938 51.30859375 151.29296875 C41.42103738 140.71154877 39.45830015 124.78876196 39.89453125 110.80859375 C39.92933594 110.21175781 39.96414062 109.61492187 40 109 C39.236875 108.79375 38.47375 108.5875 37.6875 108.375 C32.50101406 106.44105609 27.80966916 103.7214854 23 101 C22.41734375 101.47050781 21.8346875 101.94101562 21.234375 102.42578125 C12.68213793 108.92064054 2.85349885 112.45236693 -8 111 C-13.57562349 109.73655822 -17.8278258 108.02176667 -22 104 C-23.59794407 101.36922108 -24.86346752 98.61729058 -26.125 95.8125 C-27.3369057 93.13835286 -28.60161716 90.5890561 -30 88 C-33.47306829 86.84231057 -35.12273941 87.31953921 -38.46875 88.63671875 C-43.11616644 91.13972544 -47.13732066 94.52379433 -51.2421875 97.8203125 C-56.26617933 101.79111624 -60.7413783 101.62142343 -67 101 C-74.46533679 97.47861472 -79.52251181 90.59045074 -82.3046875 82.9453125 C-84.01632682 75.69488528 -84.52587742 67.23874316 -81.25 60.375 C-80.53406627 59.22801966 -79.78691866 58.09949262 -79 57 C-78.443125 56.113125 -77.88625 55.22625 -77.3125 54.3125 C-71.34433074 48.34433074 -65.31452628 46.77310912 -57.1875 45.6875 C-51.86585383 45.01356413 -51.86585383 45.01356413 -47.19140625 42.6015625 C-46.03742038 40.40851052 -45.53439084 38.42746165 -45 36 C-44.27119376 33.27907521 -43.48623434 30.57614083 -42.6875 27.875 C-42.38187134 26.81780762 -42.38187134 26.81780762 -42.07006836 25.73925781 C-40.24019393 19.84291824 -38.17479488 17.22204209 -33 14 C-29.00088894 12.00044447 -24.3449485 12.48690307 -20 13 C-16.15239996 14.35518918 -12.58415063 16.05887393 -9 18 C-8.76289307 17.49025635 -8.52578613 16.9805127 -8.28149414 16.45532227 C-7.21074407 14.15665983 -6.13666805 11.85956706 -5.0625 9.5625 C-4.68931641 8.76005859 -4.31613281 7.95761719 -3.93164062 7.13085938 C-3.39506836 5.98520508 -3.39506836 5.98520508 -2.84765625 4.81640625 C-2.51773682 4.10943604 -2.18781738 3.40246582 -1.84790039 2.67407227 C-1 1 -1 1 0 0 Z " fill="#EB883A" transform="translate(211,324)"/>
<path d="M0 0 C6.83234348 4.34674182 12.33627424 10.36314435 14.1796875 18.38671875 C14.47803692 23.0757772 14.41987751 27.6963416 14.1796875 32.38671875 C14.75001709 32.53294678 15.32034668 32.6791748 15.90795898 32.82983398 C18.47863539 33.4910599 21.04791324 34.15756646 23.6171875 34.82421875 C24.51501953 35.05431641 25.41285156 35.28441406 26.33789062 35.52148438 C27.19189453 35.74384766 28.04589844 35.96621094 28.92578125 36.1953125 C29.71654053 36.39954834 30.5072998 36.60378418 31.32202148 36.81420898 C33.1796875 37.38671875 33.1796875 37.38671875 34.1796875 38.38671875 C34.76985149 45.02606359 32.93557467 51.02162777 31.1796875 57.38671875 C25.72332737 55.31069328 20.50667844 52.73289686 15.2421875 50.22070312 C14.14003906 49.69766602 14.14003906 49.69766602 13.015625 49.1640625 C12.35095215 48.84687256 11.6862793 48.52968262 11.00146484 48.20288086 C6.75205778 46.29913283 2.78034316 45.860411 -1.8203125 46.38671875 C-4.40975996 47.7237191 -4.40975996 47.7237191 -6.8203125 49.38671875 C-8.645625 49.88171875 -8.645625 49.88171875 -10.5078125 50.38671875 C-14.07570363 51.08055206 -14.07570363 51.08055206 -15.8203125 54.38671875 C-16.5216409 56.70986906 -17.18516424 59.04460954 -17.8203125 61.38671875 C-18.1915625 62.37671875 -18.5628125 63.36671875 -18.9453125 64.38671875 C-20.91459685 71.13855081 -19.78091834 77.15166193 -16.8203125 83.38671875 C-14.72504813 86.61353416 -12.36229527 89.50295678 -9.8203125 92.38671875 C-9.33046875 92.9590625 -8.840625 93.53140625 -8.3359375 94.12109375 C-1.66017 101.34744001 7.0259543 106.95089661 15.1796875 112.38671875 C13.82715286 118.83726857 12.14908517 125.09777554 10.1796875 131.38671875 C-1.44337785 130.09740521 -12.53635476 127.37415083 -23.8203125 124.38671875 C-23.77390625 123.32453125 -23.7275 122.26234375 -23.6796875 121.16796875 C-23.39830104 112.1540092 -23.21077586 105.40417899 -29.5859375 98.46484375 C-35.70903911 92.63102253 -41.27620339 90.29373472 -49.6953125 89.94921875 C-57.49326643 90.1852224 -63.88411399 92.26887828 -69.6953125 97.57421875 C-73.16656971 101.34910839 -75.07559338 105.6077055 -76.8203125 110.38671875 C-83.48697917 108.72005208 -90.15364583 107.05338542 -96.8203125 105.38671875 C-96.20573021 97.31628295 -95.12805915 89.37286094 -93.8203125 81.38671875 C-94.46097656 81.11859375 -95.10164063 80.85046875 -95.76171875 80.57421875 C-103.69820278 76.97855385 -108.19853966 72.61538461 -112.7578125 65.26171875 C-115.31179548 58.30211514 -114.97751783 49.28365069 -112.2578125 42.44921875 C-108.41766619 35.20010046 -102.50672 30.18999678 -94.8203125 27.38671875 C-90.99938077 26.41400235 -87.4428017 26.28097711 -83.5078125 26.32421875 C-81.90486328 26.33775391 -81.90486328 26.33775391 -80.26953125 26.3515625 C-79.46128906 26.36316406 -78.65304688 26.37476563 -77.8203125 26.38671875 C-76.5003125 23.08671875 -75.1803125 19.78671875 -73.8203125 16.38671875 C-67.21784564 16.27925235 -60.81910047 16.67426782 -54.2578125 17.38671875 C-53.34451172 17.48210937 -52.43121094 17.5775 -51.49023438 17.67578125 C-49.26645718 17.9086375 -47.04321474 18.1456773 -44.8203125 18.38671875 C-44.40072266 17.42572266 -44.40072266 17.42572266 -43.97265625 16.4453125 C-40.11400242 8.12004973 -35.38296089 1.52033909 -26.6015625 -1.953125 C-18.02634185 -3.98853552 -8.01516096 -3.84565804 0 0 Z " fill="#FC5554" transform="translate(113.8203125,167.61328125)"/>
<path d="M0 0 C6 22.10679612 6 22.10679612 6 28 C6.70125 27.95359375 7.4025 27.9071875 8.125 27.859375 C15.92391209 27.56267726 21.09128646 28.44519412 26.94140625 33.765625 C32.34659014 39.49805385 35.04318486 44.98869722 35.4375 52.875 C35.16841798 59.62274918 33.43816203 65.32858421 28.8359375 70.37109375 C23.06308466 75.64563845 23.06308466 75.64563845 19 77 C19.12117188 77.65484375 19.24234375 78.3096875 19.3671875 78.984375 C20.65133457 85.97803753 21.84891337 92.9832698 23 100 C19.60641656 100.84268087 16.20980915 101.67247901 12.8125 102.5 C11.85279297 102.73847656 10.89308594 102.97695312 9.90429688 103.22265625 C8.97294922 103.44824219 8.04160156 103.67382812 7.08203125 103.90625 C6.22843018 104.11572266 5.3748291 104.32519531 4.49536133 104.54101562 C1.90384712 105.01768588 -0.37250264 105.21236818 -3 105 C-4.97610386 102.95575462 -6 101.8823175 -6 99 C-6.721875 98.71125 -7.44375 98.4225 -8.1875 98.125 C-9.93750428 97.42499829 -11.67162382 96.6818624 -13.375 95.875 C-19.6110383 93.79632057 -24.27277771 95.13638885 -30 98 C-30.7827832 98.55840576 -31.56556641 99.11681152 -32.37207031 99.69213867 C-35 101 -35 101 -37.62792969 100.63793945 C-38.54993164 100.29980225 -39.47193359 99.96166504 -40.421875 99.61328125 C-41.44796875 99.25169922 -42.4740625 98.89011719 -43.53125 98.51757812 C-45.12453125 97.92106445 -45.12453125 97.92106445 -46.75 97.3125 C-48.847438 96.55437432 -50.94637998 95.80039541 -53.046875 95.05078125 C-54.55217773 94.51251709 -54.55217773 94.51251709 -56.08789062 93.96337891 C-60.01981946 92.66262512 -63.93779644 91.79459421 -68 91 C-68.07734375 89.7625 -68.07734375 89.7625 -68.15625 88.5 C-69.66154835 73.17332591 -76.711591 61.24103946 -87 50 C-83.80009492 47.25722422 -80.99500618 45.3697164 -77 44 C-77.2165625 42.90945312 -77.2165625 42.90945312 -77.4375 41.796875 C-78.79449009 34.44651204 -79.23828062 27.46612603 -79 20 C-64.20300752 13.88721805 -64.20300752 13.88721805 -58 14 C-55.9375 15.75 -55.9375 15.75 -54 18 C-49.14894522 20.56282139 -45.46655168 21.74122735 -40 21 C-34.87051151 19.21341345 -30.27999528 17.25106866 -27.4375 12.4375 C-26.3685766 9.88137883 -25.61243441 7.66554787 -25 5 C-22.60468067 4.35220924 -20.20878252 3.70670991 -17.8125 3.0625 C-17.13896484 2.88009766 -16.46542969 2.69769531 -15.77148438 2.50976562 C-10.40693776 1.07049702 -5.57062645 -0.15916076 0 0 Z " fill="#5ED6B5" transform="translate(381,28)"/>
<path d="M0 0 C5.61030889 2.49347062 11.07857331 5.26384476 16.55200195 8.04125977 C25.86372818 12.74359752 34.66273977 17.08194825 45.25 17.25 C46.69632813 17.28867188 46.69632813 17.28867188 48.171875 17.328125 C52.54726215 16.8967488 56.39399536 15.51997827 60.5 14 C60.59498779 14.73299316 60.68997559 15.46598633 60.7878418 16.22119141 C63.88598746 42.15540021 63.88598746 42.15540021 70.7109375 67.2890625 C71.58721322 70.29963352 71.37540375 72.02362726 70.5 75 C48.54965431 81.31122055 28.42571565 79.40586402 8.0625 68.8125 C-6.88303465 60.02583952 -27.16473561 46.66141172 -32.06640625 29.125 C-33.36541653 22.75867934 -32.14835565 18.80601047 -29.5 13 C-29.16351233 11.58883851 -28.85100802 10.17174675 -28.5625 8.75 C-27.5 5 -27.5 5 -25.75 3.125 C-23.06777283 1.78388641 -20.36056785 0.89392745 -17.5 0 C-16.88125 -0.37125 -16.2625 -0.7425 -15.625 -1.125 C-10.0724111 -3.41136013 -5.3350964 -2.15288537 0 0 Z " fill="#EC873A" transform="translate(125.5,215)"/>
<path d="M0 0 C6.67743686 3.06931175 6.67743686 3.06931175 7.984375 6.234375 C8.09618803 9.34363747 7.4243173 11.90890905 6.59716797 14.89013672 C3.05838277 29.90039945 7.21496622 44.85294257 14.8359375 57.80859375 C21.96245947 68.67122146 29.91278407 77.12318981 40.0859375 85.05859375 C37.9821405 89.9639818 34.80991345 91.81974259 30.0859375 94.05859375 C19.92481676 97.53295254 10.00119258 98.9076601 0.0859375 94.05859375 C-4.89413681 90.88592959 -6.6976412 87.07682293 -9.0390625 81.87109375 C-10.2509682 79.19694661 -11.51567966 76.64764985 -12.9140625 74.05859375 C-16.38713079 72.90090432 -18.03680191 73.37813296 -21.3828125 74.6953125 C-26.03022894 77.19831919 -30.05138316 80.58238808 -34.15625 83.87890625 C-39.18024183 87.84970999 -43.6554408 87.68001718 -49.9140625 87.05859375 C-57.37939929 83.53720847 -62.43657431 76.64904449 -65.21875 69.00390625 C-66.93038932 61.75347903 -67.43993992 53.29733691 -64.1640625 46.43359375 C-63.44812877 45.28661341 -62.70098116 44.15808637 -61.9140625 43.05859375 C-61.3571875 42.17171875 -60.8003125 41.28484375 -60.2265625 40.37109375 C-54.25839324 34.40292449 -48.22858878 32.83170287 -40.1015625 31.74609375 C-34.77991633 31.07215788 -34.77991633 31.07215788 -30.10546875 28.66015625 C-28.95148288 26.46710427 -28.44845334 24.4860554 -27.9140625 22.05859375 C-27.18525626 19.33766896 -26.40029684 16.63473458 -25.6015625 13.93359375 C-25.39781006 13.22879883 -25.19405762 12.52400391 -24.98413086 11.79785156 C-23.15425643 5.90151199 -21.08885738 3.28063584 -15.9140625 0.05859375 C-11.13294524 -2.33196488 -4.9388198 -1.59551685 0 0 Z " fill="#5ED5B5" transform="translate(193.9140625,337.94140625)"/>
<path d="M0 0 C2.36392789 3.73653119 2.49712959 6.22543617 2.50390625 10.5625 C1.72490178 14.00086457 0.43136396 15.56863604 -2.0625 18.0625 C-4.51543785 19.44954499 -6.89717512 20.68389202 -9.4375 21.875 C-15.49212077 24.89214432 -19.93514151 27.8216209 -23.0625 34.0625 C-26.78710126 45.23630379 -23.04524248 54.6953061 -18.75390625 64.94140625 C-12.93959574 78.8264666 -13.64092139 94.33303452 -18.90625 108.30078125 C-23.01250242 117.41595365 -29.97708089 124.00628368 -39.0625 128.0625 C-54.8941048 133.16016133 -69.23879127 131.36788042 -83.9375 123.875 C-86.32761891 122.62897418 -88.69728437 121.35568932 -91.0625 120.0625 C-89.85868552 117.56888429 -88.60821278 115.38106917 -87.0625 113.0625 C-87.65417969 112.65 -88.24585938 112.2375 -88.85546875 111.8125 C-94.1517859 107.94178208 -98.54862269 104.25611078 -101.0625 98.0625 C-101.5625 94.1875 -101.5625 94.1875 -101.0625 91.0625 C-97.26608749 88.53155832 -94.44857503 88.3546208 -90.0625 89.0625 C-79.39080189 92.73419811 -79.39080189 92.73419811 -77.0625 95.0625 C-77.45109359 98.55984228 -77.94846087 101.72038261 -79.0625 105.0625 C-71.45572645 109.42935148 -64.66893447 111.25795502 -56 109 C-48.0431013 106.22259196 -42.13457023 102.28312363 -37.9375 94.89453125 C-33.78766456 86.20581329 -35.79260263 76.56536492 -38.85083008 67.86230469 C-40.05760379 64.56398632 -41.36658506 61.31819123 -42.73046875 58.08203125 C-47.30131138 47.05192274 -49.25884371 36.88048954 -45.4375 25.125 C-43.33863742 20.15400967 -40.60713201 16.10734772 -37.0625 12.0625 C-36.34513672 11.17111328 -36.34513672 11.17111328 -35.61328125 10.26171875 C-27.57466228 1.12968562 -11.43369842 -7.2335643 0 0 Z " fill="#EB8639" transform="translate(510.0625,237.9375)"/>
<path d="M0 0 C0.70108887 0.00491455 1.40217773 0.0098291 2.12451172 0.01489258 C10.90238846 0.21295853 16.84961462 2.19399925 23.125 8.3125 C24.72960499 11.52170998 24.74494003 14.84083584 24.125 18.3125 C21.48277657 21.10151362 18.61912042 22.75955759 15.125 24.3125 C15.785 25.1375 16.445 25.9625 17.125 26.8125 C19.75830607 30.7906731 19.7225849 33.60651891 19.125 38.3125 C16.83893374 42.59887424 13.89065603 44.4171775 9.390625 45.8671875 C1.22951112 47.4712685 -6.09246617 44.77877636 -12.875 40.3125 C-19.96250675 34.7035938 -23.98027162 28.13095546 -25.875 19.3125 C-26.26167782 14.0923495 -25.94616657 10.63132799 -22.875 6.3125 C-16.08555929 1.6485824 -8.13938927 -0.0676485 0 0 Z " fill="#FC5454" transform="translate(62.875,427.6875)"/>
<path d="M0 0 C8.79036142 4.3414874 16.81253765 12.27970038 20.4375 21.4375 C20.9375 24.5 20.9375 24.5 20.4375 27.4375 C17.88725635 30.53914769 16.26050753 32.16316416 12.4375 33.4375 C10.97760239 33.35821717 9.51904306 33.25176399 8.0625 33.125 C5.66749478 33.01632588 5.66749478 33.01632588 3.4375 33.4375 C0.74356479 36.22016213 0.74356479 36.22016213 -1.5625 39.4375 C-6.53527348 42.46016624 -10.67560751 42.93853246 -16.32421875 42.1328125 C-18.5625 41.4375 -18.5625 41.4375 -21.0625 38.875 C-25.50253402 28.69992203 -26.09462708 18.13739518 -22.48046875 7.56640625 C-18.22507448 -2.30248686 -9.32311143 -3.75827848 0 0 Z " fill="#FF9D3C" transform="translate(103.5625,322.5625)"/>
<path d="M0 0 C0.66 0 1.32 0 2 0 C2 2.31 2 4.62 2 7 C3.03125 6.505 4.0625 6.01 5.125 5.5 C8.59879213 4.03919003 11.19609703 3.43346126 15 4 C19.75560692 6.4729156 22.56372619 9.22115522 25 14 C25.69000484 18.21669623 25.32242598 21.01997019 23.125 24.625 C19.06580544 29.7891329 12.36931136 32.77513243 6 34 C-3.67232223 35.00903511 -3.67232223 35.00903511 -8.125 31.625 C-10.93652673 27.68886257 -11.45268987 25.16693025 -11.421875 20.390625 C-10.69057127 16.24657051 -8.08284086 13.70779939 -5 11 C-4.01 10.34 -3.02 9.68 -2 9 C-2.99 8.360625 -3.98 7.72125 -5 7.0625 C-5.99 6.381875 -6.98 5.70125 -8 5 C-8 4.67 -8 4.34 -8 4 C-7.05125 3.896875 -6.1025 3.79375 -5.125 3.6875 C-1.70892499 3.31460705 -1.70892499 3.31460705 0 0 Z " fill="#D16835" transform="translate(212,118)"/>
<path d="M0 0 C4.39075018 0.35989756 6.38486502 1.6372727 9.8125 4.3125 C9.4825 4.9725 9.1525 5.6325 8.8125 6.3125 C8.1525 6.3125 7.4925 6.3125 6.8125 6.3125 C7.93701727 9.2844385 9.03543791 11.64690687 10.8125 14.3125 C9.8225 14.3125 8.8325 14.3125 7.8125 14.3125 C8.8025 15.3025 9.7925 16.2925 10.8125 17.3125 C11.1425 16.6525 11.4725 15.9925 11.8125 15.3125 C21.90407007 31.38037651 29.44377367 49.058653 28.8125 68.3125 C30.4625 67.3225 32.1125 66.3325 33.8125 65.3125 C33.125 67.25 33.125 67.25 31.8125 69.3125 C28.88980395 70.41838499 27.27806039 70.44408696 24.26953125 69.59375 C21.24300765 68.01553101 20.86224322 67.13719809 19.8125 63.9375 C19.48894531 62.95652344 19.16539062 61.97554688 18.83203125 60.96484375 C17.8256855 57.35973539 16.95876867 53.74383027 16.11035156 50.09936523 C12.80198586 36.00969738 7.21981557 24.77320067 -1.26953125 13.0546875 C-5.30121482 7.29044745 -5.30121482 7.29044745 -4.875 3.625 C-3.84014582 0.14412686 -3.79186899 0.37175186 0 0 Z " fill="#EC883C" transform="translate(330.1875,328.6875)"/>
<path d="M0 0 C3.88446678 2.58964452 6.69907021 5.64814041 8.8125 9.875 C9.21581428 15.11808569 8.67301133 18.43627553 5.8125 22.875 C1.21840198 27.02089333 -1.71136048 28.29129706 -7.80078125 28.22265625 C-12.79282071 27.49550157 -15.84163723 24.35110755 -19.125 20.75 C-20.82890494 16.13943368 -20.9543233 11.7173471 -20.1875 6.875 C-18.57485434 3.6369099 -16.25009073 1.68110332 -13.375 -0.5 C-8.61825089 -1.85907117 -4.57884142 -1.61606168 0 0 Z " fill="#A23331" transform="translate(253.1875,88.125)"/>
<path d="M0 0 C3 1.625 3 1.625 5 4 C5.82259333 7.86618864 5.36835953 9.4211493 3.25 12.75 C-0.24755278 15.17138269 -1.6421238 15.30500643 -5.75 15.6875 C-11.22893568 16.34793751 -13.38577833 17.86230653 -16.9375 22.0625 C-17.60652344 22.96097656 -18.27554688 23.85945313 -18.96484375 24.78515625 C-21.30439285 27.33126823 -22.61385265 27.71144136 -26 28 C-27.15879664 25.81855776 -28.30187378 23.63096983 -29.4375 21.4375 C-29.76298828 20.82841797 -30.08847656 20.21933594 -30.42382812 19.59179688 C-30.89272461 18.67817383 -30.89272461 18.67817383 -31.37109375 17.74609375 C-31.65911865 17.19622803 -31.94714355 16.6463623 -32.24389648 16.07983398 C-33 14 -33 14 -34 7 C-27.73 7 -21.46 7 -15 7 C-14.34 5.68 -13.68 4.36 -13 3 C-8.97904372 -0.31137576 -5.02371498 -0.90143273 0 0 Z " fill="#EC7541" transform="translate(190,154)"/>
<path d="M0 0 C6.7005509 2.94014634 10.87541787 7.45790617 14 14 C15.76286862 19.28860587 15.91120123 24.14114948 13.4375 29.1875 C7.89672138 35.5807061 3.21921964 39.32343449 -5.375 40.4375 C-12.6469377 39.55985235 -17.32654329 35.12171081 -21.87109375 29.6484375 C-25.01674522 25.05513328 -24.61832472 19.31031815 -24 14 C-21.94214286 8.11754007 -17.70756452 4.24760113 -12.45703125 1.078125 C-8.17705461 -0.79989337 -4.54356593 -1.05564797 0 0 Z M-17.63671875 10.80859375 C-20.1741127 14.88732729 -19.69961472 19.3773121 -19 24 C-17.32686205 27.82136445 -14.87603197 30.24563914 -11.75 32.9375 C-7.76689491 34.47642697 -4.21213146 34.6760211 0 34 C5.11762818 31.34641502 8.17705942 28.46882174 10 23 C10.54030113 17.27280804 9.6516353 14.44117806 6 10 C1.51310227 5.95084839 -1.82039261 4.63613097 -7.9375 4.71484375 C-12.10483378 5.29100922 -14.89619832 7.78028597 -17.63671875 10.80859375 Z " fill="#FCF8F8" transform="translate(252,82)"/>
<path d="M0 0 C2.33928402 1.85968186 3.8553286 3.83814966 5.5546875 6.296875 C6.15667969 7.14894531 6.75867188 8.00101563 7.37890625 8.87890625 C8.86847531 11.48662952 9.46911338 13.52801119 9.8671875 16.484375 C0.66126453 20.91810996 -8.63243049 25.21889636 -19.1328125 23.484375 C-20.91796875 22.16796875 -20.91796875 22.16796875 -22.1328125 20.484375 C-22.30708377 15.95332199 -21.33082157 13.2525071 -18.3203125 9.984375 C-5.81456111 -1.40571807 -5.81456111 -1.40571807 0 0 Z " fill="#A3342F" transform="translate(383.1328125,151.515625)"/>
<path d="M0 0 C7.30661938 2.48647314 14.17753074 5.38897505 21 9 C15.08777836 16.56943528 6.69737881 24.78963478 -3.2109375 26.34765625 C-5.375 26.4375 -5.375 26.4375 -9 26 C-10.91332092 23.13001861 -11.59948085 21.58009091 -11.51953125 18.1640625 C-9.88523181 11.35652951 -4.33692658 5.31561355 0 0 Z " fill="#A3342F" transform="translate(342,127)"/>
<path d="M0 0 C0.66 0.66 1.32 1.32 2 2 C1.8125 5.5 1.8125 5.5 1 9 C-2.18762365 11.12508244 -4.26512223 11.5020163 -8 12 C-8.268125 13.11375 -8.53625 14.2275 -8.8125 15.375 C-10 19 -10 19 -13 21 C-17.21178243 21.46797583 -19.28599114 21.46565795 -22.875 19.125 C-26.03371908 15.96628092 -26.20006861 14.06048933 -26.3125 9.6875 C-26.27329226 5.9431604 -26.14976671 4.27179884 -24.3125 0.9375 C-17.14723085 -5.06583361 -7.88200073 -4.26941706 0 0 Z " fill="#FB5654" transform="translate(131,230)"/>
<path d="M0 0 C0.96575366 2.6426532 1.82456387 5.24533545 2.625 7.9375 C2.96917969 9.0502832 2.96917969 9.0502832 3.3203125 10.18554688 C5 15.69952102 5 15.69952102 5 18 C-1.96865701 20.65472648 -11.05892725 21.80727526 -18.16796875 19.20703125 C-20.81608116 17.50046992 -22.2525284 15.6212074 -24 13 C-24 10.5625 -24 10.5625 -23 8 C-18.66805446 4.66571464 -14.38366312 2.8264396 -9.25 1.1875 C-8.57839844 0.95869141 -7.90679687 0.72988281 -7.21484375 0.49414062 C-2.25920286 -1.12960143 -2.25920286 -1.12960143 0 0 Z " fill="#A4352F" transform="translate(435,249)"/>
<path d="M0 0 C4.5029995 0.36909832 6.37996905 1.42605352 9.8125 4.3125 C12.6227255 7.6847706 13.53212981 10.8752425 13.35546875 15.30859375 C12.46063456 18.6111113 10.51225083 20.25423178 7.80859375 22.234375 C4.48566812 24.02914501 2.49185467 24.10093314 -1.1875 23.3125 C-4.44868287 21.16869453 -7.42373053 18.84003894 -9.1875 15.3125 C-9.60818924 12.25348826 -9.67778455 9.36491674 -9.1875 6.3125 C-6.75 3.3125 -6.75 3.3125 -4.1875 1.3125 C-3.1875 0.3125 -3.1875 0.3125 0 0 Z " fill="#A23533" transform="translate(176.1875,122.6875)"/>
<path d="M0 0 C0.66 0.33 1.32 0.66 2 1 C1.2575 1.52851563 0.515 2.05703125 -0.25 2.6015625 C-18.77697695 18.76003387 -21.9338681 54.59193496 -23.59448242 77.24389648 C-23.74320799 79.49547572 -23.88053708 81.74670499 -24 84 C-27.53848316 80.58249062 -30.20715149 77.03411452 -33 73 C-35.475 73.495 -35.475 73.495 -38 74 C-38 72 -38 72 -36 70 C-40.10457614 67.01485372 -42.97745369 66.7045561 -48 67 C-49.02818054 70.20722224 -49.16380574 71.6190439 -47.8125 74.76171875 C-47.214375 75.72722656 -46.61625 76.69273437 -46 77.6875 C-45.02933594 79.27111328 -45.02933594 79.27111328 -44.0390625 80.88671875 C-42.22470077 83.65692239 -40.33287364 86.33056435 -38.375 89 C-31.33994904 98.99635304 -28.81630681 109.98011032 -26.05444336 121.72314453 C-25.81604736 122.73231934 -25.57765137 123.74149414 -25.33203125 124.78125 C-25.12296143 125.68939453 -24.9138916 126.59753906 -24.69848633 127.53320312 C-23.38123345 132.19219481 -23.38123345 132.19219481 -19.875 135.25 C-18.946875 135.62125 -18.946875 135.62125 -18 136 C-20.3125 136.25 -20.3125 136.25 -23 136 C-25.94604132 132.92570889 -26.8075029 129.7586135 -27.83203125 125.6875 C-28.31833008 123.82544922 -28.31833008 123.82544922 -28.81445312 121.92578125 C-29.47455797 119.34141763 -30.12536009 116.75490567 -30.77539062 114.16796875 C-33.75770071 102.78948903 -38.08067959 92.91138232 -45.25 83.5625 C-48.65076223 79.07369628 -51.47334822 75.08467469 -52.4375 69.4375 C-52 67 -52 67 -49.9375 64.625 C-47 63 -47 63 -43.6875 62.875 C-36.24139546 65.14669291 -31.76558269 70.10485878 -27 76 C-26.82984375 74.70449219 -26.6596875 73.40898437 -26.484375 72.07421875 C-19.46143968 19.91655965 -19.46143968 19.91655965 -2 1 C-1.34 0.67 -0.68 0.34 0 0 Z " fill="#CD5E2E" transform="translate(375,263)"/>
<path d="M0 0 C1.859375 2.265625 1.859375 2.265625 3.75 5.25 C4.38421875 6.22453125 5.0184375 7.1990625 5.671875 8.203125 C7 11 7 11 6.9453125 13.22265625 C5.70248826 15.55937124 4.5223099 16.11178402 2.125 17.1875 C1.42632812 17.51105469 0.72765625 17.83460938 0.0078125 18.16796875 C-5.05586225 20.2663398 -9.57270168 20.60677869 -15 20 C-18.5625 18.3125 -18.5625 18.3125 -21 16 C-21.875 13.25 -21.875 13.25 -22 11 C-16.18148682 5.31372576 -8.43245118 0 0 0 Z " fill="#A5362F" transform="translate(417,216)"/>
<path d="M0 0 C10.67169811 3.67169811 10.67169811 3.67169811 13 6 C13 13.10766805 9.21627651 17.52874823 5 23 C-1.06766002 22.10494209 -4.60702867 19.05768558 -8.3359375 14.29296875 C-10.95937403 10.17175463 -11.66065692 6.8133576 -11 2 C-7.20358749 -0.53094168 -4.38607503 -0.7078792 0 0 Z " fill="#A3332F" transform="translate(420,327)"/>
<path d="M0 0 C3.96762024 2.86550351 6.65855818 5.67733819 9 10 C8.50985726 15.40246221 3.89349282 18.69560957 0 22 C-5.27436905 25.65852188 -9.63355425 26.64743516 -16 26 C-16.99 25.34 -17.98 24.68 -19 24 C-16.9072494 16.50097701 -12.71957891 12.67956165 -6.97265625 7.78125 C-4.32754189 5.3927903 -2.19019157 2.80618294 0 0 Z " fill="#A2342F" transform="translate(297,82)"/>
<path d="M0 0 C1.01513672 -0.01836914 1.01513672 -0.01836914 2.05078125 -0.03710938 C5.76357044 -0.04809396 7.32983076 0.07405384 10.5 2.1875 C9.38882813 2.12949219 8.27765625 2.07148438 7.1328125 2.01171875 C-2.66563404 1.65248645 -10.47912209 1.82625207 -18.17578125 8.6796875 C-24.47763494 15.53184391 -22.9035437 26.20349696 -22.62744141 34.89648438 C-21.97449445 46.63451924 -16.31519414 59.44583925 -8.5 68.1875 C-2.40338196 73.16105682 4.49249917 77.1875 12.5 77.1875 C11.5925 76.506875 10.685 75.82625 9.75 75.125 C6.22741945 72.17003906 4.4125298 69.38035379 2.5 65.1875 C2.25 61.75 2.25 61.75 2.5 59.1875 C4.78246897 62.61120346 6.81347515 66.15041629 8.8671875 69.71484375 C10.43536045 72.27001095 10.43536045 72.27001095 12.6953125 74.37890625 C14.5 76.1875 14.5 76.1875 14.5 78.1875 C15.77445454 77.76066368 17.04445882 77.32052798 18.3125 76.875 C19.02019531 76.63136719 19.72789062 76.38773437 20.45703125 76.13671875 C22.68036 75.10369985 23.97626435 74.1019371 25.5 72.1875 C25.27242269 70.02450789 25.27242269 70.02450789 24.5 68.1875 C25.82 68.5175 27.14 68.8475 28.5 69.1875 C28.5 62.2575 28.5 55.3275 28.5 48.1875 C31.67393153 52.94839729 32.16956434 57.51034885 31.5 63.1875 C29.75049772 70.32546931 27.72386294 75.12845895 21.5 79.1875 C16.99114262 81.44192869 11.37609395 80.74401072 6.5 80.1875 C-5.8187049 75.94927891 -13.67730102 68.32781799 -19.65625 56.99609375 C-20.71388513 54.75663149 -21.62793178 52.50526354 -22.5 50.1875 C-22.80035156 49.43726563 -23.10070312 48.68703125 -23.41015625 47.9140625 C-25.58446398 41.50238297 -25.81213374 35.20806274 -25.875 28.5 C-25.88885742 27.60893555 -25.90271484 26.71787109 -25.91699219 25.79980469 C-25.86728382 18.76999512 -24.82758498 13.03232609 -20.25 7.4375 C-13.88891852 2.23297879 -8.2282489 0.00783643 0 0 Z " fill="#D1622D" transform="translate(330.5,185.8125)"/>
<path d="M0 0 C5.03835678 3.14669936 9.38995991 7.67116815 12 13 C12.9589846 17.87483841 12.9589846 17.87483841 12 21 C9.3214551 24.84207571 6.25199784 28.87400108 2 31 C-2.95482094 31.54360446 -6.87125852 31.56437074 -11.375 29.3125 C-14.86158969 26.24098052 -18.64980022 22.87049003 -19.23828125 18.046875 C-19.41845566 12.47095117 -18.77158562 9.3831941 -15 5 C-10.28453754 0.84590212 -6.42207938 -1.37455032 0 0 Z M-14 8 C-15.75845645 11.51691289 -15.68065337 15.17210537 -15 19 C-12.96994709 22.3792573 -10.55205232 25.22397384 -7 27 C-2.44294994 27.62547746 0.29874719 27.2290646 3.9375 24.5 C6.44015738 22.11007493 7.50022334 20.4779952 7.6875 17 C7.2902922 12.84520638 5.73098768 10.17385055 3 7 C0.04649955 4.60526991 -1.70666075 4.03666741 -5.5 3.5625 C-9.5691036 4.07113795 -11.13345069 5.13345069 -14 8 Z " fill="#FBF6F4" transform="translate(182,119)"/>
<path d="M0 0 C2.701875 0.0825 5.40375 0.165 8.1875 0.25 C8.1875 5.86 8.1875 11.47 8.1875 17.25 C-6.20994613 17.90442937 -6.20994613 17.90442937 -11.8125 13.25 C-13.67037534 10.1351463 -14.44862788 7.88501647 -13.8125 4.25 C-9.54961015 -0.36672656 -5.863611 -0.25359795 0 0 Z " fill="#A4342F" transform="translate(434.8125,286.75)"/>
<path d="M0 0 C0.08103404 2.91722548 0.14051081 5.83219516 0.1875 8.75 C0.21263672 9.575 0.23777344 10.4 0.26367188 11.25 C0.33737063 17.3424303 0.33737063 17.3424303 -1.3046875 20.54296875 C-3 22 -3 22 -6.3125 22.5625 C-10.71744629 21.89055904 -13.34568171 20.52300428 -16 17 C-17.30848269 14.0583735 -18.18245819 11.10665889 -19 8 C-16.39939496 6.65929682 -13.79495084 5.32726646 -11.1875 4 C-10.44951172 3.6184375 -9.71152344 3.236875 -8.95117188 2.84375 C-8.23896484 2.4828125 -7.52675781 2.121875 -6.79296875 1.75 C-6.1383667 1.41484375 -5.48376465 1.0796875 -4.80932617 0.734375 C-3 0 -3 0 0 0 Z " fill="#A4332F" transform="translate(216,81)"/>
<path d="M0 0 C1.5 1.8125 1.5 1.8125 2 4.3125 C1.34879157 7.56854215 0.11444804 7.89011174 -2.5 9.8125 C-3.21408334 11.79606483 -3.88617742 13.79565437 -4.5 15.8125 C-7.56429776 17.34464888 -10.1165642 17.04188548 -13.5 16.8125 C-18.1 14.6125 -18.1 14.6125 -19.5 11.8125 C-19.91465022 8.080648 -19.797997 6.29812474 -17.8125 3.0625 C-12.97168262 -1.64748448 -6.24693106 -2.96729225 0 0 Z " fill="#5ED6B5" transform="translate(182.5,426.1875)"/>
<path d="M0 0 C2.375 2.1875 2.375 2.1875 4 5 C4.08606969 9.13134492 3.30000359 10.64473259 0.625 13.8125 C-3.45253316 17.2104443 -6.7935498 17.46486163 -12 17 C-14.60055327 14.8188908 -14.93947563 13.4063779 -15.4375 10.0625 C-14.88393531 6.1875472 -13.79255764 4.71906928 -11 2 C-7.07207193 -0.50718813 -4.44302652 -1.87074801 0 0 Z " fill="#EF7643" transform="translate(267,117)"/>
<path d="M0 0 C4.10602833 3.17284007 4.64288099 7.80626896 5.4375 12.6875 C5 15 5 15 2.8125 17.1875 C-2.65237516 20.70930844 -6.56685881 21.51880171 -13 21 C-15.0625 19.8125 -15.0625 19.8125 -16 18 C-15.92578125 15.671875 -15.92578125 15.671875 -15 13 C-12.3828125 10.68359375 -12.3828125 10.68359375 -9.125 8.4375 C-5.45799617 5.88826963 -2.44615877 3.77187419 0 0 Z " fill="#A43630" transform="translate(308,99)"/>
<path d="M0 0 C4.40114397 0.50298788 6.71195019 2.08772731 10 5 C9.47462592 9.06809929 8.38599539 11.17603456 5.625 14.1875 C5.01914062 14.86167969 4.41328125 15.53585938 3.7890625 16.23046875 C0.97039607 19.01836371 -0.55449615 19.96873657 -4.5625 20.25 C-8 20 -8 20 -10 18 C-10 13.33301631 -7.25207641 10.43052006 -4.5 6.9375 C-2.79304283 4.73268032 -1.36623078 2.42885472 0 0 Z " fill="#A4352F" transform="translate(284,72)"/>
<path d="M0 0 C3.26048047 0.27946975 4.88948692 0.91435237 7.5 2.9375 C12.81389083 9.44701627 16.12390453 16.62974102 16.1875 25.0625 C16.20167969 25.91972656 16.21585937 26.77695312 16.23046875 27.66015625 C16 30 16 30 14 33 C13.01 33 12.02 33 11 33 C10.84442627 32.410979 10.68885254 31.82195801 10.52856445 31.21508789 C9.80226927 28.49407962 9.05751626 25.77843946 8.3125 23.0625 C8.06822266 22.13630859 7.82394531 21.21011719 7.57226562 20.25585938 C6.01120545 14.62418658 4.05989493 9.84763522 0.97729492 4.87280273 C0 3 0 3 0 0 Z " fill="#E99F72" transform="translate(337,351)"/>
<path d="M0 0 C7.04477612 -0.59701493 7.04477612 -0.59701493 11 1.875 C13.81568991 6.27451548 13.88157433 9.91205672 13 15 C10.43972898 19.90718613 6.02010807 22.05497977 1 24 C0.34 24 -0.32 24 -1 24 C-0.96514426 16.47115911 1.13193636 12.69667022 6 7 C4.02 4.69 2.04 2.38 0 0 Z " fill="#A6362F" transform="translate(499,236)"/>
<path d="M0 0 C3.81287042 1.44626119 5.32707177 3.30194812 7 7 C6.6875 9.3125 6.6875 9.3125 6 11 C4.68 10.67 3.36 10.34 2 10 C3.00894302 14.77681656 3.00894302 14.77681656 5.6875 18.6875 C6.120625 19.120625 6.55375 19.55375 7 20 C6.67 21.32 6.34 22.64 6 24 C3.03 24.33 0.06 24.66 -3 25 C-5.07882145 16.6847142 -4.51798305 8.83799332 -1 1 C-0.67 0.67 -0.34 0.34 0 0 Z " fill="#A93E36" transform="translate(241,46)"/>
<path d="M0 0 C0.66 0 1.32 0 2 0 C4.81377849 8.79526989 6.18854301 16.76139236 6 26 C7.65 25.01 9.3 24.02 11 23 C10.3125 24.9375 10.3125 24.9375 9 27 C6.11657523 28.09102559 4.4610497 28.11847407 1.4765625 27.3515625 C-1.8057131 25.56028906 -2.18958956 24.01198327 -3.3125 20.5 C-3.63863281 19.5203125 -3.96476562 18.540625 -4.30078125 17.53125 C-5 15 -5 15 -5 13 C-4.01 12.67 -3.02 12.34 -2 12 C-0.78306124 9.56612247 -0.68040104 7.58161154 -0.4375 4.875 C-0.35371094 3.96492188 -0.26992188 3.05484375 -0.18359375 2.1171875 C-0.12300781 1.41851562 -0.06242187 0.71984375 0 0 Z " fill="#EB873B" transform="translate(353,371)"/>
<path d="M0 0 C3.125 1.5 3.125 1.5 5 3 C4.01 3.33 3.02 3.66 2 4 C1.67 4.99 1.34 5.98 1 7 C0.01 6.67 -0.98 6.34 -2 6 C-8.1188126 5.49845798 -11.10653554 5.92211295 -16 10 C-18.02350324 13.03525486 -18.32124018 14.19426202 -18.625 17.6875 C-18.69976562 18.49574219 -18.77453125 19.30398437 -18.8515625 20.13671875 C-18.90054688 20.75160156 -18.94953125 21.36648437 -19 22 C-19.66 22 -20.32 22 -21 22 C-22.62514468 23.45833358 -22.62514468 23.45833358 -24 25 C-24.54028642 18.46853744 -24.65704904 13.22220866 -20.671875 7.79296875 C-14.74750577 1.43949801 -8.74734014 -1.6001232 0 0 Z " fill="#E8CDCD" transform="translate(252,82)"/>
<path d="M0 0 C1.16343227 2.32686453 1.19895988 3.84721413 1.25 6.4375 C1.27578125 7.21996094 1.3015625 8.00242188 1.328125 8.80859375 C0.92036814 11.53182708 0.14359667 12.32769054 -2 14 C-6.8137827 16.12702026 -10.83872547 16.17797498 -16 16 C-16 11.08057005 -12.29830286 8.40427243 -9 5 C-3.80861244 0 -3.80861244 0 0 0 Z " fill="#A7382F" transform="translate(485,242)"/>
<path d="M0 0 C8.6309795 3.85421412 8.6309795 3.85421412 11 8 C10.01 8 9.02 8 8 8 C9.23317846 11.69953539 10.89601813 12.74961314 14 15 C14.33 15 14.66 15 15 15 C15 16.98 15 18.96 15 21 C13.02 21.99 13.02 21.99 11 23 C4.44215542 15.80823044 0.45218211 9.97061548 0 0 Z " fill="#A93B31" transform="translate(152,93)"/>
<path d="M0 0 C5.38336789 2.59486078 5.38336789 2.59486078 6.671875 5.171875 C1.921875 3.296875 1.921875 3.296875 -0.328125 2.171875 C-5.94815662 1.33258861 -10.32983064 1.69563755 -15.203125 4.734375 C-20.06523347 8.43474074 -22.838407 11.68198992 -23.69921875 17.81640625 C-23.98621473 24.17380199 -23.18126119 28.10195895 -19.328125 33.171875 C-17.41575888 35.04333489 -15.48444468 36.55463524 -13.328125 38.171875 C-12.544375 38.77 -11.760625 39.368125 -10.953125 39.984375 C-10.14875 40.5721875 -10.14875 40.5721875 -9.328125 41.171875 C-15.72064146 40.31583367 -19.68312386 36.37610495 -23.6953125 31.515625 C-27.2139754 26.48162552 -27.83534545 22.25852038 -27.328125 16.171875 C-25.07202707 8.87188934 -19.8217172 3.82557118 -13.34375 0 C-9.02077141 -1.77610748 -4.36630609 -1.55311559 0 0 Z " fill="#B24E44" transform="translate(252.328125,80.828125)"/>
<path d="M0 0 C2 1.5625 2 1.5625 3 4 C2.875 7.625 2.875 7.625 2 11 C-1 13 -1 13 -4 12.8125 C-7.08623467 11.97664478 -8.2302492 11.60805381 -10 9 C-10.9375 6.5625 -10.9375 6.5625 -11 4 C-8.10092179 -0.46941224 -5.08691721 -0.73991523 0 0 Z " fill="#FF9D3C" transform="translate(88,308)"/>
<path d="M0 0 C1.98 0 3.96 0 6 0 C6.33 0.66 6.66 1.32 7 2 C5.35 1.67 3.7 1.34 2 1 C4.15519038 5.08841764 6.53094886 7.51072705 10.1875 10.3125 C11.08855469 11.00988281 11.98960937 11.70726562 12.91796875 12.42578125 C13.60503906 12.94527344 14.29210937 13.46476562 15 14 C11.0398336 15.32005547 8.95512328 14.15926027 5 13 C2.20755955 12.83071457 2.20755955 12.83071457 0 13 C1.29096781 13.81360995 2.58279875 14.62585046 3.875 15.4375 C4.59429687 15.88996094 5.31359375 16.34242188 6.0546875 16.80859375 C7.9777547 18.02461501 7.9777547 18.02461501 10 19 C9 22 9 22 6.4375 24.375 C3.74500667 26.75223198 3.74500667 26.75223198 3.6875 29.8125 C3.790625 30.534375 3.89375 31.25625 4 32 C6.64 32.66 9.28 33.32 12 34 C12 34.33 12 34.66 12 35 C8.46322336 35.32152515 6.6037896 35.4131192 3.625 33.375 C1.51281579 30.28796154 1.47430551 28.67986146 2 25 C3.5 22.125 3.5 22.125 5 20 C4.05125 19.38125 3.1025 18.7625 2.125 18.125 C-1 16 -1 16 -3 14 C-2.625 11.875 -2.625 11.875 -2 10 C-0.02 9.67 1.96 9.34 4 9 C3.34 8.2575 2.68 7.515 2 6.75 C0 4 0 4 0 0 Z " fill="#D06636" transform="translate(251,250)"/>
<path d="M0 0 C1.65 0.33 3.3 0.66 5 1 C5 1.99 5 2.98 5 4 C7.97 4.495 7.97 4.495 11 5 C11.80239884 8.20959534 12.29531307 10.25187355 11.0625 13.375 C8.31074917 15.54304611 6.31951777 15.5706015 2.8828125 15.38671875 C1 15 1 15 -1.125 13.3125 C-2 11 -2 11 -1.3125 8.3125 C0 6 0 6 2 5 C1.34 4.67 0.68 4.34 0 4 C0 2.68 0 1.36 0 0 Z " fill="#FC5252" transform="translate(87,465)"/>
<path d="M0 0 C2.5625 1.6875 2.5625 1.6875 4 4 C3.75 6.75 3.75 6.75 3 9 C-3.93302093 9.22731216 -10.2168636 8.42002108 -17 7 C-17 6.34 -17 5.68 -17 5 C-11.20282752 1.2425734 -6.98186936 -1.06503092 0 0 Z " fill="#A5362F" transform="translate(455,360)"/>
<path d="M0 0 C0.66 0.33 1.32 0.66 2 1 C1.7128051 4.73353364 1.46797134 7.32404139 -0.6875 10.4375 C-3.68642854 12.46380307 -5.44582242 12.4537248 -9 12 C-9.99 11.34 -10.98 10.68 -12 10 C-12.40876538 6.79800452 -12.61950801 4.85551106 -10.6875 2.1875 C-7.24567703 -0.23452357 -4.06931783 -0.17316246 0 0 Z " fill="#FC5555" transform="translate(32,436)"/>
<path d="M0 0 C1.01513672 -0.01836914 1.01513672 -0.01836914 2.05078125 -0.03710938 C5.76357044 -0.04809396 7.32983076 0.07405384 10.5 2.1875 C9.38882813 2.12949219 8.27765625 2.07148438 7.1328125 2.01171875 C-2.66563404 1.65248645 -10.47912209 1.82625207 -18.17578125 8.6796875 C-23.11037101 14.0451851 -22.72127278 20.25851071 -22.75 27.125 C-22.75467285 27.96023193 -22.7593457 28.79546387 -22.76416016 29.65600586 C-22.70707269 36.29400983 -21.71299225 42.18094293 -19.9609375 48.59765625 C-19.80882812 49.45230469 -19.65671875 50.30695313 -19.5 51.1875 C-20.16 51.8475 -20.82 52.5075 -21.5 53.1875 C-24.65545355 44.80582651 -25.90611527 37.21556279 -25.9375 28.3125 C-25.95200195 26.99439331 -25.95200195 26.99439331 -25.96679688 25.6496582 C-25.87738746 18.7039933 -24.76664267 12.95784104 -20.25 7.4375 C-13.88891852 2.23297879 -8.2282489 0.00783643 0 0 Z " fill="#D2622B" transform="translate(330.5,185.8125)"/>
<path d="M0 0 C4.08886697 3.67998027 5.80897829 6.61222864 6.25 12.125 C6 15 6 15 4 18 C1.24921116 18.91692961 -0.35948913 19.10886083 -3.1875 19.0625 C-5.0746875 19.0315625 -5.0746875 19.0315625 -7 19 C-5.8359409 15.89584239 -4.48231131 12.98921525 -2.9375 10.0625 C-1.23532721 6.72775999 -0.37582688 3.75826884 0 0 Z " fill="#A93A2F" transform="translate(475,322)"/>
<path d="M0 0 C2 3 2 3 1.625 6.1875 C1.41875 7.115625 1.2125 8.04375 1 9 C-4.25993884 11.20183486 -4.25993884 11.20183486 -7.75 10.25 C-10 9 -10 9 -12 7 C-11.875 4 -11.875 4 -11 1 C-7.66126973 -1.95349216 -4.0800664 -0.98223821 0 0 Z " fill="#5CD7B6" transform="translate(159,352)"/>
<path d="M0 0 C0.33 1.65 0.66 3.3 1 5 C-3.49185344 8.36889008 -6.5733968 8.43762929 -12 8 C-12.99 7.34 -13.98 6.68 -15 6 C-14.25 1.25 -14.25 1.25 -12 -1 C-7.5547662 -2.52408016 -4.36378674 -1.45459558 0 0 Z " fill="#FC5555" transform="translate(50,421)"/>
<path d="M0 0 C1.17369141 0.10054688 1.17369141 0.10054688 2.37109375 0.203125 C4.96345049 0.85005894 5.97177023 1.62387898 7.5625 3.75 C7.4375 6.3125 7.4375 6.3125 6.5625 8.75 C3.5625 10.75 3.5625 10.75 0.125 10.6875 C-3.4375 9.75 -3.4375 9.75 -5.9375 7.4375 C-7.4375 4.75 -7.4375 4.75 -7.3125 2.5 C-5.6450602 -0.83487959 -3.32531559 -0.3276173 0 0 Z " fill="#FC5555" transform="translate(30.4375,453.25)"/>
<path d="M0 0 C0.66 0.66 1.32 1.32 2 2 C1.34773438 2.08636719 0.69546875 2.17273438 0.0234375 2.26171875 C-6.14670666 3.25367408 -9.66348171 4.4466558 -14 9 C-16.54237478 13.24313584 -16.67230226 17.16782751 -16 22 C-13.62645343 26.83838339 -10.81197455 29.59401272 -6 32 C-2.67060261 32.59311121 0.62296865 32.8665205 4 33 C0.2921291 35.47191393 -1.32015166 35.2645917 -5.5859375 34.66015625 C-10.63335633 33.27987505 -14.38827655 30.28365323 -17.38671875 26.03515625 C-19.57743877 22.03036632 -20.86073899 18.59060793 -20 14 C-16.02463125 5.62565764 -9.75359797 -0.84813895 0 0 Z " fill="#B75545" transform="translate(180,117)"/>
<path d="M0 0 C3.3 0.66 6.6 1.32 10 2 C10.33 2.99 10.66 3.98 11 5 C6.05 8.3 1.1 11.6 -4 15 C-4.33 14.34 -4.66 13.68 -5 13 C-5.66 12.67 -6.32 12.34 -7 12 C-4.69 8.04 -2.38 4.08 0 0 Z " fill="#E98439" transform="translate(277,106)"/>
<path d="M0 0 C4.29 0.33 8.58 0.66 13 1 C13.33 1.99 13.66 2.98 14 4 C16.01508358 4.73323796 16.01508358 4.73323796 18 5 C12.83783423 8.75430238 9.43985624 10.67081836 3 10 C0 3.375 0 3.375 0 0 Z " fill="#A7382F" transform="translate(156,161)"/>
<path d="M0 0 C2 2 2 2 2.25 5.5 C2 9 2 9 0 11 C-3.4375 11.4375 -3.4375 11.4375 -7 11 C-9.18046844 8.54697301 -10.03181811 7.11363392 -9.9375 3.8125 C-7.8792141 -0.16685274 -4.13407963 -0.43516628 0 0 Z " fill="#FF9C3D" transform="translate(111,311)"/>
<path d="M0 0 C2.5 2 2.5 2 4 4 C2.125 5.0625 2.125 5.0625 0 6 C-0.66 5.67 -1.32 5.34 -2 5 C-6.31147425 4.51190858 -8.29946463 4.49744202 -11.875 7.0625 C-14.34064564 10.47089251 -14.75554295 12.84423007 -15 17 C-15.66 16.34 -16.32 15.68 -17 15 C-17.99 15.495 -17.99 15.495 -19 16 C-18.77110404 10.39204896 -17.3841502 7.65520215 -13.66796875 3.48046875 C-9.58241684 -0.14581737 -5.31034213 -0.93583898 0 0 Z " fill="#E8CFCF" transform="translate(182,119)"/>
<path d="M0 0 C0.66 0.33 1.32 0.66 2 1 C1.2575 1.52851563 0.515 2.05703125 -0.25 2.6015625 C-13.29233926 13.97655725 -16.73049125 34.88990658 -20 51 C-22.28710227 47.5693466 -22.07314867 46.1662354 -21.45410156 42.21191406 C-20.69311183 38.50515764 -19.59359864 34.95443771 -18.375 31.375 C-18.11138672 30.59664795 -17.84777344 29.8182959 -17.57617188 29.01635742 C-9.01468316 4.50734158 -9.01468316 4.50734158 0 0 Z " fill="#D1632F" transform="translate(375,263)"/>
<path d="M0 0 C2.1875 0.0625 2.1875 0.0625 5 1 C6.19921875 2.484375 6.19921875 2.484375 7.375 4.3125 C9.97359816 8.34738405 12.725602 9.90470686 17 12 C17 12.33 17 12.66 17 13 C12.71 13 8.42 13 4 13 C3.67 11.68 3.34 10.36 3 9 C2.01 8.34 1.02 7.68 0 7 C0 4.66666667 0 2.33333333 0 0 Z " fill="#FCF6F2" transform="translate(243,56)"/>
<path d="M0 0 C1 1 1 1 1.1875 4.375 C1 8 1 8 -1 11 C-6.44877223 10.51566469 -6.44877223 10.51566469 -8.9375 8.1875 C-10 6 -10 6 -9.875 3.875 C-7.80511174 -0.56047485 -4.30057942 -0.28047257 0 0 Z " fill="#FF9D3B" transform="translate(78,324)"/>
<path d="M0 0 C0.33 0 0.66 0 1 0 C0.95996455 9.0480111 -1.84661541 16.9544803 -7.63671875 23.98828125 C-15.27403515 31.16272999 -24.06785352 31.31128326 -34.03515625 31.10546875 C-35.01355469 31.07066406 -35.99195313 31.03585938 -37 31 C-37 30.67 -37 30.34 -37 30 C-35.53240234 29.85304687 -35.53240234 29.85304687 -34.03515625 29.703125 C-24.40646753 28.60486749 -15.06224045 27.2584138 -8 20 C-3.6904863 13.83249237 -1.67228743 7.27377055 0 0 Z " fill="#D97137" transform="translate(397,196)"/>
<path d="M0 0 C0.66 1.32 1.32 2.64 2 4 C-0.34407346 7.04729549 -1.67040165 8.74478298 -5.5234375 9.484375 C-7.30993627 9.6174666 -9.0998827 9.71138724 -10.890625 9.76171875 C-11.93476563 9.87966797 -11.93476563 9.87966797 -13 10 C-13.33 10.66 -13.66 11.32 -14 12 C-14.66 10.02 -15.32 8.04 -16 6 C-15.43152344 5.90203125 -14.86304688 5.8040625 -14.27734375 5.703125 C-8.77085969 4.63676081 -4.7268801 3.01715751 0 0 Z " fill="#FB983C" transform="translate(175,165)"/>
<path d="M0 0 C-0.4752588 1.64696604 -0.95531891 3.29254728 -1.4375 4.9375 C-1.70433594 5.85402344 -1.97117188 6.77054687 -2.24609375 7.71484375 C-3 10 -3 10 -4 11 C-6.4375 11.1875 -6.4375 11.1875 -9 11 C-11 9 -11 9 -11.125 6.375 C-11.08375 5.59125 -11.0425 4.8075 -11 4 C-9.73308493 3.32591692 -8.46129251 2.66099503 -7.1875 2 C-6.47980469 1.62875 -5.77210938 1.2575 -5.04296875 0.875 C-3 0 -3 0 0 0 Z " fill="#A8392F" transform="translate(234,73)"/>
<path d="M0 0 C4.39075018 0.35989756 6.38486502 1.6372727 9.8125 4.3125 C9.4825 4.9725 9.1525 5.6325 8.8125 6.3125 C8.1525 6.3125 7.4925 6.3125 6.8125 6.3125 C6.8125 6.9725 6.8125 7.6325 6.8125 8.3125 C0.8725 7.3225 0.8725 7.3225 -5.1875 6.3125 C-4.0035 0.3925 -4.0035 0.3925 0 0 Z " fill="#FB983B" transform="translate(330.1875,328.6875)"/>
<path d="M0 0 C5.36513131 0.847126 10.6787385 1.91681831 16 3 C16 5 16 5 14.5390625 6.5078125 C13.90742188 7.04148437 13.27578125 7.57515625 12.625 8.125 C11.68527344 8.93324219 11.68527344 8.93324219 10.7265625 9.7578125 C9 11 9 11 7 11 C6.34 10.01 5.68 9.02 5 8 C4.13375 7.175 3.2675 6.35 2.375 5.5 C0 3 0 3 0 0 Z " fill="#F9EDE8" transform="translate(160,101)"/>
<path d="M0 0 C0.66 0 1.32 0 2 0 C3.65 4.62 5.3 9.24 7 14 C1 13 1 13 -2 11 C-2.56737589 3.85106383 -2.56737589 3.85106383 0 0 Z " fill="#AB3B2F" transform="translate(486,294)"/>
<path d="M0 0 C0 3.66184524 -0.919642 5.02806 -3 8 C-4.9375 9.875 -4.9375 9.875 -7 11 C-9.25 10.6875 -9.25 10.6875 -11 10 C-11.33 8.02 -11.66 6.04 -12 4 C-10.95199219 3.81824219 -10.95199219 3.81824219 -9.8828125 3.6328125 C-8.51769531 3.38144531 -8.51769531 3.38144531 -7.125 3.125 C-5.76761719 2.88136719 -5.76761719 2.88136719 -4.3828125 2.6328125 C-1.83494012 2.16955297 -1.83494012 2.16955297 0 0 Z " fill="#AB3C30" transform="translate(174,171)"/>
<path d="M0 0 C0.66 0 1.32 0 2 0 C1.96744792 1.98567708 1.93489583 3.97135417 1.90234375 5.95703125 C1.91736783 8.20305461 1.91736783 8.20305461 3 11 C3.22008052 12.72532263 3.40503094 14.45534033 3.5625 16.1875 C3.64628906 17.08855469 3.73007813 17.98960937 3.81640625 18.91796875 C3.87699219 19.60503906 3.93757812 20.29210937 4 21 C1.27835324 18.27835324 0.89427524 15.70485455 0 12 C0 10.68 0 9.36 0 8 C-1.423125 7.8453125 -1.423125 7.8453125 -2.875 7.6875 C-6 7 -6 7 -8 4 C-7.05125 3.896875 -6.1025 3.79375 -5.125 3.6875 C-1.70892499 3.31460705 -1.70892499 3.31460705 0 0 Z " fill="#AB3D30" transform="translate(212,118)"/>
<path d="M0 0 C0.99 0.33 1.98 0.66 3 1 C2.360625 1.433125 1.72125 1.86625 1.0625 2.3125 C-1.26746003 3.91239177 -1.26746003 3.91239177 -2 7 C-1.401875 7.103125 -0.80375 7.20625 -0.1875 7.3125 C2.28243264 8.08876455 3.32251235 9.07088921 5 11 C1.28111761 10.49287967 -1.73454239 9.88391785 -5 8 C-5.28875 8.61875 -5.5775 9.2375 -5.875 9.875 C-7 12 -7 12 -9 14 C-8.125 9.25 -8.125 9.25 -7 7 C-8.32 6.34 -9.64 5.68 -11 5 C-9.9275 4.731875 -8.855 4.46375 -7.75 4.1875 C-4.07759146 3.25184124 -4.07759146 3.25184124 -1.75 1.3125 C-0.88375 0.6628125 -0.88375 0.6628125 0 0 Z " fill="#D16738" transform="translate(277,313)"/>
<path d="M0 0 C1 1 1 1 1.125 3.5 C1 6 1 6 0 7 C-2.33944736 6.71269945 -4.6739143 6.38063221 -7 6 C-7.33 4.35 -7.66 2.7 -8 1 C-5.26752652 -0.36623674 -3.01801098 -0.128426 0 0 Z " fill="#FB5753" transform="translate(120,217)"/>
<path d="M0 0 C6.70212766 1.93617021 6.70212766 1.93617021 9 5 C9 5.66 9 6.32 9 7 C6.04335481 8.4783226 3.25770263 8.06032783 0 8 C0 5.36 0 2.72 0 0 Z " fill="#AC3E31" transform="translate(154,148)"/>
<path d="M0 0 C-0.75 4.75 -0.75 4.75 -3 7 C-5.625 7.125 -5.625 7.125 -8 7 C-8 5.68 -8 4.36 -8 3 C-5.12645755 0.82542733 -3.63563409 0 0 0 Z " fill="#AE3F2F" transform="translate(195,92)"/>
<path d="M0 0 C2.31 0.33 4.62 0.66 7 1 C7.33 2.65 7.66 4.3 8 6 C6.35 6.33 4.7 6.66 3 7 C2.896875 6.360625 2.79375 5.72125 2.6875 5.0625 C2.460625 4.381875 2.23375 3.70125 2 3 C1.01 2.67 0.02 2.34 -1 2 C-0.67 1.34 -0.34 0.68 0 0 Z " fill="#FF9C3D" transform="translate(98,365)"/>
<path d="M0 0 C2.30639005 3.45958507 4.37427541 7.03200274 6.46484375 10.625 C7.82581846 12.7305283 9.15269962 14.32364383 11 16 C10.67 16.66 10.34 17.32 10 18 C5.2389477 14.42921077 2.48485313 11.44756264 0 6 C-0.25 2.5625 -0.25 2.5625 0 0 Z " fill="#AF4131" transform="translate(333,245)"/>
<path d="M0 0 C2.73295997 1.36647998 3.08651034 2.94227839 4.375 5.6875 C6.32318412 9.71683036 8.41065391 13.35573513 11 17 C5.98115987 15.14117032 3.0215581 11.0431162 0.6875 6.375 C0 4 0 4 0 0 Z " fill="#B14431" transform="translate(344,237)"/>
<path d="M0 0 C1.67542976 0.28604898 3.34385343 0.61781233 5 1 C5 2.65 5 4.3 5 6 C3.1875 6.625 3.1875 6.625 1 7 C0.01 6.34 -0.98 5.68 -2 5 C-1.125 1.125 -1.125 1.125 0 0 Z " fill="#FB5753" transform="translate(103,221)"/>
<path d="M0 0 C1.67542976 0.28604898 3.34385343 0.61781233 5 1 C4.67 2.98 4.34 4.96 4 7 C2.68 6.67 1.36 6.34 0 6 C-0.38218767 4.34385343 -0.71395102 2.67542976 -1 1 C-0.67 0.67 -0.34 0.34 0 0 Z " fill="#FA5A52" transform="translate(97,234)"/>
<path d="M0 0 C0.33 0 0.66 0 1 0 C1 1.98 1 3.96 1 6 C0.01 6 -0.98 6 -2 6 C-2 7.98 -2 9.96 -2 12 C-2.99 12.33 -3.98 12.66 -5 13 C-5.66 12.67 -6.32 12.34 -7 12 C-6.67 11.01 -6.34 10.02 -6 9 C-5.42773651 6.90170055 -5 5.17877079 -5 3 C-2.525 3.99 -2.525 3.99 0 5 C0 3.35 0 1.7 0 0 Z " fill="#DA6C2D" transform="translate(302,147)"/>
<path d="M0 0 C4.75 0.75 4.75 0.75 7 3 C6.625 5.625 6.625 5.625 6 8 C5.34 8 4.68 8 4 8 C0 2.58823529 0 2.58823529 0 0 Z " fill="#E89C6D" transform="translate(328,339)"/>
<path d="M0 0 C4 2 8 4 12 6 C12 6.33 12 6.66 12 7 C6.75900345 6.58894145 3.75960806 5.75960806 0 2 C0 1.34 0 0.68 0 0 Z " fill="#B34631" transform="translate(267,471)"/>
<path d="M0 0 C-0.33 1.32 -0.66 2.64 -1 4 C-2.65 4 -4.3 4 -6 4 C-6 2.68 -6 1.36 -6 0 C-3.50907189 -1.24546405 -2.58919267 -0.7767578 0 0 Z " fill="#FC5454" transform="translate(98,437)"/>
<path d="M0 0 C2.31 0 4.62 0 7 0 C5.68 0.33 4.36 0.66 3 1 C3 1.99 3 2.98 3 4 C0.03 4.66 -2.94 5.32 -6 6 C-5.67 4.35 -5.34 2.7 -5 1 C-2.03 1.495 -2.03 1.495 1 2 C0.67 1.34 0.34 0.68 0 0 Z " fill="#D7692C" transform="translate(198,201)"/>
<path d="M0 0 C1.231394 3.69418201 0.64432764 6.2056261 0 10 C-0.66 9.34 -1.32 8.68 -2 8 C-2.99 8.495 -2.99 8.495 -4 9 C-3.6875 5.625 -3.6875 5.625 -3 2 C-2.01 1.34 -1.02 0.68 0 0 Z " fill="#E2C0C0" transform="translate(167,126)"/>
<path d="M0 0 C2.31 0 4.62 0 7 0 C7.33 0.66 7.66 1.32 8 2 C6.02 2.33 4.04 2.66 2 3 C2.33 4.32 2.66 5.64 3 7 C1.68 6.01 0.36 5.02 -1 4 C-0.67 2.68 -0.34 1.36 0 0 Z " fill="#C95729" transform="translate(249,260)"/>
<path d="M0 0 C0.99 0.33 1.98 0.66 3 1 C2.401875 1.7425 1.80375 2.485 1.1875 3.25 C-0.58173222 5.47417764 -2.30860915 7.71662235 -4 10 C-4.8125 8.375 -4.8125 8.375 -5 6 C-3.53181864 3.75390165 -1.84147142 1.97621323 0 0 Z " fill="#AB4239" transform="translate(232,86)"/>
<path d="M0 0 C0.66 0 1.32 0 2 0 C0.66666667 4 -0.66666667 8 -2 12 C-2.33 12 -2.66 12 -3 12 C-3.29162929 7.04230204 -3.12940055 3.97193147 0 0 Z " fill="#A83C35" transform="translate(164,124)"/>
<path d="M0 0 C-0.33 0.99 -0.66 1.98 -1 3 C-2.8125 3.875 -2.8125 3.875 -5 4 C-7.25 2.5625 -7.25 2.5625 -9 1 C-5.846632 0.29925156 -3.27275026 0 0 0 Z " fill="#F6923B" transform="translate(175,162)"/>
<path d="M0 0 C1.98 0 3.96 0 6 0 C5.01 0.495 5.01 0.495 4 1 C3.34444881 3.52733235 3.34444881 3.52733235 3 6 C0 2.25 0 2.25 0 0 Z " fill="#E9843A" transform="translate(159,171)"/>
</svg>
