<?xml version="1.0" encoding="UTF-8"?>
<svg version="1.1" xmlns="http://www.w3.org/2000/svg" width="512" height="512">
<path d="M0 0 C4.66248646 0.75689715 6.26537948 3.24889408 9.171875 6.7734375 C13.10584193 12.59068646 15.11885529 18.48966315 15.0078125 25.48828125 C15.69480225 25.4725708 16.38179199 25.45686035 17.08959961 25.44067383 C35.68882507 25.07531814 54.11909952 25.60608699 72.34765625 29.65234375 C76.25131811 30.42789033 79.1770785 30.89790528 83.0078125 29.48828125 C85.40908314 27.56993942 87.44558773 25.38613706 89.5078125 23.11328125 C93.9081729 18.32619084 97.71793072 14.258794 104.421875 13.0546875 C105.15148437 13.05339844 105.88109375 13.05210938 106.6328125 13.05078125 C107.36757813 13.03144531 108.10234375 13.01210938 108.859375 12.9921875 C111.98283537 13.71342289 113.12035683 14.91982821 115.0078125 17.48828125 C116.20826015 24.99344212 115.27725381 32.34209187 112.56640625 39.40234375 C111.89692973 41.90234697 111.98844594 43.11468375 113.0078125 45.48828125 C114.5520934 46.84202637 114.5520934 46.84202637 116.5078125 47.98828125 C127.69835118 56.004484 133.39458887 68.57014252 136.3203125 81.67578125 C138.35306177 95.25375697 138.28416526 110.93557573 132.0078125 123.48828125 C132.9978125 123.81828125 133.9878125 124.14828125 135.0078125 124.48828125 C134.4303125 124.67390625 133.8528125 124.85953125 133.2578125 125.05078125 C129.90353407 127.19379247 128.82873254 129.97650688 127.0078125 133.48828125 C129.6478125 133.81828125 132.2878125 134.14828125 135.0078125 134.48828125 C134.6778125 135.14828125 134.3478125 135.80828125 134.0078125 136.48828125 C131.3678125 136.15828125 128.7278125 135.82828125 126.0078125 135.48828125 C125.3478125 136.47828125 124.6878125 137.46828125 124.0078125 138.48828125 C126.3178125 139.80828125 128.6278125 141.12828125 131.0078125 142.48828125 C129.0078125 143.48828125 129.0078125 143.48828125 125.8828125 142.55078125 C124.9340625 142.20015625 123.9853125 141.84953125 123.0078125 141.48828125 C123.52730469 142.51824219 124.04679687 143.54820312 124.58203125 144.609375 C133.62499807 162.92105722 138.61444197 180.89658102 138.0078125 201.48828125 C139.05195312 201.84212891 139.05195312 201.84212891 140.1171875 202.203125 C143.53619749 203.72319836 146.33285658 205.75793165 149.2578125 208.05078125 C149.83063965 208.4991333 150.4034668 208.94748535 150.99365234 209.40942383 C158.75960524 215.58188597 165.09743386 222.34861807 171.0078125 230.30078125 C171.48943848 230.94748779 171.97106445 231.59419434 172.46728516 232.26049805 C172.91378418 232.87836182 173.3602832 233.49622559 173.8203125 234.1328125 C174.21863281 234.68300049 174.61695313 235.23318848 175.02734375 235.80004883 C176.11354135 237.6703318 176.57944528 239.37724843 177.0078125 241.48828125 C177.6678125 241.48828125 178.3278125 241.48828125 179.0078125 241.48828125 C179.05679687 240.70066406 179.10578125 239.91304687 179.15625 239.1015625 C180.68633855 216.8097552 180.68633855 216.8097552 183.0078125 214.48828125 C191.18969392 214.54470802 203.3188657 214.76749755 209.9375 220.01953125 C211.3203125 221.67578125 211.3203125 221.67578125 213.0078125 224.48828125 C213.50539063 223.80121094 214.00296875 223.11414063 214.515625 222.40625 C217.0078125 220.48828125 217.0078125 220.48828125 220.5 220.7265625 C221.966544 221.06093248 223.42730001 221.42125788 224.8828125 221.80078125 C225.67985596 221.98866211 226.47689941 222.17654297 227.2980957 222.37011719 C229.12988969 222.80377055 230.95925047 223.24777666 232.78662109 223.69970703 C236.49509197 224.60757128 240.21318591 225.4708845 243.93359375 226.328125 C251.29662702 228.02739122 258.65348833 229.75165039 266.0078125 231.48828125 C266.0078125 232.47828125 266.0078125 233.46828125 266.0078125 234.48828125 C255.1178125 239.93328125 255.1178125 239.93328125 244.0078125 245.48828125 C244.0078125 248.75524242 246.35431133 250.28032165 248.5078125 252.61328125 C249.343125 253.52335938 250.1784375 254.4334375 251.0390625 255.37109375 C251.68875 256.06976563 252.3384375 256.7684375 253.0078125 257.48828125 C252.0078125 259.48828125 252.0078125 259.48828125 249.6678772 260.33621216 C248.63101776 260.61600922 247.59415833 260.89580627 246.52587891 261.18408203 C245.35441315 261.504263 244.18294739 261.82444397 242.97598267 262.15432739 C241.68718866 262.4976986 240.3983175 262.84078036 239.109375 263.18359375 C237.79503589 263.53886544 236.48085929 263.89473886 235.1668396 264.25119019 C232.40908819 264.99747144 229.64995755 265.73833418 226.88964844 266.47509766 C223.35098694 267.41978383 219.81521631 268.37478307 216.28032875 269.33348274 C213.5651371 270.06918945 210.84888132 270.80089708 208.13224411 271.53124619 C206.19361425 272.0527458 204.25557108 272.57642474 202.3175354 273.10012817 C201.13976532 273.41400482 199.96199524 273.72788147 198.74853516 274.05126953 C197.71008453 274.3294754 196.67163391 274.60768127 195.60171509 274.89431763 C193.0078125 275.48828125 193.0078125 275.48828125 190.0078125 275.48828125 C190.1521875 276.16890625 190.2965625 276.84953125 190.4453125 277.55078125 C195.40707323 303.46219838 189.65681972 330.26107733 174.8984375 352.13232422 C156.64796872 378.05559425 130.96615825 393.30596751 100.13500977 399.12817383 C92.5758672 400.40784045 85.10358321 400.68130271 77.4453125 400.67578125 C76.39770752 400.67570068 75.35010254 400.67562012 74.27075195 400.67553711 C64.91690372 400.60741786 54.9559871 400.47100612 46.0078125 397.48828125 C46.0078125 400.12828125 46.0078125 402.76828125 46.0078125 405.48828125 C47.08325317 405.89469849 47.08325317 405.89469849 48.18041992 406.30932617 C51.00509754 407.48714917 53.58448726 408.84332689 56.24609375 410.3515625 C57.23158203 410.90908203 58.21707031 411.46660156 59.23242188 412.04101562 C60.25142578 412.62173828 61.27042969 413.20246094 62.3203125 413.80078125 C63.32771484 414.36990234 64.33511719 414.93902344 65.37304688 415.52539062 C71.00436679 418.72075196 76.54638385 422.01045393 82.0078125 425.48828125 C78.45632421 433.28263569 68.44473272 437.17602973 60.87109375 440.421875 C44.54212858 446.50346776 26.88372372 446.3915339 10.83056641 439.56201172 C5.18710604 436.96913788 -0.39152963 434.18436247 -5.59765625 430.7890625 C-8.37308509 429.28136625 -10.48482619 429.02534401 -13.6171875 428.73828125 C-21.62542045 427.55078592 -27.04487079 423.4344207 -33.41015625 418.68359375 C-49.51599546 406.86038389 -69.25050531 402.17130969 -89.01171875 402.49609375 C-90.94074992 402.51361319 -92.86978672 402.53052117 -94.79882812 402.546875 C-97.80037442 402.57774049 -100.80163053 402.61323396 -103.80297852 402.65966797 C-122.34329047 402.93072961 -137.59145187 401.36095989 -151.72265625 388.09765625 C-160.40568325 378.11441695 -161.87178919 367.19224274 -160.9921875 354.48828125 C-158.81768816 343.65508275 -152.97338693 333.92389723 -145.9921875 325.48828125 C-147.57687787 321.79067038 -149.90237299 319.17675682 -152.5546875 316.17578125 C-161.91526283 305.20561027 -168.20939225 293.0297537 -172.9921875 279.48828125 C-173.37117188 278.43253906 -173.75015625 277.37679688 -174.140625 276.2890625 C-187.20456432 237.1463571 -184.07330536 187.79653444 -166.1796875 150.64453125 C-159.1499616 136.64448558 -149.8811401 124.68790297 -138.9921875 113.48828125 C-138.45360107 112.92778076 -137.91501465 112.36728027 -137.36010742 111.78979492 C-116.8212034 90.74453887 -88.14187734 77.88938311 -60.08349609 70.53637695 C-50.25299216 68.33892253 -50.25299216 68.33892253 -42.5390625 62.4921875 C-41.29064308 59.2063301 -41.29064308 59.2063301 -40.68359375 55.78125 C-39.47560161 50.02793149 -35.59320218 46.00214056 -31.9921875 41.48828125 C-30.3415069 39.38765707 -28.69406344 37.28517699 -27.0546875 35.17578125 C-26.63517822 34.63655029 -26.21566895 34.09731934 -25.78344727 33.54174805 C-19.25662843 25.04773674 -13.66684513 15.8797208 -8.37890625 6.57421875 C-5.96612134 2.94484652 -4.44910535 0.72602894 0 0 Z M134.0078125 217.48828125 C133.21340178 219.36212028 132.42241276 221.23741011 131.6328125 223.11328125 C131.19195312 224.15742188 130.75109375 225.2015625 130.296875 226.27734375 C129.87148438 227.33695313 129.44609375 228.3965625 129.0078125 229.48828125 C128.33685547 230.96361328 128.33685547 230.96361328 127.65234375 232.46875 C126.75696659 236.66345634 128.03706475 238.44746453 130.0703125 242.17578125 C133.11735165 248.11079838 135.2254026 253.9639726 136.8828125 260.42578125 C137.08527588 261.20590576 137.28773926 261.98603027 137.49633789 262.78979492 C144.27258101 290.17820664 138.76612698 317.80689331 125.0859375 342.07421875 C122.12873519 346.93247969 118.73141003 351.2045663 115.0078125 355.48828125 C114.564375 356.07480469 114.1209375 356.66132813 113.6640625 357.265625 C102.67424675 371.50547772 84.60669963 380.75311759 68.0078125 386.48828125 C68.0078125 386.81828125 68.0078125 387.14828125 68.0078125 387.48828125 C99.80786805 386.67393924 129.33552134 377.14493236 151.9140625 353.890625 C166.17680423 337.52572545 171.42303553 316.59196115 173.0078125 295.48828125 C173.08128906 294.59753906 173.15476562 293.70679688 173.23046875 292.7890625 C174.17958637 269.14365391 164.8002268 245.76034518 149.0078125 228.48828125 C145.29672979 224.50946511 141.48991427 220.60085192 137.0078125 217.48828125 C136.0178125 217.48828125 135.0278125 217.48828125 134.0078125 217.48828125 Z M-131.45703125 338.921875 C-138.22499896 348.1313377 -141.97100417 356.95604125 -140.9921875 368.48828125 C-138.91891796 375.14456767 -135.8463544 378.98041949 -129.6796875 382.23828125 C-118.15927101 386.0307414 -104.90809828 384.43649489 -93.05645752 383.28005981 C-88.99759757 382.88851601 -84.93445044 382.54820432 -80.87109375 382.20703125 C-80.08651794 382.14085098 -79.30194214 382.07467072 -78.49359131 382.00648499 C-55.92519556 380.13639408 -37.54687767 382.45146236 -19.0546875 396.92578125 C-10.45970375 404.28218656 -4.97543876 412.08256667 -3.9921875 423.48828125 C2.90218164 419.75256581 9.77205495 415.97280174 16.6328125 412.17578125 C17.43895996 411.73121582 18.24510742 411.28665039 19.07568359 410.82861328 C19.82930176 410.4107959 20.58291992 409.99297852 21.359375 409.5625 C22.03822754 409.18697998 22.71708008 408.81145996 23.41650391 408.42456055 C24.99336992 407.58634543 24.99336992 407.58634543 26.0078125 406.48828125 C26.08094817 403.95778723 26.10028777 401.45523288 26.0703125 398.92578125 C26.06354492 397.8594043 26.06354492 397.8594043 26.05664062 396.77148438 C26.04482114 395.01038112 26.02688513 393.24932089 26.0078125 391.48828125 C24.8321875 391.24078125 23.6565625 390.99328125 22.4453125 390.73828125 C11.23202781 388.21705529 0.43956262 385.40073976 -9.9921875 380.48828125 C-10.88164062 380.070625 -11.77109375 379.65296875 -12.6875 379.22265625 C-28.47615761 371.21324977 -41.01345104 358.92560209 -50.9921875 344.48828125 C-52.11496094 344.76542969 -53.23773438 345.04257812 -54.39453125 345.328125 C-70.21684187 349.18205094 -70.21684187 349.18205094 -76.9921875 349.48828125 C-77.79011719 349.53984375 -78.58804688 349.59140625 -79.41015625 349.64453125 C-94.65680158 350.18503271 -110.76444425 345.71095865 -124.296875 338.80078125 C-128.08821913 336.92853661 -128.08821913 336.92853661 -131.45703125 338.921875 Z " fill="#FC903E" transform="translate(244.9921875,33.51171875)"/>
<path d="M0 0 C-2.95570218 3.53242456 -5.85187258 6.89244879 -9.25 10 C-14.85818613 15.45695414 -18.80724863 22.44513519 -23 29 C-30.00551742 25.01154065 -36.99988671 21.00532031 -43.97143555 16.95776367 C-50.96328372 12.89901179 -57.963976 8.85678311 -65 4.875 C-65.66435059 4.49674072 -66.32870117 4.11848145 -67.01318359 3.72875977 C-69.65613014 2.23954638 -72.11360894 0.96213035 -75 0 C-70.86175987 4.46929934 -66.2574703 7.80627995 -61.25 11.25 C-60.39543213 11.84844727 -59.54086426 12.44689453 -58.66040039 13.06347656 C-54.14511679 16.20938079 -49.59570408 19.28207313 -44.95559692 22.24151611 C-42.66681128 23.70388693 -40.39129033 25.18629497 -38.11584473 26.66931152 C-36.47023846 27.72891966 -34.80503959 28.75790049 -33.13964844 29.78613281 C-28.05490706 33.10451078 -24.6504897 35.36537554 -22.93359375 41.359375 C-22.78591553 42.18405273 -22.6382373 43.00873047 -22.48608398 43.85839844 C-22.12488226 46.29509943 -22.12488226 46.29509943 -19.625 48.5 C-14.68704399 51.32168915 -11.01446706 52.17337782 -5.3125 52.25 C0.99891677 52.58775683 4.82968139 54.03517848 9.9140625 57.72265625 C12.16087776 59.34814998 12.16087776 59.34814998 16 59 C15.45367619 55.17573331 13.73916403 53.60768415 11 51 C11.76183594 50.70867187 12.52367187 50.41734375 13.30859375 50.1171875 C21.38819596 46.90955516 28.93938799 43.381579 35 37 C38 38 38 38 39.6484375 40.7109375 C40.24006493 41.92457139 40.81440447 43.14672362 41.375 44.375 C41.67809082 45.03185791 41.98118164 45.68871582 42.29345703 46.36547852 C53.0915501 70.86489864 54.59930342 99.98090145 45.3125 125.1875 C40.57906012 137.27093677 34.56556937 148.190759 26 158 C25.22462891 158.99 25.22462891 158.99 24.43359375 160 C8.18523327 180.19846315 -17.84572903 191.15040917 -43 194 C-73.20718592 196.21971341 -100.22659222 187.97970256 -123.43994141 168.34912109 C-130.28501544 162.42957819 -136.53907456 155.94647169 -141 148 C-141 147.01 -141 146.02 -141 145 C-140.29875 144.64808594 -139.5975 144.29617188 -138.875 143.93359375 C-132.48781856 140.6098295 -127.17312459 137.01007482 -122 132 C-121.32904297 132.59748047 -121.32904297 132.59748047 -120.64453125 133.20703125 C-114.454741 139.08051165 -114.454741 139.08051165 -106.5 140.9375 C-101.00497997 139.46561964 -98.3164579 136.40835385 -94.75 132.1875 C-87.19931648 123.47764971 -78.12850806 118.78364816 -67.89013672 113.90917969 C-64.49943639 112.27820991 -61.16477504 110.53574849 -57.8203125 108.8125 C-56 108 -56 108 -54 108 C-52.59235948 101.41740758 -52.59235948 101.41740758 -54.75 95.4375 C-60.30711385 91.88712171 -66.64229125 92.50176896 -73 93 C-83.83134404 95.38726097 -93.90584124 100.77626893 -103 107 C-103.12004395 106.44763672 -103.24008789 105.89527344 -103.36376953 105.32617188 C-109.23031827 78.68111324 -118.38343558 51.23783993 -141 34 C-138 34 -138 34 -135.25 34.9765625 C-129.26989032 36.85972204 -121.8950933 37.25326585 -115.86328125 35.3125 C-112.1232792 33.05154158 -110.30524412 30.06075949 -109 26 C-108.14283415 17.86882954 -109.45030719 10.7097854 -112 3 C-77.93405166 -18.68532152 -35.03302051 -21.45653831 0 0 Z " fill="#5ED5B5" transform="translate(335,231)"/>
<path d="M0 0 C8.26769913 3.4043467 14.41686365 9.10462047 21 15 C21.66128906 15.57621094 22.32257813 16.15242188 23.00390625 16.74609375 C27.17163336 20.61253938 30.49115256 25.1417747 33.875 29.6875 C34.36436035 30.34202148 34.8537207 30.99654297 35.35791016 31.67089844 C36.04312744 32.61304199 36.04312744 32.61304199 36.7421875 33.57421875 C37.1532373 34.13713623 37.56428711 34.70005371 37.98779297 35.2800293 C39.09729247 37.16532211 39.57083482 38.86439232 40 41 C40.66 41 41.32 41 42 41 C42.07347656 39.81857422 42.07347656 39.81857422 42.1484375 38.61328125 C43.67852605 16.32147395 43.67852605 16.32147395 46 14 C54.18188142 14.05642677 66.3110532 14.2792163 72.9296875 19.53125 C74.3125 21.1875 74.3125 21.1875 76 24 C76.49757813 23.31292969 76.99515625 22.62585938 77.5078125 21.91796875 C80 20 80 20 83.4921875 20.23828125 C84.9587315 20.57265123 86.41948751 20.93297663 87.875 21.3125 C89.07056519 21.59432129 89.07056519 21.59432129 90.2902832 21.88183594 C92.12207719 22.3154893 93.95143797 22.75949541 95.77880859 23.21142578 C99.48727947 24.11929003 103.2053734 24.98260325 106.92578125 25.83984375 C114.28881452 27.53910997 121.64567583 29.26336914 129 31 C129 31.99 129 32.98 129 34 C121.74 37.63 114.48 41.26 107 45 C107 48.26696117 109.34649883 49.7920404 111.5 52.125 C112.75296875 53.49011719 112.75296875 53.49011719 114.03125 54.8828125 C114.6809375 55.58148438 115.330625 56.28015625 116 57 C115 59 115 59 112.6600647 59.84793091 C111.62320526 60.12772797 110.58634583 60.40752502 109.51806641 60.69580078 C107.76086777 61.17607224 107.76086777 61.17607224 105.96817017 61.66604614 C104.67937616 62.00941735 103.390505 62.35249911 102.1015625 62.6953125 C100.78722339 63.05058419 99.47304679 63.40645761 98.1590271 63.76290894 C95.40127569 64.50919019 92.64214505 65.25005293 89.88183594 65.98681641 C86.34317444 66.93150258 82.80740381 67.88650182 79.27251625 68.84520149 C76.5573246 69.5809082 73.84106882 70.31261583 71.12443161 71.04296494 C69.18580175 71.56446455 67.24775858 72.08814349 65.3097229 72.61184692 C64.13195282 72.92572357 62.95418274 73.23960022 61.74072266 73.56298828 C60.18304672 73.98029709 60.18304672 73.98029709 58.59390259 74.40603638 C56 75 56 75 53 75 C53.144375 75.680625 53.28875 76.36125 53.4375 77.0625 C58.39926073 102.97391713 52.64900722 129.77279608 37.890625 151.64404297 C19.64015622 177.567313 -6.04165425 192.81768626 -36.87280273 198.63989258 C-44.4319453 199.9195592 -51.90422929 200.19302146 -59.5625 200.1875 C-60.61010498 200.18741943 -61.65770996 200.18733887 -62.73706055 200.18725586 C-72.09090878 200.11913661 -82.0518254 199.98272487 -91 197 C-91 199.64 -91 202.28 -91 205 C-90.28303955 205.27094482 -89.5660791 205.54188965 -88.82739258 205.82104492 C-86.00271496 206.99886792 -83.42332524 208.35504564 -80.76171875 209.86328125 C-79.77623047 210.42080078 -78.79074219 210.97832031 -77.77539062 211.55273438 C-76.75638672 212.13345703 -75.73738281 212.71417969 -74.6875 213.3125 C-73.68009766 213.88162109 -72.67269531 214.45074219 -71.63476562 215.03710938 C-66.00344571 218.23247071 -60.46142865 221.52217268 -55 225 C-58.55148829 232.79435444 -68.56307978 236.68774848 -76.13671875 239.93359375 C-92.46568392 246.01518651 -110.12408878 245.90325265 -126.17724609 239.07373047 C-131.82070646 236.48085663 -137.39934213 233.69608122 -142.60546875 230.30078125 C-145.38089759 228.793085 -147.49263869 228.53706276 -150.625 228.25 C-157.66214642 227.20650157 -162.3261503 224.12493015 -168 220 C-169.81143644 218.72765113 -171.62389597 217.45675728 -173.4375 216.1875 C-174.21996094 215.62417969 -175.00242188 215.06085938 -175.80859375 214.48046875 C-177.81787548 213.12303956 -179.80599271 212.02453644 -182 211 C-182 210.34 -182 209.68 -182 209 C-173.63972618 205.8526028 -165.82488463 204.51625767 -156.9375 204.3125 C-156.03362549 204.26931641 -155.12975098 204.22613281 -154.19848633 204.18164062 C-148.10002451 204.16794263 -148.10002451 204.16794263 -145.34033203 206.25537109 C-141.64479742 210.85284839 -140.77122404 216.27912912 -140 222 C-135.99018009 220.0680969 -132.0282701 218.06430562 -128.09204102 215.98803711 C-126.75123327 215.29400418 -125.39986265 214.61996795 -124.03833008 213.9675293 C-116.30019026 210.51184833 -116.30019026 210.51184833 -111.29705811 204.13555908 C-110.43720492 199.73767106 -110.58586361 195.45792701 -111 191 C-110.17145508 190.97812622 -110.17145508 190.97812622 -109.32617188 190.95581055 C-98.70203899 190.64443631 -88.62071006 189.94597636 -78.2109375 187.75 C-73.24014801 186.77938668 -68.23099903 186.4507293 -63.1875 186.0625 C-33.50540694 183.62049647 -4.02021746 174.32209048 16 151 C28.37495074 134.23732787 33.46445509 115.44808125 35 95 C35.07347656 94.10925781 35.14695312 93.21851563 35.22265625 92.30078125 C36.11106975 70.16769721 27.82167653 47.26314478 13.44140625 30.58203125 C6.14049426 22.40734346 6.14049426 22.40734346 -3 17 C-3.061875 17.804375 -3.12375 18.60875 -3.1875 19.4375 C-4.26536993 24.1635451 -6.51591419 27.87513427 -9 32 C-10.73152958 30.92044741 -12.46011684 29.83617488 -14.1875 28.75 C-15.15042969 28.14671875 -16.11335937 27.5434375 -17.10546875 26.921875 C-25.81798715 21.13704497 -25.81798715 21.13704497 -27 17 C-26.78162216 10.77623167 -26.78162216 10.77623167 -24.30078125 8.3125 C-19.88160039 5.79154114 -14.9213947 6.41631399 -10 7 C-6.80757212 8.0342929 -3.91815636 9.3493257 -1 11 C-1.0309375 9.1128125 -1.0309375 9.1128125 -1.0625 7.1875 C-1.10886083 4.35948913 -0.91692961 2.75078884 0 0 Z " fill="#A1312F" transform="translate(382,234)"/>
<path d="M0 0 C4.1071694 0.53488718 6.17832614 2.72045092 9.125 5.5 C12.30782183 8.61378784 12.30782183 8.61378784 16 11 C14.54625248 14.03965391 12.86337025 16.84185006 11.0625 19.6875 C6.3658419 27.53057453 3.86913459 34.76969316 5 44 C6.19412125 48.53419954 8.23474517 52.15061797 12 55 C23.85460211 61.15527417 39.07139564 59.04702818 51.93572998 57.79177856 C55.99458993 57.40023476 60.05773706 57.05992307 64.12109375 56.71875 C64.90566956 56.65256973 65.69024536 56.58638947 66.49859619 56.51820374 C90.71857095 54.51125761 109.38598828 57.86622775 128.7578125 73.7890625 C131.03179842 76.03135523 132.49492477 78.19642848 134 81 C132.741875 81.02578125 131.48375 81.0515625 130.1875 81.078125 C121.64358811 81.33827751 113.86174918 81.77676018 105.6875 84.375 C98.57219443 86.51446821 93.82411802 85.26968166 87.02270508 82.49169922 C73.12112867 77.09763766 58.26063128 77.68928567 43.625 78 C24.22982679 78.40723077 8.16997663 77.59467492 -6.73046875 63.609375 C-15.41349575 53.6261357 -16.87960169 42.70396149 -16 30 C-13.75734802 18.82726994 -7.65895301 8.35522146 0 0 Z " fill="#E97D3A" transform="translate(100,358)"/>
<path d="M0 0 C8.18188142 0.05642677 20.3110532 0.2792163 26.9296875 5.53125 C28.3125 7.1875 28.3125 7.1875 30 10 C30.49757813 9.31292969 30.99515625 8.62585938 31.5078125 7.91796875 C34 6 34 6 37.4921875 6.23828125 C38.9587315 6.57265123 40.41948751 6.93297663 41.875 7.3125 C42.67204346 7.50038086 43.46908691 7.68826172 44.2902832 7.88183594 C46.12207719 8.3154893 47.95143797 8.75949541 49.77880859 9.21142578 C53.48727947 10.11929003 57.20537341 10.98260325 60.92578125 11.83984375 C68.28881452 13.53910997 75.64567583 15.26336914 83 17 C83 17.99 83 18.98 83 20 C75.74 23.63 68.48 27.26 61 31 C61 34.26696117 63.34649883 35.7920404 65.5 38.125 C66.3353125 39.03507812 67.170625 39.94515625 68.03125 40.8828125 C68.6809375 41.58148438 69.330625 42.28015625 70 43 C69 45 69 45 66.75427246 45.8210144 C65.75963989 46.08874664 64.76500732 46.35647888 63.74023438 46.63232422 C62.6139563 46.93959442 61.48767822 47.24686462 60.32727051 47.56344604 C59.09520874 47.89055573 57.86314697 48.21766541 56.59375 48.5546875 C55.32591675 48.89750763 54.0580835 49.24032776 52.75183105 49.59353638 C50.05280689 50.32296832 47.35243181 51.04708085 44.65087891 51.76708984 C41.23884746 52.6765241 37.82934943 53.59502039 34.42070007 54.51704025 C-4.34657214 65 -4.34657214 65 -10 65 C-8.59966898 52.18571212 -6.81780545 39.44034024 -4.91333008 26.69189453 C-4.43008509 23.45026038 -3.95416209 20.20760058 -3.47851562 16.96484375 C-3.17231279 14.90358075 -2.86568857 12.8423803 -2.55859375 10.78125 C-2.41691269 9.81167358 -2.27523163 8.84209717 -2.1292572 7.84313965 C-1.99564285 6.9571106 -1.8620285 6.07108154 -1.72436523 5.15820312 C-1.60826401 4.37674927 -1.49216278 3.59529541 -1.37254333 2.79016113 C-1 1 -1 1 0 0 Z " fill="#90E5DC" transform="translate(428,248)"/>
<path d="M0 0 C1.09570312 0.00902344 2.19140625 0.01804687 3.3203125 0.02734375 C4.58488281 0.04474609 4.58488281 0.04474609 5.875 0.0625 C7.01943242 24.05319453 -0.07719632 49.76188506 -16.125 68.0625 C-19.39522153 66.93836135 -21.91193802 65.50489446 -24.6875 63.5 C-29.13027098 60.60840523 -33.16875217 60.54469995 -38.359375 60.27734375 C-42.01787882 59.99313794 -44.16398078 59.24801418 -47.125 57.0625 C-48.80946089 55.04033318 -50.34631002 52.97960948 -51.828125 50.8046875 C-53.0237668 48.92543825 -53.0237668 48.92543825 -55.125 48.0625 C-56.89270327 47.94009865 -58.66560462 47.88698847 -60.4375 47.875 C-61.38238281 47.86082031 -62.32726562 47.84664063 -63.30078125 47.83203125 C-66.28662945 48.07568968 -68.38359624 48.90371584 -71.125 50.0625 C-74.8125 50.3125 -74.8125 50.3125 -78.125 50.0625 C-80.125 48.0625 -80.125 48.0625 -80.625 45 C-79.67730006 37.53686296 -74.74968603 31.94974882 -68.9921875 27.34375 C-63.33039272 23.45866906 -57.78555716 20.89091429 -50.86328125 21.0703125 C-49.82623047 21.08707031 -48.78917969 21.10382813 -47.72070312 21.12109375 C-45.55125084 21.16497321 -43.38194488 21.21690977 -41.21289062 21.27734375 C-33.59915194 21.38080407 -27.56820869 20.93184057 -21.5 15.875 C-19.05835332 12.9835763 -16.84354301 9.98151494 -14.609375 6.9296875 C-10.28990736 1.49625189 -6.71066735 -0.07139008 0 0 Z " fill="#90E5DC" transform="translate(380.125,316.9375)"/>
<path d="M0 0 C0.87140625 0.00644531 1.7428125 0.01289063 2.640625 0.01953125 C4.75 0.1875 4.75 0.1875 5.75 1.1875 C7.04433865 8.62994721 2.85729373 13.28216352 -1.25 19.1875 C-1.68570313 19.78304688 -2.12140625 20.37859375 -2.5703125 20.9921875 C-5.20670123 24.91747739 -5.48536297 28.16304436 -5.6875 32.75 C-6.03477682 39.77629842 -6.03477682 39.77629842 -8.5 42.875 C-12.94199215 46.61031158 -16.84503304 47.8513048 -22.61328125 47.6796875 C-36.32308499 45.12052413 -50.02302813 32.07354129 -59.25 22.1875 C-51.54047716 13.23450573 -40.71544813 12.07162994 -29.57617188 10.296875 C-22.98380803 9.1209616 -18.05417231 7.35671226 -12.48413086 3.60302734 C-8.34741621 0.98203821 -4.88229985 -0.08039715 0 0 Z " fill="#90E5DC" transform="translate(262.25,368.8125)"/>
<path d="M0 0 C2.77319336 1.3894043 2.77319336 1.3894043 5.58984375 3.32421875 C6.62173828 4.02353516 7.65363281 4.72285156 8.71679688 5.44335938 C9.77962891 6.18392578 10.84246094 6.92449219 11.9375 7.6875 C12.99646484 8.40873047 14.05542969 9.12996094 15.14648438 9.87304688 C17.1975926 11.274147 19.2413104 12.68614231 21.27661133 14.11010742 C22.91313189 15.24576907 24.5651262 16.36021802 26.24487305 17.4309082 C29.19479366 19.34551464 30.84524053 20.6656654 32.33984375 23.89453125 C32.53707031 24.85746094 32.73429687 25.82039063 32.9375 26.8125 C33.26041016 28.27623047 33.26041016 28.27623047 33.58984375 29.76953125 C33.72519531 30.50558594 33.86054688 31.24164063 34 32 C28.71480695 32.24393199 24.72766643 31.50806942 19.75 29.75 C19.09378662 29.52546143 18.43757324 29.30092285 17.76147461 29.06958008 C14.84035113 28.06068515 11.98675735 26.99432975 9.14453125 25.77734375 C-3.10352054 20.60759118 -16.33078842 22.25060823 -28.5625 26.625 C-34.30929933 28.57730988 -38.72865201 29.0324309 -44.4375 26.4375 C-47 24 -47 24 -48.25 20.6875 C-47.95623454 16.35445943 -47.06108724 14.7400468 -44.03833008 11.73608398 C-37.09897433 5.82570445 -28.86148385 4.02077523 -20.0625 2.75 C-18.03229549 2.43393552 -16.00233478 2.11629982 -13.97265625 1.796875 C-13.08843994 1.66635742 -12.20422363 1.53583984 -11.29321289 1.40136719 C-2.20812143 -0.18874144 -2.20812143 -0.18874144 0 0 Z " fill="#90E5DB" transform="translate(279,246)"/>
<path d="M0 0 C1.01966251 3.2301197 0.95302003 4.18478789 0.0625 7.6875 C-1.7603011 14.95423727 -1.15363391 22.56582576 -1 30 C-0.17757812 29.7834375 0.64484375 29.566875 1.4921875 29.34375 C17.35288074 25.38773413 17.35288074 25.38773413 25.0625 28.0625 C27 30 27 30 28.1875 33.375 C28 37 28 37 25.6875 39.5 C24.47483983 40.35717586 23.24254138 41.18674355 22 42 C20.20788049 43.27019466 18.41623315 44.5410557 16.625 45.8125 C15.08517121 46.8776618 13.54412891 47.94108156 12 49 C13.95061865 53.41256452 16.52405905 56.09816738 21 58 C24.49474377 57.45495815 24.49474377 57.45495815 26.74609375 56.62890625 C31.01949144 55.43650239 35.60857559 55.51758181 40 56 C40.99 56.66 41.98 57.32 43 58 C43.61397515 63.32111797 42.47275987 66.36357524 40 71 C40 76.03421077 42.04830995 78.19832829 45.0625 81.9375 C45.52849609 82.54529297 45.99449219 83.15308594 46.47460938 83.77929688 C50.63026815 89.0205155 55.23242738 93.60990899 62 95 C61.74636229 88.21519137 60.91476595 82.82712267 57.7421875 76.77734375 C57.37480469 75.89755859 57.37480469 75.89755859 57 75 C57.33 74.34 57.66 73.68 58 73 C62.17122665 77.74656826 64.80910247 82.2319858 65.25 88.625 C65.03572455 91.51771862 64.59864101 94.17093846 64 97 C65.89666526 96.91227545 67.79238993 96.80408699 69.6875 96.6875 C70.74324219 96.62949219 71.79898438 96.57148438 72.88671875 96.51171875 C76.29373837 95.95171929 78.24507593 95.05649262 81 93 C85.74441136 84.65638003 84.1496718 77.63876091 81.80078125 68.85546875 C81.53652344 67.91316406 81.27226562 66.97085938 81 66 C80.78730469 65.23300781 80.57460937 64.46601563 80.35546875 63.67578125 C79.91510385 62.11391148 79.45980352 60.55625806 79 59 C84.59478381 63.61036437 86.46610935 72.4393277 87.49609375 79.30859375 C87.74608414 85.25533475 86.93230849 89.4332589 83.58203125 94.37890625 C80.57169081 97.46357609 78.03384905 98.87401123 73.73046875 99.3984375 C66.77908866 99.35245263 61.30064221 99.02430826 55 96 C55.60585937 96.48726563 56.21171875 96.97453125 56.8359375 97.4765625 C71.53415423 109.91351512 80.82025188 126.82761212 86.9375 144.875 C87.23229248 145.74261963 87.52708496 146.61023926 87.83081055 147.50415039 C89.60974255 153.0270338 90.53838772 158.21523855 91 164 C89.35360182 160.87536103 88.35769695 157.83605753 87.45410156 154.41723633 C82.32719446 135.23024041 72.06347864 117.06347864 58 103 C57.29230469 102.29230469 56.58460938 101.58460938 55.85546875 100.85546875 C36.48307174 82.60003878 11.34155054 79.75998445 -14 79 C-14 78.67 -14 78.34 -14 78 C-9.75006008 77.94104864 -5.50022784 77.9060884 -1.25 77.875 C-0.06277344 77.85824219 1.12445313 77.84148437 2.34765625 77.82421875 C12.97465396 77.76614772 22.82750443 78.70145674 32.6875 82.8125 C33.31470947 83.07240723 33.94191895 83.33231445 34.58813477 83.60009766 C39.59548396 85.71856675 44.36554641 88.16155417 49 91 C48.3709375 90.32195312 47.741875 89.64390625 47.09375 88.9453125 C42.86790249 84.35033976 38.77783658 79.79026418 35 74.8125 C30.2533741 68.79122907 24.53300261 64.37997247 18.19921875 60.11328125 C8.04064005 53.18633893 0.62376842 43.84353389 -2.58203125 31.81640625 C-4.1216299 21.44210136 -4.19821778 9.72087332 0 0 Z " fill="#A7372E" transform="translate(140,169)"/>
<path d="M0 0 C4.38485949 1.93973763 8.56195066 3.99760206 12.625 6.5625 C9.66929782 10.09492456 6.77312742 13.45494879 3.375 16.5625 C-2.23318613 22.01945414 -6.18224863 29.00763519 -10.375 35.5625 C-20.1334614 30.04423292 -29.78341176 24.36581389 -39.375 18.5625 C-39.01148438 18.10101563 -38.64796875 17.63953125 -38.2734375 17.1640625 C-35.35742825 13.38072742 -32.80836597 9.62299873 -30.5 5.4375 C-22.15532794 -8.49184923 -13.22358372 -5.72348315 0 0 Z " fill="#91E4DB" transform="translate(322.375,224.4375)"/>
<path d="M0 0 C1.27351308 2.54702616 0.80191925 3.4282945 0.0625 6.125 C-0.13214844 6.84945312 -0.32679688 7.57390625 -0.52734375 8.3203125 C-0.76130859 9.15175781 -0.76130859 9.15175781 -1 10 C-2.29357422 10.02126953 -2.29357422 10.02126953 -3.61328125 10.04296875 C-22.06553484 10.76391213 -37.69791603 16.6296804 -54 25 C-55.33260712 25.66811712 -56.66574126 26.33518737 -58 27 C-58.60328125 26.05898437 -59.2065625 25.11796875 -59.828125 24.1484375 C-60.63538914 22.89060733 -61.44268236 21.63279583 -62.25 20.375 C-62.64574219 19.75753906 -63.04148438 19.14007813 -63.44921875 18.50390625 C-65.92830149 14.64303969 -68.4440691 10.81044744 -71 7 C-66.5812962 4.59912534 -62.24587495 3.08843397 -57.375 1.9375 C-56.31079834 1.68371582 -56.31079834 1.68371582 -55.22509766 1.42480469 C-53.15238475 0.93903454 -51.07664873 0.46860121 -49 0 C-48.030625 -0.23074219 -47.06125 -0.46148437 -46.0625 -0.69921875 C-31.70854313 -3.64094538 -14.2904602 -3.4708464 0 0 Z " fill="#FBBC86" transform="translate(281,207)"/>
<path d="M0 0 C1.0725 0.350625 2.145 0.70125 3.25 1.0625 C7.25435111 2.06715761 7.25435111 2.06715761 11 1 C10.67 1.78375 10.34 2.5675 10 3.375 C8.88133489 5.84332497 8.88133489 5.84332497 9 8 C9.59167969 8.15855469 10.18335938 8.31710938 10.79296875 8.48046875 C16.09525186 10.04606947 19.38991362 11.60020722 23 16 C24.22485812 18.44971624 24.16722808 20.14234461 24.1875 22.875 C24.20167969 23.73867187 24.21585937 24.60234375 24.23046875 25.4921875 C23.9814178 28.20219951 23.49450236 29.73634008 22 32 C20.4140625 33.23046875 20.4140625 33.23046875 18.625 34.1875 C18.03976562 34.51105469 17.45453125 34.83460938 16.8515625 35.16796875 C12.27804988 37.2231548 7.63203493 37.24839626 2.6875 37.3125 C1.95337891 37.34150391 1.21925781 37.37050781 0.46289062 37.40039062 C-5.17059544 37.46537316 -8.35060902 36.19017933 -13 33 C-16.5694409 29.07361501 -17.37070733 25.35979926 -17.2734375 20.05859375 C-16.80646044 16.54292358 -15.32067765 14.61820042 -13 12 C-7.61028708 7.98413547 -3.62357183 7.45930026 3 8 C2.505 7.236875 2.01 6.47375 1.5 5.6875 C0 3 0 3 0 0 Z " fill="#D16336" transform="translate(302,145)"/>
<path d="M0 0 C4.73829769 1.66717882 7.2011938 3.85362045 10 8 C11.81020278 13.43060835 11.70097747 18.09743772 9.3125 23.25 C7.04824738 27.35143979 4.19903639 29.90048181 0 32 C-5.31135952 32.52940021 -9.67272741 32.66363629 -14.5 30.25 C-18.9592599 26.23666609 -20.84318674 23.35219896 -21.25 17.25 C-21.16011065 12.35103062 -20.0416841 8.10701799 -16.53515625 4.48828125 C-11.02151215 -0.21651531 -7.05783757 -0.59720164 0 0 Z " fill="#A23331" transform="translate(263,122)"/>
<path d="M0 0 C8.84633751 -0.31039781 18.55565547 0.18521849 27 3 C31.42801617 10.6268506 32.08708298 19.40020493 31 28 C29.56402525 31.85961993 27.43682229 33.70878514 24 36 C20.56897681 36.43800296 18.77196557 36.59658698 15.98828125 34.4453125 C13.50171785 31.38718149 12.36193378 28.18296599 11.125 24.5 C8.5989902 17.36524458 5.54032278 10.69675514 2 4 C1.32976112 2.66845876 0.66166827 1.33582084 0 0 Z " fill="#A3332F" transform="translate(288,60)"/>
<path d="M0 0 C6.1892449 0.15160975 10.71279361 1.77079375 15.16796875 6.12890625 C19.26077649 10.78556874 20.73643869 13.6950169 20.65625 19.9296875 C19.91580788 26.36742041 16.24715113 31.27213589 11.375 35.375 C10.715 35.375 10.055 35.375 9.375 35.375 C9.045 36.695 8.715 38.015 8.375 39.375 C14.80560958 40.94984316 19.89553928 39.69444491 26.09399414 37.76074219 C29.5234701 36.72078228 31.97047512 35.99943439 35.375 37.375 C34.7975 37.560625 34.22 37.74625 33.625 37.9375 C30.27072157 40.08051122 29.19592004 42.86322563 27.375 46.375 C30.015 46.705 32.655 47.035 35.375 47.375 C34.88 48.365 34.88 48.365 34.375 49.375 C31.735 49.045 29.095 48.715 26.375 48.375 C25.715 49.365 25.055 50.355 24.375 51.375 C26.685 52.695 28.995 54.015 31.375 55.375 C30.385 55.87 30.385 55.87 29.375 56.375 C27.31640625 55.6328125 27.31640625 55.6328125 24.9375 54.5 C22.41178652 53.30996037 20.02968064 52.25989355 17.375 51.375 C15.33666576 52.6489589 13.33647874 53.98561923 11.375 55.375 C5.84917005 57.21694332 0.28568291 57.12562543 -5.125 55 C-7.625 53.375 -7.625 53.375 -9.625 51.375 C-10.125 48 -10.125 48 -9.625 44.375 C-6.68839148 41.89519725 -4.25856002 40.58618667 -0.625 39.375 C-1.615 38.385 -2.605 37.395 -3.625 36.375 C-2.635 36.4575 -1.645 36.54 -0.625 36.625 C4.00915204 36.60620019 7.6224554 35.04256975 11.375 32.375 C15.85469434 26.74666608 16.80912094 22.13647028 16.70703125 15.1015625 C16.18797245 10.83917375 14.63005642 9.09861863 11.375 6.375 C5.3636144 2.66584718 0.35585846 1.93177089 -6.625 2.375 C-4.17549379 -0.07450621 -3.37776979 0.05228746 0 0 Z " fill="#F67347" transform="translate(344.625,120.625)"/>
<path d="M0 0 C7.03591757 3.25638067 12.20846114 7.91831127 15.26171875 15.12890625 C16.83205244 23.46375432 13.75511062 30.22069834 9.26171875 37.12890625 C5.89432791 40.92428681 2.53937403 42.93884199 -2.59375 43.3671875 C-11.56607283 43.56703994 -16.78469677 42.48085831 -23.61328125 36.69140625 C-28.0315084 31.3635441 -28.23496602 26.21136492 -28.11328125 19.48828125 C-27.33100053 12.48034984 -24.30327209 7.20354251 -19.05078125 2.56640625 C-13.32478858 -1.91535741 -6.92712082 -2.20363473 0 0 Z M-20.05078125 11.62890625 C-23.10483712 16.15343347 -23.31093917 20.73550988 -22.73828125 26.12890625 C-20.78442204 31.47631039 -17.82591838 34.58508768 -12.73828125 37.12890625 C-7.50987791 37.65003796 -3.09791371 37.77164159 1.69921875 35.50390625 C6.48466373 31.06861578 9.08282697 26.85700585 9.51171875 20.31640625 C9.44466362 16.25584531 8.52774795 13.56701951 6.26171875 10.12890625 C1.303418 5.54247806 -2.67140168 4.77123152 -9.234375 4.84765625 C-14.14139891 5.39883522 -16.82282147 8.13922001 -20.05078125 11.62890625 Z " fill="#FCF8F8" transform="translate(264.73828125,116.87109375)"/>
<path d="M0 0 C2.45703125 2.28515625 2.45703125 2.28515625 4.8125 5.0625 C5.60269531 5.98160156 6.39289063 6.90070313 7.20703125 7.84765625 C7.79871094 8.55792969 8.39039063 9.26820313 9 10 C8 12 8 12 5.70716858 12.83447266 C4.69142258 13.1082373 3.67567657 13.38200195 2.62915039 13.6640625 C1.48027847 13.97778809 0.33140656 14.29151367 -0.85227966 14.61474609 C-2.10630081 14.94812988 -3.36032196 15.28151367 -4.65234375 15.625 C-5.94991728 15.97546585 -7.24732419 16.32654913 -8.54457092 16.67822266 C-11.2729586 17.41607963 -14.00271152 18.14856705 -16.73364258 18.87695312 C-20.20871772 19.80393577 -23.68108694 20.7405818 -27.15256405 21.68093872 C-29.83810102 22.40782895 -32.52459741 23.13111683 -35.21142769 23.85321045 C-37.10697833 24.36280411 -39.0020955 24.87400932 -40.89720154 25.38525391 C-60.17387703 30.52233667 -60.17387703 30.52233667 -65 29 C-57.27162821 25.05470758 -49.53578117 21.12459922 -41.78997517 17.21364498 C-38.19348606 15.39713742 -34.59978616 13.57551552 -31.01196289 11.74194336 C-27.54920288 9.97252603 -24.07977529 8.21689013 -20.60530663 6.47058296 C-19.28116591 5.80204718 -17.95949895 5.1285882 -16.64040565 4.45014763 C-14.79173245 3.50039135 -12.93502274 2.56855047 -11.07543945 1.64038086 C-10.02064896 1.10521347 -8.96585846 0.57004608 -7.87910461 0.0186615 C-4.6632585 -1.11914315 -3.18676875 -1.13218514 0 0 Z " fill="#5ED5B6" transform="translate(489,281)"/>
<path d="M0 0 C5.59478381 4.61036437 7.46610935 13.4393277 8.49609375 20.30859375 C8.74608414 26.25533475 7.93230849 30.4332589 4.58203125 35.37890625 C1.57169081 38.46357609 -0.96615095 39.87401123 -5.26953125 40.3984375 C-12.22091134 40.35245263 -17.69935779 40.02430826 -24 37 C-23.39414063 37.48726563 -22.78828125 37.97453125 -22.1640625 38.4765625 C-7.46584577 50.91351512 1.82025188 67.82761212 7.9375 85.875 C8.23229248 86.74261963 8.52708496 87.61023926 8.83081055 88.50415039 C10.60974255 94.0270338 11.53838772 99.21523855 12 105 C10.35360182 101.87536103 9.35769695 98.83605753 8.45410156 95.41723633 C3.32719446 76.23024041 -6.93652136 58.06347864 -21 44 C-21.70769531 43.29230469 -22.41539062 42.58460938 -23.14453125 41.85546875 C-42.51692826 23.60003878 -67.65844946 20.75998445 -93 20 C-93 19.67 -93 19.34 -93 19 C-88.75006008 18.94104864 -84.50022784 18.9060884 -80.25 18.875 C-78.46916016 18.84986328 -78.46916016 18.84986328 -76.65234375 18.82421875 C-66.02534604 18.76614772 -56.17249557 19.70145674 -46.3125 23.8125 C-45.68529053 24.07240723 -45.05808105 24.33231445 -44.41186523 24.60009766 C-39.40451604 26.71856675 -34.63445359 29.16155417 -30 32 C-30.67546875 31.27554687 -31.3509375 30.55109375 -32.046875 29.8046875 C-32.93890625 28.83789062 -33.8309375 27.87109375 -34.75 26.875 C-35.63171875 25.92367187 -36.5134375 24.97234375 -37.421875 23.9921875 C-39.92271085 21.08970226 -41.95213096 18.22491526 -44 15 C-41.8359375 15.078125 -41.8359375 15.078125 -39 16 C-37.03115678 18.2185785 -35.32908549 20.34480505 -33.625 22.75 C-29.24158861 28.89187294 -24.77487962 34.39872733 -17 36 C-17.25363771 29.21519137 -18.08523405 23.82712267 -21.2578125 17.77734375 C-21.50273437 17.19082031 -21.74765625 16.60429687 -22 16 C-21.67 15.34 -21.34 14.68 -21 14 C-16.82877335 18.74656826 -14.19089753 23.2319858 -13.75 29.625 C-13.96427545 32.51771862 -14.40135899 35.17093846 -15 38 C-13.10333474 37.91227545 -11.20761007 37.80408699 -9.3125 37.6875 C-8.25675781 37.62949219 -7.20101562 37.57148438 -6.11328125 37.51171875 C-2.70626163 36.95171929 -0.75492407 36.05649262 2 34 C6.74441136 25.65638003 5.1496718 18.63876091 2.80078125 9.85546875 C2.53652344 8.91316406 2.27226562 7.97085938 2 7 C1.78730469 6.23300781 1.57460937 5.46601563 1.35546875 4.67578125 C0.91510385 3.11391148 0.45980352 1.55625806 0 0 Z " fill="#CA5C2C" transform="translate(219,228)"/>
<path d="M0 0 C4.16636339 1.75913121 6.24086879 3.83363661 8 8 C8.54067915 12.86611237 8.54236245 14.97338536 6.25 19.3125 C3.65316601 22.41427393 1.68958025 24.66542965 -2.3671875 25.46875 C-6.46972536 25.51987197 -10.08556747 25.50849505 -13.625 23.25 C-16.33086776 20.54413224 -16.53468127 17.86031193 -16.75 14.125 C-16.50033997 8.79672931 -15.26479177 5.93678604 -11.5078125 2.20703125 C-7.99927337 -0.60161795 -4.31029493 -0.45589658 0 0 Z " fill="#A23533" transform="translate(350,127)"/>
<path d="M0 0 C-1.33333333 4 -2.66666667 8 -4 12 C-4.10106511 13.8949708 -4.18200963 15.79105443 -4.25 17.6875 C-4.76406379 24.64000202 -7.11948446 29.11948446 -12 34 C-17.04693715 34.6618934 -17.04693715 34.6618934 -20 34 C-24.31181474 30.66623104 -25.77633834 26.4869644 -26.56640625 21.234375 C-26.52679576 18.48553261 -26.27971124 17.33959023 -24.51513672 15.19726562 C-22.39930765 13.40730853 -20.22216778 11.81846506 -17.9375 10.25 C-16.80924805 9.42435547 -16.80924805 9.42435547 -15.65820312 8.58203125 C-3.77301596 0 -3.77301596 0 0 0 Z " fill="#A3332F" transform="translate(138,124)"/>
<path d="M0 0 C3.70634345 1.4203141 7.21582801 3.07051536 10.75 4.875 C15.15879851 7.10929863 19.58395862 9.17669821 24.16015625 11.04296875 C26.22058067 12.11473941 27.52094111 13.21336923 29 15 C29.375 17.5 29.375 17.5 29 20 C27.12139167 22.5048111 26.03898126 22.98700625 23 24 C13.67743869 25.25980558 4.73804826 22.15869884 -3 17 C-2.22095672 5.47835991 -2.22095672 5.47835991 0 0 Z " fill="#A3342F" transform="translate(202,93)"/>
<path d="M0 0 C-1.96217064 3.50387614 -4.0561573 6.21623665 -6.875 9.0625 C-10.88703599 13.44261269 -12.90551927 17.84069284 -14.89453125 23.3984375 C-15.98460356 25.96376669 -16.79949697 27.32316098 -19 29 C-22.67717365 29.5595699 -24.45855692 29.31479249 -27.6875 27.4375 C-32.25569627 22.6223742 -33.17497156 17.39397037 -34 11 C-30.29265349 9.53914925 -26.58395204 8.08176912 -22.875 6.625 C-21.30492187 6.00625 -21.30492187 6.00625 -19.703125 5.375 C-18.68476563 4.97539063 -17.66640625 4.57578125 -16.6171875 4.1640625 C-15.68503418 3.79748535 -14.75288086 3.4309082 -13.79248047 3.05322266 C-4.92858828 -0.28991696 -4.92858828 -0.28991696 0 0 Z " fill="#A4342F" transform="translate(188,104)"/>
<path d="M0 0 C2.97916825 1.34978232 5.10527378 2.92966704 7.53125 5.1015625 C12.62382052 8.98712767 17.31122327 8.69174842 23.5 8.375 C24.51320313 8.34792969 25.52640625 8.32085937 26.5703125 8.29296875 C29.04914631 8.22281308 31.52340705 8.12459639 34 8 C30.99382731 11.00617269 28.17618402 10.59585316 24 11 C25.4540625 11.928125 25.4540625 11.928125 26.9375 12.875 C30 15 30 15 31 17 C31.375 19.9375 31.375 19.9375 31 23 C28.000925 26.10249138 24.81484329 26.25979494 20.6875 26.4375 C14.40013287 26.2760676 9.46808597 24.46808597 5 20 C5 19.01 5 18.02 5 17 C1.04 17 -2.92 17 -7 17 C-3.79619983 14.86413322 -2.98060033 14.76867825 0.6875 14.875 C1.89986328 14.90207031 1.89986328 14.90207031 3.13671875 14.9296875 C4.05904297 14.96449219 4.05904297 14.96449219 5 15 C5 13.68 5 12.36 5 11 C1.37 10.01 -2.26 9.02 -6 8 C-6 7.67 -6 7.34 -6 7 C-0.72684667 7.4452885 4.01770224 8.08373163 9 10 C6.22237877 6.39937989 3.26008643 3.16952847 0 0 Z " fill="#F67348" transform="translate(234,151)"/>
<path d="M0 0 C4.01108607 2.38862429 7.5843871 4.79650756 9.7734375 8.9921875 C10.8416518 16.05797999 10.01897471 22.16146595 5.7734375 27.9921875 C2.75496174 30.93326644 -0.12926171 32.94404079 -4.2265625 33.9921875 C-10.75424313 33.88517634 -15.14207588 32.08315375 -20.2265625 27.9921875 C-23.82785907 24.1658099 -23.78457352 19.89149569 -23.6484375 14.84765625 C-22.7278784 8.61683491 -19.13777617 2.92115844 -14.2265625 -1.0078125 C-9.37656368 -2.62447877 -4.66662095 -2.11226001 0 0 Z M-17.2265625 8.9921875 C-19.3428473 13.22475711 -18.84344814 18.40524576 -18.2265625 22.9921875 C-16.77153263 25.79297623 -15.17444824 26.93188077 -12.2265625 27.9921875 C-8.04745324 28.7901404 -4.17284168 29.00520986 -0.3203125 27 C2.48874971 24.78304404 4.78813553 22.44074438 5.7734375 18.9921875 C6.19505467 13.67981122 6.30503461 10.25445987 2.7734375 5.9921875 C-0.61165939 3.18739294 -3.73865773 2.35346477 -8.16015625 2.49609375 C-12.01196276 3.42081856 -14.64145826 6.09986798 -17.2265625 8.9921875 Z " fill="#FBF6F5" transform="translate(352.2265625,124.0078125)"/>
<path d="M0 0 C4.29986095 1.51182326 6.21822757 4.73275105 8.625 8.375 C9.01945312 8.9525 9.41390625 9.53 9.8203125 10.125 C13.6074588 15.72895298 15.62809758 19.09092661 15 26 C13.16884793 28.61593153 12.09031634 28.96989455 9 30 C7.14772748 30.09357692 5.2921282 30.12993909 3.4375 30.125 C2.46683594 30.12757813 1.49617188 30.13015625 0.49609375 30.1328125 C-2 30 -2 30 -4 29 C-3.59307576 18.98124457 -2.39107538 9.75979825 0 0 Z " fill="#A4352F" transform="translate(69,213)"/>
<path d="M0 0 C2.64752004 2.57784846 4.94432065 4.91648098 7 8 C2.02055486 14.67786054 -2.99943273 21.3228476 -8.0625 27.9375 C-8.59601074 28.63625244 -9.12952148 29.33500488 -9.67919922 30.05493164 C-12.89843871 34.26819669 -16.13660361 38.46587106 -19.390625 42.65234375 C-20.86462499 44.55986364 -22.33858391 46.46741528 -23.8125 48.375 C-24.5247876 49.28499756 -25.2370752 50.19499512 -25.97094727 51.13256836 C-26.62635498 51.98343018 -27.2817627 52.83429199 -27.95703125 53.7109375 C-28.83838745 54.84474854 -28.83838745 54.84474854 -29.73754883 56.00146484 C-31.26702952 58.02874369 -31.26702952 58.02874369 -31 61 C-31.99 61 -32.98 61 -34 61 C-33.67 57.37 -33.34 53.74 -33 50 C-32.67 51.32 -32.34 52.64 -32 54 C-29.39577176 51.64459564 -27.82948563 49.18336334 -26.13671875 46.1171875 C-25.58588623 45.12589844 -25.03505371 44.13460937 -24.4675293 43.11328125 C-23.88011963 42.04464844 -23.29270996 40.97601563 -22.6875 39.875 C-21.43758847 37.62234674 -20.18758565 35.36974414 -18.9375 33.1171875 C-18.28630307 31.93986451 -17.63526302 30.76245474 -16.984375 29.58496094 C-13.73678483 23.71323773 -10.46187999 17.85681552 -7.1875 12 C-6.28100708 10.37167236 -6.28100708 10.37167236 -5.35620117 8.71044922 C-4.79908447 7.71287598 -4.24196777 6.71530273 -3.66796875 5.6875 C-3.17578857 4.80449219 -2.6836084 3.92148438 -2.17651367 3.01171875 C-1 1 -1 1 0 0 Z " fill="#63D4B6" transform="translate(452,252)"/>
<path d="M0 0 C1.5103701 4.5311103 1.01654359 9.00738456 0.9375 13.75 C0.83881192 17.01298372 0.83881192 17.01298372 2 20 C2.14220279 21.66267874 2.22020567 23.3315173 2.25 25 C2.27578125 25.86625 2.3015625 26.7325 2.328125 27.625 C2 30 2 30 0.6875 31.77734375 C-2.27560833 33.92422548 -4.46511992 33.53023201 -8 33 C-11.63372614 30.84561692 -14.39127689 28.64032024 -15.8828125 24.62109375 C-16.03968914 21.11228619 -14.95909886 19.63798193 -13 16.75 C-12.03513672 15.32107422 -12.03513672 15.32107422 -11.05078125 13.86328125 C-3.95192308 3.95192308 -3.95192308 3.95192308 0 0 Z " fill="#A4342F" transform="translate(98,156)"/>
<path d="M0 0 C1.29808594 -0.02578125 2.59617187 -0.0515625 3.93359375 -0.078125 C7.73918503 0.26597583 9.61918076 0.84989222 12.5625 3.25 C13.3125 6.5625 13.3125 6.5625 12.5625 10.25 C9.20248047 14.38762406 4.51387301 17.37948131 -0.4375 19.25 C-2.37890625 19.24609375 -2.37890625 19.24609375 -4.4375 18.25 C-5.88512313 15.94910308 -7.05042696 13.81995105 -8.1875 11.375 C-8.50332031 10.73691406 -8.81914063 10.09882813 -9.14453125 9.44140625 C-10.5455189 6.53632797 -11.4375 4.51257196 -11.4375 1.25 C-7.6430474 0.05276814 -3.95854674 0.04707885 0 0 Z " fill="#A5352F" transform="translate(86.4375,316.75)"/>
<path d="M0 0 C4.7902657 1.03911917 8.80831917 3.3009416 13.125 5.5625 C14.47803223 6.27104126 14.47803223 6.27104126 15.85839844 6.99389648 C23.82635023 11.24162696 31.55778081 15.84002448 39.25 20.5625 C39.8307428 20.91724396 40.4114856 21.27198792 41.00982666 21.63748169 C50.82438053 27.64876107 50.82438053 27.64876107 52 30 C51.39421747 32.01927511 50.73080266 34.02253397 50 36 C42.9577733 32.31478538 36.48699796 28.01871634 30 23.4375 C29.00339355 22.73729736 28.00678711 22.03709473 26.97998047 21.31567383 C24.95661018 19.89361408 22.93430001 18.47004465 20.91308594 17.04492188 C18.20531 15.14412308 15.48506991 13.26332079 12.7578125 11.390625 C11.21353257 10.32292982 9.66926117 9.25522231 8.125 8.1875 C7.41214844 7.70273193 6.69929688 7.21796387 5.96484375 6.71850586 C1.11312322 3.33936967 1.11312322 3.33936967 0 0 Z " fill="#9F3836" transform="translate(260,231)"/>
<path d="M0 0 C0.67099984 2.60311992 1.33695338 5.20735398 2 7.8125 C2.28617187 8.91948242 2.28617187 8.91948242 2.578125 10.04882812 C3.35262914 13.10535341 4 15.83373478 4 19 C1.5837428 19.27648714 -0.82911377 19.52178337 -3.25 19.75 C-3.93191406 19.83121094 -4.61382812 19.91242188 -5.31640625 19.99609375 C-8.78869236 20.29949739 -10.56593723 20.31784596 -13.421875 18.2265625 C-15.65885261 15.07043073 -16 12.85641408 -16 9 C-12.83318753 2.2705235 -7.51505502 -1.97221856 0 0 Z " fill="#A5352F" transform="translate(378,198)"/>
<path d="M0 0 C7.46728838 -0.68858192 12.12384519 0.24722773 18 5 C20 7 20 7 20.375 9.875 C19.92056457 13.66196193 18.93500208 14.66926305 16 17 C13.23547967 18.38226016 10.9538637 18.09525387 7.875 18.0625 C6.77929688 18.05347656 5.68359375 18.04445313 4.5546875 18.03515625 C3.71164063 18.02355469 2.86859375 18.01195312 2 18 C-0.61281488 12.12116651 -0.18328202 6.29268272 0 0 Z " fill="#A3332F" transform="translate(66,278)"/>
<path d="M0 0 C3.39746168 1.44316956 5.34631063 3.2188718 7.75 6 C8.43964844 6.79792969 9.12929687 7.59585938 9.83984375 8.41796875 C14.37085501 13.83387913 18.7858219 19.3335513 23 25 C19.33319615 23.60248855 15.91000187 21.94865404 12.4375 20.125 C4.30123066 16.01678518 -4.23031878 13.39173124 -13 11 C-9.0299782 6.78185183 -4.69159716 3.38772897 0 0 Z " fill="#FBB882" transform="translate(167,236)"/>
<path d="M0 0 C2.42578125 1.29296875 2.42578125 1.29296875 5.3125 3.1875 C6.25738281 3.79980469 7.20226562 4.41210938 8.17578125 5.04296875 C10.8866665 6.921466 13.4523176 8.90709515 16 11 C15.6875 13.375 15.6875 13.375 15 16 C11.94350819 18.03766121 10.11770704 18.5828485 6.47265625 18.53515625 C1.1156327 17.37573725 -3.46422677 13.96337184 -8 11 C-7.12980384 6.49257945 -5.05820035 4.35656136 -2 1 C-1.34 0.67 -0.68 0.34 0 0 Z " fill="#A5352F" transform="translate(214,76)"/>
<path d="M0 0 C6.969039 3.15915774 12.37977007 7.91281958 15.28125 15.11328125 C15.4765625 17.69140625 15.4765625 17.69140625 15.40625 20.36328125 C15.38820313 21.2553125 15.37015625 22.14734375 15.3515625 23.06640625 C15.32835937 23.741875 15.30515625 24.41734375 15.28125 25.11328125 C14.95125 25.11328125 14.62125 25.11328125 14.28125 25.11328125 C14.03375 23.99953125 13.78625 22.88578125 13.53125 21.73828125 C12.72154373 18.0724041 12.72154373 18.0724041 10.34375 17.05078125 C9.663125 16.74140625 8.9825 16.43203125 8.28125 16.11328125 C7.26433736 14.12182734 6.26482352 12.12141051 5.28125 10.11328125 C0.82022488 6.07047723 -3.43417015 5.84977654 -9.21875 5.875 C-12.49532886 6.18729892 -14.84282624 7.57499645 -17.71875 9.11328125 C-20.59375 8.80078125 -20.59375 8.80078125 -22.71875 8.11328125 C-21.46742901 4.35931827 -19.10190362 2.24554362 -15.8984375 0.10546875 C-10.710194 -2.25620482 -5.31372312 -1.73306774 0 0 Z " fill="#E6C9C9" transform="translate(264.71875,116.88671875)"/>
<path d="M0 0 C6.55804119 2.95394528 9.83971205 7.96355902 12.375 14.5625 C13.68242709 18.48478126 14.45099625 21.82828466 14 26 C11.03 26 8.06 26 5 26 C4.34 24.68 3.68 23.36 3 22 C3.66 21.34 4.32 20.68 5 20 C4.67 19.01 4.34 18.02 4 17 C3.96125079 15.33378384 3.9549714 13.66605828 4 12 C1.13275314 12.57344937 0.1385485 12.8614515 -2 15 C-2.3690205 4.44191344 -2.3690205 4.44191344 0 0 Z " fill="#A33331" transform="translate(246,34)"/>
<path d="M0 0 C11.44452444 -1.06974041 11.44452444 -1.06974041 15.1640625 1.48828125 C18.8453654 5.86776229 20.47464416 9.18560909 20 15 C18.875 16.9375 18.875 16.9375 17 18 C14.25 18.06640625 14.25 18.06640625 11 17 C8.65886212 14.57946963 6.92005472 11.83891807 5.125 9 C4.62742187 8.24976562 4.12984375 7.49953125 3.6171875 6.7265625 C0 1.22128262 0 1.22128262 0 0 Z " fill="#A6362F" transform="translate(269,59)"/>
<path d="M0 0 C5.34530235 2.43980656 6.76615607 4.31079353 10.9375 9.31640625 C1.0375 9.31640625 -8.8625 9.31640625 -19.0625 9.31640625 C-14.53181693 1.7652678 -9.18031467 -3.04271793 0 0 Z " fill="#A5352F" transform="translate(158.0625,425.68359375)"/>
<path d="M0 0 C9.82167487 0.23902306 18.86730983 3.45969741 27 9 C27 9.66 27 10.32 27 11 C22.40327255 13.62519526 18.18201789 13.76251915 13 13 C7.86292982 10.87854781 4.06117468 7.65298551 1 3 C0.67 2.01 0.34 1.02 0 0 Z " fill="#A6372F" transform="translate(191,415)"/>
<path d="M0 0 C0.66 0 1.32 0 2 0 C4.76220628 5.52441257 3.54482847 13.81116945 2.10546875 19.59375 C1.14816291 22.43522316 0.13790541 25.22635557 -1 28 C-2.65 27.67 -4.3 27.34 -6 27 C-6.66 25.02 -7.32 23.04 -8 21 C-7.34 21 -6.68 21 -6 21 C-5.87625 20.278125 -5.7525 19.55625 -5.625 18.8125 C-5.0095069 16.04278106 -4.11555626 13.6029646 -3 11 C-4.32 10.67 -5.64 10.34 -7 10 C-6.02223933 8.51990357 -5.0427506 7.04094856 -4.0625 5.5625 C-3.51722656 4.73878906 -2.97195313 3.91507813 -2.41015625 3.06640625 C-1 1 -1 1 0 0 Z " fill="#A83931" transform="translate(357,49)"/>
<path d="M0 0 C2.92806277 2.67344862 3.87955939 4.64948563 4.23828125 8.671875 C4.43050385 16.64405429 3.54002088 20.77920587 -1.625 26.9375 C-3 28 -3 28 -5 28 C-5.48384174 18.16188453 -5.06376537 10.17203268 -1 1 C-0.67 0.67 -0.34 0.34 0 0 Z " fill="#A6362F" transform="translate(89,375)"/>
<path d="M0 0 C1.92578125 0.35546875 1.92578125 0.35546875 4 1 C6.75459822 6.3642176 6.87964525 13.04706898 7 19 C6 20 6 20 4.00390625 20.1328125 C3.19824219 20.13023437 2.39257812 20.12765625 1.5625 20.125 C0.75941406 20.12757813 -0.04367187 20.13015625 -0.87109375 20.1328125 C-3 20 -3 20 -5 19 C-4.48378772 12.16018724 -2.51409031 6.36123316 0 0 Z " fill="#A43631" transform="translate(285,198)"/>
<path d="M0 0 C0.5775 0.7425 1.155 1.485 1.75 2.25 C2.86375 3.61125 2.86375 3.61125 4 5 C4.53625 5.680625 5.0725 6.36125 5.625 7.0625 C9.28990585 10.05229162 13.58060442 11.41441533 18 13 C17 15 17 15 14.4375 16.125 C10.254057 17.1898764 7.31300797 17.41738787 3 17 C0.56880377 15.12984906 -0.64069173 13.71861655 -2 11 C-2.23553948 6.76028942 -2.32845886 3.63821698 0 0 Z " fill="#A83830" transform="translate(104,404)"/>
<path d="M0 0 C6.18020426 2.65045345 11.17881486 7.49520601 15 12.9375 C17.47929682 21.03653629 15.75424899 28.53244763 11.9375 36 C10.9475 36.66 9.9575 37.32 8.9375 38 C9.41480838 36.5410574 9.89441042 35.08286504 10.375 33.625 C10.64183594 32.81289062 10.90867187 32.00078125 11.18359375 31.1640625 C11.9375 29 11.9375 29 12.9375 27 C13.77067146 20.59648225 13.14752063 15.96272479 9.35546875 10.68359375 C5.07397645 5.60005882 -0.10292335 2.60593521 -6.640625 1.60546875 C-14.07633179 1.15891094 -18.40008415 3.30229204 -24.0625 8 C-19.85234347 -1.85176628 -9.26076909 -2.79848291 0 0 Z " fill="#AE4339" transform="translate(266.0625,115)"/>
<path d="M0 0 C4.0629991 2.41953879 7.16515585 4.97108663 9.7734375 8.9921875 C9.7734375 9.6521875 9.7734375 10.3121875 9.7734375 10.9921875 C7.4609375 11.3046875 7.4609375 11.3046875 4.7734375 10.9921875 C3.2109375 8.6171875 3.2109375 8.6171875 1.7734375 5.9921875 C-1.26396199 3.62976568 -4.4951696 3.64569153 -8.2734375 3.72265625 C-11.03758882 4.10410913 -12.91176261 5.49069568 -15.2265625 6.9921875 C-18.0390625 7.1796875 -18.0390625 7.1796875 -20.2265625 6.9921875 C-15.36210648 -1.57852073 -9.40147454 -4.25540427 0 0 Z " fill="#E6C9C9" transform="translate(352.2265625,124.0078125)"/>
<path d="M0 0 C0 3.96 0 7.92 0 12 C-4.49072469 13.12268117 -9.68839387 14.15580306 -14 12 C-13.70966507 8.63792154 -13.33816676 7.31331938 -10.8203125 4.98046875 C-9.93085938 4.38878906 -9.04140625 3.79710938 -8.125 3.1875 C-7.24070312 2.58292969 -6.35640625 1.97835937 -5.4453125 1.35546875 C-3 0 -3 0 0 0 Z " fill="#A73830" transform="translate(382,121)"/>
<path d="M0 0 C2.125 0.375 2.125 0.375 4 1 C3.67 3.31 3.34 5.62 3 8 C3.66 8.33 4.32 8.66 5 9 C4.505 9.8971875 4.505 9.8971875 4 10.8125 C2.79212012 13.05386471 2.79212012 13.05386471 3 16 C1.21189234 16.69670416 -0.58062052 17.38211189 -2.375 18.0625 C-3.37273437 18.44535156 -4.37046875 18.82820313 -5.3984375 19.22265625 C-8 20 -8 20 -10 19 C-9.4225 18.4225 -8.845 17.845 -8.25 17.25 C-5.47944088 13.24808126 -4.3132915 9.28131985 -2.9296875 4.64453125 C-2 2 -2 2 0 0 Z " fill="#FBF5F3" transform="translate(247,45)"/>
<path d="M0 0 C6.1892449 0.15160975 10.71279361 1.77079375 15.16796875 6.12890625 C19.25923745 10.78381767 20.74853939 13.69724583 20.6484375 19.93359375 C19.99777605 25.74307101 17.18153213 29.92059281 12.9375 33.8125 C10.17885349 36.00633742 7.97637432 37.15673489 4.375 37.375 C4.931875 36.9625 5.48875 36.55 6.0625 36.125 C6.825625 35.5475 7.58875 34.97 8.375 34.375 C9.220625 33.7975 10.06625 33.22 10.9375 32.625 C15.59118685 28.32928906 16.56739938 23.93125818 16.875 17.8125 C16.7422695 13.93676944 16.39669132 12.4134846 14.4375 8.9375 C7.77826966 3.36549094 1.96067788 1.8298776 -6.625 2.375 C-4.17549379 -0.07450621 -3.37776979 0.05228746 0 0 Z " fill="#AB3F37" transform="translate(344.625,120.625)"/>
<path d="M0 0 C4.22244226 0 6.77972293 0.01974066 10.125 2.70703125 C12.01136911 4.75693639 13.66083325 6.55318346 15 9 C14.68359375 11.26171875 14.68359375 11.26171875 14 13 C11.8125 13.8125 11.8125 13.8125 9 14 C4.75517522 10.68696603 2.4045181 6.71997998 0 2 C0 1.34 0 0.68 0 0 Z " fill="#A6362F" transform="translate(318,64)"/>
<path d="M0 0 C1.0725 0.350625 2.145 0.70125 3.25 1.0625 C7.25435111 2.06715761 7.25435111 2.06715761 11 1 C10.1875 3.4375 10.1875 3.4375 9 6 C8.01 6.33 7.02 6.66 6 7 C6.144375 7.73863281 6.28875 8.47726563 6.4375 9.23828125 C7.71980097 16.24641222 8.25222242 22.88172277 8 30 C7.67 30 7.34 30 7 30 C6.86722656 29.08476562 6.73445313 28.16953125 6.59765625 27.2265625 C6.42105469 26.03804687 6.24445313 24.84953125 6.0625 23.625 C5.88847656 22.44164062 5.71445312 21.25828125 5.53515625 20.0390625 C5.16537214 17.09297619 5.16537214 17.09297619 4 15 C2.68 18.63 1.36 22.26 0 26 C-1.51926178 21.44221467 0.4195209 17.35427566 1.79296875 12.89257812 C2.49639732 10.52960207 2.49639732 10.52960207 3 7 C1.72922859 4.67377901 1.72922859 4.67377901 0 3 C0 2.01 0 1.02 0 0 Z " fill="#AD3E30" transform="translate(302,145)"/>
<path d="M0 0 C4.24993992 -0.05895136 8.49977216 -0.0939116 12.75 -0.125 C14.53083984 -0.15013672 14.53083984 -0.15013672 16.34765625 -0.17578125 C27.21185324 -0.23514845 37.23805657 0.73821556 47.25 5.125 C47.91128906 5.40214844 48.57257813 5.67929688 49.25390625 5.96484375 C50.84079155 6.63179554 52.4212001 7.31412791 54 8 C53.67 8.99 53.34 9.98 53 11 C52.04222656 10.60167969 51.08445313 10.20335937 50.09765625 9.79296875 C33.6006863 3.14008547 17.68439661 1.53034902 0 1 C0 0.67 0 0.34 0 0 Z " fill="#CC5A28" transform="translate(126,247)"/>
<path d="M0 0 C0.99 0 1.98 0 3 0 C22.79830919 33.48114065 22.79830919 33.48114065 22 50 C20.24796334 46.93788187 19.3521089 43.81416955 18.45361328 40.41650391 C14.89792377 27.10292218 8.96420038 15.43817109 1.25 4.0390625 C0 2 0 2 0 0 Z " fill="#BF6838" transform="translate(209,283)"/>
<path d="M0 0 C0.99 0 1.98 0 3 0 C2.39009109 3.55780196 1.4216319 6.6828589 0 10 C-0.66 10 -1.32 10 -2 10 C-2 11.32 -2 12.64 -2 14 C-3.46067199 13.54917531 -4.91848032 13.08906463 -6.375 12.625 C-7.59316406 12.24214844 -7.59316406 12.24214844 -8.8359375 11.8515625 C-11 11 -11 11 -13 9 C-12.48050781 8.76925781 -11.96101563 8.53851563 -11.42578125 8.30078125 C-6.72797798 6.10384183 -3.64754895 3.75176464 0 0 Z " fill="#FAF2EF" transform="translate(351,60)"/>
<path d="M0 0 C2.31 0.33 4.62 0.66 7 1 C7 2.65 7 4.3 7 6 C5.35 6 3.7 6 2 6 C1.67 7.65 1.34 9.3 1 11 C-0.65 10.67 -2.3 10.34 -4 10 C-4 8.02 -4 6.04 -4 4 C-3.01 3.67 -2.02 3.34 -1 3 C-0.67 2.01 -0.34 1.02 0 0 Z " fill="#5DD5B6" transform="translate(57,103)"/>
<path d="M0 0 C0.04241723 2.33294775 0.04092937 4.66702567 0 7 C-1 8 -1 8 -3.75 8.25 C-7.33357037 7.97434074 -9.09858004 7.04806115 -12 5 C-11.1875 3.0625 -11.1875 3.0625 -10 1 C-6.52674819 -0.1577506 -3.63932552 -0.06866652 0 0 Z " fill="#A83830" transform="translate(381,138)"/>
<path d="M0 0 C2.9375 2 2.9375 2 5 4 C4.67 5.32 4.34 6.64 4 8 C-1.70629354 7.57202798 -5.41078616 5.15654048 -10 2 C-6.2626144 -0.4915904 -4.42668417 -0.45793285 0 0 Z " fill="#9F3A35" transform="translate(347,283)"/>
<path d="M0 0 C5.59478742 4.61036735 7.56594635 13.51960655 8.42578125 20.4140625 C8.55749726 26.0015943 8.19881524 29.2953595 5 34 C4.34 33.67 3.68 33.34 3 33 C3.33 32.175 3.66 31.35 4 30.5 C6.37659445 22.18191941 4.27567639 15.11472899 2 7 C1.78730469 6.23300781 1.57460937 5.46601563 1.35546875 4.67578125 C0.91510385 3.11391148 0.45980352 1.55625806 0 0 Z " fill="#C36838" transform="translate(219,228)"/>
<path d="M0 0 C0.99 0.33 1.98 0.66 3 1 C3.33 3.31 3.66 5.62 4 8 C0.5647952 10.29013653 -0.985331 10.17842973 -5 10 C-4.49701212 5.59885603 -2.91227269 3.28804981 0 0 Z " fill="#A83830" transform="translate(376,106)"/>
<path d="M0 0 C-1.5625 3 -1.5625 3 -4 6 C-8.26800274 6.60971468 -11.34291105 6.34053693 -15 4 C-14 2 -14 2 -11.34765625 1.11328125 C-9.72150391 0.71689453 -9.72150391 0.71689453 -8.0625 0.3125 C-6.98097656 0.04050781 -5.89945312 -0.23148438 -4.78515625 -0.51171875 C-2 -1 -2 -1 0 0 Z " fill="#FB8F3C" transform="translate(376,160)"/>
<path d="M0 0 C2.475 0.495 2.475 0.495 5 1 C5.33 2.65 5.66 4.3 6 6 C6.61875 5.34 7.2375 4.68 7.875 4 C10 2 10 2 12 2 C12.226875 3.11375 12.45375 4.2275 12.6875 5.375 C13.5836798 9.12132612 13.5836798 9.12132612 16.375 10.25 C17.24125 10.4975 18.1075 10.745 19 11 C20.35589164 11.9691933 21.6931442 12.96563754 23 14 C21.37399059 13.9129995 19.74910322 13.8048219 18.125 13.6875 C17.22007812 13.62949219 16.31515625 13.57148438 15.3828125 13.51171875 C13 13 13 13 11 10 C11 8.68 11 7.36 11 6 C9.02 6.33 7.04 6.66 5 7 C4.9175 6.21625 4.835 5.4325 4.75 4.625 C4.27193661 1.85250896 4.27193661 1.85250896 1.9375 0.6875 C1.298125 0.460625 0.65875 0.23375 0 0 Z " fill="#D8672D" transform="translate(218,167)"/>
<path d="M0 0 C3.4777493 1.56011183 6.27224027 3.63172326 9.25 6 C10.14203125 6.70125 11.0340625 7.4025 11.953125 8.125 C12.62859375 8.74375 13.3040625 9.3625 14 10 C14 10.66 14 11.32 14 12 C7.04339229 11.42978625 0.68572695 9.98697306 -6 8 C-6 7.67 -6 7.34 -6 7 C-0.72684667 7.4452885 4.01770224 8.08373163 9 10 C6.22237877 6.39937989 3.26008643 3.16952847 0 0 Z " fill="#CB5738" transform="translate(234,151)"/>
<path d="M0 0 C4.1086034 3.56078961 5.73303276 6.80195493 6.1875 12.24609375 C6.30023769 16.53717219 6.01614264 19.17493495 4 23 C3.91435791 22.44538086 3.82871582 21.89076172 3.74047852 21.31933594 C3.34972442 18.79592464 2.95614074 16.27296253 2.5625 13.75 C2.42779297 12.87730469 2.29308594 12.00460938 2.15429688 11.10546875 C2.02216797 10.26113281 1.89003906 9.41679687 1.75390625 8.546875 C1.63345947 7.77182617 1.5130127 6.99677734 1.38891602 6.19824219 C1.01769807 4.10003354 0.54360962 2.05956248 0 0 Z " fill="#B14231" transform="translate(214,240)"/>
<path d="M0 0 C4.75 0.75 4.75 0.75 7 3 C6.625 5.125 6.625 5.125 6 7 C4.25 7.75 4.25 7.75 2 8 C-0.25 6.0625 -0.25 6.0625 -2 4 C-1.34 2.68 -0.68 1.36 0 0 Z " fill="#55D8BC" transform="translate(140,61)"/>
<path d="M0 0 C2.0625 0.4375 2.0625 0.4375 4 1 C4.33 3.31 4.66 5.62 5 8 C3.35 8.33 1.7 8.66 0 9 C-1.3950848 6.70221327 -2.07438619 5.5207033 -1.6875 2.8125 C-1 1 -1 1 0 0 Z " fill="#60D7B4" transform="translate(22,212)"/>
<path d="M0 0 C2.625 0.375 2.625 0.375 5 1 C4.25 5.75 4.25 5.75 2 8 C-0.625 7.625 -0.625 7.625 -3 7 C-2.25 2.25 -2.25 2.25 0 0 Z " fill="#5DD5B6" transform="translate(71,72)"/>
<path d="M0 0 C1.125 3.75 1.125 3.75 0 6 C-2.32156597 6.40729228 -4.6568787 6.74438677 -7 7 C-7.33 5.35 -7.66 3.7 -8 2 C-4.77208445 -0.1519437 -3.71599191 -0.20086443 0 0 Z " fill="#59D8B7" transform="translate(97,59)"/>
<path d="M0 0 C5.14764711 4.59114472 7.73360311 8.80323731 8.3125 15.75 C8 19 8 19 6 22 C5.81824219 21.05898438 5.63648438 20.11796875 5.44921875 19.1484375 C5.07216797 17.28058594 5.07216797 17.28058594 4.6875 15.375 C4.44386719 14.14523437 4.20023438 12.91546875 3.94921875 11.6484375 C3.024687 8.09488749 1.69555472 5.23912695 0 2 C0 1.34 0 0.68 0 0 Z " fill="#B24331" transform="translate(197,242)"/>
<path d="M0 0 C1 2 1 2 1 5 C1.66 4.01 2.32 3.02 3 2 C3.66 2.33 4.32 2.66 5 3 C3.1875 5.5 3.1875 5.5 1 8 C0.01 8 -0.98 8 -2 8 C-2.33 7.01 -2.66 6.02 -3 5 C-4.98 5.33 -6.96 5.66 -9 6 C-9 4.68 -9 3.36 -9 2 C-11.64 2 -14.28 2 -17 2 C-17 1.67 -17 1.34 -17 1 C-13.7 1 -10.4 1 -7 1 C-7 1.66 -7 2.32 -7 3 C-3.06924356 2.42547254 -3.06924356 2.42547254 0 0 Z " fill="#D5642B" transform="translate(343,186)"/>
<path d="M0 0 C2.0625 0.4375 2.0625 0.4375 4 1 C4.33 3.31 4.66 5.62 5 8 C3.35 8.33 1.7 8.66 0 9 C-1.3950848 6.70221327 -2.07438619 5.5207033 -1.6875 2.8125 C-1 1 -1 1 0 0 Z " fill="#5BD7B6" transform="translate(5,164)"/>
<path d="M0 0 C1.67542976 0.28604898 3.34385343 0.61781233 5 1 C4.67 3.31 4.34 5.62 4 8 C2.125 8.625 2.125 8.625 0 9 C-0.66 8.34 -1.32 7.68 -2 7 C-1.43181818 1.43181818 -1.43181818 1.43181818 0 0 Z " fill="#5DD8B5" transform="translate(57,93)"/>
<path d="M0 0 C2.4375 1.375 2.4375 1.375 3.3125 3.9375 C3.374375 5.1440625 3.374375 5.1440625 3.4375 6.375 C2.4375 7.375 2.4375 7.375 0 7.625 C-0.845625 7.5425 -1.69125 7.46 -2.5625 7.375 C-4.5625 4.375 -4.5625 4.375 -4.5625 0.375 C-2.5625 -0.625 -2.5625 -0.625 0 0 Z " fill="#5CDAB5" transform="translate(163.5625,76.625)"/>
<path d="M0 0 C4.75 0.875 4.75 0.875 7 2 C7 3.65 7 5.3 7 7 C5.25 7.6875 5.25 7.6875 3 8 C0.75 6.5625 0.75 6.5625 -1 5 C-0.67 3.35 -0.34 1.7 0 0 Z " fill="#5AD7B8" transform="translate(150,68)"/>
<path d="M0 0 C0.99 0.33 1.98 0.66 3 1 C2.41992188 1.38929688 1.83984375 1.77859375 1.2421875 2.1796875 C-4.96285972 6.6235662 -8.52834293 11.2336723 -12 18 C-13.12290334 14.61651494 -13.05836106 14.13131238 -11.5 10.625 C-8.7277116 6.12730134 -4.73846297 2.36923148 0 0 Z " fill="#AD3D31" transform="translate(325,255)"/>
<path d="M0 0 C2.125 0.375 2.125 0.375 4 1 C4 3.31 4 5.62 4 8 C2.34385343 8.38218767 0.67542976 8.71395102 -1 9 C-2 8 -2 8 -2.1875 5.0625 C-2 2 -2 2 0 0 Z " fill="#5BD6B8" transform="translate(26,250)"/>
<path d="M0 0 C0.78375 0.04125 1.5675 0.0825 2.375 0.125 C3.125 1.875 3.125 1.875 3.375 4.125 C1.6875 6.4375 1.6875 6.4375 -0.625 8.125 C-2.875 7.875 -2.875 7.875 -4.625 7.125 C-4.75 4.75 -4.75 4.75 -4.625 2.125 C-2.625 0.125 -2.625 0.125 0 0 Z " fill="#5BD8B6" transform="translate(13.625,116.875)"/>
<path d="M0 0 C2.375 -0.1875 2.375 -0.1875 5 0 C7 3 7 3 6.625 5.6875 C6.41875 6.450625 6.2125 7.21375 6 8 C3.625 7.8125 3.625 7.8125 1 7 C-0.375 4.5625 -0.375 4.5625 -1 2 C-0.67 1.34 -0.34 0.68 0 0 Z " fill="#5CD6B6" transform="translate(176,96)"/>
<path d="M0 0 C2.31 0 4.62 0 7 0 C7.38218767 1.65614657 7.71395102 3.32457024 8 5 C7 6 7 6 3.9375 6.0625 C2.968125 6.041875 1.99875 6.02125 1 6 C-0.0625 4.125 -0.0625 4.125 -1 2 C-0.67 1.34 -0.34 0.68 0 0 Z " fill="#5DD6B5" transform="translate(83,363)"/>
<path d="M0 0 C5.71428571 0.71428571 5.71428571 0.71428571 7 2 C7.04063832 3.66617115 7.042721 5.33388095 7 7 C4.69 6.67 2.38 6.34 0 6 C-0.38218767 4.34385343 -0.71395102 2.67542976 -1 1 C-0.67 0.67 -0.34 0.34 0 0 Z " fill="#5FD7B5" transform="translate(47,352)"/>
<path d="M0 0 C2.0625 0.4375 2.0625 0.4375 4 1 C4.33 3.31 4.66 5.62 5 8 C3.68 8.33 2.36 8.66 1 9 C-0.5625 7.25 -0.5625 7.25 -2 5 C-1.75203633 2.83031791 -1.55766393 1.55766393 0 0 Z " fill="#5ED6B6" transform="translate(14,188)"/>
<path d="M0 0 C1.32 0.33 2.64 0.66 4 1 C4.33 3.31 4.66 5.62 5 8 C3.68 8.33 2.36 8.66 1 9 C-0.625 6.75 -0.625 6.75 -2 4 C-1.1875 1.6875 -1.1875 1.6875 0 0 Z " fill="#5BD6B7" transform="translate(9,176)"/>
<path d="M0 0 C5.875 0.875 5.875 0.875 7 2 C7.04063832 3.66617115 7.042721 5.33388095 7 7 C5.25 7.75 5.25 7.75 3 8 C0.6875 6.3125 0.6875 6.3125 -1 4 C-0.75 1.75 -0.75 1.75 0 0 Z " fill="#59D8B9" transform="translate(448,136)"/>
<path d="M0 0 C0.763125 0.20625 1.52625 0.4125 2.3125 0.625 C1.9825 2.275 1.6525 3.925 1.3125 5.625 C-0.9975 5.955 -3.3075 6.285 -5.6875 6.625 C-5.875 4.25 -5.875 4.25 -5.6875 1.625 C-2.6875 -0.375 -2.6875 -0.375 0 0 Z " fill="#5CD7B7" transform="translate(77.6875,129.375)"/>
<path d="M0 0 C4.75 0.75 4.75 0.75 7 3 C7 4.32 7 5.64 7 7 C5.25 7.6875 5.25 7.6875 3 8 C0.75 6.5625 0.75 6.5625 -1 5 C-0.67 3.35 -0.34 1.7 0 0 Z " fill="#5CD6B7" transform="translate(61,129)"/>
<path d="M0 0 C3.29714793 0.32971479 4.6226839 0.6226839 7 3 C6.625 5.125 6.625 5.125 6 7 C3.69 6.67 1.38 6.34 -1 6 C-1.625 4.125 -1.625 4.125 -2 2 C-1.34 1.34 -0.68 0.68 0 0 Z " fill="#5ED6B6" transform="translate(427,123)"/>
<path d="M0 0 C3.125 0.375 3.125 0.375 6 1 C6.625 2.875 6.625 2.875 7 5 C6.34 5.66 5.68 6.32 5 7 C1.875 6.625 1.875 6.625 -1 6 C-1.625 4.125 -1.625 4.125 -2 2 C-1.34 1.34 -0.68 0.68 0 0 Z " fill="#5BD6B8" transform="translate(415,119)"/>
<path d="M0 0 C1.4540625 0.0309375 1.4540625 0.0309375 2.9375 0.0625 C3.125 2.4375 3.125 2.4375 2.9375 5.0625 C-0.0625 7.0625 -0.0625 7.0625 -2.75 6.6875 C-3.513125 6.48125 -4.27625 6.275 -5.0625 6.0625 C-3.98897059 0.08140756 -3.98897059 0.08140756 0 0 Z " fill="#5DD6B5" transform="translate(83.0625,64.9375)"/>
<path d="M0 0 C1.134375 0.020625 2.26875 0.04125 3.4375 0.0625 C4.0625 1.9375 4.0625 1.9375 4.4375 4.0625 C2.4375 6.0625 2.4375 6.0625 -0.6875 6.1875 C-2.110625 6.125625 -2.110625 6.125625 -3.5625 6.0625 C-3.94468767 4.40635343 -4.27645102 2.73792976 -4.5625 1.0625 C-3.5625 0.0625 -3.5625 0.0625 0 0 Z " fill="#5CD7B7" transform="translate(118.5625,54.9375)"/>
<path d="M0 0 C2.31 0.33 4.62 0.66 7 1 C7 2.65 7 4.3 7 6 C4.39417629 6.93065133 3.35801776 7.14917407 0.75 6.0625 C0.1725 5.711875 -0.405 5.36125 -1 5 C-0.67 3.35 -0.34 1.7 0 0 Z " fill="#5DD5B6" transform="translate(71,361)"/>
<path d="M0 0 C2.84326464 -0.23053497 4.46145349 -0.35903101 6.875 1.25 C8 3 8 3 7.6875 5.1875 C7.460625 5.785625 7.23375 6.38375 7 7 C4.625 7.125 4.625 7.125 2 7 C0 5 0 5 -0.125 2.375 C-0.08375 1.59125 -0.0425 0.8075 0 0 Z " fill="#5BD6B7" transform="translate(36,345)"/>
<path d="M0 0 C1.67542976 0.28604898 3.34385343 0.61781233 5 1 C6.125 5.75 6.125 5.75 5 8 C3.35 8 1.7 8 0 8 C-0.38063221 5.6739143 -0.71269945 3.33944736 -1 1 C-0.67 0.67 -0.34 0.34 0 0 Z " fill="#5BD8B7" transform="translate(17,313)"/>
<path d="M0 0 C0.125 2.875 0.125 2.875 0 6 C-0.66 6.66 -1.32 7.32 -2 8 C-4.125 7.625 -4.125 7.625 -6 7 C-6 4.69 -6 2.38 -6 0 C-3.50907189 -1.24546405 -2.58919267 -0.7767578 0 0 Z " fill="#5DD5B6" transform="translate(21,288)"/>
<path d="M0 0 C1.65 0.33 3.3 0.66 5 1 C4.67 2.98 4.34 4.96 4 7 C2.35 7.33 0.7 7.66 -1 8 C-1.625 5.6875 -1.625 5.6875 -2 3 C-1.34 2.01 -0.68 1.02 0 0 Z " fill="#5ED6B6" transform="translate(19,275)"/>
<path d="M0 0 C1.65 0.33 3.3 0.66 5 1 C4.67 2.98 4.34 4.96 4 7 C2.35 7.33 0.7 7.66 -1 8 C-1.625 5.6875 -1.625 5.6875 -2 3 C-1.34 2.01 -0.68 1.02 0 0 Z " fill="#5DD7B5" transform="translate(23,263)"/>
<path d="M0 0 C1.65 0.33 3.3 0.66 5 1 C4.67 2.98 4.34 4.96 4 7 C2.35 7.33 0.7 7.66 -1 8 C-1.625 5.6875 -1.625 5.6875 -2 3 C-1.34 2.01 -0.68 1.02 0 0 Z " fill="#5ED6B4" transform="translate(477,241)"/>
<path d="M0 0 C0.125 2.875 0.125 2.875 0 6 C-0.66 6.66 -1.32 7.32 -2 8 C-4.125 7.625 -4.125 7.625 -6 7 C-6 4.69 -6 2.38 -6 0 C-3.50907189 -1.24546405 -2.58919267 -0.7767578 0 0 Z " fill="#5BD7B7" transform="translate(485,229)"/>
<path d="M0 0 C1.67542976 0.28604898 3.34385343 0.61781233 5 1 C6.125 5.75 6.125 5.75 5 8 C3.35 8 1.7 8 0 8 C-0.38063221 5.6739143 -0.71269945 3.33944736 -1 1 C-0.67 0.67 -0.34 0.34 0 0 Z " fill="#5DD6B5" transform="translate(24,225)"/>
<path d="M0 0 C1.67542976 0.28604898 3.34385343 0.61781233 5 1 C5 2.98 5 4.96 5 7 C3.02 7.99 3.02 7.99 1 9 C-1 7 -1 7 -1.1875 3.9375 C-1 1 -1 1 0 0 Z " fill="#5CD7B5" transform="translate(481,203)"/>
<path d="M0 0 C1.9375 0.125 1.9375 0.125 4 1 C5.25 3.5625 5.25 3.5625 6 6 C5.01 6.99 4.02 7.98 3 9 C1.68 8.34 0.36 7.68 -1 7 C-1.04254356 5.00045254 -1.04080783 2.99958364 -1 1 C-0.67 0.67 -0.34 0.34 0 0 Z " fill="#57D8BA" transform="translate(18,200)"/>
<path d="M0 0 C0 2.31 0 4.62 0 7 C-1.875 7.625 -1.875 7.625 -4 8 C-6 6 -6 6 -6.125 2.875 C-6.08375 1.92625 -6.0425 0.9775 -6 0 C-3.50907189 -1.24546405 -2.58919267 -0.7767578 0 0 Z " fill="#5CD6B7" transform="translate(484,191)"/>
<path d="M0 0 C1.67542976 0.28604898 3.34385343 0.61781233 5 1 C6.125 5.75 6.125 5.75 5 8 C3.35 8 1.7 8 0 8 C-0.38063221 5.6739143 -0.71269945 3.33944736 -1 1 C-0.67 0.67 -0.34 0.34 0 0 Z " fill="#5ED6B4" transform="translate(476,178)"/>
<path d="M0 0 C2.375 0.1875 2.375 0.1875 5 1 C6.375 3.4375 6.375 3.4375 7 6 C6.67 6.66 6.34 7.32 6 8 C3.625 7.8125 3.625 7.8125 1 7 C-0.375 4.5625 -0.375 4.5625 -1 2 C-0.67 1.34 -0.34 0.68 0 0 Z " fill="#5DD5B6" transform="translate(465,155)"/>
<path d="M0 0 C1.65 0.33 3.3 0.66 5 1 C5.38133299 2.9914056 5.71325582 4.99279077 6 7 C5 8 5 8 2.4375 8.0625 C1.633125 8.041875 0.82875 8.02125 0 8 C-1.125 2.25 -1.125 2.25 0 0 Z " fill="#5DD5B5" transform="translate(1,152)"/>
<path d="M0 0 C3.69230769 0.69230769 3.69230769 0.69230769 5 2 C5.1875 4.4375 5.1875 4.4375 5 7 C4.34 7.66 3.68 8.32 3 9 C0.875 8.625 0.875 8.625 -1 8 C-1.04241723 5.66705225 -1.04092937 3.33297433 -1 1 C-0.67 0.67 -0.34 0.34 0 0 Z " fill="#5ED7B4" transform="translate(1,139)"/>
<path d="M0 0 C2.97 0.495 2.97 0.495 6 1 C6.33 2.65 6.66 4.3 7 6 C4.6875 6.625 4.6875 6.625 2 7 C1.01 6.34 0.02 5.68 -1 5 C-0.67 3.35 -0.34 1.7 0 0 Z " fill="#5ED5B5" transform="translate(438,129)"/>
<path d="M0 0 C1.65 0.33 3.3 0.66 5 1 C4.67 2.98 4.34 4.96 4 7 C2.35 7.33 0.7 7.66 -1 8 C-1.625 5.6875 -1.625 5.6875 -2 3 C-1.34 2.01 -0.68 1.02 0 0 Z " fill="#5ED5B5" transform="translate(4,127)"/>
<path d="M0 0 C3.69230769 0.69230769 3.69230769 0.69230769 5 2 C5.04080783 3.99958364 5.04254356 6.00045254 5 8 C3.125 8.625 3.125 8.625 1 9 C-1 7 -1 7 -1.1875 3.9375 C-1 1 -1 1 0 0 Z " fill="#5ED6B5" transform="translate(55,118)"/>
<path d="M0 0 C0.763125 0.20625 1.52625 0.4125 2.3125 0.625 C1.9825 2.275 1.6525 3.925 1.3125 5.625 C-0.6675 5.955 -2.6475 6.285 -4.6875 6.625 C-5.0175 4.975 -5.3475 3.325 -5.6875 1.625 C-2.6875 -0.375 -2.6875 -0.375 0 0 Z " fill="#5ED6B6" transform="translate(24.6875,110.375)"/>
<path d="M0 0 C2.4375 1.3125 2.4375 1.3125 3.375 3.3125 C3.395625 3.9725 3.41625 4.6325 3.4375 5.3125 C2.7775 5.9725 2.1175 6.6325 1.4375 7.3125 C-3.11805556 6.75694444 -3.11805556 6.75694444 -4.5625 5.3125 C-4.60313832 3.64632885 -4.605221 1.97861905 -4.5625 0.3125 C-2.5625 -0.6875 -2.5625 -0.6875 0 0 Z " fill="#5AD6B7" transform="translate(72.5625,107.6875)"/>
<path d="M0 0 C0.763125 0.20625 1.52625 0.4125 2.3125 0.625 C1.9825 2.275 1.6525 3.925 1.3125 5.625 C-0.6675 5.955 -2.6475 6.285 -4.6875 6.625 C-5.0175 4.975 -5.3475 3.325 -5.6875 1.625 C-2.6875 -0.375 -2.6875 -0.375 0 0 Z " fill="#5DD6B6" transform="translate(36.6875,105.375)"/>
<path d="M0 0 C1.134375 0.020625 2.26875 0.04125 3.4375 0.0625 C3.7675 1.0525 4.0975 2.0425 4.4375 3.0625 C3.4475 4.5475 3.4475 4.5475 2.4375 6.0625 C-0.6875 6.25 -0.6875 6.25 -3.5625 6.0625 C-3.94468767 4.40635343 -4.27645102 2.73792976 -4.5625 1.0625 C-3.5625 0.0625 -3.5625 0.0625 0 0 Z " fill="#5CD7B7" transform="translate(47.5625,102.9375)"/>
<path d="M0 0 C2.375 -0.125 2.375 -0.125 5 0 C7 2 7 2 7.125 4.625 C7.08375 5.40875 7.0425 6.1925 7 7 C5.1875 7.6875 5.1875 7.6875 3 8 C1.25 6.875 1.25 6.875 0 5 C-0.1875 2.3125 -0.1875 2.3125 0 0 Z " fill="#5ED7B5" transform="translate(168,86)"/>
<path d="M0 0 C0.6875 1.75 0.6875 1.75 1 4 C-0.1875 6.25 -0.1875 6.25 -2 8 C-3.32 8 -4.64 8 -6 8 C-6.6875 6.25 -6.6875 6.25 -7 4 C-4.96738407 0.1487277 -4.56536841 0 0 0 Z " fill="#5DD5B5" transform="translate(67,82)"/>
<path d="M0 0 C2.31 0 4.62 0 7 0 C7.625 1.875 7.625 1.875 8 4 C6 6 6 6 2.875 6.125 C1.451875 6.063125 1.451875 6.063125 0 6 C-1.125 2.25 -1.125 2.25 0 0 Z " fill="#5ED7B4" transform="translate(102,56)"/>
<path d="M0 0 C4.875 0.875 4.875 0.875 6 2 C6.04063832 3.66617115 6.042721 5.33388095 6 7 C4.35 7.33 2.7 7.66 1 8 C-0.42944945 5.64561267 -1.08661261 4.51967567 -0.625 1.75 C-0.41875 1.1725 -0.2125 0.595 0 0 Z " fill="#5DD5B6" transform="translate(21,325)"/>
<path d="M0 0 C0.33 0.66 0.66 1.32 1 2 C0.34 2 -0.32 2 -1 2 C-1.268125 2.721875 -1.53625 3.44375 -1.8125 4.1875 C-3 7 -3 7 -4.5 9.3125 C-6.45129989 12.80857896 -7.13937119 16.09406923 -8 20 C-8.33 20 -8.66 20 -9 20 C-9.54241113 13.35546361 -8.94958619 9.44402421 -5 4 C-2.25 1.5625 -2.25 1.5625 0 0 Z " fill="#AE3E31" transform="translate(337,262)"/>
<path d="M0 0 C1.2065625 0.0309375 1.2065625 0.0309375 2.4375 0.0625 C2.4375 2.3725 2.4375 4.6825 2.4375 7.0625 C0.78135343 7.44468767 -0.88707024 7.77645102 -2.5625 8.0625 C-3.5625 7.0625 -3.5625 7.0625 -3.6875 4.0625 C-3.52180824 0.08589776 -3.52180824 0.08589776 0 0 Z " fill="#5BD6B7" transform="translate(483.5625,215.9375)"/>
<path d="M0 0 C3.53571429 0.53571429 3.53571429 0.53571429 5 2 C5.04080783 3.99958364 5.04254356 6.00045254 5 8 C3.35 8 1.7 8 0 8 C-0.66 6.02 -1.32 4.04 -2 2 C-1.34 1.34 -0.68 0.68 0 0 Z " fill="#5ED7B5" transform="translate(472,166)"/>
<path d="M0 0 C2.375 -0.125 2.375 -0.125 5 0 C7 2 7 2 7.125 4.625 C7.08375 5.40875 7.0425 6.1925 7 7 C5.1875 7.6875 5.1875 7.6875 3 8 C1.25 6.875 1.25 6.875 0 5 C-0.1875 2.3125 -0.1875 2.3125 0 0 Z " fill="#5ED6B6" transform="translate(457,145)"/>
<path d="M0 0 C1.32 0 2.64 0 4 0 C5.35439668 2.70879335 5.06501451 5.00933268 5 8 C4.01 8.33 3.02 8.66 2 9 C1.01 8.34 0.02 7.68 -1 7 C-1.25 3.9375 -1.25 3.9375 -1 1 C-0.67 0.67 -0.34 0.34 0 0 Z " fill="#5BD8B6" transform="translate(77,117)"/>
<path d="M0 0 C0.94875 0.350625 1.8975 0.70125 2.875 1.0625 C2.545 2.7125 2.215 4.3625 1.875 6.0625 C-0.435 5.7325 -2.745 5.4025 -5.125 5.0625 C-5.125 3.4125 -5.125 1.7625 -5.125 0.0625 C-3.125 -0.9375 -3.125 -0.9375 0 0 Z " fill="#5BD6B7" transform="translate(406.125,116.9375)"/>
<path d="M0 0 C5.75 -0.125 5.75 -0.125 8 1 C8 2.65 8 4.3 8 6 C5.66705225 6.04241723 3.33297433 6.04092937 1 6 C0 5 0 5 -0.0625 2.4375 C-0.041875 1.633125 -0.02125 0.82875 0 0 Z " fill="#59D7B9" transform="translate(127,57)"/>
<path d="M0 0 C0.94875 0.350625 1.8975 0.70125 2.875 1.0625 C2.545 2.7125 2.215 4.3625 1.875 6.0625 C-0.435 5.7325 -2.745 5.4025 -5.125 5.0625 C-5.125 3.4125 -5.125 1.7625 -5.125 0.0625 C-3.125 -0.9375 -3.125 -0.9375 0 0 Z " fill="#5FD6B4" transform="translate(63.125,357.9375)"/>
<path d="M0 0 C2.375 -0.125 2.375 -0.125 5 0 C7 2 7 2 7.125 4.625 C7.08375 5.40875 7.0425 6.1925 7 7 C6.01 7.33 5.02 7.66 4 8 C1.8125 6.875 1.8125 6.875 0 5 C-0.25 2.3125 -0.25 2.3125 0 0 Z " fill="#5FD6B5" transform="translate(27,336)"/>
<path d="M0 0 C1.65 0.33 3.3 0.66 5 1 C5 3.31 5 5.62 5 8 C4.01 8.33 3.02 8.66 2 9 C0.4375 7.875 0.4375 7.875 -1 6 C-0.6875 2.8125 -0.6875 2.8125 0 0 Z " fill="#5ED6B4" transform="translate(15,300)"/>
<path d="M0 0 C0.99 0.33 1.98 0.66 3 1 C4.125 6.75 4.125 6.75 3 9 C1.35 8.67 -0.3 8.34 -2 8 C-2 5.69 -2 3.38 -2 1 C-1.34 0.67 -0.68 0.34 0 0 Z " fill="#5ED6B5" transform="translate(27,237)"/>
<path d="M0 0 C1.62974564 0.76074843 3.25366648 1.53398433 4.875 2.3125 C5.77992188 2.74175781 6.68484375 3.17101562 7.6171875 3.61328125 C10 5 10 5 12 8 C6.06 7.01 6.06 7.01 0 6 C0 4.02 0 2.04 0 0 Z " fill="#F7BC87" transform="translate(292,211)"/>
<path d="M0 0 C0.33 0 0.66 0 1 0 C1.95062122 4.55678218 2.71121096 8.51135364 0.4375 12.75 C-2.43898937 17.01513941 -5.82122496 20.38425923 -10.875 21.8125 C-11.57625 21.874375 -12.2775 21.93625 -13 22 C-12.443125 21.5875 -11.88625 21.175 -11.3125 20.75 C-10.549375 20.1725 -9.78625 19.595 -9 19 C-8.154375 18.4225 -7.30875 17.845 -6.4375 17.25 C-1.32269789 12.5286442 -0.57901287 6.60074677 0 0 Z " fill="#B2524B" transform="translate(362,136)"/>
<path d="M0 0 C0.81404297 0.61488281 0.81404297 0.61488281 1.64453125 1.2421875 C2.35996094 1.78101563 3.07539063 2.31984375 3.8125 2.875 C4.52019531 3.40867188 5.22789062 3.94234375 5.95703125 4.4921875 C7.60456297 5.70814781 9.29624211 6.86416141 11 8 C11 8.99 11 9.98 11 11 C6.3861433 9.50728166 3.50540458 7.26639972 0 4 C-0.33 3.01 -0.66 2.02 -1 1 C-0.67 0.67 -0.34 0.34 0 0 Z " fill="#CE5B28" transform="translate(150,219)"/>
<path d="M0 0 C7.22124213 0.41830366 14.04567778 0.95461111 21 3 C20.67 3.66 20.34 4.32 20 5 C17.41515574 4.54915507 14.8323671 4.08964737 12.25 3.625 C11.52039063 3.49867188 10.79078125 3.37234375 10.0390625 3.2421875 C6.4061572 2.58165926 3.1812995 1.92552338 0 0 Z " fill="#B64531" transform="translate(359,165)"/>
<path d="M0 0 C2 1.5625 2 1.5625 3 3 C-0.07521683 4.53760842 -2.34675118 3.36599236 -5.625 2.5625 C-6.81351563 2.27503906 -8.00203125 1.98757812 -9.2265625 1.69140625 C-10.14179688 1.46324219 -11.05703125 1.23507813 -12 1 C-7.79054872 -1.43903329 -4.61829306 -1.23546693 0 0 Z " fill="#D36430" transform="translate(165,249)"/>
<path d="M0 0 C4.35970831 1.34849837 8.31341438 3.04907846 12.375 5.125 C13.43460937 5.66382813 14.49421875 6.20265625 15.5859375 6.7578125 C16.38257813 7.16773438 17.17921875 7.57765625 18 8 C16 9 16 9 14.08203125 8.36328125 C9.23853722 6.12076852 4.58639245 3.73231891 0 1 C0 0.67 0 0.34 0 0 Z " fill="#AC392F" transform="translate(358,168)"/>
<path d="M0 0 C2.64 0.33 5.28 0.66 8 1 C7.34 2.32 6.68 3.64 6 5 C4.02 4.34 2.04 3.68 0 3 C0 2.01 0 1.02 0 0 Z " fill="#FB8D3E" transform="translate(362,167)"/>
<path d="M0 0 C2.65664779 0.15180845 4.45217862 0.52011425 6.48046875 2.296875 C7.875 3.875 7.875 3.875 10 7 C9.67 7.99 9.34 8.98 9 10 C8.60167969 9.52949219 8.20335937 9.05898438 7.79296875 8.57421875 C7.26316406 7.95160156 6.73335938 7.32898438 6.1875 6.6875 C5.66542969 6.07261719 5.14335937 5.45773437 4.60546875 4.82421875 C3.12827531 3.14575321 1.59960869 1.56117966 0 0 Z " fill="#AC3D31" transform="translate(261,333)"/>
<path d="M0 0 C5.01113235 1.4317521 6.94469549 3.98445693 10 8 C6.45595664 8 5.89732095 7.39010515 3.3125 5.125 C2.68988281 4.59132813 2.06726563 4.05765625 1.42578125 3.5078125 C0 2 0 2 0 0 Z " fill="#A63A36" transform="translate(268,117)"/>
<path d="M0 0 C0.33 0.99 0.66 1.98 1 3 C-1.31 5.31 -3.62 7.62 -6 10 C-6 6.41087588 -5.33563446 5.89142971 -3 3.3125 C-2.443125 2.68988281 -1.88625 2.06726563 -1.3125 1.42578125 C-0.879375 0.95527344 -0.44625 0.48476562 0 0 Z " fill="#BB4C30" transform="translate(98,156)"/>
<path d="M0 0 C-2.68841859 2.25245881 -4.64641875 3.88213958 -8 5 C-8 4.01 -8 3.02 -8 2 C-3.71900826 -1.23966942 -3.71900826 -1.23966942 0 0 Z " fill="#C45C2D" transform="translate(224,263)"/>
<path d="M0 0 C0.66 0.33 1.32 0.66 2 1 C-0.31 3.31 -2.62 5.62 -5 8 C-5.33 7.01 -5.66 6.02 -6 5 C-4.02 3.35 -2.04 1.7 0 0 Z " fill="#B9492F" transform="translate(118,136)"/>
</svg>
