<svg width="187" height="242" viewBox="0 0 187 242" fill="none" xmlns="http://www.w3.org/2000/svg">
<path d="M1.07234 96.1645L-45.1858 172.118C-30.0993 179.664 -15.3499 184.175 -1.13686 186.3C10.4649 188.061 21.756 188.218 32.5397 187.144C47.1468 185.726 60.9054 182.067 73.6558 177.114C84.0715 173.091 93.817 168.169 102.769 162.853C131.294 145.925 151.616 125.066 159.808 116.13C179.681 94.487 164.083 84.1924 164.083 84.1924C170.835 60.8458 144.905 53.2515 144.905 53.2515C124.603 24.1684 99.2649 55.7839 66.2481 75.6387C33.2031 95.5216 1.07234 96.1645 1.07234 96.1645Z" fill="#FFC77D"/>
<path d="M137.524 77.8325C142.249 83.4674 145.003 90.8623 144.474 98.195C144.279 100.879 143.64 103.575 142.238 105.869C139.104 111.006 132.117 113.313 126.463 111.249C120.815 109.186 116.981 103.103 117.339 97.0953C117.434 95.5309 117.776 93.9381 117.406 92.4163C112.991 91.6796 108.721 89.6373 105.722 86.3166C102.718 82.996 101.099 78.3379 101.856 73.9256C102.912 67.7546 108.736 63.6903 114.844 64.1275C123.595 64.7568 132.094 71.3596 137.524 77.8325Z" fill="#FFE0C5"/>
<path d="M-0.694806 168.268C-3.22005 173.889 -2.79323 180.32 -1.12876 186.301C10.473 188.062 21.7613 188.222 32.545 187.148C31.5285 178.553 28.3487 170.379 22.3905 164.205C20.5631 162.268 18.3728 160.531 15.8428 159.691C9.38116 157.558 2.08041 162.059 -0.694806 168.268Z" fill="#9A7279"/>
<path d="M164.4 96.1413C164.508 98.6622 162.974 101.257 160.594 102.086C159 102.636 157.244 102.396 155.592 102.04C154.275 101.754 152.935 101.389 151.835 100.61C150.731 99.8288 149.894 98.5549 149.969 97.2071C150.025 96.1942 150.565 95.2822 151.135 94.4461C152.855 91.9295 156.307 88.2805 159.808 89.3021C162.324 90.0373 164.294 93.7301 164.4 96.1413Z" fill="#FFE0C5"/>
<path d="M156.345 75.9604C155.363 76.8924 154.329 77.7879 153.125 78.4078C149.418 80.3125 144.369 78.9545 142.116 75.4504C141.479 74.4549 141.042 73.2707 141.185 72.0973C141.356 70.7101 142.286 69.5474 143.256 68.5478C145.738 65.9884 150.334 63.3065 153.926 65.3296C157.365 67.2684 159.387 73.0657 156.345 75.9604Z" fill="#FFE0C5"/>
<path d="M133.621 58.4131C132.283 59.7759 130.294 60.2191 128.42 60.5975C127.073 60.8714 125.587 61.1257 124.394 60.4401C123.327 59.8303 122.763 58.5928 122.577 57.3775C121.943 53.2138 124.56 45.874 129.871 47.3191C134.202 48.5004 137.068 54.9048 133.621 58.4131Z" fill="#FFE0C5"/>
<path d="M65.427 144.31C63.913 147.679 64.3351 151.587 65.0975 155.21C66.676 162.904 69.6048 170.316 73.653 177.108C84.0688 173.085 93.8142 168.162 102.769 162.849C101.194 159.702 99.4498 156.673 97.5934 153.695C94.6722 149.035 91.4078 144.375 86.8812 141.205C83.5116 138.847 79.3548 137.389 75.2529 137.786C71.1228 138.155 67.1377 140.575 65.427 144.31Z" fill="#9A7279"/>
</svg>
