<svg width="24" height="24" viewBox="0 0 24 24" fill="none" xmlns="http://www.w3.org/2000/svg">
<path opacity="0.5" fill-rule="evenodd" clip-rule="evenodd" d="M14.2788 2.15419C13.9085 2.00195 13.439 2.00195 12.5 2.00195C11.561 2.00195 11.0915 2.00195 10.7212 2.15419C10.2274 2.35718 9.83509 2.74653 9.63056 3.23658C9.53719 3.46029 9.50065 3.72045 9.48635 4.09994C9.46534 4.65763 9.17716 5.17384 8.69017 5.45288C8.20318 5.73191 7.60864 5.72149 7.11149 5.46071C6.77318 5.28325 6.52789 5.18457 6.28599 5.15297C5.75609 5.08373 5.22018 5.22624 4.79616 5.54915C4.47814 5.79133 4.24339 6.19485 3.7739 7.00188C3.30441 7.80892 3.06967 8.21243 3.01735 8.60686C2.94758 9.13275 3.09118 9.66461 3.41655 10.0855C3.56506 10.2776 3.77377 10.439 4.0977 10.641C4.57391 10.938 4.88032 11.4439 4.88029 12.002C4.88026 12.5601 4.57386 13.0659 4.0977 13.3628C3.77372 13.5649 3.56497 13.7264 3.41645 13.9185C3.09108 14.3393 2.94749 14.8711 3.01725 15.397C3.06957 15.7914 3.30432 16.195 3.7738 17.002C4.24329 17.809 4.47804 18.2126 4.79606 18.4547C5.22008 18.7776 5.75599 18.9201 6.28589 18.8509C6.52778 18.8193 6.77305 18.7206 7.11133 18.5432C7.60852 18.2824 8.2031 18.272 8.69012 18.551C9.17714 18.8301 9.46533 19.3463 9.48635 19.9041C9.50065 20.2835 9.53719 20.5437 9.63056 20.7674C9.83509 21.2574 10.2274 21.6468 10.7212 21.8498C11.0915 22.002 11.561 22.002 12.5 22.002C13.439 22.002 13.9085 22.002 14.2788 21.8498C14.7726 21.6468 15.1649 21.2574 15.3694 20.7674C15.4628 20.5437 15.4994 20.2835 15.5137 19.904C15.5347 19.3463 15.8228 18.8301 16.3098 18.551C16.7968 18.2719 17.3914 18.2824 17.8886 18.5432C18.2269 18.7206 18.4721 18.8192 18.714 18.8508C19.2439 18.9201 19.7798 18.7776 20.2038 18.4547C20.5219 18.2125 20.7566 17.809 21.2261 17.0019C21.6956 16.1949 21.9303 15.7914 21.9827 15.397C22.0524 14.8711 21.9088 14.3392 21.5835 13.9184C21.4349 13.7263 21.2262 13.5648 20.9022 13.3628C20.4261 13.0659 20.1197 12.56 20.1197 12.0019C20.1197 11.4438 20.4261 10.9381 20.9022 10.6412C21.2263 10.4391 21.435 10.2777 21.5836 10.0855C21.9089 9.66468 22.0525 9.13282 21.9828 8.60692C21.9304 8.2125 21.6957 7.80898 21.2262 7.00195C20.7567 6.19492 20.522 5.7914 20.2039 5.54922C19.7799 5.22631 19.244 5.0838 18.7141 5.15304C18.4722 5.18464 18.2269 5.28331 17.8887 5.46075C17.3915 5.72154 16.7969 5.73197 16.3099 5.45291C15.8229 5.17386 15.5347 4.65761 15.5136 4.09989C15.4993 3.72043 15.4628 3.46028 15.3694 3.23658C15.1649 2.74653 14.7726 2.35718 14.2788 2.15419Z" fill="#EA5D80"/>
<path d="M15.529 12C15.529 13.6569 14.1757 15 12.5062 15C10.8367 15 9.4834 13.6569 9.4834 12C9.4834 10.3431 10.8367 9 12.5062 9C14.1757 9 15.529 10.3431 15.529 12Z" fill="#EA5D80"/>
</svg>
