<svg width="50" height="50" viewBox="0 0 50 50" fill="none" xmlns="http://www.w3.org/2000/svg">
<circle cx="25" cy="25" r="25" fill="#EA5D80"/>
<path d="M21.107 36.0008C20.6555 36.0014 20.2097 35.9001 19.8029 35.7045C19.396 35.5088 19.0385 35.2238 18.7571 34.8708L12.1672 26.621C12.0285 26.4123 11.9732 26.1592 12.0122 25.9118C12.0512 25.6643 12.1816 25.4405 12.3778 25.2846C12.5739 25.1287 12.8214 25.0521 13.0712 25.07C13.3211 25.0878 13.5552 25.1988 13.7272 25.381L20.317 33.6208C20.4142 33.7476 20.5403 33.8492 20.6848 33.9173C20.8293 33.9853 20.9879 34.0177 21.1475 34.0118C21.3071 34.006 21.463 33.962 21.6021 33.8835C21.7412 33.805 21.8594 33.6944 21.947 33.5608L36.1167 12.4412C36.1903 12.3322 36.2846 12.2388 36.3942 12.1662C36.5039 12.0937 36.6267 12.0434 36.7558 12.0184C36.8849 11.9933 37.0176 11.9939 37.1465 12.0201C37.2753 12.0464 37.3977 12.0977 37.5067 12.1712C37.6157 12.2448 37.7091 12.3391 37.7817 12.4487C37.8543 12.5584 37.9045 12.6812 37.9296 12.8103C37.9546 12.9394 37.9541 13.0721 37.9278 13.201C37.9016 13.3298 37.8502 13.4522 37.7767 13.5612L23.617 34.6708C23.3535 35.0647 23.0005 35.3906 22.5868 35.6218C22.1731 35.8529 21.7106 35.9828 21.237 36.0008H21.107Z" fill="white"/>
</svg>
