<svg width="372" height="301" viewBox="0 0 372 301" fill="none" xmlns="http://www.w3.org/2000/svg">
<path d="M146.059 76.1237C150.363 82.4256 152.424 76.4043 151.97 72.2506" stroke="#9A7279" stroke-width="0.735594" stroke-linecap="round"/>
<path d="M157.985 75.9402C153.408 82.1854 151.615 76.0419 152.252 71.8575" stroke="#9A7279" stroke-width="0.735594" stroke-linecap="round"/>
<path d="M342.473 192.095C340.639 193.586 338.805 195.075 336.95 196.546C336.078 197.241 335.205 197.935 334.333 198.629C334.333 198.629 334.323 198.629 334.323 198.638C334.144 198.767 333.966 198.906 333.797 199.054C333.748 199.091 333.709 199.12 333.659 199.165C333.659 199.165 333.649 199.165 333.649 199.175C332.419 200.128 331.19 201.09 329.96 202.052C324.289 206.486 305.064 219.626 292.413 227.677C291.877 228.01 291.352 228.344 290.846 228.667C285.482 232.044 281.585 234.303 280.931 234.219C269.082 232.757 234.271 219.848 223.335 216.184C214.828 213.334 206.202 210.567 197.973 207.041C196.892 206.578 194.443 205.894 193.858 204.792C191.975 201.285 217.813 187.487 217.813 187.487L326.48 171.024C326.48 171.024 339.181 170.58 343.415 177.391C347.649 184.193 342.473 192.095 342.473 192.095Z" fill="#EA5D80"/>
<path d="M339.731 187.089C339.791 190.745 338.363 194.168 336.955 196.547C336.082 197.241 335.21 197.935 334.337 198.629C335.706 197.083 339.404 191.504 338.64 185.682C337.917 180.176 333.475 175.947 325.434 173.135L325.781 172.274C337.193 176.262 339.672 182.536 339.731 187.089Z" fill="#FFBF6D"/>
<path d="M292.419 227.678C291.883 228.011 291.358 228.344 290.853 228.668C292.291 225.984 292.816 223.337 292.439 220.728C291.121 211.733 279.332 206.2 279.212 206.144L279.659 205.311C280.165 205.542 292.033 211.122 293.421 220.599C293.768 222.94 293.431 225.3 292.419 227.678Z" fill="#FFBF6D"/>
<path d="M280.149 230.731C279.445 230.777 278.087 230.528 276.193 230.056C261.588 226.363 215.573 208.772 202.217 203.626C199.878 202.719 198.539 202.201 198.539 202.201L197.121 187.052L198.975 186.904L205.35 186.386C205.35 186.386 238.834 199.369 261.181 207.966C269.729 211.251 276.648 213.889 279.445 214.926C289.558 218.664 287.208 230.296 280.149 230.731Z" fill="white"/>
<mask id="mask0_382_3920" style="mask-type:luminance" maskUnits="userSpaceOnUse" x="197" y="186" width="17" height="18">
<path d="M197.114 186.907H213.027V203.629H197.114V186.907Z" fill="white"/>
</mask>
<g mask="url(#mask0_382_3920)">
<g opacity="0.619995">
<path d="M209.107 195.348L200.768 193.192L205.389 195.255L200.967 194.219L201.671 198.911L207.798 200.965L201.869 199.938L202.207 203.63C199.866 202.723 198.527 202.205 198.527 202.205L197.11 187.056L198.964 186.908L213.023 192.905L200.669 191.507L209.107 195.348Z" fill="#F8D1CA"/>
</g>
</g>
<mask id="mask1_382_3920" style="mask-type:luminance" maskUnits="userSpaceOnUse" x="253" y="207" width="34" height="24">
<path d="M253.333 207.966H286.235V230.736H253.333V207.966Z" fill="white"/>
</mask>
<g mask="url(#mask1_382_3920)">
<g opacity="0.619995">
<path d="M280.13 230.731C279.426 230.777 278.068 230.528 276.174 230.056L276.312 225.345L271.98 223.578L276.422 223.994L269.095 221.301L276.531 222.754L276.422 220.265L267.984 217.054L276.531 218.914L260.656 214.249L253.329 208.447L261.162 207.966C269.71 211.251 276.629 213.889 279.426 214.926C289.539 218.664 287.189 230.296 280.13 230.731Z" fill="#F8D1CA"/>
</g>
</g>
<path d="M342.794 149.724C343.5 148.187 265.645 111.746 265.645 111.746C265.645 111.746 213.508 149.553 198.436 161.617C197.418 162.335 196.426 163.055 195.482 163.776C189.229 168.551 186.148 172.674 186.313 176.536C186.483 180.484 188.185 183.666 191.245 185.887C197.158 190.18 267.455 215.918 270.739 215.918C274.024 215.918 340.909 169.585 340.909 169.585L334.37 167.087L312.708 169.02C328.48 159.225 342.488 150.39 342.794 149.724Z" fill="#F39D90"/>
<path d="M336.572 154.035V154.072L335.025 169.923C335.025 169.923 334.282 170.424 332.943 171.312C324.337 177.04 291.29 199 276.259 208.097C272.353 210.456 269.665 211.955 268.932 212.076C268.338 212.177 266.443 211.696 263.618 210.807C249.498 206.366 212.169 191.56 198.982 185.896C196.989 185.036 195.551 184.387 194.817 184.018C192.389 182.777 190.396 180.547 190.207 177.891C190.028 175.383 191.497 172.931 193.787 171.626C196.057 170.331 198.952 170.192 201.461 170.896C203.196 171.376 206.011 172.302 209.512 173.515C222.163 177.891 243.817 186.016 256.211 190.708C261.903 192.864 265.64 194.289 265.64 194.289L270.657 191.31L316.871 165.176L336.106 154.302L336.572 154.035Z" fill="white"/>
<mask id="mask2_382_3920" style="mask-type:luminance" maskUnits="userSpaceOnUse" x="316" y="154" width="21" height="18">
<path d="M316.868 154.068H336.569V171.309H316.868V154.068Z" fill="white"/>
</mask>
<g mask="url(#mask2_382_3920)">
<g opacity="0.619995">
<path d="M336.568 154.067L335.021 169.919C335.021 169.919 334.278 170.419 332.939 171.308L333.118 166.218L328.607 168.467L333.118 165.496V162.951L323.718 168.318L332.731 162.59L316.867 165.172L336.102 154.299L336.568 154.067Z" fill="#F8D1CA"/>
</g>
</g>
<mask id="mask3_382_3920" style="mask-type:luminance" maskUnits="userSpaceOnUse" x="190" y="170" width="22" height="16">
<path d="M190.187 170.473H211.221V185.894H190.187V170.473Z" fill="white"/>
</mask>
<g mask="url(#mask3_382_3920)">
<g opacity="0.619995">
<path d="M203.148 183.246L195.136 180.164L195.295 183.468L198.974 185.893C196.981 185.032 195.543 184.384 194.809 184.014C192.381 182.773 190.387 180.543 190.199 177.888C190.02 175.379 191.488 172.927 193.779 171.622C196.049 170.327 198.944 170.188 201.453 170.892C203.188 171.373 206.003 172.298 209.504 173.511C204.209 172.585 196.852 171.298 196.703 171.298C196.703 171.391 209.969 177.101 211.219 177.638L194.978 171.956L195.216 176.87L197.497 178.332L195.295 177.675L195.216 179.063L203.148 183.246Z" fill="#F8D1CA"/>
</g>
</g>
<mask id="mask4_382_3920" style="mask-type:luminance" maskUnits="userSpaceOnUse" x="254" y="195" width="29" height="10">
<path d="M254.887 195.622H282.154V204.514H254.887V195.622Z" fill="white"/>
</mask>
<g mask="url(#mask4_382_3920)">
<g opacity="0.619995">
<path d="M254.89 198.279L268.14 204.514L282.157 195.622L267.812 202.061L254.89 198.279Z" fill="#F8D1CA"/>
</g>
</g>
<path d="M333.721 199.017L333.801 199.054C333.751 199.091 333.711 199.119 333.662 199.165C333.682 199.1 333.701 199.054 333.721 199.017Z" fill="#FFBF6D"/>
<path d="M22.2421 132.493C21.6075 136.41 30.7065 157.651 36.9787 169.756C38.8233 173.305 40.4141 176.073 41.4584 177.39C44.7521 181.568 94.0601 208.534 121.673 223.443C122.973 224.14 124.218 224.814 125.419 225.456C125.673 225.588 125.915 225.722 126.157 225.854C127.083 226.352 127.964 226.838 128.824 227.292C135.71 230.998 140.064 233.321 140.064 233.321C171.936 225.291 167.766 193.443 165.886 190.949C165.531 190.468 161.709 188.055 155.771 184.46C154.759 183.855 153.693 183.206 152.571 182.535C152.186 182.304 151.79 182.073 151.394 181.842C150.789 181.479 150.173 181.106 149.547 180.732C125.229 166.233 81.2398 140.864 70.158 134.473C68.4845 133.514 67.5607 132.984 67.5607 132.984C67.5607 132.984 63.9297 132.535 58.7213 131.997C45.699 130.679 22.8223 128.877 22.2421 132.493Z" fill="#FFBF6D"/>
<path d="M58.7221 132.001L56.2794 141.761L147.057 195.633L151.395 181.847C150.789 181.484 150.174 181.11 149.548 180.737C125.23 166.237 81.2416 140.87 70.1587 134.477C68.4853 133.518 67.5614 132.99 67.5614 132.99C67.5614 132.99 63.9305 132.539 58.7221 132.001Z" fill="#9A7279"/>
<path d="M44.8793 155.05L36.9781 169.76C38.8228 173.309 40.4136 176.077 41.4578 177.395C44.7516 181.572 94.0595 208.538 121.672 223.447C122.972 224.143 124.218 224.818 125.418 225.46C125.672 225.593 125.914 225.726 126.157 225.858L140.045 209.877L44.8793 155.05Z" fill="#9A7279"/>
<path d="M22.2421 132.496C21.9033 134.591 24.3395 141.623 27.6435 149.569C32.3275 160.852 38.7568 173.977 41.4584 177.394C41.4584 177.394 54.3818 182.039 58.0956 175.226C61.809 168.424 52.0151 161.421 52.5116 159.614C53.0095 157.796 63.9006 164.214 67.6008 157.81C71.301 151.405 59.7084 146.192 60.4333 143.973C61.1685 141.754 73.1499 148.412 75.5058 142.985C76.6481 140.348 73.603 137.11 70.158 134.476C68.4845 133.518 67.5607 132.988 67.5607 132.988C67.5607 132.988 51.3863 130.972 38.3705 130.481C29.7789 130.149 22.5668 130.485 22.2421 132.496Z" fill="#FEBD87"/>
<path d="M22.2418 132.498C21.903 134.593 24.3392 141.625 27.6432 149.571C32.3149 146.681 40.2736 140.388 38.3702 130.483C29.7786 130.151 22.5665 130.487 22.2418 132.498Z" fill="#CB5C77"/>
<path d="M152.571 182.541C147.15 201.268 133.221 217.479 125.419 225.461C126.609 226.102 127.744 226.721 128.824 227.297C135.711 231.002 140.064 233.327 140.064 233.327C171.937 225.297 167.766 193.448 165.886 190.954C165.531 190.473 161.708 188.059 155.771 184.464C154.759 183.86 153.692 183.212 152.571 182.541Z" fill="#CB5C77"/>
<path d="M149.548 180.735C148.44 187.434 143.328 208.296 121.674 223.446C124.264 224.839 126.665 226.133 128.825 227.295C135.669 224.175 150.486 213.987 155.772 184.463C153.892 183.33 151.802 182.077 149.548 180.735Z" fill="#EA5D80"/>
<path d="M62.2762 92.7498C60.6945 88.202 63.3725 83.1213 68.2592 81.4034C73.1461 79.6843 78.3903 81.978 79.9721 86.5257C81.5539 91.0735 78.8746 96.154 73.9876 97.8731C69.1023 99.5912 63.8577 97.2987 62.2762 92.7498ZM45.6703 103.355C47.3266 102.941 48.9719 102.472 50.6348 102.089C50.9391 102.02 51.4221 102.144 51.6217 102.353C52.9065 103.697 54.1062 105.115 55.4009 106.451C55.7787 106.841 55.9042 107.117 55.6808 107.641C54.8913 109.482 54.156 111.341 53.4014 113.193C53.2777 113.494 53.1677 113.798 52.9649 114.323C55.7125 115.493 58.4292 116.65 61.2145 117.837C62.564 115.777 63.821 113.923 64.9983 112.026C65.4142 111.358 65.7754 111.109 66.6493 111.2C68.433 111.386 70.2567 111.336 72.058 111.434C72.3354 111.448 72.7047 111.672 72.8216 111.901C73.7101 113.655 74.6033 115.41 75.3747 117.216C75.7433 118.082 76.2429 118.239 77.1168 117.918C77.4521 117.796 77.8295 117.784 78.1873 117.722C79.7136 117.185 81.2395 116.65 82.7658 116.113C82.9139 116.008 83.0501 115.877 83.2129 115.802C84.9145 115.009 84.6742 115.237 84.3134 113.643C83.8738 111.703 83.3981 109.771 82.9994 108.089C85.0053 106.358 86.881 104.738 88.8163 103.066C91.1742 103.832 93.6384 104.634 96.1186 105.44C97.9689 102.958 99.2406 100.309 100.221 97.4796C98.1419 96.3231 96.1151 95.1911 94.0808 94.0729C93.7159 93.8731 93.5487 93.6961 93.6119 93.2077C93.8587 91.2962 94.055 89.3771 94.1625 87.4607C94.1947 86.9089 94.3894 86.7048 94.8615 86.4898C96.8149 85.602 98.748 84.6707 100.697 83.7756C101.181 83.5541 101.389 83.3183 101.294 82.7642C100.871 80.2754 99.907 77.9983 98.7264 75.7937C98.492 75.358 98.1724 75.3948 97.7375 75.5117C95.725 76.0483 93.7017 76.5407 91.6936 77.0908C91.114 77.2488 90.8094 77.1869 90.4104 76.7121C89.0348 75.0739 87.5529 73.5164 85.9964 71.8002C86.8363 69.7346 87.7899 67.3916 88.7432 65.0497C86.1694 63.3752 83.4627 62.1588 80.4727 61.4238C79.0401 63.6423 77.6453 65.8009 76.382 67.7555C74.1753 67.7524 72.1263 67.6981 70.0757 67.7719C69.2999 67.7993 68.9278 67.6019 68.6385 66.9467C67.8675 65.2013 67.0239 63.4872 66.1907 61.7688C66.026 61.4296 65.9192 60.948 65.2937 61.1719C62.7526 62.0864 60.2108 62.9983 57.671 63.913C57.1308 64.1069 57.033 64.4396 57.1648 64.9516C57.6528 66.8568 58.053 68.7865 58.5763 70.6823C58.7774 71.414 58.48 71.7566 57.917 72.2066C56.5259 73.3182 55.1496 74.4595 53.8929 75.7021C53.3512 76.2377 53.0134 76.3141 52.3432 76.0752C50.1915 75.3099 48.0031 74.6252 45.8751 73.9257C44.5622 75.2792 42.1563 79.9729 41.7035 82.0202C43.7206 83.1185 45.748 84.248 47.8079 85.323C48.3231 85.5922 48.3847 85.8727 48.3293 86.4123C48.149 88.1527 48.0987 89.8986 47.939 91.6406C47.9108 91.9326 47.6493 92.3497 47.3803 92.4805C45.6734 93.3042 43.9384 94.074 42.205 94.8429C41.2358 95.273 40.8424 95.4427 40.7655 95.8622L43.3951 103.423C43.8313 103.81 44.33 103.691 45.6703 103.355Z" stroke="#D9D9D9" stroke-width="1.30534" stroke-miterlimit="10"/>
<path d="M114.408 70.8618C115.255 67.9956 118.338 66.2319 121.296 66.9223C124.254 67.6127 125.966 70.4977 125.119 73.3638C124.272 76.23 121.189 77.9937 118.231 77.3032C115.274 76.6116 113.561 73.7279 114.408 70.8618ZM108.262 71.3511C108.898 71.5666 109.541 71.762 110.17 71.9903C110.286 72.0323 110.413 72.1809 110.428 72.297C110.523 73.0458 110.575 73.8011 110.676 74.5485C110.706 74.7654 110.68 74.8899 110.484 75.0238C109.79 75.4933 109.111 75.9799 108.425 76.4614C108.314 76.5397 108.207 76.6213 108.016 76.76C108.627 77.7665 109.231 78.7601 109.85 79.7809C110.777 79.3564 111.624 78.9848 112.457 78.5797C112.751 78.4374 112.927 78.4291 113.187 78.6513C113.72 79.1045 114.323 79.4837 114.883 79.9093C114.968 79.9758 115.035 80.1341 115.018 80.2388C114.889 81.0446 114.761 81.8493 114.581 82.6475C114.494 83.0294 114.619 83.1928 114.979 83.2707C115.115 83.3005 115.241 83.3789 115.371 83.4353C115.993 83.5807 116.614 83.7259 117.236 83.8713C117.309 83.8668 117.384 83.8512 117.454 83.8601C118.194 83.9552 118.062 83.9824 118.325 83.3481C118.644 82.5763 118.948 81.7991 119.219 81.1271C120.281 80.9595 121.272 80.8046 122.297 80.6424C122.878 81.4231 123.484 82.2392 124.096 83.0602C125.285 82.5976 126.327 81.9519 127.318 81.179C126.918 80.324 126.533 79.4882 126.139 78.656C126.069 78.506 126.057 78.4084 126.194 78.2524C126.728 77.6391 127.248 77.0142 127.738 76.3704C127.88 76.184 127.991 76.1553 128.197 76.1835C129.04 76.299 129.886 76.3962 130.73 76.5084C130.94 76.5362 131.062 76.4995 131.164 76.2857C131.619 75.3262 131.848 74.323 131.991 73.2986C132.018 73.0956 131.907 73.0391 131.737 72.9849C130.958 72.7333 130.187 72.4653 129.405 72.2196C129.181 72.1481 129.097 72.0603 129.081 71.8079C129.024 70.9372 128.915 70.0726 128.819 69.1354C129.583 68.5985 130.448 67.9901 131.314 67.3805C130.879 66.2374 130.292 65.2243 129.5 64.3178C128.508 64.779 127.544 65.2265 126.67 65.6336C125.956 65.1521 125.305 64.6869 124.624 64.2653C124.366 64.1059 124.293 63.9565 124.355 63.6651C124.52 62.8893 124.656 62.1091 124.795 61.3281C124.821 61.1744 124.901 60.9831 124.645 60.9258C123.606 60.691 122.566 60.4548 121.527 60.2212C121.305 60.1706 121.195 60.2657 121.116 60.4726C120.821 61.2428 120.491 62.0022 120.21 62.7764C120.101 63.0751 119.924 63.1301 119.634 63.164C118.92 63.2481 118.203 63.347 117.5 63.5058C117.197 63.5752 117.07 63.5271 116.909 63.2993C116.395 62.5638 115.85 61.8488 115.328 61.1411C114.581 61.328 112.686 62.4395 112.053 63.0535C112.443 63.875 112.831 64.7098 113.242 65.5329C113.345 65.7391 113.298 65.8504 113.153 66.0262C112.68 66.5933 112.249 67.1914 111.783 67.7636C111.704 67.8598 111.52 67.9465 111.403 67.9333C110.653 67.8489 109.909 67.7402 109.166 67.6304C108.749 67.5692 108.581 67.5434 108.457 67.6725L107.509 70.8796C107.559 71.1094 107.749 71.1765 108.262 71.3511Z" fill="#D9D9D9"/>
<path d="M123.072 166.25C120.526 166.788 117.688 169.612 115.652 171.137C113.124 173.032 110.655 175.017 108.41 177.223C103.944 181.608 100.599 186.858 99.3482 192.847C97.5134 201.631 99.0995 211.525 104.423 218.692C104.614 218.951 104.806 219.215 105.028 219.451C105.028 219.451 95.2164 225.937 90.5495 234.508C85.8839 243.079 89.7893 246.373 91.3843 246.027C95.3454 245.165 103.781 225.009 112.234 224.059C120.687 223.11 117.36 219.276 117.36 219.276C117.36 219.276 134.359 225.051 147.737 208.981C161.117 192.913 141.472 162.376 141.472 162.376C141.472 162.376 123.075 166.249 123.072 166.25Z" fill="#FFBF6D"/>
<mask id="mask5_382_3920" style="mask-type:luminance" maskUnits="userSpaceOnUse" x="85" y="155" width="76" height="101">
<path d="M109.352 155.844L160.647 165.89L137.189 255.376L85.8938 245.33L109.352 155.844Z" fill="white"/>
</mask>
<g mask="url(#mask5_382_3920)">
<g opacity="0.199997">
<path d="M123.409 166.163C120.881 166.719 118.045 169.568 116.014 171.111C113.492 173.027 111.029 175.032 108.785 177.258C104.322 181.684 100.963 186.967 99.6718 192.977C97.7787 201.791 99.2665 211.694 104.481 218.838C104.668 219.097 104.857 219.359 105.074 219.594C105.074 219.594 95.2956 226.161 90.5977 234.781C85.901 243.401 89.7434 246.675 91.327 246.317C95.2599 245.426 103.791 225.172 112.177 224.162C120.562 223.153 117.298 219.334 117.298 219.334C117.298 219.334 134.094 225.003 147.49 208.809C160.886 192.617 141.677 162.155 141.677 162.155C141.677 162.155 123.412 166.162 123.409 166.163Z" fill="#9A7279"/>
</g>
</g>
<path d="M92.3369 244.779C92.0042 244.187 91.8412 243.545 91.7491 242.897C91.6548 242.247 91.6556 241.585 91.7363 240.921C91.8417 240.26 91.9947 239.593 92.3105 238.97C92.6189 238.351 93.056 237.759 93.6574 237.378C93.2981 238.69 93.1361 239.808 92.9784 241.031C92.8035 242.241 92.6917 243.459 92.3369 244.779Z" fill="#9A7279"/>
<path d="M245.609 170.683C245.685 170.252 245.756 169.813 245.826 169.38C246.116 167.599 246.382 165.805 246.601 164.002C246.76 162.789 246.9 161.565 247.019 160.344C247.191 158.674 247.329 156.997 247.44 155.321C247.487 154.566 247.535 153.811 247.569 153.053C247.671 151.003 247.73 148.958 247.733 146.915C247.735 145.901 247.729 144.892 247.711 143.88C247.692 142.788 247.651 141.697 247.601 140.618C247.47 137.852 247.248 135.108 246.916 132.416C246.89 132.189 246.864 131.966 246.83 131.743C246.477 128.885 245.991 126.089 245.386 123.37C245.332 123.122 245.275 122.881 245.219 122.633C244.612 120.009 243.893 117.462 243.04 115.006C242.886 114.548 242.723 114.096 242.555 113.643C241.656 111.197 240.623 108.846 239.454 106.616C238.928 105.598 238.367 104.606 237.771 103.641C236.632 101.756 235.37 99.9739 233.991 98.3115C232.609 96.6307 231.097 95.0829 229.475 93.6581C232.948 90.8812 235.413 87.6956 236.976 84.2058C238.099 81.7029 238.771 79.0518 239.029 76.2811C239.103 75.4884 239.145 74.6919 239.157 73.8768C239.16 73.4863 239.156 73.0969 239.145 72.7075L239.143 72.6616C239.08 70.3113 238.758 67.8888 238.199 65.4266C238.153 65.2408 238.114 65.0612 238.068 64.8766C237.994 64.5628 237.912 64.2437 237.83 63.9246C237.777 63.7334 237.723 63.5423 237.663 63.3511C237.063 61.326 236.109 59.4534 234.816 57.7298L234.823 57.7313C234.655 57.4705 229.05 49.1336 227.267 45.0815C225.451 40.9737 224.196 35.6079 221.538 35.6285L221.531 35.6285C219.122 35.6498 213.938 40.8384 213.062 46.4451C213.062 46.4451 213.062 46.449 213.062 46.4514C211.772 46.1907 210.441 45.9521 209.054 45.7452C208.846 45.7137 208.629 45.6779 208.414 45.655C206.393 45.3615 204.28 45.1267 202.057 44.952L202.051 44.9519C201.142 44.8823 200.213 44.82 199.27 44.7663C195.201 44.5388 190.82 44.4909 186.133 44.6265C185.981 44.6314 185.83 44.6366 185.685 44.6403C185.161 44.6592 184.644 44.6781 184.143 44.7077C182.765 44.7765 181.445 44.8807 180.168 45.0075L179.987 44.8577C179.222 44.2049 178.236 43.2367 178.119 43.1288C176.599 41.6589 175.626 39.6562 174.277 38.0566C172.316 35.7288 169.386 34.1294 166.04 34.9611C165.828 35.0159 165.641 35.1083 165.464 35.2507C165.009 35.6101 164.647 36.2418 164.381 37.0615C163.416 40.001 163.672 45.2779 164.991 48.4006C165.016 48.4638 165.048 48.5319 165.079 48.5948C158.854 51.2324 154.769 54.9871 152.082 59.2184C151.892 59.5122 151.718 59.8116 151.543 60.1098C150.844 61.3135 150.25 62.5533 149.74 63.8076C149.716 63.8685 149.693 63.9282 149.675 63.9877C149.418 64.625 149.188 65.2666 148.979 65.9135C148.881 66.2132 148.789 66.5063 148.703 66.8046C148.258 68.3216 147.918 69.8494 147.652 71.3708C147.621 71.5425 147.597 71.713 147.573 71.8772C147.543 72.0554 147.518 72.2271 147.495 72.3978C147.378 73.2059 147.303 73.9983 147.261 74.7695C147.256 74.8089 147.259 74.8411 147.254 74.8805C147.197 75.8468 147.193 76.7846 147.228 77.6925C147.246 78.1074 147.271 78.5161 147.304 78.9162C147.85 85.6352 150.624 90.5252 152.393 93.0102C152.754 93.5151 153.789 95.0557 154.875 96.6772C149.744 101.185 141.195 110.731 135.597 127.722C134.291 131.69 132.599 135.965 130.822 140.44C121.133 164.838 108.913 195.096 142.493 213.716C142.493 213.716 142.8 214.393 143.421 215.525C145.228 218.802 149.659 225.886 156.804 231.254C156.804 231.254 140.052 237.008 137.227 244.662C134.394 252.322 141.35 250.263 143.698 248.636C146.046 247.014 156.101 236.105 164.095 235.648C172.088 235.192 169.983 226.841 169.983 226.841C169.983 226.841 177.051 229.42 186.884 230.136C189.073 230.297 191.399 230.362 193.806 230.29C194.742 230.26 195.697 230.208 196.656 230.136C198.198 230.018 199.766 229.831 201.351 229.581C203.808 229.185 206.31 228.617 208.802 227.818C209.287 227.664 209.774 227.505 210.258 227.331C212.918 226.395 215.563 225.193 218.14 223.679C218.576 223.42 219.006 223.156 219.439 222.883C221.23 221.746 222.983 220.459 224.68 218.986C225.933 217.904 227.158 216.614 228.356 215.148C230.226 212.864 232.021 210.139 233.711 207.06C234.939 204.837 236.109 202.426 237.215 199.86L237.218 199.847C238.359 197.2 239.432 194.384 240.427 191.437C240.868 190.125 241.288 188.788 241.695 187.423C243.285 182.132 244.61 176.491 245.609 170.683Z" fill="#FFBF6D"/>
<path d="M302.761 123.037C300.826 124.82 297.746 126.32 293.843 126.923C293.013 127.05 292.188 127.184 291.362 127.323C286.909 128.075 282.526 129.071 278.615 131.137C273.167 134.021 268.627 138.985 266.107 148.276C265.456 150.667 265.046 153.29 264.718 156.031C264.356 159.009 264.087 162.114 263.698 165.195C261.896 179.679 257.573 193.579 229.262 190.409C229.262 190.409 227.096 180.955 234.082 181.013C234.082 181.013 238.199 181.565 242.8 180.863C246.157 180.347 249.774 179.171 252.249 176.628C252.418 176.459 252.573 176.266 252.722 176.066C256.917 170.531 255.481 154.288 258.169 141.791C258.809 138.821 259.674 136.065 260.909 133.717C261.885 131.851 263.155 130.071 264.641 128.402C269.708 122.716 277.312 118.283 284.642 115.868C289.748 114.184 294.719 113.481 298.609 114.02C305.949 115.038 306.529 119.567 302.761 123.037Z" fill="#FFBF6D"/>
<mask id="mask6_382_3920" style="mask-type:luminance" maskUnits="userSpaceOnUse" x="227" y="104" width="80" height="98">
<path d="M250.499 104.279L306.009 115.117L283.351 201.312L227.842 190.474L250.499 104.279Z" fill="white"/>
</mask>
<g mask="url(#mask6_382_3920)">
<g opacity="0.199997">
<path d="M302.71 122.7C300.776 124.501 297.709 126.027 293.834 126.661C293.01 126.793 292.191 126.933 291.371 127.08C286.949 127.866 282.595 128.896 278.699 130.995C273.271 133.926 268.726 138.936 266.145 148.269C265.477 150.671 265.047 153.304 264.697 156.054C264.312 159.042 264.017 162.157 263.604 165.249C261.687 179.782 257.276 193.749 229.237 190.776C229.237 190.776 227.174 181.314 234.1 181.322C234.1 181.322 238.177 181.845 242.744 181.108C246.077 180.566 249.674 179.36 252.15 176.794C252.319 176.622 252.475 176.428 252.625 176.226C256.833 170.647 255.555 154.374 258.333 141.825C258.994 138.843 259.876 136.074 261.121 133.71C262.106 131.833 263.381 130.039 264.87 128.355C269.944 122.618 277.523 118.119 284.812 115.644C289.889 113.918 294.824 113.178 298.675 113.69C305.943 114.657 306.478 119.194 302.71 122.7Z" fill="#9A7279"/>
</g>
</g>
<path d="M302.705 123.948C300.849 123.499 299.538 121.359 299.538 121.359C291.092 121.892 286.49 118.874 284.257 116.61C289.453 114.892 294.513 114.177 298.473 114.73C305.945 115.775 306.539 120.405 302.705 123.948Z" fill="#9A7279"/>
<path d="M291.272 127.827C286.765 128.588 282.329 129.595 278.371 131.685C278.297 129.778 278.801 126.87 282.051 125.085C285.374 123.26 289.065 125.79 291.272 127.827Z" fill="#9A7279"/>
<path d="M265.432 136.999C264.043 140.138 260.46 141.351 257.729 141.809C258.364 138.849 259.22 136.104 260.446 133.763C261.415 131.904 262.676 130.13 264.152 128.468C265.472 130.064 267.08 133.278 265.432 136.999Z" fill="#9A7279"/>
<path d="M263.771 165.051C261.655 164.011 259.416 162.258 260.247 159.678C260.976 157.382 262.972 156.362 264.783 155.906C264.423 158.877 264.157 161.976 263.771 165.051Z" fill="#9A7279"/>
<path d="M250.92 183.811C246.552 185.596 243.997 182.193 242.964 180.323C246.35 179.802 249.999 178.618 252.494 176.058C252.665 175.887 252.821 175.693 252.971 175.491C253.974 178.161 254.738 182.25 250.92 183.811Z" fill="#9A7279"/>
<path d="M151.125 165.153L172.512 169.301C172.512 169.301 155.925 167.01 146.014 179.846C137.583 190.763 139.232 206.193 142.948 214.839L142.907 214.865C142.284 213.731 141.976 213.053 141.976 213.053C108.341 194.421 120.587 164.133 130.295 139.71C142.012 122.461 156.342 114.125 170.489 117.703C186.82 121.834 188.962 135.778 189.205 140.668C186.617 143.205 180.387 149.043 176.953 150.098C176.953 150.098 154.103 145.273 151.125 165.153Z" fill="#FFDFC5"/>
<path d="M222.974 52.0896C220.655 50.3709 217.898 49.2473 215.663 48.5562C213.314 47.8336 211.55 47.5711 211.458 47.5515C212.344 41.9157 217.572 36.6982 220.001 36.6758L220.007 36.6758C220.427 37.9388 220.916 39.4516 220.088 42.8415C220.003 43.1746 219.947 43.4995 219.903 43.8155C219.239 48.515 222.407 51.7001 222.974 52.0896Z" fill="#9A7279"/>
<path d="M171.27 45.9439C171.27 45.9439 167.581 46.9228 164.57 47.7992C163.645 48.0643 162.777 48.3242 162.107 48.5373C160.778 45.397 160.52 40.0891 161.496 37.1323C161.766 36.3077 162.131 35.6722 162.59 35.3106C162.59 35.3106 163.852 35.7992 164.887 38.5573C165.261 39.5634 165.592 40.5265 165.982 41.4138C166.905 43.5113 168.17 45.1719 171.27 45.9439Z" fill="#9A7279"/>
<mask id="mask7_382_3920" style="mask-type:luminance" maskUnits="userSpaceOnUse" x="205" y="85" width="13" height="10">
<path d="M207.115 85.0101L217.735 87.0786L215.883 94.1066L205.263 92.0381L207.115 85.0101Z" fill="white"/>
</mask>
<g mask="url(#mask7_382_3920)">
<g opacity="0.479996">
<path d="M207.163 87.9048C205.58 88.9517 205.297 91.0546 207.062 92.0834C209.425 93.462 213.95 93.1302 216.117 91.2965C217.947 89.7486 216.901 87.0015 214.955 86.5392C213.31 86.1485 211.552 86.3183 209.924 86.7754C209.165 86.987 208.05 87.3177 207.163 87.9048Z" fill="#EA5D80"/>
</g>
</g>
<mask id="mask8_382_3920" style="mask-type:luminance" maskUnits="userSpaceOnUse" x="151" y="81" width="14" height="10">
<path d="M153.515 81.7785L164.462 83.9168L162.796 90.2546L151.85 88.1162L153.515 81.7785Z" fill="white"/>
</mask>
<g mask="url(#mask8_382_3920)">
<g opacity="0.479996">
<path d="M162.711 84.5268C164.131 85.6767 164.097 87.7938 162.182 88.7041C159.619 89.9215 155.155 89.2895 153.27 87.3162C151.679 85.65 153.135 82.9785 155.145 82.6464C156.844 82.3652 158.572 82.6529 160.128 83.2152C160.851 83.4779 161.915 83.8822 162.711 84.5268Z" fill="#EA5D80"/>
</g>
</g>
<path d="M197.247 45.1792C194.396 47.4889 192.224 51.0158 190.5 53.673C189.553 55.1292 188.684 56.6315 187.874 58.1568C187.261 59.3004 186.176 60.4387 184.746 60.6232C182.951 60.8529 181.373 59.7727 180.502 58.3931C179.406 56.6684 179.413 54.6152 179.773 52.6667C180.286 49.9091 181.664 47.2831 183.553 45.0582C183.698 45.0541 183.851 45.0491 184.004 45.0454C188.729 44.9058 193.146 44.9522 197.247 45.1792Z" fill="#9A7279"/>
<path d="M150.469 73.2554C148.536 73.5494 146.547 72.9408 144.793 72.0389C144.817 71.8668 144.841 71.6944 144.873 71.5148C144.897 71.349 144.922 71.1757 144.953 71.0037C145.223 69.4667 145.567 67.9242 146.019 66.3942C149.661 69.5528 154.092 72.6993 150.469 73.2554Z" fill="#9A7279"/>
<path d="M149.79 77.8304C148.5 78.5382 146.554 78.6364 144.721 78.4999C144.688 78.0941 144.663 77.6807 144.645 77.2586C144.609 76.3376 144.614 75.3876 144.673 74.4062C144.678 74.3663 144.675 74.3338 144.679 74.2936C148.433 75.2843 152.065 76.5807 149.79 77.8304Z" fill="#9A7279"/>
<path d="M150.031 65.1992C148.969 65.0551 147.867 64.4498 146.844 63.6738C146.86 63.615 146.884 63.5537 146.909 63.4927C147.424 62.231 148.023 60.9836 148.729 59.7727C150.82 62.6344 152.489 65.5338 150.031 65.1992Z" fill="#9A7279"/>
<path d="M206.641 46.3406C205.883 47.0714 205.033 47.8894 204.42 48.5053C202.487 50.4576 200.439 53.1861 198.982 53.4712C195.938 54.0701 194.81 51.2795 196.872 48.4647C197.814 47.1814 199.091 46.2615 200.205 45.6346L200.213 45.6337C202.459 45.8097 204.597 46.0444 206.641 46.3406Z" fill="#9A7279"/>
<path d="M181.728 44.9703C180.096 46.8477 178.299 50.0115 176.688 50.4973C174.259 51.2275 172.453 49.4457 173.528 48.1993C174.572 46.9874 175.765 46.0466 176.799 45.367C178.366 45.1918 180.006 45.0577 181.728 44.9703Z" fill="#9A7279"/>
<path d="M212.496 86.11C209.263 88.1508 204.256 88.8225 200.676 87.4932C199.911 87.2087 199.203 86.8223 198.572 86.3179C195.839 84.1134 194.358 80.2493 194.43 76.8558C194.425 76.7773 194.425 76.6986 194.429 76.6204C194.566 73.1931 196.73 70.0977 199.946 68.4643C203.71 66.5535 209.264 65.9144 212.638 68.6675C213.969 69.7564 215.005 71.267 215.681 72.9669L215.689 72.9672C217.511 77.4928 216.825 83.3719 212.496 86.11Z" fill="white"/>
<path d="M212.492 86.1118C213.563 85.4322 214.455 84.505 215.102 83.4512C215.758 82.3967 216.154 81.2193 216.36 80.0331C216.773 77.6487 216.385 75.2114 215.467 73.0566L215.694 73.1908L215.686 73.1917L215.526 73.2068L215.459 73.0563C215 71.996 214.399 70.9977 213.64 70.1346C212.884 69.267 211.981 68.5393 210.925 68.0874C208.807 67.1688 206.318 67.1451 203.984 67.638C201.646 68.1465 199.36 69.1258 197.693 70.756C196.862 71.5722 196.186 72.5287 195.707 73.565C195.47 74.0837 195.271 74.6201 195.147 75.1714C195.071 75.4449 195.04 75.7247 194.989 76.0032C194.967 76.2698 194.921 76.5861 194.927 76.8085L194.927 76.8441L194.927 76.8467C194.851 78.8343 195.259 80.8546 196.118 82.6645C196.546 83.5698 197.087 84.4252 197.746 85.1897C198.407 85.9543 199.189 86.616 200.117 87.0716C201.977 87.986 204.184 88.2397 206.328 88.0587C208.478 87.8801 210.632 87.2457 212.492 86.1118ZM212.492 86.1118C210.642 87.2758 208.489 87.8937 206.334 88.1488C205.252 88.2705 204.16 88.2793 203.083 88.163C202.006 88.0503 200.939 87.81 199.948 87.38C198.953 86.9519 198.08 86.2898 197.352 85.5269C196.618 84.7616 196.004 83.893 195.504 82.9683C194.505 81.1139 193.956 79.0224 193.924 76.8684L193.926 76.9069C193.901 74.3358 195 71.8451 196.874 69.9941C197.804 69.0755 198.911 68.3053 200.106 67.7727C201.289 67.2286 202.529 66.8258 203.799 66.5813C206.321 66.1131 209.04 66.2143 211.323 67.3644C212.467 67.9264 213.414 68.7813 214.158 69.7329C214.912 70.6891 215.481 71.7612 215.897 72.8816L215.671 72.7462L215.678 72.745L215.851 72.7375L215.903 72.8802C216.326 74.0197 216.587 75.2122 216.688 76.4198C216.782 77.6274 216.726 78.851 216.486 80.0493C216.243 81.2459 215.795 82.4129 215.136 83.4681C214.475 84.5215 213.569 85.4424 212.492 86.1118Z" fill="#9A7279"/>
<path d="M205.037 85.3561C207.933 85.5385 211.078 84.2734 212.668 81.8888C215.2 78.0895 213.681 72.5594 209.504 70.6113C207.261 69.5648 204.281 69.5223 201.995 70.6046C195.885 73.4986 196.93 82.4251 202.733 84.8405C203.449 85.138 204.231 85.3052 205.037 85.3561Z" fill="#9A7279"/>
<path d="M206.326 83.6553C207.817 83.7468 209.437 83.0849 210.259 81.8423C211.569 79.8626 210.795 76.987 208.648 75.9783C207.495 75.4364 205.961 75.4177 204.783 75.9836C201.634 77.4965 202.158 82.1398 205.141 83.3897C205.509 83.5437 205.912 83.6297 206.326 83.6553Z" fill="white"/>
<path d="M202.375 75.4517C203.12 75.4974 203.931 75.1665 204.342 74.5452C204.996 73.5553 204.61 72.1175 203.536 71.6132C202.96 71.3422 202.193 71.3329 201.603 71.6158C200.029 72.3723 200.291 74.6939 201.783 75.3189C201.967 75.3959 202.168 75.4389 202.375 75.4517Z" fill="white"/>
<mask id="mask9_382_3920" style="mask-type:luminance" maskUnits="userSpaceOnUse" x="194" y="64" width="23" height="17">
<path d="M197.252 64.6954L216.778 68.5023L213.54 80.805L194.013 76.998L197.252 64.6954Z" fill="white"/>
</mask>
<g mask="url(#mask9_382_3920)">
<g opacity="0.210007">
<path d="M215.605 72.9528C202.627 68.2861 195.167 76.0441 194.266 77.0557C194.262 76.976 194.265 76.8964 194.268 76.8168C194.438 73.3376 196.634 70.1801 199.874 68.4989C203.665 66.5319 209.236 65.8423 212.594 68.6118C213.917 69.7068 214.941 71.2324 215.605 72.9528Z" fill="#9A7279"/>
</g>
</g>
<path d="M171.994 77.7291C170.557 80.5946 166.953 81.9099 163.82 82.0351C163.387 82.0481 162.96 82.0267 162.544 81.9655C157.515 81.2417 154.209 75.1477 155.778 70.5886C155.932 70.1181 156.147 69.664 156.414 69.2315C158.765 65.4533 165.262 63.6103 169.254 65.8592C170.216 66.4105 170.875 67.3513 171.358 68.2854C171.69 68.9235 171.978 69.6432 172.207 70.4057C172.94 72.7967 173.064 75.5992 171.994 77.7291Z" fill="white"/>
<path d="M171.982 77.7262C172.979 75.6403 172.877 73.2756 172.316 71.1642C172.029 70.1002 171.611 69.0725 171.051 68.1346C170.492 67.2047 169.776 66.3464 168.764 65.9505C166.761 65.0484 164.366 65.1387 162.232 65.783C161.154 66.0987 160.13 66.5852 159.213 67.1986C158.296 67.8093 157.493 68.5775 156.936 69.4633C155.818 71.2419 155.691 73.5201 156.289 75.5321C156.866 77.5513 158.071 79.4757 159.899 80.6798C160.802 81.288 161.862 81.6757 162.977 81.8341C163.537 81.9024 164.113 81.8848 164.691 81.837C165.267 81.794 165.845 81.7108 166.413 81.5746C167.546 81.312 168.658 80.8875 169.642 80.252C170.133 79.9315 170.58 79.5512 170.984 79.1347C171.381 78.7101 171.71 78.2316 171.982 77.7262ZM171.982 77.7262C171.716 78.2341 171.393 78.7177 171.001 79.1481C170.601 79.5719 170.157 79.959 169.667 80.2862C168.689 80.9407 167.591 81.4239 166.448 81.7278C165.877 81.8798 165.297 82.0085 164.709 82.086C164.125 82.1694 163.528 82.2246 162.93 82.1883C161.742 82.0954 160.577 81.7517 159.563 81.1597C157.521 79.984 156.071 78.0249 155.311 75.8459C154.949 74.7468 154.747 73.5737 154.829 72.3772C154.858 72.0793 154.907 71.78 154.947 71.4816C154.997 71.1852 155.094 70.8942 155.167 70.5999C155.326 70.0162 155.595 69.4328 155.928 68.9066C157.318 66.7806 159.624 65.4471 161.985 64.8415C164.351 64.2483 166.945 64.3299 169.055 65.4401C170.161 65.9641 170.881 66.9668 171.385 67.9557C171.901 68.9585 172.235 70.0344 172.478 71.1227C172.722 72.2101 172.832 73.3315 172.778 74.4522C172.728 75.5699 172.501 76.7008 171.982 77.7262Z" fill="#9A7279"/>
<path d="M160.779 78.2031C160.986 78.3512 162.954 80.4307 167.076 79.0155C171.196 77.5998 170.559 72.5848 169.868 70.9691C169.177 69.3534 166.872 66.0664 162.162 67.5248C157.45 68.9841 157.202 75.6469 160.779 78.2031Z" fill="#9A7279"/>
<path d="M162.125 78.0309C162.237 78.1096 163.306 79.2122 165.525 78.4751C167.744 77.7377 167.384 75.0885 167.006 74.2338C166.628 73.3791 165.374 71.6381 162.837 72.3966C160.3 73.1556 160.187 76.6727 162.125 78.0309Z" fill="white"/>
<path d="M164.415 71.3226C164.471 71.3619 165.005 71.9132 166.115 71.5447C167.224 71.176 167.045 69.8514 166.856 69.424C166.667 68.9967 166.039 68.1262 164.771 68.5054C163.502 68.8849 163.446 70.6435 164.415 71.3226Z" fill="white"/>
<path d="M164.415 71.3226C164.471 71.3619 165.005 71.9132 166.115 71.5447C167.224 71.176 167.045 69.8514 166.856 69.424C166.667 68.9967 166.039 68.1262 164.771 68.5054C163.502 68.8849 163.446 70.6435 164.415 71.3226Z" fill="white"/>
<path d="M164.415 71.3226C164.471 71.3619 165.005 71.9132 166.115 71.5447C167.224 71.176 167.045 69.8514 166.856 69.424C166.667 68.9967 166.039 68.1262 164.771 68.5054C163.502 68.8849 163.446 70.6435 164.415 71.3226Z" fill="white"/>
<mask id="mask10_382_3920" style="mask-type:luminance" maskUnits="userSpaceOnUse" x="155" y="63" width="19" height="11">
<path d="M157.532 63.2056L173.197 66.2815L171.221 73.8366L155.556 70.7607L157.532 63.2056Z" fill="white"/>
</mask>
<g mask="url(#mask10_382_3920)">
<g opacity="0.210007">
<path d="M172.092 70.4793C166.356 67.7065 159.21 69.4957 155.552 70.7676C155.71 70.2863 155.93 69.8211 156.203 69.378C158.599 65.5045 165.153 63.5838 169.155 65.8554C170.119 66.4124 170.774 67.3689 171.254 68.3196C171.583 68.9691 171.868 69.7022 172.092 70.4793Z" fill="#9A7279"/>
</g>
</g>
<path d="M236.92 64.5722C225.376 71.6566 221.194 64.4495 225.958 62.9148C229.15 61.8836 232.054 60.0386 233.966 58.7933C235.315 60.5604 236.301 62.4875 236.92 64.5722Z" fill="#9A7279"/>
<path d="M238.607 73.8591L238.609 73.9056C238.595 74.1237 238.594 74.3341 238.585 74.5456C234.325 76.3939 229.073 77.5976 224.844 76.1651C223.248 75.6237 221.84 74.273 222.315 72.769C222.509 72.1692 222.995 71.6326 223.594 71.2272C225.363 70.0165 227.856 69.6616 230.028 69.291C232.497 68.8646 235.393 67.6578 237.652 66.5371C238.218 69.0289 238.544 71.4805 238.607 73.8591Z" fill="#9A7279"/>
<path d="M238.709 77.3785C238.447 80.1796 237.764 82.8599 236.624 85.3906C233.684 86.0614 230.457 85.642 227.818 84.3972C226.642 83.839 225.576 82.8856 225.785 81.5281C226.061 79.7321 228.565 79.3635 230.095 79.2829C234.24 79.0689 237.169 78.0577 238.709 77.3785Z" fill="#9A7279"/>
<path d="M217.291 46.9444C217.291 46.9444 215.94 46.9598 215.56 46.6925C215.174 46.4265 217.247 46.227 217.247 46.227C216.187 45.8864 215.27 44.8086 215.623 44.7632C215.983 44.7105 217.242 45.4691 217.242 45.4691C215.88 43.834 216.615 41.1612 218.02 41.2276C218.622 41.2559 219.344 42.4524 219.971 43.8064C219.305 48.5111 222.478 51.7016 223.046 52.0916C220.723 50.3707 217.962 49.2457 215.723 48.5537C216.013 47.5891 217.291 46.9444 217.291 46.9444Z" fill="white"/>
<path d="M164.623 47.8088C164.754 46.7405 165.841 45.1943 165.939 45.0619C165.849 45.1015 164.912 45.5577 164.451 45.3563C163.968 45.1414 165.536 44.4281 165.536 44.4281C165.536 44.4281 164.307 44.6106 164.189 44.2696C164.063 43.9371 165.323 43.9355 165.323 43.9355C164.407 43.498 162.665 41.3578 163.73 40.6808C164.424 40.2413 165.423 40.8841 166.042 41.3912C166.97 43.4994 168.242 45.1686 171.356 45.9443C171.356 45.9443 167.65 46.9281 164.623 47.8088Z" fill="white"/>
<path d="M182.446 74.9075C182.446 74.9075 180.661 72.7886 179.715 73.1797C178.77 73.5711 181.454 76.7795 182.499 77.0772C183.544 77.3761 185.925 73.9534 185.371 73.2979C184.817 72.6421 182.446 74.9075 182.446 74.9075Z" fill="#9A7279"/>
<mask id="mask11_382_3920" style="mask-type:luminance" maskUnits="userSpaceOnUse" x="170" y="74" width="25" height="19">
<path d="M174.577 74.7434L194.668 78.6527L190.956 92.7296L170.865 88.8203L174.577 74.7434Z" fill="white"/>
</mask>
<g mask="url(#mask11_382_3920)">
<g opacity="0.479996">
<path d="M178.084 77.238C176.321 77.6387 174.611 78.6854 173.558 80.3009C172.032 82.6421 171.664 85.5681 173.464 87.6691C174.58 88.9717 176.185 89.6729 177.809 90.0926C180.918 90.8974 184.074 91.4855 187.312 90.6089C188.486 90.2912 189.649 89.8025 190.622 88.9944C192.113 87.7543 193.06 85.7687 193.108 83.7905C193.153 81.8129 192.298 79.8876 190.863 78.7424C189.099 77.3358 186.41 76.9054 184.199 76.9482C182.229 76.9862 180.022 76.7964 178.084 77.238Z" fill="#9A7279"/>
</g>
</g>
<path d="M147.155 88.3115C148.976 87.5531 150.841 86.9615 152.719 86.4109C154.6 85.8764 156.493 85.3841 158.431 85.0601C156.611 85.8188 154.746 86.4116 152.868 86.961C150.986 87.494 149.093 87.9863 147.155 88.3115Z" fill="#9A7279"/>
<path d="M145.697 83.6816C147.589 83.3537 149.484 83.2018 151.38 83.0931C153.276 83.0015 155.174 82.9543 157.074 83.0859C155.18 83.4151 153.286 83.567 151.389 83.6742C149.493 83.7645 147.597 83.8108 145.697 83.6816Z" fill="#9A7279"/>
<path d="M146.771 78.0999C148.607 78.5944 150.368 79.2542 152.109 79.9532C153.843 80.6689 155.558 81.4253 157.197 82.348C155.361 81.8535 153.601 81.1952 151.86 80.4949C150.126 79.778 148.41 79.0213 146.771 78.0999Z" fill="#9A7279"/>
<path d="M212.928 89.4633C214.916 89.5113 216.873 89.7352 218.821 90.0037C220.767 90.2902 222.704 90.6211 224.609 91.1303C222.62 91.0848 220.664 90.8596 218.716 90.5899C216.771 90.3024 214.833 89.9713 212.928 89.4633Z" fill="#9A7279"/>
<path d="M225.158 86.6072C223.282 87.0119 221.394 87.2404 219.506 87.4259C217.617 87.5955 215.723 87.7202 213.82 87.668C215.695 87.2631 217.583 87.0333 219.471 86.8478C221.361 86.6809 223.255 86.5563 225.158 86.6072Z" fill="#9A7279"/>
<path d="M223.193 81.2763C221.693 82.3968 220.106 83.37 218.497 84.3071C216.879 85.2297 215.239 86.1148 213.511 86.8525C215.01 85.7306 216.597 84.7587 218.207 83.8218C219.824 82.9004 221.465 82.0156 223.193 81.2763Z" fill="#9A7279"/>
<mask id="mask12_382_3920" style="mask-type:luminance" maskUnits="userSpaceOnUse" x="147" y="90" width="16" height="10">
<path d="M149.133 90.4547L162.624 93.1057L160.96 99.4714L147.469 96.8203L149.133 90.4547Z" fill="white"/>
</mask>
<g mask="url(#mask12_382_3920)">
<g opacity="0.479996">
<path d="M149.136 90.4523C149.652 91.2833 150.167 92.1114 150.723 92.9097C150.994 93.3127 151.278 93.7077 151.575 94.0848C151.874 94.4581 152.198 94.8298 152.557 95.0836L152.656 95.1538L152.65 95.2891C152.628 95.6997 152.631 96.1309 152.696 96.5259C152.752 96.9114 152.921 97.3217 153.141 97.3584C153.249 97.3783 153.288 97.3729 153.389 97.2392C153.477 97.1083 153.543 96.9158 153.591 96.7224C153.686 96.3312 153.72 95.8996 153.731 95.4934L153.764 94.3034L154.296 95.3377C154.501 95.7343 154.739 96.1334 154.996 96.5037C155.255 96.8718 155.539 97.2305 155.865 97.4962C156.027 97.6319 156.209 97.7315 156.366 97.7504C156.436 97.7682 156.545 97.7545 156.599 97.7324C156.67 97.7165 156.694 97.677 156.734 97.6262C156.877 97.3565 156.772 96.8314 156.629 96.4444L156.412 95.8465L156.943 96.1783C157.61 96.5939 158.323 96.9614 159.043 97.3067C159.763 97.6523 160.513 97.9424 161.302 98.1467C160.483 98.0574 159.694 97.8144 158.927 97.5428C158.161 97.2599 157.431 96.9163 156.709 96.5342L157.023 96.268C157.124 96.5012 157.199 96.7292 157.249 96.9822C157.289 97.2333 157.33 97.5118 157.182 97.8339C157.098 97.9891 156.941 98.1455 156.77 98.1991C156.683 98.2392 156.603 98.2509 156.524 98.2601C156.444 98.277 156.364 98.2728 156.282 98.262C155.958 98.2283 155.711 98.0798 155.509 97.9244C155.094 97.6115 154.791 97.2296 154.512 96.8392C154.233 96.4464 153.986 96.0456 153.76 95.6148L154.326 95.4606C154.32 95.9212 154.274 96.3647 154.162 96.8291C154.098 97.0611 154.027 97.2969 153.864 97.5392C153.777 97.6587 153.657 97.7874 153.483 97.8637C153.305 97.9433 153.11 97.9441 152.955 97.8955C152.629 97.8055 152.444 97.5417 152.344 97.3191C152.242 97.0872 152.198 96.8574 152.164 96.6284C152.109 96.1701 152.11 95.7268 152.161 95.2687L152.254 95.4754C151.827 95.1304 151.536 94.7299 151.247 94.3259C150.965 93.9182 150.704 93.5016 150.456 93.0783C149.976 92.2208 149.525 91.3519 149.136 90.4523Z" fill="#9A7279"/>
</g>
</g>
<mask id="mask13_382_3920" style="mask-type:luminance" maskUnits="userSpaceOnUse" x="214" y="89" width="18" height="14">
<path d="M216.89 89.8476L231.077 92.6083L228.471 102.49L214.284 99.7295L216.89 89.8476Z" fill="white"/>
</mask>
<g mask="url(#mask13_382_3920)">
<g opacity="0.479996">
<path d="M214.281 99.7373C215.16 99.3301 216.043 98.9339 216.911 98.5064C217.779 98.0855 218.649 97.6636 219.475 97.1829L219.979 96.8899L219.772 97.4341C219.681 97.6732 219.606 97.9384 219.574 98.185C219.535 98.4264 219.566 98.6826 219.656 98.7518C219.691 98.7856 219.778 98.8089 219.853 98.8004C219.9 98.7978 219.988 98.7542 220.073 98.6792C220.245 98.5282 220.405 98.3064 220.546 98.0809C220.827 97.6234 221.069 97.1259 221.28 96.62C221.486 96.117 221.683 95.5839 221.801 95.0907L222.023 94.1548L222.37 95.0167C222.519 95.3874 222.711 95.7666 222.939 96.0896C223.164 96.4093 223.475 96.6941 223.716 96.6248C223.991 96.5852 224.275 96.2277 224.463 95.8655C224.655 95.494 224.807 95.0797 224.921 94.6787L224.969 94.5049L225.137 94.4898C226.15 94.3974 227.186 94.1767 228.18 93.8629C228.683 93.7168 229.177 93.5339 229.661 93.3248C230.146 93.1184 230.611 92.8642 231.073 92.5993C230.227 93.2465 229.262 93.7427 228.264 94.132C227.257 94.5067 226.228 94.7816 225.155 94.9356L225.371 94.7468C225.276 95.2029 225.14 95.6371 224.928 96.068C224.821 96.2821 224.698 96.4955 224.524 96.6953C224.356 96.8909 224.114 97.0904 223.798 97.1593C223.649 97.1922 223.475 97.1919 223.327 97.1439C223.179 97.0997 223.06 97.0288 222.956 96.9518C222.747 96.7966 222.597 96.6152 222.458 96.4308C222.19 96.055 221.989 95.6678 221.813 95.2466L222.381 95.1724C222.242 95.7582 222.035 96.2727 221.815 96.8051C221.587 97.331 221.343 97.8512 221.015 98.3486C220.847 98.596 220.67 98.8429 220.405 99.0649C220.273 99.1707 220.102 99.2859 219.864 99.3068C219.657 99.3183 219.455 99.2688 219.289 99.1178C218.989 98.786 219.062 98.4248 219.103 98.14C219.16 97.8402 219.254 97.5694 219.376 97.2913L219.672 97.5437C218.799 97.9906 217.91 98.3831 217.009 98.7435C216.106 99.0944 215.202 99.4401 214.281 99.7373Z" fill="#9A7279"/>
</g>
</g>
<mask id="mask14_382_3920" style="mask-type:luminance" maskUnits="userSpaceOnUse" x="187" y="122" width="43" height="55">
<path d="M199.652 122.66L229.143 128.424L216.574 176.287L187.083 170.522L199.652 122.66Z" fill="white"/>
</mask>
<g mask="url(#mask14_382_3920)">
<g opacity="0.479996">
<path d="M187.083 170.538C189.57 169.492 192.018 168.364 194.388 167.093C196.76 165.833 199.081 164.47 201.196 162.86L202.224 162.079L201.901 163.32C201.7 164.094 201.555 164.955 201.634 165.668C201.667 166.027 201.805 166.3 201.934 166.338C201.975 166.361 201.933 166.325 201.865 166.328C201.827 166.317 201.777 166.344 201.784 166.335C201.769 166.348 201.829 166.305 201.876 166.259C201.983 166.155 202.103 165.997 202.214 165.836C202.662 165.167 203.039 164.382 203.394 163.606C203.746 162.826 204.076 162.023 204.377 161.229L205.437 158.435L205.536 161.365C205.566 162.244 205.664 163.162 205.866 163.997C206.041 164.812 206.503 165.683 206.852 165.581C206.984 165.599 207.168 165.457 207.349 165.087C207.517 164.742 207.629 164.312 207.708 163.881C207.864 163.013 207.913 162.082 207.899 161.199L207.893 160.882L208.171 160.686C210.79 158.822 213.181 156.471 215.337 154.025C217.518 151.573 219.469 148.929 221.213 146.166C224.672 140.621 227.278 134.607 229.112 128.403C228.391 131.545 227.411 134.647 226.221 137.688C225.051 140.736 223.572 143.686 221.9 146.536C220.21 149.376 218.304 152.115 216.14 154.667C213.937 157.197 211.584 159.575 208.786 161.602L209.056 161.089C209.086 162.069 209.053 163.018 208.893 164.011C208.807 164.506 208.698 165.008 208.457 165.534C208.333 165.794 208.177 166.068 207.908 166.325C207.652 166.583 207.221 166.787 206.824 166.791C206.458 166.811 206.051 166.689 205.774 166.473C205.496 166.264 205.316 166.022 205.18 165.781C204.912 165.297 204.768 164.813 204.656 164.332C204.441 163.367 204.357 162.425 204.338 161.441L205.498 161.577C205.168 162.405 204.822 163.209 204.443 164.015C204.057 164.82 203.668 165.616 203.124 166.405C202.98 166.604 202.833 166.801 202.619 167.006C202.501 167.107 202.39 167.215 202.168 167.31C202.076 167.358 201.912 167.391 201.767 167.39C201.591 167.377 201.442 167.319 201.393 167.287C200.733 166.929 200.618 166.278 200.574 165.82C200.533 164.839 200.748 163.983 201.021 163.103L201.726 163.563C199.475 165.131 197.085 166.448 194.628 167.59C192.159 168.706 189.654 169.731 187.083 170.538Z" fill="#9A7279"/>
</g>
</g>
<path d="M166.216 166.265C166.328 165.276 166.721 164.325 167.248 163.448C167.774 162.566 168.489 161.774 169.325 161.111C170.167 160.451 171.169 159.967 172.211 159.733C173.247 159.454 174.328 159.526 175.302 159.758C174.295 160.04 173.358 160.234 172.496 160.642C171.638 161.023 170.823 161.469 170.105 162.057C168.627 163.189 167.423 164.647 166.216 166.265Z" fill="#9A7279"/>
<path d="M155.485 164.885C155.602 163.828 155.976 162.809 156.466 161.846C156.955 160.877 157.61 159.976 158.382 159.163C159.185 158.374 160.127 157.693 161.18 157.24C162.231 156.781 163.395 156.631 164.471 156.743C163.428 157.142 162.482 157.524 161.625 158.079C160.783 158.642 160.001 159.267 159.294 159.987C157.878 161.434 156.705 163.104 155.485 164.885Z" fill="#9A7279"/>
<mask id="mask15_382_3920" style="mask-type:luminance" maskUnits="userSpaceOnUse" x="133" y="164" width="54" height="64">
<path d="M148.555 164.132L186.428 171.518L171.778 227.189L133.905 219.804L148.555 164.132Z" fill="white"/>
</mask>
<g mask="url(#mask15_382_3920)">
<g opacity="0.479996">
<path d="M186.287 172.032C179.195 170.074 171.654 169.03 164.23 170.178C160.539 170.768 156.922 172.029 153.791 174.065C150.645 176.081 148.098 178.927 146.319 182.143C142.828 188.649 141.02 195.997 141.333 203.167C141.572 210.325 144.046 217.377 148.873 222.739C146.242 220.274 144.163 217.234 142.73 213.904C141.312 210.564 140.474 206.958 140.247 203.281C139.846 195.925 141.525 188.319 145.293 181.638C147.179 178.287 149.9 175.293 153.228 173.195C156.55 171.077 160.364 169.902 164.149 169.377C167.951 168.86 171.769 168.937 175.475 169.454C179.183 169.967 182.807 170.836 186.287 172.032Z" fill="#9A7279"/>
</g>
</g>
<mask id="mask16_382_3920" style="mask-type:luminance" maskUnits="userSpaceOnUse" x="159" y="123" width="10" height="15">
<path d="M162.851 123.201L168.428 124.304L165 137.496L159.424 136.394L162.851 123.201Z" fill="white"/>
</mask>
<g mask="url(#mask16_382_3920)">
<g opacity="0.479996">
<path d="M167.158 125.648C166.748 125.299 166.334 124.959 165.897 124.669C165.677 124.529 165.451 124.397 165.222 124.317C164.998 124.233 164.763 124.223 164.712 124.282C164.598 124.274 164.719 124.858 164.951 125.264C165.171 125.699 165.472 126.131 165.763 126.527L167.304 128.617L164.996 127.279C164.577 127.036 164.086 126.8 163.648 126.692C163.435 126.637 163.213 126.629 163.173 126.65C163.152 126.655 163.194 126.65 163.196 126.628C163.241 126.581 163.218 126.541 163.232 126.586C163.273 126.81 163.663 127.254 163.992 127.588C164.348 127.939 164.754 128.283 165.154 128.587L165.779 129.058L165.11 129.543C164.592 129.92 164.025 130.431 163.547 130.955C163.057 131.488 162.587 132.045 162.174 132.646C161.753 133.242 161.364 133.864 161.008 134.511C160.638 135.153 160.354 135.833 160.036 136.516C160.136 135.785 160.311 135.057 160.545 134.341C160.754 133.614 161.096 132.927 161.439 132.24C161.817 131.567 162.237 130.91 162.733 130.3C163.242 129.688 163.748 129.121 164.445 128.592L164.403 129.548C163.934 129.211 163.508 128.864 163.088 128.469C162.881 128.267 162.676 128.064 162.492 127.813C162.312 127.561 162.117 127.315 162.02 126.867C161.972 126.647 161.989 126.329 162.17 126.032C162.336 125.783 162.609 125.589 162.866 125.524C163.376 125.394 163.723 125.495 164.036 125.584C164.655 125.788 165.133 126.069 165.631 126.4L164.865 127.152C164.557 126.67 164.313 126.185 164.105 125.647C164.009 125.373 163.911 125.098 163.887 124.766C163.877 124.597 163.883 124.414 163.944 124.206C164.018 123.994 164.196 123.77 164.427 123.68C164.903 123.497 165.246 123.691 165.493 123.835C165.752 123.992 165.956 124.182 166.154 124.377C166.543 124.764 166.875 125.191 167.158 125.648Z" fill="#9A7279"/>
</g>
</g>
<mask id="mask17_382_3920" style="mask-type:luminance" maskUnits="userSpaceOnUse" x="187" y="172" width="22" height="14">
<path d="M190.062 172.711L208.425 176.308L205.922 185.856L187.56 182.259L190.062 172.711Z" fill="white"/>
</mask>
<g mask="url(#mask17_382_3920)">
<g opacity="0.479996">
<path d="M190.071 172.713C191.861 173.043 193.519 173.783 195.091 174.616C196.666 175.456 198.126 176.478 199.494 177.602C200.855 178.735 202.104 179.994 203.186 181.382C204.31 182.735 205.179 184.282 205.92 185.858C204.745 184.554 203.626 183.253 202.403 182.047C201.195 180.832 199.953 179.655 198.62 178.576C197.313 177.47 195.937 176.439 194.521 175.452C193.082 174.501 191.655 173.499 190.071 172.713Z" fill="#9A7279"/>
</g>
</g>
<path d="M242.984 114.711C238.131 116.144 232.792 116.5 228.366 115.98C226.896 115.804 225.373 115.453 224.356 114.447C221.909 111.998 225.092 109.21 227.479 108.162C229.22 107.399 231.101 107.054 232.927 106.539C234.712 106.038 236.46 105.385 238.129 104.573C238.734 105.551 239.302 106.556 239.836 107.588C241.023 109.848 242.073 112.232 242.984 114.711Z" fill="#9A7279"/>
<path d="M247.798 132.896C245.707 132.712 243.638 132.36 241.751 131.556C241.045 131.251 240.344 130.879 239.864 130.306C239.372 129.729 239.112 128.934 239.357 128.203C239.542 127.619 240.013 127.16 240.521 126.783C242.082 125.604 244.176 124.901 246.34 124.444C246.951 127.188 247.443 130.012 247.798 132.896Z" fill="#9A7279"/>
<path d="M249.003 154.105C244.579 154.184 240.187 153.204 236.384 151.201C235.547 150.759 234.715 150.249 234.187 149.491C233.67 148.722 233.522 147.64 234.086 146.859C234.65 146.072 235.705 145.801 236.667 145.643C240.813 144.966 244.998 145.264 249.15 144.787C249.168 145.814 249.173 146.84 249.171 147.871C249.167 149.945 249.107 152.023 249.003 154.105Z" fill="#9A7279"/>
<path d="M247.601 170.333C245.155 169.805 242.884 168.76 241.317 167.284C240.833 166.841 240.413 166.314 240.236 165.693C240.088 165.174 240.114 164.723 240.282 164.313C241.082 162.416 245.011 161.619 248.811 161.237C248.69 162.466 248.549 163.698 248.387 164.919C248.165 166.734 247.895 168.54 247.601 170.333Z" fill="#9A7279"/>
<path d="M221.797 222.951C221.36 223.225 220.925 223.493 220.485 223.752C217.883 225.277 215.213 226.488 212.528 227.43C212.039 227.606 211.547 227.767 211.058 227.921C209.708 224.542 209.346 220.663 210.358 217.501C210.6 216.76 210.951 216.027 211.53 215.475C212.005 215.025 212.507 214.77 213.03 214.704C215.871 214.304 219.281 218.911 221.797 222.951Z" fill="#9A7279"/>
<path d="M198.593 229.801C197.62 229.873 196.652 229.927 195.704 229.958C193.26 230.031 190.902 229.966 188.681 229.804C188.218 227.714 187.99 225.609 188.453 223.408C189.112 220.227 192.537 221.197 194.302 222.767C195.831 224.124 196.738 226.091 197.546 227.915C197.806 228.494 198.18 229.13 198.593 229.801Z" fill="#9A7279"/>
<path d="M236.01 207.423C234.296 210.53 232.478 213.281 230.583 215.586C224.411 212.365 219.188 207.344 216.983 200.945C216.27 198.872 216.08 196.164 217.952 194.788C219.633 193.553 222.061 194.179 223.702 195.332C226.026 196.962 227.515 199.423 229.306 201.581C231.071 203.709 233.17 205.574 235.511 207.118C235.672 207.226 235.843 207.329 236.01 207.423Z" fill="#9A7279"/>
<path d="M243.886 187.997C243.474 189.371 243.049 190.716 242.602 192.038C241.597 195.003 240.513 197.837 239.36 200.503L239.357 200.515C235.923 198.367 233.008 195.513 230.6 192.338C228.159 189.149 227.97 184.27 233.322 183.62C237.12 183.163 240.113 185.551 242.956 187.457C243.237 187.65 243.549 187.827 243.886 187.997Z" fill="#9A7279"/>
<path d="M176.909 107.851L178.83 111.596L182.997 112.089L187.481 107.341L181.789 102.497L176.029 105.061L177.623 107.767L176.909 107.851Z" fill="#9A7279"/>
<path d="M181.698 102.337L177.515 109.437L163.962 98.7785C163.962 98.7785 174.769 101.496 181.698 102.337Z" fill="white"/>
<path d="M181.848 102.76L185.026 111.297C185.026 111.297 201.066 108.351 209.985 101.109C209.985 101.109 194.651 103.96 181.848 102.76Z" fill="white"/>
<path d="M183.384 111.91C183.384 111.91 181.916 124.06 181.081 148.055L176.813 150.71C176.813 150.71 171.721 149.16 166.027 150.699C166.027 150.699 176.858 121.113 179.307 111.419L183.384 111.91Z" fill="#EA5D80"/>
<mask id="mask18_382_3920" style="mask-type:luminance" maskUnits="userSpaceOnUse" x="152" y="130" width="42" height="38">
<path d="M160.472 130.033L193.042 136.354L184.785 167.596L152.215 161.275L160.472 130.033Z" fill="white"/>
</mask>
<g mask="url(#mask18_382_3920)">
<g opacity="0.479996">
<path d="M152.218 161.293C152.983 159.016 154.424 156.926 156.206 155.182C158.008 153.444 160.191 152.082 162.527 151.127L164.317 150.521C164.916 150.324 165.535 150.234 166.145 150.087C167.364 149.753 168.609 149.734 169.843 149.587C171.078 149.513 172.305 149.574 173.537 149.567L177.168 149.969L176.76 150.041C179.85 148.315 182.835 146.269 185.622 144.036C187.024 142.921 188.311 141.682 189.586 140.428C190.853 139.16 191.973 137.772 193.047 136.332C191.316 139.453 188.888 142.232 186.18 144.658C184.824 145.873 183.417 147.042 181.93 148.103C180.444 149.171 178.937 150.18 177.313 151.088L177.139 151.185L176.904 151.161L173.383 150.805C172.204 150.809 171.02 150.735 169.84 150.794C167.482 150.966 165.112 151.293 162.862 152.106C160.618 152.897 158.478 154.07 156.66 155.65C154.825 157.206 153.268 159.12 152.218 161.293Z" fill="#9A7279"/>
</g>
</g>
<path d="M203.621 174.962C203.499 175.688 202.797 176.213 202.046 176.106L149.941 169.511C149.198 169.419 148.698 168.755 148.823 168.018L148.994 166.944L149.214 165.64C149.326 164.947 149.985 164.45 150.692 164.487C150.728 164.495 150.753 164.488 150.788 164.495L200.827 170.762C200.945 170.775 201.049 170.796 201.165 170.82C202.626 171.143 203.654 172.367 203.729 173.803C203.739 174.056 203.727 174.303 203.686 174.558L203.621 174.962Z" fill="#9A7279"/>
<path d="M203.732 173.894L148.952 166.969L148.918 166.962L149.364 164.347L150.649 164.504L201.163 170.896C202.624 171.223 203.654 172.453 203.732 173.894Z" fill="#EA5D80"/>
<path d="M153.294 169.5L146.819 123.42C146.212 119.096 142.723 115.774 138.215 115.227L67.1447 106.617C63.3714 106.159 60.0468 109.329 60.492 112.96L66.018 158.022L153.294 169.5Z" fill="#9A7279"/>
<path d="M150.572 169.165L143.977 122.992C143.37 118.668 139.88 115.345 135.373 114.799L64.3001 106.188C60.5268 105.73 57.2022 108.9 57.6474 112.531L63.1748 157.594L150.572 169.165Z" fill="#EA5D80"/>
<path d="M175.773 81.0158C180.685 88.4771 183.238 81.4521 182.798 76.5744" stroke="#9A7279" stroke-width="0.86319" stroke-linecap="round"/>
<path d="M189.772 81.01C184.265 88.2647 182.3 81.0215 183.14 76.1195" stroke="#9A7279" stroke-width="0.86319" stroke-linecap="round"/>
<path fill-rule="evenodd" clip-rule="evenodd" d="M42.1563 193.39C42.103 193.095 42.0629 192.803 42.0369 192.511C41.9979 192.074 42.022 191.633 42.0082 191.195C42.0021 191.01 41.9783 190.526 41.9879 190.456C42.0749 189.85 42.5995 189.757 42.7529 189.74C42.8271 189.73 43.5893 189.651 43.7537 190.44C43.9554 191.404 44.0201 192.375 43.9487 193.327C44.1152 194.135 44.4001 194.941 44.7762 195.67C46.2727 198.571 49.1245 198.852 52.2143 198.826C52.6895 198.819 53.0841 199.167 53.1089 199.608C53.1338 200.052 52.7801 200.437 52.307 200.476C50.5799 200.632 47.5157 201.925 46.4563 203.271C46.2347 203.552 46.1058 204.232 45.9354 204.898C45.6974 205.823 45.4144 206.738 45.0972 207.122C45.0496 207.182 44.4711 207.792 44.2985 207.881C43.8837 208.094 43.5516 207.971 43.363 207.858C43.1745 207.746 42.961 207.523 42.8758 207.156C42.7866 206.771 42.8619 205.982 42.8481 205.813C42.7977 205.2 42.6663 203.997 42.3981 202.962C42.2536 202.406 42.0994 201.892 41.8445 201.637C40.9005 200.692 39.3911 200.831 38.1201 200.987C37.9741 201.004 37.8281 201.023 37.6825 201.04C37.1651 201.183 36.6157 201.289 36.035 201.352C35.1581 201.448 35.014 200.695 35.0062 200.646C34.9898 200.536 34.9291 199.973 35.59 199.747C35.6621 199.724 36.1941 199.615 36.399 199.572C36.6846 199.512 36.9733 199.466 37.2631 199.422C40.2566 198.554 41.8824 196.114 42.1563 193.39ZM43.1837 196.403C44.3138 198.584 46.0288 199.638 48.0616 200.115H48.0613C46.792 200.735 45.6374 201.511 45.0255 202.29C44.7932 202.585 44.5801 203.178 44.388 203.844C44.2839 203.224 44.1433 202.565 43.9576 202.001C43.7463 201.358 43.4618 200.825 43.1443 200.506C42.5313 199.893 41.762 199.552 40.9349 199.383C41.9251 198.564 42.6758 197.543 43.1837 196.403Z" fill="#F39D90"/>
<path fill-rule="evenodd" clip-rule="evenodd" d="M242.738 46.6166C243.41 46.3931 244.117 46.0962 244.662 45.6663C245.31 45.1556 245.573 44.498 245.75 43.8057C245.977 42.9163 246.067 41.9689 246.343 41.0781C246.445 40.7473 246.641 40.6222 246.725 40.5667C246.938 40.4266 247.153 40.3891 247.355 40.4031C247.595 40.4194 247.924 40.504 248.141 40.8792C248.172 40.9329 248.212 41.0147 248.239 41.1268C248.259 41.2089 248.271 41.4659 248.292 41.5718C248.344 41.8327 248.388 42.0936 248.429 42.356C248.565 43.2291 248.644 43.9708 249.074 44.7729C249.658 45.8619 250.244 46.5283 251.037 46.8234C251.805 47.1088 252.723 47.0551 253.895 46.8313C254.007 46.8061 254.117 46.7845 254.227 46.7668C254.744 46.6825 255.238 46.9993 255.339 47.48C255.441 47.9604 255.112 48.4285 254.6 48.5341C254.493 48.556 254.388 48.5769 254.283 48.596C252.699 48.9622 250.864 50.2689 249.798 51.413C249.47 51.7658 248.989 52.7521 248.498 53.3813C248.136 53.8455 247.729 54.1514 247.387 54.2595C247.158 54.3323 246.965 54.3212 246.806 54.2844C246.574 54.2311 246.382 54.1139 246.234 53.9276C246.154 53.8257 246.079 53.6891 246.044 53.5147C246.027 53.4307 246.025 53.2174 246.025 53.1208C245.925 52.7997 245.803 52.4862 245.714 52.1622C245.501 51.3892 245.084 50.8999 244.588 50.2534C244.124 49.6483 243.626 49.2681 242.896 48.9647C242.801 48.9431 242.035 48.7679 241.764 48.6674C241.369 48.52 241.18 48.2731 241.112 48.1402C240.996 47.9146 240.984 47.7175 241.007 47.5531C241.041 47.3106 241.158 47.1031 241.365 46.9355C241.493 46.8313 241.684 46.7301 241.941 46.6807C242.139 46.6421 242.664 46.6198 242.738 46.6166ZM247.234 45.3567C247.27 45.4306 247.308 45.5048 247.348 45.5798C248.203 47.1748 249.16 48.0652 250.323 48.4973L250.362 48.5114C249.584 49.0505 248.88 49.653 248.342 50.2307C248.12 50.4685 247.827 50.9626 247.51 51.4692C247.222 50.5954 246.75 49.9777 246.158 49.2047C245.706 48.6148 245.232 48.1708 244.649 47.809C245.101 47.5924 245.532 47.3387 245.908 47.0425C246.534 46.5492 246.947 45.9776 247.234 45.3567Z" fill="#F39D90"/>
<path d="M268.007 80.7268C268.007 80.7268 266.891 78.2743 265.041 76.0254C265.134 75.9026 265.235 75.7686 265.324 75.6515C265.036 75.5393 264.742 75.4396 264.447 75.3448C264.215 75.0924 263.977 74.8431 263.727 74.6072C263.631 74.7453 263.523 74.9021 263.422 75.0476C260.495 74.2909 257.639 74.2467 257.639 74.2467C257.639 74.2467 253.541 74.9477 253.995 78.5497C254.01 78.6671 253.781 78.9906 253.743 79.1151C253.59 79.6234 253.595 80.165 253.722 80.6774C254.106 82.2276 255.463 83.3135 256.75 84.2487C258.746 85.7004 263.101 88.1961 265.102 85.4952C268.849 84.5351 268.007 80.7268 268.007 80.7268Z" fill="#EA5D80"/>
<path d="M255.085 76.7875C254.073 74.9082 254.815 72.6654 256.515 71.1671C259.611 68.4373 260.861 67.6173 258.382 62.2365C255.859 56.762 258.223 44.8898 272.308 42.5248C288.625 39.785 301.405 54.7325 295.43 68.7281C289.454 82.7246 273.868 76.7895 272.18 79.3503C270.493 81.9102 268.5 85.1889 263.398 82.876C261.409 81.9746 259.563 80.8057 257.876 79.4738C257.166 78.9125 256.408 78.3869 255.784 77.7385C255.494 77.4369 255.262 77.1175 255.085 76.7875Z" fill="#FFC77D"/>
<path d="M266.19 58.7201C265.695 59.4365 264.891 61.6213 264.862 64.0634C264.855 64.6357 264.893 65.2767 265.024 65.8984C265.74 64.0811 266.236 62.1746 266.284 60.3283C266.306 59.4615 266.247 58.9797 266.19 58.7201ZM274.391 63.813C273.942 63.6461 272.598 64.4012 271.292 66.2345C270.749 67 270.297 67.8476 270.03 68.6693C270.376 68.5551 270.693 68.4111 270.976 68.2609C273.086 67.139 274.554 64.9679 274.512 64.052C274.504 63.8614 274.436 63.8321 274.405 63.8181L274.391 63.813ZM278.273 70.6946C278.139 70.6448 277.955 70.6278 277.724 70.6451C276.541 70.732 274.681 71.6136 272.687 72.8617C274.822 73.2181 277.371 72.5502 278.295 71.7123C278.833 71.2247 278.583 70.9528 278.449 70.8071C278.405 70.76 278.346 70.7221 278.273 70.6946ZM263.298 80.6342C263.269 80.6236 263.242 80.6102 263.215 80.595C262.966 80.4513 262.889 80.1468 263.043 79.9144C264.302 78.0067 267.357 75.2943 270.472 73.1365C270.232 73.0006 270.006 72.844 269.798 72.6678C268.943 71.9421 268.649 70.9587 268.713 69.9018C267.744 69.9281 266.812 69.6844 265.967 69.1724C265.62 68.9614 265.322 68.7058 265.069 68.4124C262.867 72.8825 259.834 76.3406 259.638 76.5625C259.451 76.773 259.116 76.8017 258.892 76.629C258.666 76.4546 258.634 76.1424 258.821 75.9328C258.871 75.877 262.202 72.0753 264.398 67.3549C263.248 64.8448 263.957 61.0377 264.844 59.0372C265.342 57.9149 265.867 57.4256 266.449 57.5411C267.143 57.6789 267.39 58.4913 267.342 60.3517C267.281 62.7125 266.555 65.1272 265.569 67.3463C265.81 67.7458 266.128 68.0909 266.544 68.3425C267.338 68.8253 268.131 68.9605 268.868 68.9068C269.142 67.7821 269.732 66.641 270.411 65.6872C271.68 63.9034 273.551 62.3445 274.85 62.9214C275.292 63.1124 275.548 63.4992 275.571 64.0105C275.638 65.5152 273.697 67.9508 271.501 69.1204C270.929 69.423 270.356 69.6388 269.788 69.7662C269.698 70.6388 269.896 71.4137 270.511 71.9364C270.781 72.1645 271.089 72.3505 271.423 72.4972C273.834 70.9241 276.176 69.767 277.642 69.6596C278.356 69.6058 278.897 69.7762 279.253 70.163C279.899 70.8662 279.818 71.7101 279.034 72.4214C277.647 73.678 274.157 74.4198 271.552 73.6011C268.41 75.7286 265.194 78.5416 263.944 80.4336C263.807 80.6415 263.532 80.7213 263.298 80.6342Z" fill="white"/>
<path d="M276.993 46.6782C277.138 46.9322 277.39 47.1147 277.644 47.2793C278.079 47.5601 278.544 47.8118 279.053 47.9438C279.934 48.1725 281.159 48.0051 281.203 46.9901C281.236 46.2409 280.648 45.2665 280.051 44.7943C278.724 43.7473 276.031 44.9886 276.993 46.6782Z" fill="white"/>
<path d="M265.902 47.1834C265.122 47.763 264.594 48.5801 264.082 49.3796C263.518 50.2631 263.397 51.8448 264.563 52.3714C266.092 53.0611 267.322 51.366 268.211 50.5385C268.897 49.8993 270.048 49.6673 270.916 49.3186C272.042 48.8665 275.724 47.4371 274.047 45.887C271.917 43.9207 267.773 45.7946 265.902 47.1834Z" fill="white"/>
<path d="M253.998 78.5503C254.756 79.3825 255.453 80.2094 256.248 80.9446C257.036 81.6817 257.873 82.3573 258.786 82.9297C259.687 83.5181 260.666 83.9898 261.689 84.3936C262.721 84.7817 263.8 85.0799 264.933 85.3499C263.774 85.4917 262.581 85.3995 261.429 85.1265C260.277 84.8491 259.178 84.3701 258.188 83.7452C257.208 83.1062 256.328 82.3351 255.623 81.4458C254.904 80.5705 254.366 79.5731 253.998 78.5503Z" fill="#9A7279"/>
<path d="M272.821 85.9059C272.005 85.4803 271.304 85.6271 271.203 86.569C271.051 87.9943 271.458 89.3647 271.959 90.686C272.841 93.0131 273.443 95.5515 275.187 97.4914C276.19 98.6066 277.988 99.4596 279.574 99.1967C282.04 98.7871 281.436 96.7473 280.524 95.2108C279.148 92.8903 277.479 90.6555 275.831 88.4945C275.073 87.5016 273.98 86.5289 272.85 85.9213C272.84 85.9163 272.83 85.9105 272.821 85.9059Z" fill="#FFC77D"/>
<path d="M274.54 83.0649C273.827 83.2215 273.506 83.6526 273.981 84.2466C274.702 85.1449 275.713 85.7348 276.752 86.251C278.579 87.1586 280.365 88.3273 282.473 88.5864C283.684 88.7357 285.206 88.3403 285.973 87.4044C287.164 85.9513 285.659 85.0714 284.262 84.6346C282.152 83.9735 279.922 83.507 277.745 83.0731C276.745 82.8738 275.563 82.8514 274.566 83.0597C274.557 83.0609 274.548 83.0629 274.54 83.0649Z" fill="#FFC77D"/>
</svg>
