<svg width="100" height="100" viewBox="0 0 100 100" fill="none" xmlns="http://www.w3.org/2000/svg">
<g clip-path="url(#clip0_382_2253)">
<circle cx="50" cy="50" r="50" fill="#EA5D80"/>
<path d="M55.4414 25.4932C56.6154 24.0412 57.8199 22.0706 58.1644 19.8566C58.518 17.5581 59.1036 15.4051 59.9316 13.6437C60.7511 11.9002 61.8606 10.4305 63.3263 9.66816C63.6341 9.5071 63.9429 9.38898 64.2568 9.29885L64.2568 9.29883L64.2631 9.29706C64.8012 9.14638 65.348 9.23197 65.8231 9.39923C66.3054 9.56897 66.791 9.84911 67.2602 10.1949C68.1997 10.8873 69.1811 11.9227 70.0762 13.179C71.8595 15.6821 73.4069 19.2138 73.5555 23.0218C73.5578 23.0522 73.5588 23.0831 73.5583 23.1141C73.5795 23.8168 73.5586 24.5286 73.4767 25.2483C73.4755 25.266 73.4737 25.2839 73.4714 25.3019C73.4683 25.3269 73.4643 25.3509 73.4596 25.3738C73.2847 26.8402 72.871 28.3186 72.1711 29.7647L72.1709 29.765C70.9161 32.3551 69.0101 33.6736 66.8487 34.0967C64.7527 34.5069 62.5176 34.0572 60.5453 33.3526C58.558 32.6426 56.7356 31.6367 55.4203 30.8182C54.7598 30.4072 54.2207 30.0393 53.845 29.773C53.657 29.6397 53.5096 29.5315 53.408 29.4558C53.3572 29.4179 53.3178 29.3881 53.2905 29.3673L53.2587 29.343L53.2497 29.336L53.247 29.3339L53.246 29.3332C53.2457 29.3329 53.2454 29.3327 53.8594 28.5434L53.2454 29.3327L52.2435 28.5534L53.2347 27.7625L53.235 27.7623L53.2353 27.762L53.2354 27.7619L53.2357 27.7617L53.2415 27.757L53.272 27.7319C53.3003 27.7085 53.344 27.6717 53.4012 27.6223C53.5156 27.5233 53.6836 27.3736 53.8892 27.1778C54.3013 26.7855 54.8602 26.2119 55.4414 25.4932Z" fill="#FFBF6D" stroke="white" stroke-width="2"/>
<path d="M30.5809 35.5772C31.5802 35.6151 31.5802 35.6155 31.5802 35.6159L31.5801 35.6171L31.58 35.6205L31.5795 35.6319L31.5777 35.6723C31.576 35.7069 31.5735 35.7566 31.5697 35.8204C31.5623 35.9481 31.5501 36.1322 31.5309 36.3644C31.4927 36.8286 31.4267 37.4863 31.315 38.2693C31.0924 39.8295 30.685 41.9142 29.9418 43.9646C29.203 46.0028 28.1025 48.0916 26.4443 49.5748C24.7472 51.0927 22.511 51.9317 19.6706 51.4986C19.5359 51.4785 19.3758 51.4537 19.2112 51.4178C13.8806 50.4143 10.65 46.452 9.05489 42.6208C8.25463 40.6988 7.84183 38.7597 7.78127 37.1484C7.75105 36.3442 7.80737 35.5904 7.9658 34.9468C8.11791 34.3289 8.39408 33.6918 8.90076 33.265C8.94762 33.2247 9.00777 33.1753 9.07428 33.1271C10.5067 32.0335 12.4509 31.8156 14.4619 32.0765C16.5005 32.341 18.7696 33.1154 21.021 34.2105C23.026 35.1822 25.3216 35.305 27.1774 35.1581C28.0959 35.0854 28.8831 34.9486 29.4385 34.8304C29.7156 34.7714 29.9336 34.7174 30.0797 34.6789C30.1527 34.6597 30.2076 34.6444 30.2428 34.6343L30.2807 34.6233L30.2878 34.6212L30.2882 34.621L30.2883 34.621L30.2887 34.6209L30.289 34.6208L31.6335 34.2086L31.5802 35.6151L30.5809 35.5772Z" fill="#FFBF6D" stroke="white" stroke-width="2"/>
<path d="M172.146 117.229C171.869 112.945 170.952 108.565 169.268 104.152C168.117 101.122 166.604 98.0687 164.686 95.0167C163.662 93.389 162.565 91.8681 161.382 90.4325C158.621 87.0375 155.488 84.157 152.196 81.7036C148.849 79.1979 145.343 77.142 141.922 75.4599C138.234 73.6392 134.633 72.258 131.424 71.2187C124.369 68.9164 119.244 68.2735 119.244 68.2735C112.065 54.0948 97.626 49.336 92.1334 47.9979C92.1018 47.7289 92.0711 47.4588 92.0292 47.1877C91.9107 46.3086 91.7278 45.4101 91.4876 44.5187C91.3262 43.8615 91.1269 43.2135 90.9 42.5583C90.2655 40.7098 89.4388 38.925 88.4322 37.2542C87.9775 36.4974 87.487 35.7631 86.9689 35.0546C86.3599 34.233 85.71 33.4402 85.0069 32.7009C82.581 30.0863 79.6217 27.9924 76.2659 26.6368C69.9916 24.1034 62.9459 23.7132 56.2353 24.6651C54.7893 24.8674 53.3638 25.1375 51.9628 25.4569C51.5347 25.5545 51.1055 25.652 50.6763 25.7486C50.0611 25.9026 49.4501 26.0484 48.8472 26.1984C48.5518 26.2723 48.2443 26.3483 47.9643 26.4325C44.1333 27.4163 40.659 28.5397 37.1059 30.1674C36.8566 30.2711 36.6113 30.3872 36.3651 30.5032C35.8133 30.761 35.2563 31.028 34.7056 31.3196C33.4068 31.9748 32.0977 32.6998 30.7376 33.5214C29.8445 34.0646 28.933 34.6387 28.0246 35.2589C22.109 39.2701 16.1362 44.8535 13.4272 51.4083C12.7589 53.0072 12.2878 54.6873 11.9935 56.4136C11.735 57.8584 11.6093 59.3341 11.6032 60.8088C11.5909 61.8439 11.6482 62.8914 11.7544 63.9265C11.9588 65.8931 12.3706 67.8391 12.9807 69.6937C13.1156 70.1158 13.2709 70.541 13.4354 70.9497C13.7052 71.6747 14.0066 72.3668 14.3459 73.0487C14.9845 74.4104 15.7397 75.7054 16.5981 76.9233C18.3955 79.4875 20.6447 81.7293 23.2606 83.4206C23.9903 83.8951 24.7689 84.3233 25.5701 84.7279C21.9884 102.045 29.2437 108.543 29.2437 108.543L42.298 116.318L53.4568 122.959C53.4568 122.959 60.6395 165.027 95.0192 174.945C129.41 184.862 150.043 165.027 150.043 165.027C150.043 165.027 149.328 169.312 149.051 174.474C148.668 181.842 149.179 191.01 153.922 192.07C162.001 193.88 154.359 175.577 160.305 167.437C164.206 162.114 157.908 155.485 157.908 155.485C166.54 145.589 173.115 132.009 172.146 117.229Z" fill="#FFBF6D"/>
<path d="M159.227 155.486C167.698 145.512 174.114 131.955 173.144 117.165C173.144 117.164 173.143 117.164 173.143 117.164L172.146 117.229C171.869 112.945 170.952 108.565 169.268 104.152L159.227 155.486ZM159.227 155.486C159.349 155.636 159.485 155.81 159.63 156.003C160.187 156.744 160.894 157.799 161.475 159.041C162.624 161.496 163.382 164.929 161.113 168.027C159.785 169.845 159.172 172.298 158.932 175.061C158.723 177.467 158.803 179.995 158.88 182.403C158.891 182.757 158.903 183.108 158.913 183.455C158.99 186.087 159.019 188.65 158.443 190.436C158.145 191.359 157.646 192.21 156.784 192.724C155.915 193.242 154.865 193.306 153.703 193.046C152.19 192.708 151.069 191.725 150.26 190.443C149.461 189.176 148.933 187.568 148.584 185.835C147.886 182.365 147.86 178.132 148.053 174.422L148.053 174.42C148.193 171.81 148.443 169.424 148.658 167.691C148.668 167.612 148.678 167.534 148.688 167.458C148.17 167.856 147.557 168.307 146.849 168.795C144.326 170.535 140.605 172.744 135.793 174.636C126.161 178.424 112.178 180.934 94.7421 175.906L94.742 175.906C77.1841 170.841 66.6164 157.576 60.4578 145.693C57.3749 139.745 55.3809 134.114 54.1572 129.971C53.5451 127.898 53.1248 126.195 52.857 125.006C52.7231 124.412 52.6273 123.946 52.5646 123.627C52.562 123.614 52.5594 123.6 52.5569 123.587L41.7866 117.178L41.7863 117.177L28.732 109.403L28.6487 109.353L28.5765 109.288L29.2437 108.543C28.5765 109.288 28.5759 109.288 28.5753 109.287L28.5739 109.286L28.5706 109.283L28.5621 109.275L28.5374 109.252C28.5177 109.234 28.4913 109.208 28.459 109.176C28.3943 109.112 28.3056 109.021 28.1974 108.901C27.9811 108.662 27.6867 108.31 27.3504 107.836C26.6776 106.888 25.8389 105.454 25.123 103.469C23.729 99.6021 22.8191 93.6931 24.4421 85.2696C23.8535 84.9558 23.2739 84.622 22.7166 84.2597M159.227 155.486L56.2353 24.6651L56.0967 23.6748C54.6193 23.8815 53.1657 24.1571 51.7407 24.4819M22.7166 84.2597C22.717 84.2599 22.7173 84.2602 22.7177 84.2604L23.2606 83.4206L22.7155 84.259C22.7159 84.2592 22.7162 84.2595 22.7166 84.2597ZM22.7166 84.2597C19.9834 82.4923 17.6441 80.1574 15.7802 77.4987C14.8911 76.237 14.1081 74.8952 13.4454 73.4838C13.0949 72.7785 12.7826 72.0614 12.5028 71.3108C12.3326 70.8871 12.1709 70.4446 12.0294 70.0022C11.3972 68.0791 10.9712 66.0643 10.7598 64.0299L10.7597 64.0287C10.6503 62.9635 10.5906 61.8788 10.6032 60.8008C10.6098 59.2751 10.7398 57.7444 11.0084 56.2416C11.3143 54.4492 11.8047 52.6976 12.5037 51.0248C15.322 44.2069 21.4808 38.4883 27.4607 34.433C28.3887 33.7995 29.3162 33.2155 30.218 32.667L30.2206 32.6654C31.5982 31.8333 32.9266 31.0973 34.2465 30.4312C34.8164 30.1297 35.388 29.8559 35.9419 29.5972L35.9686 29.5846C36.197 29.4769 36.4476 29.3588 36.7053 29.251C40.3161 27.5982 43.8398 26.46 47.6961 25.4689C47.9767 25.3852 48.2776 25.31 48.5443 25.2433L48.6043 25.2283L48.6058 25.2279C48.8966 25.1556 49.1742 25.0879 49.4506 25.0204C49.7734 24.9417 50.0945 24.8634 50.4334 24.7785L50.4451 24.7756L50.4568 24.7729C50.8847 24.6767 51.3128 24.5794 51.7407 24.4819M51.7407 24.4819C51.7407 24.4819 51.7406 24.4819 51.7406 24.4819L51.9628 25.4569L51.7407 24.4819ZM11.7544 63.9265C11.6482 62.8914 11.5909 61.8439 11.6032 60.8088C11.6093 59.3341 11.735 57.8584 11.9935 56.4136L11.7544 63.9265ZM11.7544 63.9265C11.9588 65.8931 12.3706 67.8391 12.9807 69.6937L11.7544 63.9265ZM30.7376 33.5214C32.0977 32.6998 33.4068 31.9748 34.7056 31.3196C35.2563 31.028 35.8133 30.761 36.3651 30.5032L30.7376 33.5214ZM30.7376 33.5214C29.8445 34.0646 28.933 34.6387 28.0246 35.2589C22.109 39.2701 16.1362 44.8535 13.4272 51.4083L30.7376 33.5214ZM85.7316 32.0118C85.7329 32.0131 85.7342 32.0145 85.7355 32.0158C85.737 32.0175 85.7385 32.0191 85.74 32.0207L85.0069 32.7009L85.7316 32.0118ZM50.6763 25.7486C50.343 25.832 50.0109 25.9131 49.6807 25.9937C49.4014 26.0618 49.1234 26.1297 48.8472 26.1984L48.7917 26.2122C48.5136 26.2818 48.2268 26.3535 47.9643 26.4325C44.1333 27.4163 40.659 28.5397 37.1059 30.1674L50.6763 25.7486Z" fill="#FFBF6D" stroke="white" stroke-width="2"/>
<path d="M149.985 162.194C149.985 162.194 149.783 163.48 149.548 165.493C146.222 168.363 126.326 183.978 95.0258 174.95C60.6451 165.033 53.4624 122.964 53.4624 122.964L42.3047 116.324C42.8166 114.225 43.6689 112.286 44.9156 110.573C44.9156 110.573 59.0469 90.1063 86.3512 100.463C108.72 108.934 105.505 127.65 125.538 134.745C127.232 142.714 132.986 153.359 149.985 162.194Z" fill="#FFDFC5"/>
<mask id="mask0_382_2253" style="mask-type:luminance" maskUnits="userSpaceOnUse" x="45" y="52" width="22" height="21">
<path d="M45.6855 52.5215H66.2741V72.4336H45.6855V52.5215Z" fill="white"/>
</mask>
<g mask="url(#mask0_382_2253)">
<g opacity="0.479996">
<path d="M52.9701 53.6472C51.0715 54.517 49.599 55.9546 48.1704 57.7312C46.419 59.9073 45.1692 62.681 45.8927 65.5143C46.2197 66.7938 46.9074 67.9502 47.7545 68.9494C54.5162 76.9286 65.4768 69.4926 66.1706 63.6453C66.5569 60.3889 65.8896 56.5246 63.292 54.2715C60.5238 51.8706 56.094 52.2166 52.9701 53.6472Z" fill="#9A7279"/>
</g>
</g>
<path d="M76.9226 51.4955C74.9187 54.0628 71.0939 55.9184 67.8372 55.7038C67.1413 55.6576 66.4608 55.5097 65.8088 55.2427C62.9782 54.0648 60.6739 51.1535 59.7502 48.2432C59.7236 48.1785 59.7021 48.1107 59.6807 48.043C58.8019 45.0885 59.6429 41.8968 61.752 39.6797C64.2208 37.0877 68.4922 35.1191 71.9962 36.5999C73.3788 37.1863 74.6459 38.2071 75.6811 39.4815L75.6862 39.4794C78.4565 42.8693 79.605 48.0522 76.9226 51.4955Z" fill="white"/>
<path d="M76.9363 51.498C77.6005 50.6416 78.0471 49.6249 78.2617 48.5662C78.4834 47.5053 78.462 46.4065 78.2882 45.3447C78.1145 44.2798 77.7712 43.2477 77.3021 42.2824C76.8351 41.3161 76.2466 40.4114 75.5537 39.6032L75.7693 39.6586L75.7632 39.6617L75.6406 39.713L75.5476 39.6042C74.8742 38.8165 74.1006 38.1151 73.2351 37.5688C72.3706 37.0174 71.4213 36.6271 70.428 36.5142C69.4358 36.3879 68.4231 36.5029 67.4513 36.7606C66.4785 37.0194 65.5415 37.4333 64.676 37.9621C62.9398 39.0117 61.4101 40.4504 60.5691 42.266C60.3586 42.7199 60.192 43.1923 60.0602 43.6739C59.9447 44.1596 59.8476 44.6515 59.8119 45.1516C59.7781 45.6497 59.772 46.1539 59.8354 46.6509C59.8517 46.9015 59.91 47.1459 59.9478 47.3944C60.0091 47.6265 60.0622 47.9028 60.1317 48.0958L60.1419 48.1246C60.6508 49.819 61.5542 51.422 62.7589 52.7468C63.3629 53.4091 64.0434 54.0027 64.7965 54.4874C65.5486 54.9773 66.3753 55.3449 67.2592 55.4979C69.0352 55.805 70.8981 55.4424 72.5699 54.7328C74.2468 54.0222 75.7836 52.9275 76.9363 51.498ZM76.9363 51.498C75.801 52.947 74.259 54.0304 72.5995 54.8016C71.7646 55.1837 70.8858 55.4733 69.9815 55.6499C69.0782 55.8296 68.1442 55.8974 67.2163 55.7783C66.2864 55.6622 65.3892 55.3131 64.585 54.8407C63.7747 54.3703 63.0348 53.784 62.3706 53.1216C61.0463 51.7917 60.0183 50.1651 59.3847 48.368L59.396 48.3967C58.65 46.2504 58.79 43.9029 59.726 41.8737C60.19 40.8663 60.8286 39.9277 61.6247 39.1626C62.4054 38.3914 63.278 37.7259 64.2222 37.1796C66.1004 36.1065 68.3332 35.4667 70.5302 35.8446C71.6257 36.0233 72.6475 36.506 73.5263 37.1293C74.4143 37.7506 75.1838 38.5198 75.8409 39.3649L75.6253 39.3074L75.6314 39.3054L75.7642 39.2571L75.846 39.3618C76.5214 40.2296 77.0773 41.1836 77.5075 42.1879C77.9326 43.1943 78.2382 44.251 78.3904 45.3293C78.5396 46.4076 78.5161 47.5105 78.2923 48.5723C78.0665 49.6342 77.6087 50.6477 76.9363 51.498Z" fill="#9A7279"/>
<path d="M70.7085 52.7632C73.0855 52.1758 75.2437 50.2914 75.8303 47.8535C76.7633 43.9686 73.9479 39.6473 70.032 39.0579C67.9299 38.7416 65.5264 39.4697 64.0048 40.9782C59.9376 45.0089 63.3559 52.3453 68.7117 52.9142C69.3708 52.984 70.0473 52.9265 70.7085 52.7632Z" fill="#9A7279"/>
<path d="M67.8565 49.5432C69.0527 49.2511 70.1388 48.3138 70.434 47.1013C70.9035 45.1691 69.4867 43.0198 67.516 42.7266C66.4581 42.5693 65.2486 42.9314 64.4828 43.6817C62.436 45.6865 64.1562 49.3353 66.8516 49.6183C67.1833 49.653 67.5237 49.6244 67.8565 49.5432Z" fill="white"/>
<path d="M67.8565 49.5432C69.0527 49.2511 70.1388 48.3138 70.434 47.1013C70.9035 45.1691 69.4867 43.0198 67.516 42.7266C66.4581 42.5693 65.2486 42.9314 64.4828 43.6817C62.436 45.6865 64.1562 49.3353 66.8516 49.6183C67.1833 49.653 67.5237 49.6244 67.8565 49.5432Z" fill="white"/>
<path d="M69.349 42.6496C69.8806 42.5198 70.3633 42.1032 70.4945 41.5643C70.7032 40.7056 70.0735 39.7503 69.1977 39.62C68.7275 39.5501 68.1899 39.7111 67.8496 40.0445C66.9399 40.9355 67.7044 42.5572 68.9023 42.683C69.0498 42.6984 69.2011 42.6857 69.349 42.6496Z" fill="white"/>
<path d="M69.349 42.6496C69.8806 42.5198 70.3633 42.1032 70.4945 41.5643C70.7032 40.7056 70.0735 39.7503 69.1977 39.62C68.7275 39.5501 68.1899 39.7111 67.8496 40.0445C66.9399 40.9355 67.7044 42.5572 68.9023 42.683C69.0498 42.6984 69.2011 42.6857 69.349 42.6496Z" fill="white"/>
<mask id="mask1_382_2253" style="mask-type:luminance" maskUnits="userSpaceOnUse" x="59" y="36" width="17" height="13">
<path d="M59.332 36.0896H75.6775V48.2422H59.332V36.0896Z" fill="white"/>
</mask>
<g mask="url(#mask1_382_2253)">
<g opacity="0.210007">
<path d="M75.6809 39.4805C63.9003 38.813 60.1765 47.1711 59.7493 48.2422C59.7228 48.1765 59.7013 48.1087 59.6809 48.0419C58.802 45.0875 59.642 41.8948 61.7513 39.6787C64.2202 37.0867 68.4928 35.1181 71.9959 36.5989C73.3785 37.1843 74.6457 38.2061 75.6809 39.4805Z" fill="#9A7279"/>
</g>
</g>
<path d="M41.0125 69.7142C39.0076 72.2815 35.1838 74.1372 31.9271 73.9226C31.2312 73.8764 30.5506 73.7285 29.8987 73.4615C27.0681 72.2836 24.7638 69.3723 23.839 66.462C23.8135 66.3973 23.792 66.3295 23.7705 66.2617C22.8917 63.3073 23.7327 60.1156 25.8408 57.8984C28.3107 55.3065 32.5821 53.3379 36.0861 54.8187C37.4687 55.4051 38.7358 56.4258 39.7709 57.7002L39.776 57.6982C42.5463 61.0881 43.6949 66.272 41.0125 69.7142Z" fill="white"/>
<path d="M41.0267 69.7168C41.6909 68.8603 42.1374 67.8437 42.352 66.7849C42.5738 65.7241 42.5523 64.6253 42.3776 63.5634C42.2049 62.4985 41.8615 61.4665 41.3925 60.5012C40.9245 59.5348 40.3369 58.6301 39.6441 57.8209L39.8628 57.8763L39.8577 57.8784L39.734 57.9338L39.6379 57.8229C38.9635 57.0363 38.191 56.3339 37.3255 55.7876C36.461 55.2371 35.5117 54.8459 34.5184 54.7329C33.5262 54.6066 32.5135 54.7216 31.5417 54.9794C30.5689 55.2382 29.6318 55.652 28.7663 56.1809C27.0302 57.2304 25.4994 58.6681 24.6594 60.4847C24.4489 60.9376 24.2824 61.411 24.1505 61.8926C24.0351 62.3784 23.938 62.8703 23.9022 63.3704C23.8685 63.8684 23.8624 64.3727 23.9257 64.8697C23.9421 65.1203 24.0003 65.3647 24.0392 65.6132C24.0994 65.8463 24.1526 66.1205 24.221 66.3146L24.2313 66.3433C24.7412 68.0378 25.6445 69.6398 26.8493 70.9655C27.4532 71.6279 28.1338 72.2215 28.8869 72.7062C29.639 73.196 30.4657 73.5636 31.3496 73.7177C33.1256 74.0237 34.9885 73.6612 36.6602 72.9516C38.3371 72.241 39.874 71.1463 41.0267 69.7168ZM41.0267 69.7168C39.8914 71.1668 38.3494 72.2492 36.6899 73.0214C35.855 73.4024 34.9762 73.692 34.0718 73.8686C33.1685 74.0483 32.2345 74.1161 31.3067 73.997C30.3768 73.881 29.4796 73.5318 28.6754 73.0594C27.865 72.5891 27.1242 72.0027 26.461 71.3403C25.1366 70.0105 24.1086 68.3828 23.4751 66.5867L23.4853 66.6155C22.7404 64.4692 22.8793 62.1216 23.8164 60.0924C24.2803 59.0861 24.919 58.1464 25.715 57.3814C26.4957 56.6101 27.3684 55.9447 28.3126 55.3984C30.1908 54.3252 32.4236 53.6855 34.6206 54.0634C35.716 54.2421 36.7379 54.7247 37.6167 55.347C38.5047 55.9693 39.2731 56.7385 39.9312 57.5826L39.7115 57.5282L39.7166 57.5262L39.8525 57.4728L39.9363 57.5806C40.6108 58.4483 41.1677 59.4013 41.5979 60.4067C42.023 61.4131 42.3285 62.4698 42.4808 63.548C42.63 64.6263 42.6065 65.7292 42.3827 66.7911C42.1569 67.8529 41.6991 68.8675 41.0267 69.7168Z" fill="#9A7279"/>
<path d="M34.8218 70.9859C37.1987 70.3985 39.357 68.5141 39.9426 66.0761C40.8766 62.1913 38.0612 57.87 34.1453 57.2805C32.0422 56.9642 29.6397 57.6923 28.118 59.2009C24.0508 63.2316 27.4691 70.5679 32.825 71.1368C33.4841 71.2067 34.1596 71.1492 34.8218 70.9859Z" fill="#9A7279"/>
<path d="M35.4758 66.5159C36.6721 66.2237 37.7583 65.2865 38.053 64.0739C38.523 62.1417 37.1061 59.9925 35.1353 59.6993C34.0769 59.542 32.8678 59.9041 32.102 60.6544C30.0551 62.6591 31.7754 66.308 34.4709 66.591C34.8026 66.6257 35.1425 66.5971 35.4758 66.5159Z" fill="white"/>
<path d="M35.4758 66.5159C36.6721 66.2237 37.7583 65.2865 38.053 64.0739C38.523 62.1417 37.1061 59.9925 35.1353 59.6993C34.0769 59.542 32.8678 59.9041 32.102 60.6544C30.0551 62.6591 31.7754 66.308 34.4709 66.591C34.8026 66.6257 35.1425 66.5971 35.4758 66.5159Z" fill="white"/>
<path d="M29.2338 63.4817C29.7655 63.3518 30.2483 62.9353 30.3792 62.3964C30.5882 61.5376 29.9584 60.5824 29.0825 60.4521C28.6121 60.3821 28.0747 60.5431 27.7344 60.8766C26.8246 61.7676 27.5892 63.3893 28.7872 63.515C28.9346 63.5305 29.0857 63.5178 29.2338 63.4817Z" fill="white"/>
<path d="M29.2338 63.4817C29.7655 63.3518 30.2483 62.9353 30.3792 62.3964C30.5882 61.5376 29.9584 60.5824 29.0825 60.4521C28.6121 60.3821 28.0747 60.5431 27.7344 60.8766C26.8246 61.7676 27.5892 63.3893 28.7872 63.515C28.9346 63.5305 29.0857 63.5178 29.2338 63.4817Z" fill="white"/>
<mask id="mask2_382_2253" style="mask-type:luminance" maskUnits="userSpaceOnUse" x="23" y="54" width="17" height="13">
<path d="M23.4551 54.2985H39.8005V66.4512H23.4551V54.2985Z" fill="white"/>
</mask>
<g mask="url(#mask2_382_2253)">
<g opacity="0.210007">
<path d="M39.802 57.6895C28.0214 57.0219 24.2976 65.3801 23.8704 66.4512C23.8439 66.3854 23.8224 66.3177 23.802 66.2499C22.9231 63.2965 23.7631 60.1038 25.8723 57.8876C28.3413 55.2947 32.6139 53.3271 36.117 54.8079C37.4996 55.3932 38.7678 56.414 39.802 57.6895Z" fill="#9A7279"/>
</g>
</g>
<path d="M51.9982 51.8724C51.9982 51.8724 49.2881 50.9616 48.5748 51.8837C47.8615 52.8059 50.7709 53.9961 52.8791 53.3892C52.8791 53.3892 54.9383 50.0229 53.4228 49.148C51.9073 48.2731 51.9982 51.8724 51.9982 51.8724Z" fill="#9A7279"/>
<path d="M72.5536 23.0925C72.5536 23.0925 72.5556 23.0966 72.5536 23.1038C72.5761 23.7919 72.5556 24.4809 72.4749 25.172C72.4769 25.1772 72.4729 25.1792 72.4708 25.1854C72.3134 26.5676 71.9282 27.9622 71.2671 29.328C66.778 38.5939 53.8555 28.5424 53.8555 28.5424C53.8555 28.5424 58.3834 24.9297 59.1487 20.0087C59.8365 15.5374 61.406 11.7902 63.7849 10.5538C64.0261 10.4275 64.2714 10.333 64.5289 10.259C66.7034 9.65007 72.2899 15.9215 72.5536 23.0925Z" fill="#FFBF6D"/>
<path d="M72.5591 23.0989C72.5591 23.0989 72.5601 23.1041 72.556 23.1102C72.5754 23.2181 72.6797 24.1146 72.4773 25.1754C72.4784 25.1805 72.4753 25.1867 72.4763 25.1918C72.3629 25.7854 72.0277 26.5165 71.5208 27.2077C70.6307 28.4318 69.2174 29.5316 67.5793 29.5583C63.5448 29.6168 67.1644 21.1252 66.3898 15.1855C66.1354 13.2384 65.4108 11.5686 63.7891 10.5602C64.0292 10.4349 64.2765 10.3404 64.533 10.2634C66.7066 9.65547 72.2944 15.9289 72.5591 23.0989Z" fill="#9A7279"/>
<path d="M69.1464 23.6863C69.1464 23.6863 71.1034 25.0224 71.5009 27.2077C70.6098 28.4318 69.1965 29.5316 67.5584 29.5583C63.5239 29.6168 67.1435 21.1252 66.3699 15.1855C67.2896 16.4558 68.3667 18.5106 68.2849 21.0913C68.2849 21.0913 69.5194 19.2428 70.0181 19.3958C70.4984 19.555 69.2486 22.0268 69.1771 22.1644C69.2506 22.0823 70.0937 21.1283 70.5434 21.4713C71.0114 21.8307 69.1464 23.6863 69.1464 23.6863Z" fill="white"/>
<path d="M19.8197 50.5088C19.6817 50.4882 19.5448 50.4667 19.4109 50.4369C9.61428 48.6049 7.34063 35.8689 9.54888 34.0256C9.58567 33.9938 9.62859 33.9589 9.67048 33.9291C11.9339 32.1884 16.2033 32.9781 20.584 35.109C25.0475 37.2727 30.5809 35.5763 30.5809 35.5763C30.5809 35.5763 29.9566 52.0564 19.8197 50.5088Z" fill="#FFBF6D"/>
<path d="M19.3908 50.4375C9.59169 48.6034 7.3159 35.8685 9.52629 34.0272C9.56308 33.9944 9.606 33.9605 9.64687 33.9297C9.83695 34.7091 10.2651 35.8079 11.2411 37.0197C12.2292 38.2376 13.7723 39.5675 16.1871 40.7895C20.6304 43.0323 20.985 46.4787 20.2543 48.7605C20.0397 49.4486 19.7219 50.0288 19.3908 50.4375Z" fill="#9A7279"/>
<path d="M20.2499 48.7607C14.236 49.0256 14.4179 43.2564 14.4179 43.2564C14.4179 43.2564 13.6106 44.3295 12.9851 43.7852C12.3894 43.2594 13.5288 42.4574 13.6269 42.3876C13.5605 42.3896 12.1962 42.4636 11.8559 42.0579C11.5044 41.641 12.9381 41.3093 12.9381 41.3093C11.2816 39.9435 11.1723 37.981 11.2356 37.0198C12.2248 38.2378 13.7669 39.5666 16.1817 40.7897C20.6249 43.0325 20.9795 46.4789 20.2499 48.7607Z" fill="white"/>
<path d="M80.1055 69.9668C80.6481 69.4595 81.1907 68.9522 81.7221 68.4336C82.2494 67.9129 82.7737 67.3841 83.255 66.8316L83.4665 66.5882L83.4921 66.9189C83.5238 67.3307 83.6188 67.7794 83.8467 68.0906C83.9601 68.2446 84.1103 68.3432 84.281 68.3607C84.3781 68.3781 84.423 68.3627 84.4629 68.334C84.5017 68.3011 84.5406 68.2323 84.563 68.144C84.6468 67.7794 84.5855 67.3276 84.5232 66.9076C84.4537 66.4814 84.3535 66.0501 84.236 65.6363L84.0827 65.0961L84.5569 65.4001C84.8676 65.5993 85.2068 65.7821 85.5461 65.9248C85.8793 66.0604 86.2615 66.1785 86.5323 66.1127C86.6007 66.0943 86.5834 66.086 86.5864 66.0932C86.5844 66.0881 86.5915 66.0275 86.5578 65.9567C86.5047 65.816 86.4076 65.6588 86.2982 65.512C86.0806 65.2173 85.8231 64.9297 85.5635 64.6638L85.3918 64.4882L85.5696 64.3228C86.4025 63.5475 87.1689 62.6684 87.8331 61.735C88.4851 60.7923 89.0462 59.7756 89.3272 58.6737L89.4621 58.1469L89.6481 58.6542C89.8116 59.1009 90.0333 59.5815 90.3716 59.8773C90.4145 59.9101 90.4584 59.942 90.5044 59.9625C90.5381 59.983 90.5289 59.9697 90.5259 59.9769C90.5238 59.9738 90.5289 59.9789 90.5433 59.9656C90.6005 59.9245 90.6649 59.8074 90.7119 59.7027C90.81 59.4829 90.8866 59.2416 90.9571 59.0013C91.233 58.0319 91.4078 57.0286 91.5866 56.0283C91.5018 57.0419 91.372 58.0514 91.1584 59.0537C91.1012 59.3042 91.0409 59.5548 90.9387 59.8023C90.8825 59.9255 90.8416 60.0508 90.7027 60.174C90.67 60.2059 90.6158 60.2316 90.5514 60.2428C90.486 60.2459 90.4135 60.2244 90.392 60.209C90.3225 60.1792 90.2612 60.1391 90.203 60.097C89.7625 59.7314 89.5387 59.2529 89.3333 58.7661L89.6532 58.7456C89.5275 59.334 89.3262 59.8999 89.0789 60.4421C88.8142 60.9761 88.5107 61.4865 88.1796 61.9773C87.5041 62.9508 86.7428 63.8463 85.8813 64.6699L85.8885 64.328C86.1746 64.6134 86.4393 64.903 86.6774 65.2378C86.7959 65.4042 86.9083 65.5798 86.9911 65.8036C87.0299 65.9115 87.0698 66.0522 87.0207 66.235C86.9584 66.429 86.7601 66.5348 86.6406 66.5543C86.1398 66.6488 85.7515 66.4742 85.3765 66.3305C85.0045 66.1682 84.6611 65.9772 84.3219 65.7544L84.6427 65.5171C84.7613 65.9577 84.8573 66.3941 84.9258 66.8439C84.9851 67.2958 85.0515 67.7476 84.9187 68.2498C84.8798 68.374 84.8175 68.5147 84.6806 68.6205C84.5416 68.7283 84.3474 68.7355 84.2309 68.7057C83.9601 68.6688 83.722 68.487 83.5851 68.2796C83.3092 67.8544 83.2427 67.3902 83.2202 66.925L83.4584 67.0123C82.9474 67.5669 82.3894 68.0619 81.8274 68.5486C81.2643 69.0364 80.692 69.5108 80.1055 69.9668Z" fill="#9A7279"/>
<path d="M30.5586 86.448C30.7906 86.905 31.0481 87.3476 31.327 87.7727C31.6111 88.1897 31.9259 88.6056 32.3193 88.887C32.5165 89.0297 32.7321 89.0995 32.9355 89.0451C33.1398 88.9989 33.2798 88.8171 33.3616 88.6025C33.523 88.1661 33.523 87.6413 33.476 87.1627L33.4168 86.5456L33.7948 87.0405C34.1259 87.4708 34.502 87.8816 34.8923 88.2605C35.2878 88.6271 35.717 88.9825 36.1911 89.1704C36.4262 89.2772 36.6663 89.3008 36.8931 89.2751C37.1312 89.2443 37.3233 89.1365 37.4388 88.9558C37.6769 88.5891 37.6432 87.9987 37.5236 87.5181L37.4388 87.1751L37.7842 87.2182C38.803 87.3466 39.8596 87.3763 40.9009 87.3445C41.9463 87.3127 42.9845 87.1884 44.0166 87.0251C45.0507 86.8639 46.0654 86.5938 47.0546 86.2529C48.0601 85.9417 48.9961 85.457 49.9291 84.9631C49.0523 85.5484 48.1255 86.0814 47.1353 86.4706C46.1492 86.8619 45.1273 87.1751 44.083 87.3835C43.0427 87.6074 41.981 87.7224 40.9183 87.7768C39.8525 87.8231 38.7938 87.8097 37.7178 87.6885L37.9794 87.3897C38.053 87.6947 38.0877 87.9822 38.0775 88.2924C38.0652 88.5963 38.006 88.9239 37.8118 89.2125C37.6207 89.5062 37.2723 89.6808 36.9585 89.7126C36.6356 89.7506 36.3025 89.6972 36.0297 89.5699C35.4666 89.3337 35.0252 88.9475 34.6103 88.5553C34.1995 88.1537 33.8419 87.7152 33.5087 87.2459L33.8275 87.1237C33.8551 87.6598 33.8419 88.1928 33.6293 88.7165C33.5251 88.9681 33.3084 89.2392 32.9968 89.2977C32.6984 89.3676 32.3857 89.2412 32.1885 89.0677C31.7695 88.7216 31.4875 88.28 31.2249 87.8374C30.9673 87.3907 30.7466 86.9255 30.5586 86.448Z" fill="#9A7279"/>
<path d="M75.6484 56.3921C77.1915 56.048 78.7489 55.8478 80.3094 55.6835C81.8719 55.5325 83.4374 55.4175 85.0173 55.4473C83.4752 55.7923 81.9179 55.9926 80.3564 56.1559C78.7949 56.3058 77.2283 56.4208 75.6484 56.3921Z" fill="#9A7279"/>
<path d="M84.5149 51.545C83.1496 52.232 81.7363 52.7835 80.3107 53.3011C78.8811 53.8053 77.4392 54.2756 75.9492 54.6094C77.3135 53.9213 78.7268 53.3699 80.1523 52.8533C81.583 52.3491 83.0249 51.8798 84.5149 51.545Z" fill="#9A7279"/>
<path d="M81.8766 47.4333C80.9508 48.6533 79.9228 49.7737 78.8692 50.8684C77.8064 51.9528 76.717 53.0126 75.5234 53.9707C76.4483 52.7497 77.4773 51.6303 78.5309 50.5356C79.5947 49.4512 80.6851 48.3924 81.8766 47.4333Z" fill="#9A7279"/>
<path d="M35.6448 79.0035C34.3562 80.0068 32.9919 80.8818 31.6082 81.7269C30.2164 82.5577 28.8072 83.3577 27.3203 84.0293C28.6079 83.025 29.9722 82.149 31.3569 81.3059C32.7487 80.4751 34.1589 79.6762 35.6448 79.0035Z" fill="#9A7279"/>
<path d="M25.3516 80.4922C26.7884 79.8452 28.2691 79.34 29.7601 78.8696C31.2562 78.4137 32.7624 77.9937 34.3137 77.7164C32.8769 78.3644 31.3962 78.8696 29.9042 79.339C28.4081 79.7939 26.9018 80.2139 25.3516 80.4922Z" fill="#9A7279"/>
<path d="M25.0117 75.4613C26.5855 75.5157 28.1367 75.716 29.6808 75.9522C31.2239 76.2038 32.7609 76.4923 34.2753 76.9277C32.7016 76.8754 31.1503 76.6751 29.6052 76.4369C28.0631 76.1853 26.5262 75.8967 25.0117 75.4613Z" fill="#9A7279"/>
<mask id="mask3_382_2253" style="mask-type:luminance" maskUnits="userSpaceOnUse" x="34" y="73" width="12" height="11">
<path d="M34.0234 73.4064H45.2174V83.877H34.0234V73.4064Z" fill="white"/>
</mask>
<g mask="url(#mask3_382_2253)">
<g opacity="0.479996">
<path d="M44.4541 79.5919C44.775 79.1133 45.0407 78.5896 45.1561 78.0238C45.5271 76.1989 44.1536 74.333 42.4062 73.7107C40.6587 73.0894 38.6915 73.4909 37.0207 74.3001C36.427 74.5877 35.8486 74.9317 35.3969 75.4144C34.8808 75.9668 34.5559 76.6744 34.3362 77.3994C34.0091 78.4777 33.8988 79.6463 34.1992 80.7318C34.3443 81.2576 34.5835 81.7546 34.8859 82.2085C37.4785 86.0903 42.6034 82.3523 44.4541 79.5919Z" fill="#FC5555"/>
</g>
</g>
<mask id="mask4_382_2253" style="mask-type:luminance" maskUnits="userSpaceOnUse" x="72" y="52" width="12" height="11">
<path d="M72.1699 52.1672H83.1534V62.915H72.1699V52.1672Z" fill="white"/>
</mask>
<g mask="url(#mask4_382_2253)">
<g opacity="0.479996">
<path d="M72.7225 57.1274C72.4517 57.6357 72.2402 58.1851 72.1829 58.7592C71.998 60.6128 73.5533 62.3287 75.3539 62.7693C77.1556 63.2098 79.0727 62.6081 80.6525 61.6335C81.2136 61.2864 81.7552 60.8849 82.1547 60.3591C82.6125 59.7563 82.865 59.019 83.0101 58.2755C83.2267 57.1705 83.2175 55.9967 82.8088 54.9472C82.6115 54.4389 82.3233 53.9675 81.9769 53.5485C79.0052 49.9512 74.285 54.1934 72.7225 57.1274Z" fill="#FC5555"/>
</g>
</g>
<path d="M47.9692 26.4332C48.4914 30.6672 49.0391 36.2219 48.707 38.0765C48.4914 39.2985 48.0765 40.6664 46.9534 41.1614C46.1758 41.5054 45.2571 41.3144 44.5325 40.8656C43.8162 40.422 43.2613 39.7545 42.7268 39.0901C41.3646 37.3998 39.0939 33.5036 37.1094 30.1692C40.6636 28.5405 44.1381 27.417 47.9692 26.4332Z" fill="#9A7279"/>
<path d="M56.236 24.6635C56.1052 25.4398 55.9396 26.2039 55.7455 26.9617C55.5299 27.8038 55.2642 28.6572 54.6898 29.3144C54.3608 29.6821 53.9326 29.986 53.4411 30.0446C52.6767 30.1247 51.9429 29.605 51.5608 28.9386C51.1203 28.193 50.7647 26.934 50.6758 25.7469C51.105 25.6504 51.5342 25.5528 51.9634 25.4552C53.3644 25.1359 54.789 24.8658 56.236 24.6635Z" fill="#9A7279"/>
<path d="M34.6891 31.316C34.9292 32.001 35.0621 32.7373 35.1438 33.452C35.2358 34.1842 35.3053 34.9349 35.155 35.6558C35.0058 36.3767 34.6145 37.0853 33.9819 37.456C32.9385 38.066 31.6049 37.6224 30.5544 37.0216C29.8973 36.6375 28.7834 36.0183 28.0078 35.2543C28.9163 34.635 29.8278 34.061 30.721 33.5178C32.0811 32.6952 33.3902 31.9712 34.6891 31.316Z" fill="#9A7279"/>
<path d="M20.3664 66.0168C20.3255 66.4255 20.0884 66.787 19.8299 67.1115C18.5464 68.7433 15.9783 70.3874 13.4378 70.9512C13.2733 70.5425 13.118 70.1173 12.9831 69.6952C12.373 67.8406 11.9612 65.8946 11.7578 63.928C11.9918 63.9352 12.2197 63.9496 12.4537 63.9568C14.1286 64.0287 15.7954 64.0964 17.4621 64.1642C18.1049 64.1909 18.7681 64.2207 19.3486 64.5021C19.9341 64.7752 20.4134 65.3729 20.3664 66.0168Z" fill="#9A7279"/>
<path d="M15.029 59.6225C14.0664 60.4143 12.835 60.6884 11.6016 60.8086C11.6077 59.3339 11.7334 57.8593 11.9919 56.4134C12.8084 56.5941 13.6117 56.9186 14.3433 57.2852C15.305 57.7535 16.0816 58.7568 15.029 59.6225Z" fill="#9A7279"/>
<path d="M19.9539 72.4084C20.2461 72.6159 20.335 73.0421 20.2471 73.3881C20.1552 73.7424 19.9232 74.0413 19.6871 74.3154C18.8062 75.3557 17.7619 76.2265 16.5989 76.9238C15.7415 75.7059 14.9853 74.4109 14.3477 73.0503C14.4488 73.0266 14.5418 72.9989 14.643 72.9763C16.1411 72.622 17.6576 72.2575 19.2007 72.2462C19.4603 72.2472 19.7341 72.2585 19.9539 72.4084Z" fill="#9A7279"/>
<path d="M88.4343 37.2589C89.4409 38.9297 90.2676 40.7145 90.9022 42.563C91.1291 43.2182 91.3284 43.8662 91.4898 44.5224C87.3695 45.5524 82.9599 45.616 82.8915 43.0713C82.8761 42.6482 83.0693 42.1841 83.3084 41.7702C84.0493 40.4691 85.0825 39.4278 86.2566 38.5734C86.9474 38.0774 87.6853 37.643 88.4343 37.2589Z" fill="#9A7279"/>
<path d="M85.0104 32.6999C85.7145 33.4403 86.3634 34.2321 86.9724 35.0536C86.3634 35.3514 85.7441 35.6328 85.1207 35.9008C84.7212 36.0713 84.3093 36.2459 83.8709 36.2715C83.689 36.2869 83.4898 36.2582 83.3324 36.1473C82.9553 35.8864 83.0493 35.3052 83.2476 34.8872C83.6553 34.0144 84.3022 33.3273 85.0104 32.6999Z" fill="#9A7279"/>
<path d="M43.4261 53.0312L42.5391 52.6236C42.5707 52.5548 45.7622 45.7596 54.8193 46.5863L54.7304 47.5629C46.3937 46.7999 43.5436 52.7766 43.4261 53.0312Z" fill="#EA5D80"/>
<path d="M120.126 91.9335C120.126 91.9335 119.55 93.7758 118.026 96.4212C116.907 98.3703 115.266 100.748 112.964 103.147C112.964 103.158 112.953 103.168 112.943 103.179C112.133 104.004 111.259 104.839 110.299 105.642C108.573 107.121 106.569 108.534 104.257 109.787C104.236 109.798 104.225 109.808 104.214 109.819C103.852 110.012 103.479 110.205 103.106 110.398C101.774 111.061 100.58 111.779 99.4931 112.529C94.2815 116.073 91.5859 120.261 88.697 123.163C86.3743 125.509 86.4397 125.259 81.1373 126.621C81.2098 127.004 79.6382 127.011 79.628 127.001C79.255 126.979 78.4201 127.045 78.0155 126.98C68.6153 125.481 65.3372 113.257 80.3423 99.998C80.3954 99.9548 80.4485 99.9014 80.5017 99.8696C83.2832 97.4276 86.7044 94.9537 90.8501 92.4799C90.8716 92.4696 90.9993 92.448 91.2231 92.4367C91.2343 92.4265 91.2343 92.4367 91.2343 92.4367C93.1095 92.3186 101.348 92.1903 108.552 92.0835C114.722 91.9982 120.126 91.9335 120.126 91.9335Z" fill="#FFBF6D"/>
<path d="M120.489 71.6063C121.958 74.0904 122.7 76.974 122.859 79.8628C123.03 82.7618 122.598 85.6762 121.817 88.4653C121.024 91.2596 119.859 93.9388 118.433 96.463C117.663 97.6922 116.915 98.9307 116.096 100.136C115.237 101.317 114.272 102.418 113.228 103.436L113.351 103.148C113.359 103.258 113.249 103.442 113.207 103.468L113.174 103.496L113.11 103.554L112.979 103.669L112.72 103.898L112.199 104.356L111.154 105.268C110.477 105.907 109.708 106.406 108.966 106.946L104.491 110.152L104.442 110.181C104.47 110.17 104.496 110.152 104.514 110.13L104.447 110.185L101.377 112.336C100.347 113.045 99.3331 113.773 98.3766 114.564C97.414 115.347 96.4882 116.172 95.6186 117.05C94.7612 117.928 93.9212 118.884 93.0527 119.794C91.3226 121.629 89.4536 123.411 87.2219 124.726C84.9799 126.003 82.5387 126.892 79.9462 127.141L80.2272 127.01L80.2057 127.03C80.1812 127.03 80.1751 127.119 79.8951 127.152C79.6151 127.119 79.609 127.03 79.5855 127.03L79.564 127.01L79.9258 127.141C78.3674 127.253 76.757 127.105 75.2773 126.503C73.7976 125.912 72.507 124.848 71.6241 123.526C70.731 122.204 70.2211 120.67 69.9901 119.122C69.7766 117.565 69.8706 115.997 70.1118 114.47C70.2517 113.708 70.4091 112.951 70.6431 112.215C70.8322 111.469 71.1275 110.738 71.4443 110.034C72.1034 108.631 72.9515 107.339 73.8845 106.126C75.7903 103.71 77.9648 101.625 80.3774 99.6773L80.3498 99.6978C83.7547 96.9559 87.3966 94.5334 91.199 92.4108L91.1929 92.4159C91.1929 92.4159 91.198 92.4097 91.2102 92.4046C91.2348 92.3923 91.2623 92.4323 91.2532 92.4364L91.2092 92.4118L92.5989 91.6549L91.2388 92.4621L91.1949 92.4375C91.1867 92.4364 91.2102 92.4703 91.2286 92.4611C91.2368 92.458 91.2348 92.458 91.2348 92.458L91.2276 92.4631C87.5152 94.7285 83.9325 97.2178 80.6349 100.042L80.6073 100.062C78.3756 101.98 76.1673 104.121 74.374 106.503C73.4819 107.703 72.6817 108.972 72.0737 110.323C71.7825 111.006 71.5178 111.688 71.3462 112.417C71.1316 113.132 70.9936 113.861 70.872 114.593C70.6625 116.06 70.6125 117.548 70.8128 119.003C71.0365 120.448 71.5189 121.855 72.3302 123.04C73.1355 124.227 74.281 125.159 75.6063 125.681C76.9317 126.212 78.3981 126.344 79.844 126.234L80.0361 126.219L80.2057 126.365C80.2057 126.365 80.2078 126.367 80.1935 126.354C80.1741 126.357 80.171 126.272 79.8951 126.24C79.6202 126.272 79.6172 126.357 79.5967 126.354C79.5834 126.367 79.5855 126.365 79.5855 126.365L79.7204 126.248L79.8665 126.234C82.2658 125.995 84.6437 125.118 86.7396 123.903C88.8364 122.653 90.6349 120.922 92.3598 119.128C93.2294 118.227 94.0531 117.298 94.9554 116.384C95.8577 115.483 96.8131 114.641 97.8013 113.846C98.7864 113.042 99.8154 112.312 100.856 111.604L103.962 109.454L103.896 109.508C103.942 109.465 103.996 109.426 104.051 109.394L104.003 109.423L108.456 106.27C109.194 105.739 109.965 105.244 110.624 104.628L111.652 103.746L112.168 103.307L112.426 103.088L112.555 102.978L112.619 102.923L112.652 102.896C112.63 102.901 112.533 103.06 112.557 103.146L112.681 102.858C113.711 101.887 114.665 100.836 115.516 99.704C116.333 98.5456 117.094 97.3308 117.871 96.1364C119.316 93.6759 120.507 91.0583 121.334 88.3226C122.158 85.591 122.677 82.7412 122.583 79.8751C122.497 77.0202 121.855 74.1459 120.489 71.6063Z" fill="#9A7279"/>
<path d="M47.4752 61.131C55.923 65.9679 55.3877 58.0443 52.7286 53.5816" stroke="#9A7279" stroke-width="0.981185" stroke-linecap="round"/>
<path d="M61.9444 54.5334C59.5086 64.0494 54.209 58.0602 52.8705 52.9858" stroke="#9A7279" stroke-width="0.981185" stroke-linecap="round"/>
<path d="M32.8489 48.6146C25.2094 48.6146 18.9944 54.8604 18.9944 62.5377C18.9944 70.2149 25.2094 76.4607 32.8489 76.4607C40.4883 76.4607 46.7033 70.2149 46.7033 62.5377C46.7033 54.8604 40.4883 48.6146 32.8489 48.6146ZM32.8489 77.4414C24.6719 77.4414 18.0195 70.7551 18.0195 62.5377C18.0195 54.3202 24.6719 47.6349 32.8489 47.6349C41.0258 47.6349 47.6782 54.3202 47.6782 62.5377C47.6782 70.7551 41.0258 77.4414 32.8489 77.4414Z" fill="#EA5D80"/>
<path d="M69.0383 32.3949C61.3988 32.3949 55.1838 38.6407 55.1838 46.318C55.1838 53.9953 61.3988 60.241 69.0383 60.241C76.6778 60.241 82.8938 53.9953 82.8938 46.318C82.8938 38.6407 76.6778 32.3949 69.0383 32.3949ZM69.0383 61.2207C60.8613 61.2207 54.209 54.5354 54.209 46.318C54.209 38.1005 60.8613 31.4152 69.0383 31.4152C77.2153 31.4152 83.8687 38.1005 83.8687 46.318C83.8687 54.5354 77.2153 61.2207 69.0383 61.2207Z" fill="#EA5D80"/>
</g>
<defs>
<clipPath id="clip0_382_2253">
<rect width="100" height="100" rx="50" fill="white"/>
</clipPath>
</defs>
</svg>
